<svg xmlns="http://www.w3.org/2000/svg" xmlns:xlink="http://www.w3.org/1999/xlink" viewBox="0 0 230.68 178.03"><defs><style>.cls-1{fill:none;}.cls-2{isolation:isolate;}.cls-3{clip-path:url(#clip-path);}.cls-4{fill:#fff;}</style><clipPath id="clip-path" transform="translate(-0.48 -0.02)"><polygon class="cls-1" points="0 149.95 38.08 0.14 236.79 0 209.91 181.25 0 149.95"/></clipPath></defs><title>40-voucher</title><g id="Layer_2" data-name="Layer 2"><g id="Layer_1-2" data-name="Layer 1"><g class="cls-2"><g class="cls-3"><polyline class="cls-4" points="11.39 134 4.23 133.05 0 149.72 1.34 149.91 3.31 142.14 8.67 142.9 9.04 141.44 3.68 140.69 5.21 134.67 11.02 135.45 11.39 134"/><path class="cls-4" d="M12.31,150.35a1.79,1.79,0,0,1-.75-.27,1.18,1.18,0,0,1-.43-.51,1.76,1.76,0,0,1-.13-.72,3.76,3.76,0,0,1,.12-.89,3.29,3.29,0,0,1,.54-1.21,2,2,0,0,1,.83-.65,3,3,0,0,1,1.08-.21,7.69,7.69,0,0,1,1.3.09l1.73.25a8.19,8.19,0,0,1-.82,2.06,4.87,4.87,0,0,1-1.08,1.31,3.35,3.35,0,0,1-1.21.65,2.79,2.79,0,0,1-1.19.09m3.59-11.13a6,6,0,0,0-1-.06,4.42,4.42,0,0,0-1,.15,4.14,4.14,0,0,0-.95.39,5,5,0,0,0-.91.67l.51,1.1a4.92,4.92,0,0,1,.72-.52,3.19,3.19,0,0,1,.71-.31,3.05,3.05,0,0,1,.73-.12,4.46,4.46,0,0,1,.81,0,3.26,3.26,0,0,1,1.1.32,1.39,1.39,0,0,1,.62.64,2.28,2.28,0,0,1,.17,1.06,7.84,7.84,0,0,1-.25,1.56l-.2.81-1.6-.23a10.64,10.64,0,0,0-1.12-.1,6.9,6.9,0,0,0-1,0,4.77,4.77,0,0,0-.9.19,3.74,3.74,0,0,0-.8.35,3.58,3.58,0,0,0-.61.46,3.47,3.47,0,0,0-.5.58A4.18,4.18,0,0,0,10,147a6.34,6.34,0,0,0-.43,1.66,4.06,4.06,0,0,0,0,.7,2.93,2.93,0,0,0,.1.62,2.37,2.37,0,0,0,.23.54,1.93,1.93,0,0,0,.31.44,2.17,2.17,0,0,0,.43.35,2.71,2.71,0,0,0,.54.26,3.55,3.55,0,0,0,.65.16,3.8,3.8,0,0,0,1.09,0,3.64,3.64,0,0,0,1.06-.32,4,4,0,0,0,1-.67,5.12,5.12,0,0,0,.86-1l-.54,2.27,1.26.19,2-8a8.11,8.11,0,0,0,.28-2.09,3.14,3.14,0,0,0-.35-1.47,2.33,2.33,0,0,0-1-.93,4.55,4.55,0,0,0-1.55-.46" transform="translate(-0.48 -0.02)"/><path class="cls-4" d="M27,140.68a5.3,5.3,0,0,0-1,0,4,4,0,0,0-.91.16,3.75,3.75,0,0,0-.8.34,4.26,4.26,0,0,0-.7.51,5,5,0,0,0-.84.93,7.75,7.75,0,0,0-.68,1.18,12.28,12.28,0,0,0-.54,1.36c-.16.48-.3,1-.42,1.48s-.23,1-.3,1.49a10.82,10.82,0,0,0-.13,1.34,6.56,6.56,0,0,0,.07,1.18,4.07,4.07,0,0,0,.28,1,3.09,3.09,0,0,0,.38.66,2.71,2.71,0,0,0,.54.53,3,3,0,0,0,.71.39,4.14,4.14,0,0,0,.9.23,4.8,4.8,0,0,0,1.17,0,4.55,4.55,0,0,0,1.12-.25,4.81,4.81,0,0,0,1.05-.54,5.62,5.62,0,0,0,1-.83l-.61-1.1a5.55,5.55,0,0,1-.8.66,4.1,4.1,0,0,1-.82.43,3.4,3.4,0,0,1-.84.2,3.33,3.33,0,0,1-.85,0,2.12,2.12,0,0,1-1.17-.51,2,2,0,0,1-.56-1.07,5.36,5.36,0,0,1,0-1.62,16.82,16.82,0,0,1,.4-2.16,16.51,16.51,0,0,1,.65-2.13A5.52,5.52,0,0,1,24,143a2.55,2.55,0,0,1,1.11-.81,3.12,3.12,0,0,1,1.51-.12,3.7,3.7,0,0,1,.66.15,2.57,2.57,0,0,1,.58.27,2.42,2.42,0,0,1,.5.43,3.16,3.16,0,0,1,.42.61l1.06-1a3.57,3.57,0,0,0-.53-.79,3.06,3.06,0,0,0-.66-.56,3.52,3.52,0,0,0-.78-.36,5.12,5.12,0,0,0-.88-.19" transform="translate(-0.48 -0.02)"/><path class="cls-4" d="M32.56,146.76a9.37,9.37,0,0,1,.58-1.49,4.31,4.31,0,0,1,.79-1.12A2.61,2.61,0,0,1,35,143.5a3.15,3.15,0,0,1,1.4-.09,2.69,2.69,0,0,1,1.24.45,1.72,1.72,0,0,1,.63.87,3.28,3.28,0,0,1,.12,1.24,9,9,0,0,1-.26,1.55l-5.55-.76M36.72,142a4.85,4.85,0,0,0-1.05,0,4.15,4.15,0,0,0-.94.19,4.1,4.1,0,0,0-.83.37,4.59,4.59,0,0,0-.72.53,5.43,5.43,0,0,0-.85,1,8.27,8.27,0,0,0-.69,1.21,12.61,12.61,0,0,0-.54,1.38c-.16.48-.3,1-.42,1.49a16.47,16.47,0,0,0-.31,1.65,9,9,0,0,0-.09,1.37,5.25,5.25,0,0,0,.14,1.14,3.72,3.72,0,0,0,.36.94,3.16,3.16,0,0,0,.46.63,3.06,3.06,0,0,0,.61.5,3.75,3.75,0,0,0,.77.36,5.43,5.43,0,0,0,.95.22,5.76,5.76,0,0,0,1.24.06,4.83,4.83,0,0,0,1.14-.21,5.53,5.53,0,0,0,1.09-.48,8.27,8.27,0,0,0,1.08-.75l-.57-1.17a5.8,5.8,0,0,1-.85.58,4.6,4.6,0,0,1-.88.38,4.13,4.13,0,0,1-.92.18,4.32,4.32,0,0,1-1,0,2.77,2.77,0,0,1-1.43-.58,2.05,2.05,0,0,1-.66-1.13,5,5,0,0,1-.06-1.62,16,16,0,0,1,.37-2l7,.95.11-.33.11-.37.1-.36.07-.29a8.56,8.56,0,0,0,.25-2,4.56,4.56,0,0,0-.33-1.73,3,3,0,0,0-1-1.27,3.9,3.9,0,0,0-1.78-.66" transform="translate(-0.48 -0.02)"/><path class="cls-4" d="M46.07,155.29a3,3,0,0,1-.64-.16,2.39,2.39,0,0,1-.54-.28,2.33,2.33,0,0,1-.44-.41,2.85,2.85,0,0,1-.35-.53,3.65,3.65,0,0,1-.26-.74,4.64,4.64,0,0,1-.12-.87,6.62,6.62,0,0,1,0-1,10,10,0,0,1,.21-1.19,11,11,0,0,1,.35-1.19,8.68,8.68,0,0,1,.47-1.08,6.68,6.68,0,0,1,.59-.95,5.2,5.2,0,0,1,.72-.78,4,4,0,0,1,.6-.45,3.34,3.34,0,0,1,.64-.3,3,3,0,0,1,.67-.15,2.85,2.85,0,0,1,.69,0,2,2,0,0,1,1.24.6,2.35,2.35,0,0,1,.55,1.21,6,6,0,0,1,0,1.63,14.9,14.9,0,0,1-.32,1.86,15.52,15.52,0,0,1-.59,2,6.85,6.85,0,0,1-.83,1.61,3.11,3.11,0,0,1-1.15,1,2.6,2.6,0,0,1-1.54.21m1-18.56-1.4-.18L41.22,155.8l1.32.2.49-2a4,4,0,0,0,.41,1.16,3,3,0,0,0,.66.82,3.13,3.13,0,0,0,.85.52,4.11,4.11,0,0,0,1,.27,3.79,3.79,0,0,0,2.25-.3,4.54,4.54,0,0,0,1.64-1.41A9,9,0,0,0,51,152.94a17,17,0,0,0,.72-2.4,16,16,0,0,0,.37-2.31,7.23,7.23,0,0,0-.11-2.1,3.18,3.18,0,0,0-.82-1.6,3,3,0,0,0-1.78-.81,4.22,4.22,0,0,0-1.23,0,4.14,4.14,0,0,0-1.17.37,4.53,4.53,0,0,0-1.06.72,5.48,5.48,0,0,0-.91,1.08l2.13-9.18" transform="translate(-0.48 -0.02)"/><path class="cls-4" d="M58,157a3.69,3.69,0,0,1-.78-.2,2.57,2.57,0,0,1-.59-.31,2.09,2.09,0,0,1-.69-.83,3,3,0,0,1-.22-.77,5.37,5.37,0,0,1-.05-1,9.58,9.58,0,0,1,.1-1.12q.09-.6.24-1.27c.09-.4.19-.8.31-1.2a11.45,11.45,0,0,1,.4-1.13,7.05,7.05,0,0,1,.51-1,4.07,4.07,0,0,1,.62-.78,2.93,2.93,0,0,1,.43-.35,2.67,2.67,0,0,1,.56-.28,2.92,2.92,0,0,1,.72-.16,3.86,3.86,0,0,1,.89,0,3.76,3.76,0,0,1,.79.19,2.52,2.52,0,0,1,.59.3,2.06,2.06,0,0,1,.41.38,2.13,2.13,0,0,1,.27.43,2.9,2.9,0,0,1,.23.8,5.47,5.47,0,0,1,.05,1,9.85,9.85,0,0,1-.1,1.13c-.06.4-.14.81-.23,1.25s-.19.81-.31,1.21a11.3,11.3,0,0,1-.4,1.13,7,7,0,0,1-.51,1,4.09,4.09,0,0,1-.62.78,3,3,0,0,1-.44.35,2.7,2.7,0,0,1-.57.28,2.91,2.91,0,0,1-.72.16,3.8,3.8,0,0,1-.9,0m2.83-11.76a5.71,5.71,0,0,0-1.15,0,4.49,4.49,0,0,0-1,.18,4.25,4.25,0,0,0-.9.4,4.88,4.88,0,0,0-.8.59,6,6,0,0,0-.86,1,7.33,7.33,0,0,0-.67,1.15,11,11,0,0,0-.52,1.35c-.15.48-.29,1-.42,1.56s-.21,1-.28,1.45a9.59,9.59,0,0,0-.1,1.31,5.92,5.92,0,0,0,.11,1.18,4.58,4.58,0,0,0,.35,1.08,3.65,3.65,0,0,0,.47.73,3.26,3.26,0,0,0,.65.6,3.78,3.78,0,0,0,.86.44,5.44,5.44,0,0,0,1.1.27,5.65,5.65,0,0,0,1.18.06,4.35,4.35,0,0,0,1-.19,4.25,4.25,0,0,0,.92-.41,5.3,5.3,0,0,0,.83-.61,6.14,6.14,0,0,0,.85-1,7.31,7.31,0,0,0,.66-1.15,10.85,10.85,0,0,0,.52-1.35c.15-.49.29-1,.41-1.57s.2-1,.27-1.44a10.07,10.07,0,0,0,.11-1.32,6,6,0,0,0-.1-1.2,4.1,4.1,0,0,0-.36-1.07,3.58,3.58,0,0,0-.48-.73,3.3,3.3,0,0,0-.66-.59,3.84,3.84,0,0,0-.87-.43,5.44,5.44,0,0,0-1.1-.26" transform="translate(-0.48 -0.02)"/><path class="cls-4" d="M70.47,158.89a3.81,3.81,0,0,1-.8-.2,2.66,2.66,0,0,1-.6-.32,2.21,2.21,0,0,1-.43-.4,2.25,2.25,0,0,1-.28-.44,3,3,0,0,1-.23-.78,5.4,5.4,0,0,1-.06-1,9.59,9.59,0,0,1,.09-1.14q.08-.61.23-1.29c.09-.41.19-.81.31-1.21a11.42,11.42,0,0,1,.4-1.14,7,7,0,0,1,.51-1,4.07,4.07,0,0,1,.63-.79,3,3,0,0,1,.44-.35,2.71,2.71,0,0,1,.57-.29,3,3,0,0,1,.73-.16,4,4,0,0,1,.91,0,3.9,3.9,0,0,1,.81.2,2.62,2.62,0,0,1,.6.31,2.13,2.13,0,0,1,.42.39,2.19,2.19,0,0,1,.28.44,3,3,0,0,1,.24.81,5.5,5.5,0,0,1,.06,1,9.86,9.86,0,0,1-.09,1.14c-.05.4-.13.82-.23,1.26s-.19.82-.31,1.22a11.26,11.26,0,0,1-.4,1.14,7,7,0,0,1-.51,1,4.09,4.09,0,0,1-.63.79,3,3,0,0,1-.44.35,2.74,2.74,0,0,1-.58.29,3,3,0,0,1-.74.16,3.93,3.93,0,0,1-.92,0M73.26,147a5.88,5.88,0,0,0-1.18,0,4.63,4.63,0,0,0-1,.19,4.34,4.34,0,0,0-.92.4,4.89,4.89,0,0,0-.82.6,6,6,0,0,0-.87,1,7.31,7.31,0,0,0-.67,1.17,11,11,0,0,0-.52,1.37c-.15.49-.29,1-.41,1.58s-.21,1-.27,1.47a9.61,9.61,0,0,0-.1,1.32,6,6,0,0,0,.12,1.2,4.65,4.65,0,0,0,.37,1.09,3.72,3.72,0,0,0,.48.74,3.39,3.39,0,0,0,.67.61,3.94,3.94,0,0,0,.88.45,5.62,5.62,0,0,0,1.12.28,5.88,5.88,0,0,0,1.21.06,4.46,4.46,0,0,0,1.06-.19,4.28,4.28,0,0,0,.93-.41,5.26,5.26,0,0,0,.84-.62,6.15,6.15,0,0,0,.86-1,7.3,7.3,0,0,0,.67-1.16,10.83,10.83,0,0,0,.52-1.37c.15-.49.29-1,.41-1.59s.2-1,.26-1.45a10.08,10.08,0,0,0,.1-1.34,6,6,0,0,0-.12-1.22,4.16,4.16,0,0,0-.38-1.08,3.68,3.68,0,0,0-.49-.74,3.41,3.41,0,0,0-.68-.6,4,4,0,0,0-.89-.44,5.65,5.65,0,0,0-1.13-.27" transform="translate(-0.48 -0.02)"/><polyline class="cls-4" points="84.01 141.56 82.5 141.36 78.22 161.36 79.74 161.58 80.99 155.7 82.02 155.85 85.14 162.39 87.2 162.69 83.44 155.16 89.5 149.53 87.59 149.27 82.39 154.23 81.34 154.08 84.01 141.56"/><path class="cls-4" d="M98.38,156.06a9.24,9.24,0,0,1,.58-1.59,4.29,4.29,0,0,1,.83-1.19,2.77,2.77,0,0,1,1.16-.69,3.68,3.68,0,0,1,1.57-.09,3.28,3.28,0,0,1,1.42.49,2,2,0,0,1,.75.94,3.42,3.42,0,0,1,.2,1.33,9,9,0,0,1-.22,1.66l-6.29-.86m4.44-5.06a5.76,5.76,0,0,0-1.19,0,4.73,4.73,0,0,0-1,.19,4.46,4.46,0,0,0-.91.39,4.78,4.78,0,0,0-.78.56,5.51,5.51,0,0,0-.91,1,8.25,8.25,0,0,0-.71,1.29,12.45,12.45,0,0,0-.54,1.48c-.16.52-.29,1-.4,1.59a16.43,16.43,0,0,0-.27,1.76,9.09,9.09,0,0,0,0,1.47,5.5,5.5,0,0,0,.21,1.22,4.1,4.1,0,0,0,.46,1A3.63,3.63,0,0,0,98,164.18a4.58,4.58,0,0,0,.89.39,6.59,6.59,0,0,0,1.08.25,6.85,6.85,0,0,0,1.4.07,5.53,5.53,0,0,0,1.27-.22,6,6,0,0,0,1.2-.51,8.66,8.66,0,0,0,1.18-.79l-.7-1.26a6.07,6.07,0,0,1-.92.62,5,5,0,0,1-1,.4,4.72,4.72,0,0,1-1,.18,5.14,5.14,0,0,1-1.08,0,3.38,3.38,0,0,1-1.64-.63,2.33,2.33,0,0,1-.79-1.22,5.11,5.11,0,0,1-.14-1.73A16,16,0,0,1,98,157.5l7.95,1.08.11-.36.1-.39.09-.38.07-.31a8.6,8.6,0,0,0,.18-2.17,4.84,4.84,0,0,0-.45-1.86,3.46,3.46,0,0,0-1.19-1.37,4.76,4.76,0,0,0-2-.72" transform="translate(-0.48 -0.02)"/><polyline class="cls-4" points="118.74 153.52 116.85 153.26 112.86 158.12 110.92 152.45 109.03 152.2 111.53 159.14 106.02 165.5 107.89 165.77 112.35 160.53 114.52 166.76 116.44 167.05 113.71 159.45 118.74 153.52"/><path class="cls-4" d="M126.69,154.26a6.87,6.87,0,0,0-1.25-.06,5,5,0,0,0-1.07.16,4.28,4.28,0,0,0-.92.37,4.55,4.55,0,0,0-.8.55,5,5,0,0,0-.93,1,7.6,7.6,0,0,0-.72,1.3,12,12,0,0,0-.54,1.5c-.15.53-.28,1.07-.39,1.63s-.19,1.13-.24,1.65a11,11,0,0,0,0,1.49,6.93,6.93,0,0,0,.17,1.31,4.59,4.59,0,0,0,.41,1.11,3.77,3.77,0,0,0,.51.74,3.54,3.54,0,0,0,.68.6,4.07,4.07,0,0,0,.88.44,5.54,5.54,0,0,0,1.09.27,6.23,6.23,0,0,0,1.39.05,5.53,5.53,0,0,0,1.32-.26,5.36,5.36,0,0,0,1.22-.58,5.77,5.77,0,0,0,1.08-.91l-.81-1.23a5.83,5.83,0,0,1-.91.72,4.59,4.59,0,0,1-.95.46,4.1,4.1,0,0,1-1,.21,4.27,4.27,0,0,1-1,0,2.87,2.87,0,0,1-1.44-.58,2.35,2.35,0,0,1-.75-1.2,5.59,5.59,0,0,1-.16-1.8,16.77,16.77,0,0,1,.31-2.39,16.23,16.23,0,0,1,.61-2.36,5.41,5.41,0,0,1,.87-1.63,2.72,2.72,0,0,1,1.26-.88,3.92,3.92,0,0,1,1.79-.11,5,5,0,0,1,.8.17,3.49,3.49,0,0,1,.71.31,3.18,3.18,0,0,1,.63.48,3.86,3.86,0,0,1,.55.68l1.19-1.08a4.37,4.37,0,0,0-.7-.89,4,4,0,0,0-.84-.62,4.78,4.78,0,0,0-1-.4,6.85,6.85,0,0,0-1.07-.23" transform="translate(-0.48 -0.02)"/><polyline class="cls-4" points="136.93 148.42 135.26 148.21 131.32 169.26 133 169.51 136.93 148.42"/><path class="cls-4" d="M150.32,157.79l-1.7-.23-.88,4.91a17,17,0,0,1-1,3.48,8,8,0,0,1-1.33,2.23,4.06,4.06,0,0,1-1.54,1.13,3.12,3.12,0,0,1-1.61.18,2.29,2.29,0,0,1-1.06-.41,1.72,1.72,0,0,1-.57-.77,3,3,0,0,1-.18-1.05,6.66,6.66,0,0,1,.12-1.26l1.71-9.31-1.69-.23-1.77,9.63a6.89,6.89,0,0,0-.11,1.93,3.75,3.75,0,0,0,.45,1.5,2.88,2.88,0,0,0,1,1,4,4,0,0,0,1.52.53,4.72,4.72,0,0,0,1.61,0,4.29,4.29,0,0,0,1.43-.56,4.86,4.86,0,0,0,1.2-1,6.37,6.37,0,0,0,.91-1.5l-.63,3.49,1.63.24,2.49-13.88" transform="translate(-0.48 -0.02)"/><path class="cls-4" d="M158.46,158.64a7,7,0,0,0-1.82,0,4.59,4.59,0,0,0-1.57.48,3.39,3.39,0,0,0-1.18,1,3.87,3.87,0,0,0-.65,1.61,3.29,3.29,0,0,0,.62,2.77,7.38,7.38,0,0,0,2.16,1.67,13.39,13.39,0,0,1,2.22,1.42,2.09,2.09,0,0,1,.77,2,2.62,2.62,0,0,1-.43,1.09,2,2,0,0,1-.75.63,2.8,2.8,0,0,1-1,.25,5.11,5.11,0,0,1-1.15-.05,6.06,6.06,0,0,1-1-.22,4.51,4.51,0,0,1-.85-.37,3.75,3.75,0,0,1-.72-.53,3.69,3.69,0,0,1-.58-.7l-1.18,1.1a3.57,3.57,0,0,0,.69.87,4.61,4.61,0,0,0,.93.66,6.15,6.15,0,0,0,1.09.46,7.61,7.61,0,0,0,1.18.27,7.26,7.26,0,0,0,1.8.05,5,5,0,0,0,1.67-.45,3.59,3.59,0,0,0,1.32-1.07,4.09,4.09,0,0,0,.74-1.8,3.6,3.6,0,0,0-.62-2.92,7.18,7.18,0,0,0-2.17-1.75,16.53,16.53,0,0,1-2.22-1.4,1.89,1.89,0,0,1-.79-1.86,2.31,2.31,0,0,1,.36-.93,1.78,1.78,0,0,1,.65-.57,2.5,2.5,0,0,1,.89-.25,4.53,4.53,0,0,1,1.08,0,5.66,5.66,0,0,1,.81.17,4.4,4.4,0,0,1,.74.29,4,4,0,0,1,.68.43,4.41,4.41,0,0,1,.62.59l1.15-1.12a3.83,3.83,0,0,0-.68-.73,4.4,4.4,0,0,0-.84-.54,5.61,5.61,0,0,0-1-.37,7.37,7.37,0,0,0-1-.22" transform="translate(-0.48 -0.02)"/><path class="cls-4" d="M167.84,160.18l-1.76-.24L163.66,174l1.77.26,2.41-14.11m.15-6.07a1.33,1.33,0,0,0-.51,0,1.19,1.19,0,0,0-.43.21,1.26,1.26,0,0,0-.32.37,1.48,1.48,0,0,0-.17.49,1.42,1.42,0,0,0,0,.52,1.18,1.18,0,0,0,.18.44,1.09,1.09,0,0,0,.33.32,1.16,1.16,0,0,0,.45.16,1.3,1.3,0,0,0,.5,0,1.26,1.26,0,0,0,.44-.21,1.3,1.3,0,0,0,.33-.37,1.43,1.43,0,0,0,.18-.5,1.36,1.36,0,0,0,0-.51,1.2,1.2,0,0,0-.18-.43,1.12,1.12,0,0,0-.34-.32,1.18,1.18,0,0,0-.47-.16" transform="translate(-0.48 -0.02)"/><polyline class="cls-4" points="182.02 162.16 180.14 161.9 174.21 173.63 172.41 160.84 170.48 160.58 172.78 175.43 174.9 175.75 182.02 162.16"/><path class="cls-4" d="M185.71,168.4a9.21,9.21,0,0,1,.58-1.73,4.27,4.27,0,0,1,.88-1.29,3,3,0,0,1,1.3-.74,4.49,4.49,0,0,1,1.82-.08,4.19,4.19,0,0,1,1.67.55,2.42,2.42,0,0,1,.92,1,3.66,3.66,0,0,1,.32,1.45,9,9,0,0,1-.15,1.81l-7.34-1m4.83-5.45a7.18,7.18,0,0,0-1.38-.06,5.61,5.61,0,0,0-1.2.2,5,5,0,0,0-1,.42,5,5,0,0,0-.87.6,5.51,5.51,0,0,0-1,1.12,8.08,8.08,0,0,0-.74,1.4,12.28,12.28,0,0,0-.53,1.6c-.15.56-.27,1.14-.36,1.73a16.49,16.49,0,0,0-.21,1.91,9.38,9.38,0,0,0,.06,1.6,5.94,5.94,0,0,0,.32,1.33,4.73,4.73,0,0,0,.58,1.1,4.58,4.58,0,0,0,.68.75,4.7,4.7,0,0,0,.86.59,5.87,5.87,0,0,0,1.05.44,9,9,0,0,0,2.88.38,6.56,6.56,0,0,0,1.46-.23,6.79,6.79,0,0,0,1.36-.54,9.32,9.32,0,0,0,1.32-.85l-.89-1.38a6.42,6.42,0,0,1-1,.66,5.59,5.59,0,0,1-2.29.61,6.39,6.39,0,0,1-1.26-.06,4.32,4.32,0,0,1-1.93-.71,2.77,2.77,0,0,1-1-1.33,5.38,5.38,0,0,1-.27-1.89,16.15,16.15,0,0,1,.24-2.37l9.27,1.26c0-.12.07-.25.1-.39l.1-.43.08-.41.06-.34a8.73,8.73,0,0,0,.07-2.36,5.29,5.29,0,0,0-.64-2,4.23,4.23,0,0,0-1.47-1.51,6.08,6.08,0,0,0-2.41-.81" transform="translate(-0.48 -0.02)"/><path class="cls-4" d="M21.11,98.29a11.15,11.15,0,0,0-2,0,8.33,8.33,0,0,0-1.68.3,7.17,7.17,0,0,0-1.43.59,7.32,7.32,0,0,0-1.22.84,9,9,0,0,0-1.45,1.57,12.17,12.17,0,0,0-1.15,1.94,20.1,20.1,0,0,0-.92,2.32c-.28.84-.53,1.73-.78,2.7s-.4,1.68-.54,2.46a16.61,16.61,0,0,0-.26,2.24,9,9,0,0,0,.12,2,6,6,0,0,0,.62,1.78,4.63,4.63,0,0,0,.78,1.09,4.92,4.92,0,0,0,1.11.85,6.93,6.93,0,0,0,1.48.61,11.44,11.44,0,0,0,1.88.37,15.64,15.64,0,0,0,1.77.11,15.34,15.34,0,0,0,1.67-.08,14.59,14.59,0,0,0,1.54-.25,13.15,13.15,0,0,0,1.38-.38l2.66-10.75-6.58-.69-.82,3.27,3.45.37-1.26,5.07a7.22,7.22,0,0,1-.72.1c-.25,0-.52,0-.79,0h-.82l-.79-.06a7.28,7.28,0,0,1-1.09-.2,3.8,3.8,0,0,1-.81-.32,2.46,2.46,0,0,1-.58-.43,2.4,2.4,0,0,1-.4-.55,2.31,2.31,0,0,1-.27-.81,5.62,5.62,0,0,1,0-1.25,16.68,16.68,0,0,1,.26-1.87c.14-.75.34-1.62.6-2.66s.46-1.76.68-2.43a17.31,17.31,0,0,1,.61-1.69,7.21,7.21,0,0,1,.6-1.14,4.42,4.42,0,0,1,.64-.77,3.43,3.43,0,0,1,.61-.47,3.31,3.31,0,0,1,.74-.33,4.18,4.18,0,0,1,.91-.17,6.4,6.4,0,0,1,1.11,0,7.18,7.18,0,0,1,1.2.22,5.22,5.22,0,0,1,1,.4,4.24,4.24,0,0,1,1.55,1.38L26.37,101a4.84,4.84,0,0,0-.93-1.12,5.38,5.38,0,0,0-1.21-.81,7.36,7.36,0,0,0-1.46-.53,11.08,11.08,0,0,0-1.67-.28" transform="translate(-0.48 -0.02)"/><polyline class="cls-4" points="33.75 99.83 30.37 99.51 25.16 120.76 28.56 121.16 33.75 99.83"/><polyline class="cls-4" points="48.6 101.26 37.87 100.23 32.71 121.65 36.18 122.05 38.3 113.21 44.94 113.93 45.78 110.39 39.14 109.69 40.49 104.05 47.77 104.77 48.6 101.26"/><polyline class="cls-4" points="64.32 102.76 49.92 101.38 49.09 104.93 54.46 105.46 50.23 123.69 53.82 124.11 58.03 105.81 63.5 106.36 64.32 102.76"/><polyline class="cls-4" points="87.94 105.02 83.99 104.64 75.38 121.84 74.6 103.75 70.63 103.36 72.16 126.26 76.41 126.76 87.94 105.02"/><path class="cls-4" d="M93.86,125.56a6.5,6.5,0,0,1-1.08-.21,4.28,4.28,0,0,1-.87-.35,3.09,3.09,0,0,1-.66-.48,2.67,2.67,0,0,1-.47-.6,3.4,3.4,0,0,1-.37-1.14,7.74,7.74,0,0,1-.07-1.55,18.46,18.46,0,0,1,.21-2q.17-1.1.46-2.44c.2-.95.4-1.77.6-2.49a16.84,16.84,0,0,1,.62-1.85,7.84,7.84,0,0,1,.69-1.35,5.06,5.06,0,0,1,.82-1,4.36,4.36,0,0,1,.76-.56,4,4,0,0,1,.87-.38,4.68,4.68,0,0,1,1-.18,6.45,6.45,0,0,1,1.14,0,6.21,6.21,0,0,1,1.09.2,4.21,4.21,0,0,1,.87.35,3.13,3.13,0,0,1,.66.48,2.74,2.74,0,0,1,.47.59,3.48,3.48,0,0,1,.4,1.13,7.18,7.18,0,0,1,.1,1.51,17.13,17.13,0,0,1-.19,2c-.11.73-.26,1.55-.45,2.46s-.39,1.78-.59,2.51a17.28,17.28,0,0,1-.63,1.9,8,8,0,0,1-.71,1.4,5,5,0,0,1-.86,1,4.38,4.38,0,0,1-.76.54,4,4,0,0,1-.87.36,4.69,4.69,0,0,1-1,.16,6.71,6.71,0,0,1-1.16,0m4.46-20a12,12,0,0,0-2.19,0,9.22,9.22,0,0,0-1.88.36,8.06,8.06,0,0,0-1.59.67,8.17,8.17,0,0,0-1.34.94,9.65,9.65,0,0,0-1.56,1.69,12.67,12.67,0,0,0-1.21,2.09,19.47,19.47,0,0,0-.94,2.47c-.27.88-.51,1.83-.73,2.83s-.38,2-.49,2.84a18,18,0,0,0-.15,2.5,10.36,10.36,0,0,0,.25,2.16,6.83,6.83,0,0,0,.69,1.82,5.37,5.37,0,0,0,.89,1.18,6.09,6.09,0,0,0,1.26,1,8,8,0,0,0,1.64.71,11.42,11.42,0,0,0,2,.42,12,12,0,0,0,2.22.07,9.27,9.27,0,0,0,1.91-.33,8.08,8.08,0,0,0,3-1.58,9.37,9.37,0,0,0,1.61-1.73,12.53,12.53,0,0,0,1.23-2.15,19.64,19.64,0,0,0,.93-2.53c.27-.9.5-1.86.71-2.87s.37-2,.47-2.88a17.85,17.85,0,0,0,.12-2.52,10.29,10.29,0,0,0-.27-2.17,6.86,6.86,0,0,0-.72-1.82,5.59,5.59,0,0,0-.91-1.13,6,6,0,0,0-1.26-.92,7.86,7.86,0,0,0-1.65-.67,11.56,11.56,0,0,0-2.08-.38" transform="translate(-0.48 -0.02)"/><path class="cls-4" d="M127.1,108.75l-4-.39-3,14.95a15.24,15.24,0,0,1-.54,2.14,4.09,4.09,0,0,1-.86,1.49,2.84,2.84,0,0,1-1.45.8,6.87,6.87,0,0,1-2.32.06,6.34,6.34,0,0,1-2.25-.6,2.19,2.19,0,0,1-1.05-1.1,3.52,3.52,0,0,1-.19-1.59,16.17,16.17,0,0,1,.32-2.06l3-14.86-4-.38-3,14.84c-.11.54-.21,1.09-.27,1.63a12.18,12.18,0,0,0-.1,1.6,7.67,7.67,0,0,0,.16,1.52,5.43,5.43,0,0,0,.49,1.4,5,5,0,0,0,.8,1.15,5.73,5.73,0,0,0,1.23,1,7.84,7.84,0,0,0,1.7.76,12,12,0,0,0,2.24.47,12.68,12.68,0,0,0,2.38.07,9.56,9.56,0,0,0,2-.36,7.79,7.79,0,0,0,1.71-.73,7,7,0,0,0,2.35-2.22,8.94,8.94,0,0,0,.74-1.39,12.9,12.9,0,0,0,.55-1.56c.16-.54.29-1.11.4-1.7l2.91-14.9" transform="translate(-0.48 -0.02)"/><path class="cls-4" d="M140.19,109.59a12.45,12.45,0,0,0-2.14,0,9.19,9.19,0,0,0-1.83.32,7.83,7.83,0,0,0-1.56.63,8,8,0,0,0-1.32.9,9.73,9.73,0,0,0-1.69,1.84,13,13,0,0,0-1.27,2.25,19.87,19.87,0,0,0-.93,2.59c-.26.91-.48,1.87-.68,2.87s-.33,1.88-.43,2.81a19.2,19.2,0,0,0-.11,2.69,11.19,11.19,0,0,0,.34,2.46,7.1,7.1,0,0,0,.92,2.12,5.94,5.94,0,0,0,.88,1.06,6.08,6.08,0,0,0,1.17.87,7.44,7.44,0,0,0,1.51.65,10.44,10.44,0,0,0,1.88.39,10.94,10.94,0,0,0,2.31,0,9.29,9.29,0,0,0,2.14-.46,9.64,9.64,0,0,0,2-1,12.07,12.07,0,0,0,1.87-1.46l-2-3a9.91,9.91,0,0,1-1.29,1,7.58,7.58,0,0,1-1.35.67,6.34,6.34,0,0,1-1.41.35,6.12,6.12,0,0,1-1.47,0,5,5,0,0,1-1-.22,3.33,3.33,0,0,1-.77-.36,2.7,2.7,0,0,1-.56-.48,2.83,2.83,0,0,1-.38-.56,3.87,3.87,0,0,1-.35-1,7.41,7.41,0,0,1-.13-1.44,16.65,16.65,0,0,1,.13-2c.09-.76.23-1.64.42-2.64s.36-1.78.55-2.52.38-1.39.58-2a10.92,10.92,0,0,1,.62-1.44,4.87,4.87,0,0,1,.65-1,3.63,3.63,0,0,1,.62-.55,3.59,3.59,0,0,1,.82-.42,4.41,4.41,0,0,1,1.05-.24,6.49,6.49,0,0,1,1.33,0,7.25,7.25,0,0,1,1.18.21,5.83,5.83,0,0,1,1.1.42,5.23,5.23,0,0,1,1,.66,5.49,5.49,0,0,1,.88.93l2.88-2.74a6.17,6.17,0,0,0-1.22-1.42,6.78,6.78,0,0,0-1.5-1,8.83,8.83,0,0,0-1.68-.59,12.2,12.2,0,0,0-1.76-.29" transform="translate(-0.48 -0.02)"/><polyline class="cls-4" points="167.46 112.64 163.13 112.22 161.4 121.99 152.55 121.07 154.31 111.38 150.1 110.97 145.72 134.86 149.96 135.36 151.84 125.03 160.69 125.99 158.85 136.4 163.23 136.91 167.46 112.64"/><polyline class="cls-4" points="186.41 114.45 172.69 113.14 168.5 137.53 182.48 139.16 183.13 135.22 173.54 134.13 174.68 127.46 183.25 128.38 183.9 124.48 175.33 123.59 176.39 117.38 185.77 118.31 186.41 114.45"/><path class="cls-4" d="M194.32,127l1.23-7.68,4.51.45c.33,0,.63.07.9.12a5.46,5.46,0,0,1,.72.18,2.82,2.82,0,0,1,.55.25,1.69,1.69,0,0,1,.4.32,1.59,1.59,0,0,1,.29.49,2.86,2.86,0,0,1,.16.66,5.06,5.06,0,0,1,0,.82,8.17,8.17,0,0,1-.1,1,6.09,6.09,0,0,1-.67,2.11,3.1,3.1,0,0,1-1.2,1.2,4.26,4.26,0,0,1-1.7.47,11.41,11.41,0,0,1-2.19-.06l-2.94-.31m6.51-11.16-9.17-.88-4,24.8,4.56.53,1.5-9.35,3.67.4a2.8,2.8,0,0,1,1.63.64,3.32,3.32,0,0,1,.91,1.66,15.38,15.38,0,0,1,.42,3c.08,1.25.11,2.78.14,4.63l5,.58c0-1.86,0-3.47-.08-4.86a19.28,19.28,0,0,0-.46-3.52,6,6,0,0,0-1.06-2.33,4,4,0,0,0-1.87-1.28,7.53,7.53,0,0,0,2.37-.7,6.1,6.1,0,0,0,1.79-1.35,6.87,6.87,0,0,0,1.23-1.92,9.78,9.78,0,0,0,.67-2.42,9.41,9.41,0,0,0,.11-2,6.09,6.09,0,0,0-.29-1.59,4.79,4.79,0,0,0-.64-1.26,4.92,4.92,0,0,0-.91-1,6.52,6.52,0,0,0-1.1-.71,8.52,8.52,0,0,0-1.28-.53,12,12,0,0,0-1.45-.37c-.51-.1-1-.17-1.6-.22" transform="translate(-0.48 -0.02)"/><path class="cls-4" d="M72.7.81A31.6,31.6,0,0,0,59.79,3.37,28.67,28.67,0,0,0,50.5,10a37.49,37.49,0,0,0-6.28,9.18,51.35,51.35,0,0,0-3.72,10.29l-1.45,5.81L31.51,35,28.36,47.49l7.58.34L30.49,69.69l-7.62-.51L19.6,82.1l54.08,4.31,3.06-13.63L44.33,70.62l5.36-22.16,17,.77,3-12.94-17-.56,1.31-5.42a69.59,69.59,0,0,1,2-7.13,20.3,20.3,0,0,1,2.74-5.37A10.52,10.52,0,0,1,63,14.45a14.82,14.82,0,0,1,6.32-1.13,18.39,18.39,0,0,1,3.18.3,13.25,13.25,0,0,1,2.75.82,10.06,10.06,0,0,1,2.27,1.32,8.7,8.7,0,0,1,1.74,1.82l10.55-10a13.44,13.44,0,0,0-3-3.07,16.87,16.87,0,0,0-4-2.12A23.85,23.85,0,0,0,78,1.21,34.1,34.1,0,0,0,72.7.81" transform="translate(-0.48 -0.02)"/><polyline class="cls-4" points="133.96 1.76 118.94 1.75 88.08 55.87 84.96 69.99 117.17 72.04 113.59 89.6 128.78 90.81 132.27 73 146.07 73.88 148.97 58.55 135.24 57.86 141.69 24.97 127.08 24.66 120.44 57.24 102.91 56.36 133.96 1.76"/><path class="cls-4" d="M189,81.84a11.69,11.69,0,0,1-7-2.5A11.22,11.22,0,0,1,178.54,73a37.6,37.6,0,0,1-.46-10.37,141.17,141.17,0,0,1,1.9-14.5,148.9,148.9,0,0,1,3.39-15.44A45.41,45.41,0,0,1,187.6,22.2a16.43,16.43,0,0,1,5.66-6,14.43,14.43,0,0,1,7.7-1.87,11.67,11.67,0,0,1,7,2,10.1,10.1,0,0,1,3.6,5.87,34.73,34.73,0,0,1,.7,10.12A138.89,138.89,0,0,1,210.56,47a151.83,151.83,0,0,1-3.24,15.91A46.59,46.59,0,0,1,203,74a16.26,16.26,0,0,1-5.93,6.26A14,14,0,0,1,189,81.84M203.48,0a44.91,44.91,0,0,0-7.58.62,34.64,34.64,0,0,0-6.51,1.76,30.82,30.82,0,0,0-5.58,2.8A32.25,32.25,0,0,0,179,9a38.34,38.34,0,0,0-6.17,7.47,54.93,54.93,0,0,0-4.61,9.08,88,88,0,0,0-3.4,10.39c-1,3.65-1.78,7.47-2.5,11.39s-1.27,7.52-1.65,11.11a82,82,0,0,0-.5,10.35A45.38,45.38,0,0,0,161.24,78a26.83,26.83,0,0,0,3.09,7.86,21.65,21.65,0,0,0,3.39,4.26,22.15,22.15,0,0,0,4.63,3.45,27.6,27.6,0,0,0,6,2.47A39.9,39.9,0,0,0,186,97.38a43.5,43.5,0,0,0,8-.06,35.15,35.15,0,0,0,7.11-1.47,30.86,30.86,0,0,0,6.17-2.74,29.86,29.86,0,0,0,5.21-3.85,39.08,39.08,0,0,0,6.63-8.09,57.07,57.07,0,0,0,4.87-10,89.84,89.84,0,0,0,3.41-11.31c.93-3.93,1.68-8,2.29-12.17.58-3.93,1-7.78,1.26-11.48a77.46,77.46,0,0,0,0-10.51,42.26,42.26,0,0,0-1.6-9.13,24.05,24.05,0,0,0-3.56-7.34,19.72,19.72,0,0,0-3.7-3.88,21.49,21.49,0,0,0-4.9-2.91A28.36,28.36,0,0,0,211,.65,42.16,42.16,0,0,0,203.48,0" transform="translate(-0.48 -0.02)"/></g></g></g></g></svg>