<?xml version="1.0" encoding="UTF-8" standalone="no"?>
<svg width="50px" height="35px" viewBox="0 0 50 35" version="1.1" xmlns="http://www.w3.org/2000/svg" xmlns:xlink="http://www.w3.org/1999/xlink">
    <!-- Generator: Sketch 3.8.3 (29802) - http://www.bohemiancoding.com/sketch -->
    <title>95-desk</title>
    <desc>Created with Sketch.</desc>
    <defs>
        <polygon id="path-1" points="17.4873 0.134 0.0973 0.134 0.0973 21.3032 17.4873 21.3032 17.4873 0.134"></polygon>
        <polygon id="path-3" points="17.4538 0.134 0.3968 0.134 0.3968 21.3033 17.4538 21.3033 17.4538 0.134"></polygon>
        <polygon id="path-5" points="5 5.8756 5 0.0816 0.5701 0.0816 0.5701 5.8756 5 5.8756"></polygon>
        <polygon id="path-7" points="0.0073 7 5.3973 7 5.3973 0.0472 0.0073 0.0472"></polygon>
        <polygon id="path-9" points="0.7497 7 6.1397 7 6.1397 0.0472 0.7497 0.0472"></polygon>
    </defs>
    <g id="Page-1" stroke="none" stroke-width="1" fill="none" fill-rule="evenodd">
        <g id="95-desk">
            <g id="Page-1" transform="translate(0.000000, -1.000000)">
                <g id="Group-3" transform="translate(2.000000, 0.866500)">
                    <mask id="mask-2" fill="white">
                        <use xlink:href="#path-1"></use>
                    </mask>
                    <g id="Clip-2"></g>
                    <path d="M9.9873,9.4782 C10.8643,9.4782 11.5593,9.2662 12.3763,8.8132 C12.2563,5.6372 11.9533,4.6692 11.6503,4.3972 C11.3783,4.1242 10.9853,3.9742 9.7753,3.9742 L7.0533,3.9742 C6.1763,3.9742 5.7833,4.0352 5.4813,4.3362 C5.1483,4.6692 4.9973,5.4252 4.9973,6.7562 C4.9973,8.0862 5.1483,8.7832 5.4813,9.0842 C5.7533,9.3872 6.1763,9.4782 7.0843,9.4782 L9.9873,9.4782 Z M12.4063,11.7472 C10.9853,12.9252 10.1383,13.2582 8.5953,13.2582 L5.2093,13.2582 C3.2433,13.2582 2.2153,12.9562 1.4283,12.1692 C0.4003,11.1412 0.0973,9.4782 0.0973,7.0282 C0.0973,3.8832 0.4913,2.3712 1.5193,1.2822 C2.2453,0.5562 3.3643,0.1332 5.1783,0.1332 L11.1063,0.1332 C13.4343,0.1332 14.4633,0.4652 15.4003,1.3732 C16.6713,2.5522 17.4873,4.8212 17.4873,10.7182 C17.4873,16.4642 16.6713,18.8532 15.3703,20.0632 C14.3723,21.0002 13.3433,21.3032 10.9553,21.3032 L5.5423,21.3032 C3.5153,21.3032 2.3663,21.0002 1.6103,20.2142 C0.5213,19.1562 0.2493,17.5532 0.1883,15.1332 L5.0573,15.1332 C5.1183,16.1922 5.2393,16.7662 5.5113,17.0392 C5.8133,17.3112 6.2073,17.4022 7.1443,17.4022 L9.7453,17.4022 C10.9853,17.4022 11.3783,17.2502 11.6803,16.9782 C12.0133,16.6762 12.3763,16.1312 12.4063,11.7472 L12.4063,11.7472 Z" id="Fill-1" fill="#FF7911" mask="url(#mask-2)"></path>
                </g>
                <g id="Group-6" transform="translate(21.000000, 0.866500)">
                    <mask id="mask-4" fill="white">
                        <use xlink:href="#path-3"></use>
                    </mask>
                    <g id="Clip-5"></g>
                    <path d="M0.7598,11.1413 L1.4858,0.1333 L16.7878,0.1333 L16.7878,4.0353 L5.6288,4.0353 L5.2658,8.5713 L5.5078,8.6013 C6.6878,7.5733 7.3528,7.3913 9.3488,7.3913 L12.1008,7.3913 C14.1268,7.3913 15.1858,7.7243 16.0018,8.5403 C17.0608,9.5993 17.4538,11.2623 17.4538,14.0443 C17.4538,17.7343 17.0308,19.0043 15.9718,20.1233 C15.2458,20.8793 14.1268,21.3033 12.2518,21.3033 L5.7808,21.3033 C3.8448,21.3033 2.5138,20.9703 1.7878,20.2753 C0.8208,19.2773 0.3968,17.8853 0.3968,14.4983 L5.1448,14.4683 C5.1748,16.1923 5.4168,16.8573 5.6588,17.0693 C5.9018,17.3413 6.3238,17.4323 7.2918,17.4323 L10.5888,17.4323 C11.4058,17.4323 11.7978,17.3113 12.0398,17.0993 C12.3128,16.8273 12.5548,16.1923 12.5548,14.3173 C12.5548,12.4423 12.3128,11.8373 12.0398,11.5653 C11.7978,11.3533 11.4358,11.2323 10.5888,11.2323 L8.4718,11.2323 C7.0498,11.2323 6.1728,11.5353 4.8728,12.3513 L0.7598,11.1413 Z" id="Fill-4" fill="#FF7911" mask="url(#mask-4)"></path>
                </g>
                <path d="M47.5869,6.5391 C47.5199,6.4721 47.4069,6.4491 47.2289,6.4491 L47.0259,6.4491 C46.8479,6.4491 46.7349,6.4721 46.6679,6.5391 C46.6229,6.5841 46.5669,6.7971 46.5669,7.4911 C46.5669,8.1851 46.6229,8.3981 46.6679,8.4431 C46.7349,8.5111 46.8479,8.5211 47.0259,8.5211 L47.2289,8.5211 C47.4069,8.5211 47.5199,8.5111 47.5869,8.4431 C47.6309,8.3981 47.6879,8.1851 47.6879,7.4911 C47.6879,6.7971 47.6309,6.5841 47.5869,6.5391 L47.5869,6.5391 Z M48.4149,9.2941 C48.2359,9.4621 48.0239,9.5521 47.5529,9.5521 L46.7019,9.5521 C46.2319,9.5521 46.0189,9.4621 45.8389,9.2941 C45.5819,9.0481 45.4369,8.6441 45.4369,7.4911 C45.4369,6.3261 45.5819,5.9351 45.8389,5.6881 C46.0189,5.5091 46.2319,5.4311 46.7019,5.4311 L47.5529,5.4311 C48.0239,5.4311 48.2359,5.5091 48.4149,5.6881 C48.6729,5.9351 48.8179,6.3261 48.8179,7.4911 C48.8179,8.6441 48.6729,9.0481 48.4149,9.2941 L48.4149,9.2941 Z M42.3789,2.8211 C42.3119,2.7541 42.1989,2.7311 42.0209,2.7311 L41.8179,2.7311 C41.6399,2.7311 41.5269,2.7541 41.4599,2.8211 C41.4149,2.8651 41.3589,3.0781 41.3589,3.7721 C41.3589,4.4671 41.4149,4.6801 41.4599,4.7251 C41.5269,4.7921 41.6399,4.8031 41.8179,4.8031 L42.0209,4.8031 C42.1989,4.8031 42.3119,4.7921 42.3789,4.7251 C42.4229,4.6801 42.4799,4.4671 42.4799,3.7721 C42.4799,3.0781 42.4229,2.8651 42.3789,2.8211 L42.3789,2.8211 Z M41.1799,9.5861 L44.0589,5.4641 L46.6229,1.6791 L47.8659,1.6791 L44.9879,5.8001 L42.4229,9.5861 L41.1799,9.5861 Z M43.2069,5.5761 C43.0279,5.7441 42.8159,5.8341 42.3449,5.8341 L41.4939,5.8341 C41.0239,5.8341 40.8109,5.7441 40.6309,5.5761 C40.3739,5.3301 40.2289,4.9271 40.2289,3.7721 C40.2289,2.6081 40.3739,2.2161 40.6309,1.9701 C40.8109,1.7901 41.0239,1.7121 41.4939,1.7121 L42.3449,1.7121 C42.8159,1.7121 43.0279,1.7901 43.2069,1.9701 C43.4649,2.2161 43.6099,2.6081 43.6099,3.7721 C43.6099,4.9271 43.4649,5.3301 43.2069,5.5761 L43.2069,5.5761 Z" id="Fill-7" fill="#FF7911"></path>
                <g id="Group-11" transform="translate(45.000000, 28.866500)">
                    <mask id="mask-6" fill="white">
                        <use xlink:href="#path-5"></use>
                    </mask>
                    <g id="Clip-10"></g>
                    <path d="M2.7751,0.0816 C1.5381,0.0816 0.5701,1.1376 0.5701,2.2966 C0.5701,2.5196 0.6111,3.6016 1.8321,4.3286 C2.2851,4.5976 2.3721,5.3196 1.9611,5.6686 C1.8911,5.7276 1.8921,5.8756 2.0051,5.8756 C2.1201,5.8756 2.4711,5.7956 2.9881,5.5586 C4.1171,5.0416 5.0091,3.7416 5.0001,2.3216 C4.9911,1.0846 4.0121,0.0816 2.7751,0.0816" id="Fill-9" fill="#FF7911" mask="url(#mask-6)"></path>
                </g>
                <path d="M43.0216,25.8029 C44.2586,25.8029 45.2266,26.8589 45.2266,28.0179 C45.2266,28.2409 45.1856,29.3229 43.9646,30.0499 C43.5116,30.3189 43.4246,31.0409 43.8356,31.3899 C43.9056,31.4489 43.9046,31.5969 43.7916,31.5969 C43.6766,31.5969 43.3256,31.5169 42.8086,31.2799 C41.6796,30.7629 40.7876,29.4629 40.7966,28.0429 C40.8056,26.8059 41.7846,25.8029 43.0216,25.8029" id="Fill-12" fill="#2B61B2"></path>
                <g id="Group-16" transform="translate(5.000000, 28.866500)">
                    <mask id="mask-8" fill="white">
                        <use xlink:href="#path-7"></use>
                    </mask>
                    <g id="Clip-15"></g>
                    <path d="M3.8063,2.8172 L1.6803,2.8172 L1.6803,2.4882 C1.6803,1.8572 1.9683,1.4182 2.7913,1.4182 C3.6143,1.4182 3.8063,1.8572 3.8063,2.4882 L3.8063,2.8172 Z M2.7773,0.0472 C0.6383,0.0472 0.0073,1.2402 0.0073,2.6522 L0.0073,4.4212 C0.0073,6.0262 0.7343,7.0002 2.8323,7.0002 C3.6283,7.0002 4.5333,6.8632 5.2873,6.5752 L5.0273,5.3132 C4.3003,5.5322 3.6283,5.6292 2.9833,5.6292 C1.9683,5.6292 1.6803,5.3132 1.6803,4.5042 L1.6803,4.1612 L5.3973,4.1612 L5.3973,2.7352 C5.3973,1.2952 4.9173,0.0472 2.7773,0.0472 L2.7773,0.0472 Z" id="Fill-14" fill="#FF7911" mask="url(#mask-8)"></path>
                </g>
                <g id="Group-19" transform="translate(11.000000, 28.866500)">
                    <mask id="mask-10" fill="white">
                        <use xlink:href="#path-9"></use>
                    </mask>
                    <g id="Clip-18"></g>
                    <path d="M4.5487,2.8172 L2.4227,2.8172 L2.4227,2.4882 C2.4227,1.8572 2.7107,1.4182 3.5337,1.4182 C4.3567,1.4182 4.5487,1.8572 4.5487,2.4882 L4.5487,2.8172 Z M3.5197,0.0472 C1.3807,0.0472 0.7497,1.2402 0.7497,2.6522 L0.7497,4.4212 C0.7497,6.0262 1.4767,7.0002 3.5747,7.0002 C4.3707,7.0002 5.2757,6.8632 6.0297,6.5752 L5.7697,5.3132 C5.0427,5.5322 4.3707,5.6292 3.7257,5.6292 C2.7107,5.6292 2.4227,5.3132 2.4227,4.5042 L2.4227,4.1612 L6.1397,4.1612 L6.1397,2.7352 C6.1397,1.2952 5.6597,0.0472 3.5197,0.0472 L3.5197,0.0472 Z" id="Fill-17" fill="#FF7911" mask="url(#mask-10)"></path>
                </g>
                <polygon id="Fill-20" fill="#FF7911" points="21.1807 34.1247 19.6587 29.0507 17.9447 29.0507 20.0837 35.7297 22.2917 35.7297 24.4307 29.0507 22.7167 29.0507"></polygon>
                <path d="M29.377,33.2881 C29.377,34.0421 29.034,34.4401 28.143,34.4401 C27.251,34.4401 26.908,34.0421 26.908,33.2881 L26.908,31.4921 C26.908,30.7371 27.251,30.3401 28.143,30.3401 C29.034,30.3401 29.377,30.7371 29.377,31.4921 L29.377,33.2881 Z M28.143,28.9131 C25.853,28.9131 25.235,30.1751 25.235,31.5461 L25.235,33.2331 C25.235,34.6051 25.853,35.8661 28.143,35.8661 C30.433,35.8661 31.05,34.6051 31.05,33.2331 L31.05,31.5461 C31.05,30.1751 30.433,28.9131 28.143,28.9131 L28.143,28.9131 Z" id="Fill-22" fill="#FF7911"></path>
                <path d="M36.6133,33.2881 C36.6133,34.0421 36.2703,34.4401 35.3783,34.4401 C34.4873,34.4401 34.1443,34.0421 34.1443,33.2881 L34.1443,31.4921 C34.1443,30.7371 34.4873,30.3401 35.3783,30.3401 C36.2703,30.3401 36.6133,30.7371 36.6133,31.4921 L36.6133,33.2881 Z M35.3783,28.9131 C33.0883,28.9131 32.4713,30.1751 32.4713,31.5461 L32.4713,33.2331 C32.4713,34.6051 33.0883,35.8661 35.3783,35.8661 C37.6693,35.8661 38.2863,34.6051 38.2863,33.2331 L38.2863,31.5461 C38.2863,30.1751 37.6693,28.9131 35.3783,28.9131 L35.3783,28.9131 Z" id="Fill-24" fill="#FF7911"></path>
                <path d="M1.5222,29.7912 L1.4122,29.0502 L0.0002,29.0502 L0.0002,35.7292 L1.6732,35.7292 L1.6732,31.3802 C1.6732,31.3802 2.0932,31.0032 2.6372,30.7332 C3.1812,30.4622 3.9122,30.5532 3.9122,30.5532 L4.0042,29.1182 C4.0042,29.1182 3.1872,29.0062 2.6092,29.1972 C2.0082,29.3972 1.5222,29.7912 1.5222,29.7912" id="Fill-26" fill="#FF7911"></path>
            </g>
        </g>
    </g>
</svg>