<?xml version="1.0" encoding="UTF-8" standalone="no"?>
<svg width="87px" height="40px" viewBox="0 0 87 40" version="1.1" xmlns="http://www.w3.org/2000/svg" xmlns:xlink="http://www.w3.org/1999/xlink">
    <!-- Generator: Sketch 3.8.2 (29753) - http://www.bohemiancoding.com/sketch -->
    <title>PFA-logo</title>
    <desc>Created with Sketch.</desc>
    <defs></defs>
    <g id="Page-1" stroke="none" stroke-width="1" fill="none" fill-rule="evenodd">
        <g id="PFA-logo">
            <rect id="Rectangle-1" fill="#D0011B" x="0" y="0" width="87" height="40" rx="3"></rect>
            <g id="copy" transform="translate(4.000000, 2.846300)" fill="#FFFFFF">
                <path d="M14.847,5.1644 C14.992,5.1784 15.165,5.1934 15.44,5.1934 C16.466,5.1934 17.103,4.6724 17.103,3.8344 C17.103,3.1114 16.611,2.6194 15.628,2.6194 C15.237,2.6194 14.977,2.6484 14.847,2.6774 L14.847,5.1644 L14.847,5.1644 Z M12.259,0.8554 C12.967,0.7394 13.994,0.6534 15.483,0.6534 C16.886,0.6534 17.884,0.8984 18.563,1.4194 C19.229,1.9114 19.677,2.7784 19.677,3.7764 C19.677,4.7594 19.344,5.6274 18.737,6.1764 C17.942,6.8854 16.799,7.1884 15.483,7.1884 C15.237,7.1884 15.006,7.1744 14.847,7.1604 L14.847,10.4714 L12.259,10.4714 L12.259,0.8554 L12.259,0.8554 Z" id="Fill-139"></path>
                <path d="M24.4495,6.0605 C24.4495,5.6555 24.2615,4.9045 23.4375,4.9045 C22.6705,4.9045 22.3675,5.6125 22.3245,6.0605 L24.4495,6.0605 Z M22.3535,7.8245 C22.4395,8.3895 23.2645,8.7065 24.1745,8.7065 C24.8545,8.7065 25.4905,8.6345 26.1265,8.4325 L26.4595,10.1675 C25.6065,10.5145 24.6815,10.6295 23.7985,10.6295 C21.2965,10.6295 19.8805,9.2415 19.8805,6.9855 C19.8805,5.3235 20.9505,3.1985 23.5675,3.1985 C25.8665,3.1985 26.8495,4.8895 26.8495,6.8415 C26.8495,7.2755 26.7915,7.6515 26.7485,7.8245 L22.3535,7.8245 Z" id="Fill-141"></path>
                <path d="M27.747,5.7571 C27.747,4.6291 27.718,3.9501 27.689,3.3571 L29.916,3.3571 L30.003,4.6441 L30.061,4.6441 C30.436,3.5591 31.348,3.1981 31.955,3.1981 C32.186,3.1981 32.288,3.1981 32.475,3.2411 L32.475,5.6851 C32.288,5.6421 32.085,5.6121 31.81,5.6121 C31.044,5.6121 30.523,5.9311 30.393,6.5091 C30.364,6.6391 30.35,6.7831 30.35,6.9571 L30.35,10.4711 L27.747,10.4711 L27.747,5.7571 Z" id="Fill-143"></path>
                <path d="M33.3438,8.2878 C33.7488,8.5328 34.6738,8.8228 35.3248,8.8228 C35.8748,8.8228 36.0918,8.6928 36.0918,8.4328 C36.0918,8.1718 35.9328,8.0558 35.1658,7.8108 C33.6038,7.3188 33.0688,6.4658 33.0838,5.6418 C33.0838,4.2248 34.2838,3.1988 36.1488,3.1988 C37.0308,3.1988 37.8118,3.3858 38.2748,3.6028 L37.8558,5.3668 C37.5228,5.2078 36.8578,4.9758 36.2798,4.9758 C35.8308,4.9758 35.5708,5.0928 35.5708,5.3808 C35.5708,5.6128 35.8018,5.7568 36.6408,6.0318 C38.0438,6.4948 38.5778,7.2178 38.5928,8.2438 C38.5928,9.6038 37.5378,10.6298 35.3398,10.6298 C34.3558,10.6298 33.4748,10.4128 32.9108,10.1238 L33.3438,8.2878 Z" id="Fill-145"></path>
                <path d="M41.8472,6.9141 C41.8472,7.9701 42.1932,8.7931 43.0032,8.7931 C43.6982,8.7931 44.0882,8.0561 44.0882,6.9141 C44.0882,5.9311 43.7702,5.0341 42.9892,5.0341 C42.1362,5.0341 41.8472,5.9741 41.8472,6.9141 M46.7772,6.8421 C46.7772,9.4301 44.9272,10.6301 42.9312,10.6301 C40.8062,10.6301 39.1572,9.2711 39.1572,6.9571 C39.1572,4.7021 40.6472,3.1981 43.0762,3.1981 C45.3032,3.1981 46.7772,4.7021 46.7772,6.8421" id="Fill-147"></path>
                <path d="M47.7471,5.7715 C47.7471,4.8325 47.7181,4.0085 47.6891,3.3565 L49.9301,3.3565 L50.0461,4.2675 L50.1041,4.2675 C50.3641,3.8925 51.0441,3.1985 52.2301,3.1985 C53.8921,3.1985 54.7891,4.3255 54.7891,6.2775 L54.7891,10.4715 L52.1861,10.4715 L52.1861,6.5955 C52.1861,5.7715 51.8971,5.2945 51.2761,5.2945 C50.7691,5.2945 50.5381,5.6415 50.4221,5.9165 C50.3641,6.0465 50.3501,6.2485 50.3501,6.4365 L50.3501,10.4715 L47.7471,10.4715 L47.7471,5.7715 Z" id="Fill-149"></path>
                <path d="M59.9101,7.2182 C58.8541,7.2182 58.2471,7.5222 58.2471,8.1432 C58.2471,8.5912 58.5501,8.8222 58.9841,8.8222 C59.3601,8.8222 59.7651,8.5632 59.8811,8.1722 C59.9101,8.0562 59.9101,7.9262 59.9101,7.7962 L59.9101,7.2182 Z M62.4401,8.7352 C62.4401,9.4442 62.4681,10.1092 62.5561,10.4712 L60.2131,10.4712 L60.0681,9.8492 L60.0261,9.8492 C59.5191,10.4132 58.8111,10.6302 58.0441,10.6302 C56.5981,10.6302 55.7021,9.5752 55.7021,8.3892 C55.7021,6.4802 57.4081,5.6422 59.8231,5.6272 L59.8231,5.5692 C59.8231,5.2802 59.6061,4.9622 58.6661,4.9622 C57.9141,4.9622 57.1191,5.2232 56.6571,5.4972 L56.1931,3.8342 C56.6571,3.6032 57.6681,3.1982 59.1431,3.1982 C61.5871,3.1982 62.4401,4.5572 62.4401,6.3352 L62.4401,8.7352 Z" id="Fill-151"></path>
                <polygon id="Fill-153" points="63.757 10.472 66.36 10.472 66.36 0.205 63.757 0.205"></polygon>
                <polygon id="Fill-155" points="0.4745 7.6731 10.9535 7.6731 10.9535 11.2301 4.8545 11.2301 4.8545 14.2561 10.5905 14.2561 10.5905 17.7881 4.8545 17.7881 4.8545 23.9831 0.4745 23.9831"></polygon>
                <polygon id="Fill-156" points="12.14 23.984 16.496 23.984 16.496 12.078 12.14 12.078"></polygon>
                <path d="M17.7547,16.119 C17.7547,14.546 17.7057,13.166 17.6577,12.078 L21.4087,12.078 L21.6017,13.602 L21.6987,13.602 C22.1347,12.972 23.2717,11.811 25.2567,11.811 C28.0397,11.811 29.5407,13.699 29.5407,16.966 L29.5407,23.983 L25.1837,23.983 L25.1837,17.498 C25.1837,16.119 24.6997,15.32 23.6597,15.32 C22.8117,15.32 22.4247,15.901 22.2307,16.361 C22.1347,16.579 22.1097,16.918 22.1097,17.232 L22.1097,23.983 L17.7547,23.983 L17.7547,16.119 Z" id="Fill-157"></path>
                <path d="M37.6232,18.539 C35.8572,18.539 34.8402,19.047 34.8402,20.088 C34.8402,20.837 35.3482,21.225 36.0742,21.225 C36.7032,21.225 37.3812,20.789 37.5752,20.136 C37.6232,19.942 37.6232,19.725 37.6232,19.507 L37.6232,18.539 Z M41.8582,21.079 C41.8582,22.266 41.9072,23.378 42.0522,23.983 L38.1312,23.983 L37.8892,22.943 L37.8172,22.943 C36.9702,23.887 35.7842,24.25 34.5012,24.25 C32.0812,24.25 30.5812,22.483 30.5812,20.499 C30.5812,17.304 33.4362,15.901 37.4772,15.877 L37.4772,15.78 C37.4772,15.296 37.1152,14.764 35.5422,14.764 C34.2832,14.764 32.9532,15.199 32.1782,15.659 L31.4042,12.876 C32.1782,12.489 33.8722,11.811 36.3402,11.811 C40.4302,11.811 41.8582,14.086 41.8582,17.063 L41.8582,21.079 Z" id="Fill-158"></path>
                <path d="M43.576,16.119 C43.576,14.546 43.528,13.166 43.48,12.078 L47.231,12.078 L47.424,13.602 L47.521,13.602 C47.957,12.972 49.094,11.811 51.078,11.811 C53.862,11.811 55.362,13.699 55.362,16.966 L55.362,23.983 L51.006,23.983 L51.006,17.498 C51.006,16.119 50.522,15.32 49.481,15.32 C48.634,15.32 48.247,15.901 48.053,16.361 C47.957,16.579 47.932,16.918 47.932,17.232 L47.932,23.983 L43.576,23.983 L43.576,16.119 Z" id="Fill-159"></path>
                <path d="M66.2281,23.7417 C65.5031,24.0567 64.2681,24.2497 62.9371,24.2497 C58.9921,24.2497 56.5001,21.9267 56.5001,18.1277 C56.5001,14.7387 58.8231,11.8107 63.4691,11.8107 C64.3401,11.8107 65.3811,11.9317 66.2281,12.2227 L65.6001,15.4417 C65.1881,15.2717 64.6071,15.1267 63.7351,15.1267 C62.0901,15.1267 60.9531,16.2397 60.9531,17.9817 C60.9531,19.9187 62.3081,20.8377 63.8321,20.8377 C64.5831,20.8377 65.2121,20.7657 65.7441,20.5477 L66.2281,23.7417 Z" id="Fill-160"></path>
                <path d="M74.2646,16.6027 C74.2646,15.9257 73.9486,14.6667 72.5696,14.6667 C71.2866,14.6667 70.7786,15.8527 70.7056,16.6027 L74.2646,16.6027 Z M70.7536,19.5547 C70.8996,20.4997 72.2796,21.0317 73.8046,21.0317 C74.9406,21.0317 76.0056,20.9097 77.0706,20.5717 L77.6276,23.4757 C76.1986,24.0567 74.6506,24.2497 73.1736,24.2497 C68.9876,24.2497 66.6166,21.9267 66.6166,18.1517 C66.6166,15.3687 68.4076,11.8107 72.7876,11.8107 C76.6356,11.8107 78.2806,14.6427 78.2806,17.9097 C78.2806,18.6357 78.1846,19.2657 78.1106,19.5547 L70.7536,19.5547 Z" id="Fill-161"></path>
                <polygon id="Fill-162" points="1.4377 3.1165 0.3017 3.1165 0.3017 2.1185 3.7897 2.1185 3.7897 3.1165 2.6337 3.1165 2.6337 6.5725 1.4377 6.5725"></polygon>
                <path d="M4.3375,1.8806 L5.5265,1.8806 L5.5265,3.6646 L5.5395,3.6646 C5.6525,3.5326 5.7775,3.4266 5.9235,3.3606 C6.0685,3.2876 6.2465,3.2486 6.4185,3.2486 C7.1525,3.2486 7.5555,3.7706 7.5555,4.6886 L7.5555,6.5716 L6.3655,6.5716 L6.3655,4.8206 C6.3655,4.4376 6.2405,4.2066 5.9435,4.2066 C5.7185,4.2066 5.6125,4.3386 5.5595,4.4646 C5.5335,4.5166 5.5265,4.6026 5.5265,4.6556 L5.5265,6.5716 L4.3375,6.5716 L4.3375,1.8806 Z" id="Fill-163"></path>
                <path d="M10.0852,4.5566 C10.0852,4.3716 9.9992,4.0286 9.6232,4.0286 C9.2722,4.0286 9.1342,4.3516 9.1142,4.5566 L10.0852,4.5566 Z M9.1272,5.3626 C9.1672,5.6206 9.5432,5.7656 9.9592,5.7656 C10.2702,5.7656 10.5612,5.7326 10.8522,5.6406 L11.0032,6.4336 C10.6142,6.5916 10.1912,6.6446 9.7882,6.6446 C8.6452,6.6446 7.9972,6.0106 7.9972,4.9796 C7.9972,4.2196 8.4862,3.2486 9.6822,3.2486 C10.7332,3.2486 11.1822,4.0216 11.1822,4.9136 C11.1822,5.1116 11.1552,5.2836 11.1362,5.3626 L9.1272,5.3626 Z" id="Fill-164"></path>
                <path d="M10.124,30.2705 L9.599,28.6265 C9.471,28.2205 9.362,27.7655 9.263,27.3785 L9.243,27.3785 C9.144,27.7655 9.045,28.2305 8.926,28.6265 L8.411,30.2705 L10.124,30.2705 Z M8.213,31.1915 L7.639,33.0835 L6.381,33.0835 L8.52,26.4085 L10.075,26.4085 L12.243,33.0835 L10.936,33.0835 L10.332,31.1915 L8.213,31.1915 Z" id="Fill-165"></path>
                <path d="M13.0684,28.2598 L13.5734,30.4488 C13.6824,30.9638 13.7914,31.4888 13.8804,32.0138 L13.9004,32.0138 C13.9994,31.4888 14.1574,30.9538 14.2964,30.4588 L14.9204,28.2598 L15.9104,28.2598 L16.5144,30.3998 C16.6634,30.9638 16.7924,31.4888 16.9014,32.0138 L16.9214,32.0138 C17.0004,31.4888 17.1094,30.9638 17.2374,30.3998 L17.7724,28.2598 L18.9704,28.2598 L17.4554,33.0828 L16.3264,33.0828 L15.7524,31.1218 C15.6034,30.6168 15.4944,30.1618 15.3854,29.5768 L15.3664,29.5768 C15.2674,30.1718 15.1384,30.6468 14.9994,31.1218 L14.3854,33.0828 L13.2464,33.0828 L11.8204,28.2598 L13.0684,28.2598 Z" id="Fill-166"></path>
                <path d="M21.7075,30.7266 C20.8465,30.7056 20.0235,30.8946 20.0235,31.6266 C20.0235,32.1026 20.3315,32.3206 20.7175,32.3206 C21.2025,32.3206 21.5595,32.0036 21.6675,31.6576 C21.6975,31.5686 21.7075,31.4686 21.7075,31.3896 L21.7075,30.7266 Z M21.8665,33.0826 L21.7865,32.5486 L21.7575,32.5486 C21.4595,32.9246 20.9555,33.1916 20.3315,33.1916 C19.3605,33.1916 18.8155,32.4886 18.8155,31.7556 C18.8155,30.5386 19.8955,29.9236 21.6775,29.9336 L21.6775,29.8546 C21.6775,29.5376 21.5495,29.0126 20.6975,29.0126 C20.2225,29.0126 19.7275,29.1626 19.4005,29.3696 L19.1625,28.5776 C19.5195,28.3596 20.1435,28.1516 20.9055,28.1516 C22.4505,28.1516 22.8955,29.1316 22.8955,30.1816 L22.8955,31.9236 C22.8955,32.3596 22.9155,32.7866 22.9655,33.0826 L21.8665,33.0826 Z" id="Fill-167"></path>
                <path d="M24.355,29.8145 C24.355,29.1625 24.345,28.6955 24.315,28.2595 L25.375,28.2595 L25.415,29.1815 L25.454,29.1815 C25.692,28.4985 26.256,28.1515 26.771,28.1515 C26.89,28.1515 26.959,28.1615 27.058,28.1815 L27.058,29.3305 C26.959,29.3105 26.85,29.2905 26.702,29.2905 C26.118,29.2905 25.721,29.6665 25.612,30.2105 C25.593,30.3205 25.573,30.4495 25.573,30.5875 L25.573,33.0835 L24.355,33.0835 L24.355,29.8145 Z" id="Fill-168"></path>
                <path d="M30.7437,30.2705 C30.7437,30.1715 30.7337,30.0525 30.7137,29.9535 C30.6047,29.4785 30.2187,29.0915 29.6647,29.0915 C28.8817,29.0915 28.4467,29.7855 28.4467,30.6865 C28.4467,31.5685 28.8817,32.2105 29.6547,32.2105 C30.1497,32.2105 30.5857,31.8745 30.7037,31.3495 C30.7337,31.2415 30.7437,31.1225 30.7437,30.9945 L30.7437,30.2705 Z M31.9617,26.0515 L31.9617,31.7265 C31.9617,32.2215 31.9817,32.7555 32.0017,33.0835 L30.9117,33.0835 L30.8627,32.3205 L30.8427,32.3205 C30.5557,32.8555 29.9717,33.1915 29.2677,33.1915 C28.1197,33.1915 27.2087,32.2105 27.2087,30.7265 C27.1987,29.1115 28.2087,28.1515 29.3677,28.1515 C30.0307,28.1515 30.5057,28.4285 30.7237,28.7855 L30.7437,28.7855 L30.7437,26.0515 L31.9617,26.0515 Z" id="Fill-169"></path>
                <path d="M32.9355,31.9639 C33.2125,32.1329 33.7375,32.3109 34.1735,32.3109 C34.7075,32.3109 34.9455,32.0929 34.9455,31.7759 C34.9455,31.4489 34.7475,31.2809 34.1535,31.0719 C33.2125,30.7459 32.8165,30.2309 32.8265,29.6659 C32.8265,28.8149 33.5295,28.1509 34.6485,28.1509 C35.1835,28.1509 35.6485,28.2899 35.9265,28.4389 L35.6885,29.3009 C35.4805,29.1819 35.0945,29.0239 34.6685,29.0239 C34.2325,29.0239 33.9955,29.2309 33.9955,29.5269 C33.9955,29.8349 34.2225,29.9839 34.8365,30.2009 C35.7085,30.5179 36.1145,30.9639 36.1235,31.6769 C36.1235,32.5489 35.4405,33.1819 34.1635,33.1819 C33.5795,33.1819 33.0545,33.0429 32.6975,32.8459 L32.9355,31.9639 Z" id="Fill-170"></path>
                <polygon id="Fill-171" points="41.5249 27.9824 41.5049 27.9824 40.2369 28.5464 40.1979 27.4274 41.9899 26.6464 43.1489 26.6464 41.9409 33.0834 40.5639 33.0834"></polygon>
                <path d="M46.4595,30.4297 L46.7565,29.0337 C46.8455,28.6267 46.9645,28.1817 47.0635,27.7757 L47.0235,27.7757 C46.7365,28.2107 46.4885,28.6177 46.1825,29.0427 L45.1225,30.4087 L45.1125,30.4297 L46.4595,30.4297 Z M45.9545,33.0827 L46.2515,31.5187 L43.5085,31.5187 L43.6865,30.5687 L46.7565,26.6467 L48.5095,26.6467 L47.7965,30.4297 L48.5485,30.4297 L48.3505,31.5187 L47.5885,31.5187 L47.2915,33.0827 L45.9545,33.0827 Z" id="Fill-172"></path>
                <polygon id="Fill-173" points="47.6699 33.4785 51.1159 26.2985 52.1259 26.2985 48.6799 33.4785"></polygon>
                <polygon id="Fill-174" points="53.3657 27.9824 53.3457 27.9824 52.0777 28.5464 52.0387 27.4274 53.8307 26.6464 54.9897 26.6464 53.7817 33.0834 52.4047 33.0834"></polygon>
                <path d="M60.2803,27.8643 L58.0123,27.8643 L57.7153,28.8643 C57.8143,28.8443 57.8843,28.8443 57.9833,28.8443 C58.3983,28.8443 58.9133,28.9433 59.3203,29.2403 C59.7653,29.5483 60.0233,30.0723 60.0233,30.6773 C60.0233,32.2813 58.6663,33.1913 57.0513,33.1913 C56.2693,33.1913 55.6353,33.0133 55.3783,32.8153 L55.7443,31.6773 C56.0023,31.8363 56.5273,31.9943 57.0723,31.9943 C57.7753,31.9943 58.5373,31.6173 58.5373,30.9243 C58.5373,30.3493 58.1803,29.9333 56.9433,29.9333 C56.6353,29.9333 56.4183,29.9533 56.1513,29.9733 L57.0813,26.6463 L60.5283,26.6463 L60.2803,27.8643 Z" id="Fill-175"></path>
                <polygon id="Fill-176" points="59.3818 33.4785 62.8278 26.2985 63.8378 26.2985 60.3918 33.4785"></polygon>
                <polygon id="Fill-177" points="65.0771 27.9824 65.0571 27.9824 63.7891 28.5464 63.7501 27.4274 65.5421 26.6464 66.7011 26.6464 65.4931 33.0834 64.1161 33.0834"></polygon>
                <path d="M70.5264,30.7168 C70.5264,30.1528 70.2094,29.8238 69.7344,29.8238 C69.3384,29.8238 69.0014,30.0818 68.8034,30.4298 C68.7444,30.5278 68.7044,30.6558 68.7044,30.7458 C68.6844,30.8748 68.6744,30.9838 68.6744,31.0918 C68.6744,31.6468 68.9624,32.0928 69.4664,32.0928 C70.1604,32.0928 70.5264,31.3208 70.5264,30.7168 L70.5264,30.7168 Z M71.8234,27.7258 C71.6654,27.7158 71.4974,27.7158 71.2894,27.7358 C70.1104,27.8438 69.3384,28.4878 69.0214,29.2498 L69.0314,29.2598 C69.3874,28.9438 69.8434,28.7658 70.3584,28.7658 C71.2984,28.7658 72.0024,29.4978 72.0024,30.5688 C72.0024,31.9538 70.9424,33.1918 69.4274,33.1918 C67.9814,33.1918 67.2784,32.2008 67.2784,30.9338 C67.2784,29.4688 67.9814,28.2008 68.8724,27.4978 C69.5954,26.9238 70.5364,26.6068 71.5064,26.5568 C71.7444,26.5368 71.9024,26.5468 72.0414,26.5568 L71.8234,27.7258 Z" id="Fill-178"></path>
            </g>
        </g>
    </g>
</svg>