<svg xmlns="http://www.w3.org/2000/svg" xmlns:xlink="http://www.w3.org/1999/xlink" viewBox="0 0 272.22 55.82"><defs><style>.cls-1{fill:none;}.cls-2{isolation:isolate;}.cls-3{clip-path:url(#clip-path);}.cls-4{fill:#fff;}</style><clipPath id="clip-path" transform="translate(-2.48 -1.75)"><polygon class="cls-1" points="5.61 41.38 0 0 276.76 19.35 265.45 59.55 5.61 41.38"/></clipPath></defs><title>m-40-voucher</title><g id="Layer_2" data-name="Layer 2"><g id="Layer_1-2" data-name="Layer 1"><g class="cls-2"><g class="cls-3"><polyline class="cls-4" points="123.77 35.87 117.35 35.42 116.89 45.89 118.08 45.98 118.3 41.16 123.05 41.49 123.1 40.58 118.34 40.25 118.52 36.42 123.72 36.78 123.77 35.87"/><path class="cls-4" d="M129.51,47.68a2.27,2.27,0,0,1-.68-.14,1.19,1.19,0,0,1-.45-.29,1,1,0,0,1-.24-.43,1.65,1.65,0,0,1-.05-.55,1.35,1.35,0,0,1,.24-.75,1.24,1.24,0,0,1,.59-.41,3,3,0,0,1,.88-.16,9.21,9.21,0,0,1,1.12,0l1.5.1a3.34,3.34,0,0,1-.34,1.27,2.4,2.4,0,0,1-.69.82,2.54,2.54,0,0,1-.9.43,3.1,3.1,0,0,1-1,.09m1.11-6.89a7.06,7.06,0,0,0-.9,0,4.66,4.66,0,0,0-.82.12,3.51,3.51,0,0,0-.74.27,3.23,3.23,0,0,0-.66.44l.63.67a3.17,3.17,0,0,1,.52-.34,2.63,2.63,0,0,1,.55-.21,3.21,3.21,0,0,1,.61-.09,5.45,5.45,0,0,1,.7,0,4.15,4.15,0,0,1,1,.17,1.49,1.49,0,0,1,.64.38,1.34,1.34,0,0,1,.32.64,3.41,3.41,0,0,1,0,1l0,.5-1.4-.1c-.34,0-.66,0-1,0a7.89,7.89,0,0,0-.85,0,4.79,4.79,0,0,0-.73.14,3,3,0,0,0-.61.24,2.21,2.21,0,0,0-.44.3,1.69,1.69,0,0,0-.31.37,1.75,1.75,0,0,0-.2.45,2.42,2.42,0,0,0-.09.54,2.51,2.51,0,0,0,0,.48,1.91,1.91,0,0,0,.11.42,1.7,1.7,0,0,0,.2.37,1.83,1.83,0,0,0,.29.32,1.78,1.78,0,0,0,.33.25,2.49,2.49,0,0,0,.42.2,3.42,3.42,0,0,0,.5.14,4.5,4.5,0,0,0,.57.08,4.42,4.42,0,0,0,.91,0,3.4,3.4,0,0,0,.83-.22,2.71,2.71,0,0,0,.71-.43,2.52,2.52,0,0,0,.55-.65l-.07,1.38,1.07.08.32-4.86a3.6,3.6,0,0,0-.11-1.28,2,2,0,0,0-.54-.9,2.55,2.55,0,0,0-1-.55,5.75,5.75,0,0,0-1.4-.25" transform="translate(-2.48 -1.75)"/><path class="cls-4" d="M140.24,41.43a6.06,6.06,0,0,0-.88,0,4.11,4.11,0,0,0-.74.12,3.12,3.12,0,0,0-.61.23,2.81,2.81,0,0,0-.51.33,2.58,2.58,0,0,0-.56.59,3.35,3.35,0,0,0-.38.74,5.06,5.06,0,0,0-.23.84,8,8,0,0,0-.11.91,7.34,7.34,0,0,0,0,.9,4.81,4.81,0,0,0,.11.81,3.3,3.3,0,0,0,.24.71,2.59,2.59,0,0,0,.39.59,2.55,2.55,0,0,0,.42.38,2.86,2.86,0,0,0,.53.3,3.66,3.66,0,0,0,.65.21,5.08,5.08,0,0,0,.77.11,5.51,5.51,0,0,0,1,0,4.48,4.48,0,0,0,.88-.18,3.74,3.74,0,0,0,.78-.35,3.34,3.34,0,0,0,.66-.51L142,47.5a3.51,3.51,0,0,1-.56.41,3.22,3.22,0,0,1-.61.28,3.3,3.3,0,0,1-.66.14,3.75,3.75,0,0,1-.7,0,2.55,2.55,0,0,1-1-.27,1.55,1.55,0,0,1-.63-.62,2.6,2.6,0,0,1-.28-1,7,7,0,0,1,0-1.31,6.77,6.77,0,0,1,.2-1.31,2.42,2.42,0,0,1,.45-.92,1.67,1.67,0,0,1,.8-.52,3.34,3.34,0,0,1,1.24-.11,4.56,4.56,0,0,1,.57.07,3.12,3.12,0,0,1,.52.15,2.63,2.63,0,0,1,.48.24,2.79,2.79,0,0,1,.44.36l.74-.62a3.16,3.16,0,0,0-.57-.47,3.32,3.32,0,0,0-.64-.32,4.25,4.25,0,0,0-.7-.2,6.3,6.3,0,0,0-.77-.1" transform="translate(-2.48 -1.75)"/><path class="cls-4" d="M145.75,45a3.91,3.91,0,0,1,.26-.91,2.07,2.07,0,0,1,.49-.69,1.88,1.88,0,0,1,.78-.42,3.36,3.36,0,0,1,1.14-.09,3.14,3.14,0,0,1,1.08.24,1.48,1.48,0,0,1,.63.51,1.7,1.7,0,0,1,.27.74,3.89,3.89,0,0,1,0,.94L145.75,45m2.74-3a5.47,5.47,0,0,0-.88,0,4.12,4.12,0,0,0-.75.14,3.34,3.34,0,0,0-.63.25,3,3,0,0,0-.52.34,2.85,2.85,0,0,0-.56.61,3.72,3.72,0,0,0-.39.75,5.28,5.28,0,0,0-.25.85,7.47,7.47,0,0,0-.13.9,6.86,6.86,0,0,0,0,1,4,4,0,0,0,.13.82,2.74,2.74,0,0,0,.28.67,2.51,2.51,0,0,0,.43.54,2.77,2.77,0,0,0,.47.36,3.24,3.24,0,0,0,.57.27,4.38,4.38,0,0,0,.68.19,7,7,0,0,0,1.8.1,4.82,4.82,0,0,0,.89-.16,4.52,4.52,0,0,0,.81-.31,5.52,5.52,0,0,0,.77-.47l-.61-.67a4,4,0,0,1-.6.37,3.86,3.86,0,0,1-.66.25,4.12,4.12,0,0,1-.72.13,4.76,4.76,0,0,1-.78,0,3.24,3.24,0,0,1-1.24-.3,1.62,1.62,0,0,1-.7-.65,2.39,2.39,0,0,1-.28-1,6.7,6.7,0,0,1,0-1.22l5.85.38,0-.2,0-.22,0-.21,0-.17a3.75,3.75,0,0,0-.07-1.22,2.56,2.56,0,0,0-.5-1,2.64,2.64,0,0,0-1-.74,4.55,4.55,0,0,0-1.55-.36" transform="translate(-2.48 -1.75)"/><path class="cls-4" d="M157.76,49.63a3.33,3.33,0,0,1-.52-.08,2.59,2.59,0,0,1-.46-.15,2.19,2.19,0,0,1-1-1,2.34,2.34,0,0,1-.21-.51,2.94,2.94,0,0,1-.1-.6,4.2,4.2,0,0,1,0-.7,4.64,4.64,0,0,1,.13-.71,3.74,3.74,0,0,1,.24-.65,3.12,3.12,0,0,1,.35-.58,2.83,2.83,0,0,1,.48-.48,2.58,2.58,0,0,1,.43-.28,2.65,2.65,0,0,1,.48-.2,2.83,2.83,0,0,1,.52-.1,3.13,3.13,0,0,1,.55,0,2.17,2.17,0,0,1,1.07.32,1.61,1.61,0,0,1,.58.7,2.82,2.82,0,0,1,.22,1,6.25,6.25,0,0,1,0,1.1,6.48,6.48,0,0,1-.23,1.19,3,3,0,0,1-.47,1,1.9,1.9,0,0,1-.79.62,2.59,2.59,0,0,1-1.19.16m-1.47-11.08-1.17-.08L154,50.06l1.08.08.14-1.17a2.44,2.44,0,0,0,.47.66,2.57,2.57,0,0,0,.62.45,3.34,3.34,0,0,0,.74.28,4.65,4.65,0,0,0,.81.13,3.79,3.79,0,0,0,1.74-.24,2.8,2.8,0,0,0,1.13-.86,4,4,0,0,0,.65-1.25,7.1,7.1,0,0,0,.29-1.42,6.75,6.75,0,0,0,0-1.36,3.47,3.47,0,0,0-.33-1.24,2.27,2.27,0,0,0-.84-.93,3.28,3.28,0,0,0-1.52-.44,4.51,4.51,0,0,0-1,0,3.73,3.73,0,0,0-.9.25,3.13,3.13,0,0,0-.77.46,2.88,2.88,0,0,0-.6.67l.57-5.6" transform="translate(-2.48 -1.75)"/><path class="cls-4" d="M167.28,50.29a4,4,0,0,1-.63-.09,2.62,2.62,0,0,1-.49-.16,1.92,1.92,0,0,1-.36-.21,1.61,1.61,0,0,1-.26-.25,1.66,1.66,0,0,1-.26-.44,2.46,2.46,0,0,1-.15-.55,4.06,4.06,0,0,1,0-.65,6.77,6.77,0,0,1,0-.74c0-.24.07-.47.12-.71a4.88,4.88,0,0,1,.19-.67,3.18,3.18,0,0,1,.29-.59,2.13,2.13,0,0,1,.4-.47,2,2,0,0,1,.31-.22,2.1,2.1,0,0,1,.41-.18,2.73,2.73,0,0,1,.55-.11,4.07,4.07,0,0,1,.71,0,4.12,4.12,0,0,1,.64.09,2.62,2.62,0,0,1,.49.16,1.83,1.83,0,0,1,.36.21,1.51,1.51,0,0,1,.25.25,1.65,1.65,0,0,1,.26.46,2.57,2.57,0,0,1,.14.57,4.27,4.27,0,0,1,0,.66,6.91,6.91,0,0,1-.05.72c0,.24-.07.47-.12.7a4.78,4.78,0,0,1-.2.66,3.12,3.12,0,0,1-.29.58,2.14,2.14,0,0,1-.4.47,1.88,1.88,0,0,1-.3.22,2.09,2.09,0,0,1-.41.18,2.73,2.73,0,0,1-.55.11,4,4,0,0,1-.7,0m1-6.9a6,6,0,0,0-.91,0,4.34,4.34,0,0,0-.79.13,3.49,3.49,0,0,0-.67.26,3.44,3.44,0,0,0-1.15,1,3.37,3.37,0,0,0-.4.69,4.7,4.7,0,0,0-.26.81,8.12,8.12,0,0,0-.15.92,7.69,7.69,0,0,0-.06.85,4.14,4.14,0,0,0,.06.76,2.79,2.79,0,0,0,.21.68,2.59,2.59,0,0,0,.39.61,2.68,2.68,0,0,0,.45.41,3,3,0,0,0,.57.32,4,4,0,0,0,.71.23,5.93,5.93,0,0,0,.88.12,6.05,6.05,0,0,0,.92,0,4.22,4.22,0,0,0,.78-.14,3.4,3.4,0,0,0,1.24-.63,3.3,3.3,0,0,0,.56-.57,3.37,3.37,0,0,0,.4-.67,4.66,4.66,0,0,0,.26-.79,8.1,8.1,0,0,0,.16-.92,8,8,0,0,0,.07-.84,4.37,4.37,0,0,0,0-.77,2.83,2.83,0,0,0-.2-.7,2.39,2.39,0,0,0-.39-.61,2.7,2.7,0,0,0-.45-.41,3,3,0,0,0-.58-.33,4,4,0,0,0-.73-.24,5.9,5.9,0,0,0-.89-.13" transform="translate(-2.48 -1.75)"/><path class="cls-4" d="M177.07,51a3.9,3.9,0,0,1-.63-.09,2.62,2.62,0,0,1-.48-.16,1.9,1.9,0,0,1-.36-.21,1.56,1.56,0,0,1-.26-.25,1.67,1.67,0,0,1-.25-.44,2.48,2.48,0,0,1-.14-.55,4,4,0,0,1,0-.65,6.6,6.6,0,0,1,.06-.74c0-.24.07-.47.13-.71a4.93,4.93,0,0,1,.2-.67,3.23,3.23,0,0,1,.3-.59,2.18,2.18,0,0,1,.41-.47,2,2,0,0,1,.31-.22,2.17,2.17,0,0,1,.42-.18,2.79,2.79,0,0,1,.55-.11,4.06,4.06,0,0,1,.7,0,4.11,4.11,0,0,1,.64.09,2.61,2.61,0,0,1,.49.16,1.84,1.84,0,0,1,.36.21,1.55,1.55,0,0,1,.26.25,1.65,1.65,0,0,1,.25.46,2.59,2.59,0,0,1,.13.57,4.25,4.25,0,0,1,0,.66,6.72,6.72,0,0,1-.06.72,7,7,0,0,1-.13.7,4.8,4.8,0,0,1-.21.66,3.2,3.2,0,0,1-.3.58,2.21,2.21,0,0,1-.41.46,1.92,1.92,0,0,1-.3.22,2.13,2.13,0,0,1-.41.18,2.76,2.76,0,0,1-.55.11,4,4,0,0,1-.7,0m1.09-6.9a6.11,6.11,0,0,0-.92,0,4.41,4.41,0,0,0-.79.13,3.55,3.55,0,0,0-.68.26,3.45,3.45,0,0,0-1.16,1,3.48,3.48,0,0,0-.41.69,4.76,4.76,0,0,0-.28.8,8,8,0,0,0-.17.92,7.48,7.48,0,0,0-.07.85,4.08,4.08,0,0,0,.05.76,2.76,2.76,0,0,0,.2.68,2.56,2.56,0,0,0,.39.6,2.64,2.64,0,0,0,.44.41,2.89,2.89,0,0,0,.56.32,3.87,3.87,0,0,0,.71.23,5.89,5.89,0,0,0,.88.12,6.07,6.07,0,0,0,.92,0,4.26,4.26,0,0,0,.78-.13,3.5,3.5,0,0,0,.67-.26,3.54,3.54,0,0,0,.58-.37,3.42,3.42,0,0,0,.57-.57,3.46,3.46,0,0,0,.41-.67,4.69,4.69,0,0,0,.28-.79,8,8,0,0,0,.18-.91,7.77,7.77,0,0,0,.08-.83,4.32,4.32,0,0,0,0-.77,2.81,2.81,0,0,0-.19-.69,2.37,2.37,0,0,0-.38-.61,2.66,2.66,0,0,0-.44-.41,3,3,0,0,0-.57-.33,4,4,0,0,0-.72-.23,5.85,5.85,0,0,0-.89-.13" transform="translate(-2.48 -1.75)"/><polyline class="cls-4" points="183.88 38.9 182.71 38.82 181.01 50.38 182.16 50.46 182.66 47.13 183.44 47.18 186.24 50.74 187.77 50.85 184.46 46.76 188.61 43.4 187.16 43.3 183.59 46.26 182.79 46.2 183.88 38.9"/><path class="cls-4" d="M197.73,48.61a4.15,4.15,0,0,1,.34-.9,2.31,2.31,0,0,1,.54-.69,2.09,2.09,0,0,1,.82-.42,3.49,3.49,0,0,1,1.15-.09,3,3,0,0,1,1.06.24,1.32,1.32,0,0,1,.59.51,1.56,1.56,0,0,1,.21.74,3.87,3.87,0,0,1-.08.93l-4.63-.31m3-3a5.58,5.58,0,0,0-.88,0,4.37,4.37,0,0,0-.76.13,3.67,3.67,0,0,0-.65.25,3.35,3.35,0,0,0-.55.34,3.18,3.18,0,0,0-.61.61,4.06,4.06,0,0,0-.45.74,5.62,5.62,0,0,0-.31.84,7.84,7.84,0,0,0-.2.89,7,7,0,0,0-.1,1,3.84,3.84,0,0,0,.06.81,2.48,2.48,0,0,0,.22.66,2.2,2.2,0,0,0,.39.54,2.47,2.47,0,0,0,.44.36,3,3,0,0,0,.55.27,4.17,4.17,0,0,0,.67.19,6.37,6.37,0,0,0,.8.1,6.63,6.63,0,0,0,1,0,5.1,5.1,0,0,0,.91-.16,5,5,0,0,0,.84-.31,6.19,6.19,0,0,0,.81-.47l-.56-.67a4.46,4.46,0,0,1-.64.36,4.2,4.2,0,0,1-.68.25,4.34,4.34,0,0,1-.73.13,4.88,4.88,0,0,1-.79,0,3.09,3.09,0,0,1-1.22-.3,1.43,1.43,0,0,1-.64-.65,2.22,2.22,0,0,1-.2-1,6.75,6.75,0,0,1,.11-1.22l5.84.38.06-.2.06-.22,0-.21,0-.17a3.67,3.67,0,0,0,0-1.21,2.31,2.31,0,0,0-.41-1,2.36,2.36,0,0,0-.93-.74,4.37,4.37,0,0,0-1.53-.36" transform="translate(-2.48 -1.75)"/><polyline class="cls-4" points="210.26 44.91 208.9 44.82 206.2 47.61 204.58 44.52 203.2 44.42 205.3 48.2 201.62 51.82 202.96 51.91 205.94 48.94 207.71 52.24 209.07 52.34 206.86 48.31 210.26 44.91"/><path class="cls-4" d="M218.08,46.87a6.22,6.22,0,0,0-.88,0,4.46,4.46,0,0,0-.76.12,3.57,3.57,0,0,0-.64.23,3.35,3.35,0,0,0-.55.32,3.12,3.12,0,0,0-.63.58,3.93,3.93,0,0,0-.47.73,5.55,5.55,0,0,0-.34.84,8.17,8.17,0,0,0-.23.9,7.18,7.18,0,0,0-.12.9,4.53,4.53,0,0,0,0,.8,3,3,0,0,0,.16.7,2.21,2.21,0,0,0,.32.59,2.15,2.15,0,0,0,.38.38,2.46,2.46,0,0,0,.5.3,3.31,3.31,0,0,0,.62.21,4.92,4.92,0,0,0,.76.11,5.68,5.68,0,0,0,1,0,4.92,4.92,0,0,0,.91-.18,4.34,4.34,0,0,0,.83-.34,4,4,0,0,0,.73-.51l-.59-.63a4.1,4.1,0,0,1-.61.41,3.68,3.68,0,0,1-.65.27,3.63,3.63,0,0,1-.68.14,3.92,3.92,0,0,1-.71,0,2.38,2.38,0,0,1-1-.27,1.3,1.3,0,0,1-.56-.62,2.35,2.35,0,0,1-.17-1,7,7,0,0,1,.15-1.3,7.13,7.13,0,0,1,.36-1.3,2.78,2.78,0,0,1,.57-.91,2,2,0,0,1,.87-.52,3.54,3.54,0,0,1,1.26-.11,4.53,4.53,0,0,1,.58.07A2.91,2.91,0,0,1,219,48a2.29,2.29,0,0,1,.45.24,2.34,2.34,0,0,1,.4.35l.81-.61a2.58,2.58,0,0,0-.51-.47,2.89,2.89,0,0,0-.6-.32,4,4,0,0,0-.69-.2,6.2,6.2,0,0,0-.76-.1" transform="translate(-2.48 -1.75)"/><polyline class="cls-4" points="223.06 41.64 221.89 41.56 219.48 53.07 220.63 53.15 223.06 41.64"/><path class="cls-4" d="M234.56,48.19l-1.17-.08-.6,2.65a7.76,7.76,0,0,1-.65,1.86,4.36,4.36,0,0,1-.89,1.21,3,3,0,0,1-1,.64,2.74,2.74,0,0,1-1.1.14,1.79,1.79,0,0,1-.72-.18A.92.92,0,0,1,228,54a1.24,1.24,0,0,1-.13-.55,2.81,2.81,0,0,1,.07-.67l1.1-5-1.17-.08-1.13,5.21a2.84,2.84,0,0,0-.05,1,1.61,1.61,0,0,0,.32.77,1.71,1.71,0,0,0,.68.51,3.19,3.19,0,0,0,1,.23,4.14,4.14,0,0,0,1.09-.06,3.56,3.56,0,0,0,1-.33,3.35,3.35,0,0,0,.8-.58,3.5,3.5,0,0,0,.61-.81l-.41,1.84,1.1.08,1.68-7.39" transform="translate(-2.48 -1.75)"/><path class="cls-4" d="M240.08,48.44a6,6,0,0,0-1.23,0,3.86,3.86,0,0,0-1.06.29,2.37,2.37,0,0,0-.8.57,2,2,0,0,0-.45.87,1.42,1.42,0,0,0,.41,1.45,4.64,4.64,0,0,0,1.44.82,9,9,0,0,1,1.47.68.92.92,0,0,1,.5,1,1.3,1.3,0,0,1-.29.58,1.39,1.39,0,0,1-.5.35,2.37,2.37,0,0,1-.66.16,4.32,4.32,0,0,1-.77,0,4.77,4.77,0,0,1-.64-.09,3.35,3.35,0,0,1-.56-.17,2.46,2.46,0,0,1-.48-.25,2,2,0,0,1-.39-.35l-.79.61a1.85,1.85,0,0,0,.46.43,3,3,0,0,0,.62.31,4.65,4.65,0,0,0,.73.2,6.43,6.43,0,0,0,2,.08,4.22,4.22,0,0,0,1.11-.28,2.56,2.56,0,0,0,.88-.59,2.06,2.06,0,0,0,.51-.95,1.49,1.49,0,0,0-.38-1.49,4.39,4.39,0,0,0-1.43-.85,11.07,11.07,0,0,1-1.47-.67c-.39-.25-.62-.54-.52-1a1.15,1.15,0,0,1,.25-.5,1.24,1.24,0,0,1,.45-.32,2.13,2.13,0,0,1,.61-.16,3.92,3.92,0,0,1,.73,0,4.63,4.63,0,0,1,.54.07,3.33,3.33,0,0,1,.49.13,2.69,2.69,0,0,1,.45.21,2.52,2.52,0,0,1,.4.29l.78-.62A2.13,2.13,0,0,0,242,49a2.93,2.93,0,0,0-.56-.27,4.21,4.21,0,0,0-.64-.17,5.91,5.91,0,0,0-.7-.09" transform="translate(-2.48 -1.75)"/><path class="cls-4" d="M246.33,49l-1.17-.08-1.8,7.38,1.15.08L246.33,49m.21-3.24a1.1,1.1,0,0,0-.34,0,.94.94,0,0,0-.29.13.82.82,0,0,0-.22.2.76.76,0,0,0-.12.27.62.62,0,0,0,0,.28.53.53,0,0,0,.11.23.61.61,0,0,0,.21.16.86.86,0,0,0,.3.07,1.11,1.11,0,0,0,.34,0,1,1,0,0,0,.3-.13.87.87,0,0,0,.23-.21.73.73,0,0,0,.13-.27.57.57,0,0,0,0-.27.54.54,0,0,0-.12-.23.65.65,0,0,0-.22-.16.89.89,0,0,0-.31-.08" transform="translate(-2.48 -1.75)"/><polyline class="cls-4" points="253.44 47.93 252.22 47.85 248.06 54.05 247.19 47.5 245.91 47.41 247.1 55 248.46 55.09 253.44 47.93"/><path class="cls-4" d="M257.79,52.81a4.64,4.64,0,0,1,.43-.9,2.66,2.66,0,0,1,.61-.68,2.36,2.36,0,0,1,.86-.41,3.62,3.62,0,0,1,1.17-.09,2.9,2.9,0,0,1,1,.24,1.16,1.16,0,0,1,.55.5,1.44,1.44,0,0,1,.14.73,3.88,3.88,0,0,1-.17.92l-4.64-.31m3.3-2.93a5.67,5.67,0,0,0-.89,0,4.62,4.62,0,0,0-.78.13,4.05,4.05,0,0,0-.68.24,3.86,3.86,0,0,0-.58.34,3.7,3.7,0,0,0-.67.6,4.62,4.62,0,0,0-.53.74,6.12,6.12,0,0,0-.4.83,8.11,8.11,0,0,0-.29.89,7,7,0,0,0-.19,1,3.71,3.71,0,0,0,0,.81,2.27,2.27,0,0,0,.16.66,1.94,1.94,0,0,0,.34.53A2.17,2.17,0,0,0,257,57a2.66,2.66,0,0,0,.52.27,3.9,3.9,0,0,0,.65.19,6.24,6.24,0,0,0,.79.1,6.8,6.8,0,0,0,1,0,5.44,5.44,0,0,0,.93-.15,5.54,5.54,0,0,0,.88-.31,7.23,7.23,0,0,0,.86-.46l-.5-.67a5,5,0,0,1-.68.36,4.66,4.66,0,0,1-1.47.38,5,5,0,0,1-.79,0,2.93,2.93,0,0,1-1.2-.3,1.26,1.26,0,0,1-.59-.64,2.09,2.09,0,0,1-.11-.95,6.81,6.81,0,0,1,.23-1.21l5.85.38.08-.2.08-.22.07-.21.05-.17a3.65,3.65,0,0,0,.14-1.2,2,2,0,0,0-1.2-1.75,4.19,4.19,0,0,0-1.51-.35" transform="translate(-2.48 -1.75)"/><path class="cls-4" d="M127.77,12.32a13.12,13.12,0,0,0-1.79,0,8.56,8.56,0,0,0-1.48.22,6.05,6.05,0,0,0-1.2.43,4.93,4.93,0,0,0-2,1.73,5.87,5.87,0,0,0-.66,1.38,9.51,9.51,0,0,0-.38,1.64,18.67,18.67,0,0,0-.17,1.89c0,.59,0,1.16,0,1.7a8.73,8.73,0,0,0,.21,1.54,5.6,5.6,0,0,0,.52,1.37,5.28,5.28,0,0,0,1.82,1.92,6.26,6.26,0,0,0,1.15.56,9.2,9.2,0,0,0,1.43.39,14.63,14.63,0,0,0,1.74.22c.55,0,1.07.05,1.58,0s1,0,1.45-.08.9-.11,1.3-.19.79-.17,1.14-.27l.46-7.29-6-.42-.12,2.25,3.16.22-.2,3.44-.62.08-.69,0h-.73l-.71,0a9.36,9.36,0,0,1-1-.12,5.07,5.07,0,0,1-.79-.2,3.14,3.14,0,0,1-.6-.28,2.58,2.58,0,0,1-.46-.36,1.86,1.86,0,0,1-.4-.55,3.33,3.33,0,0,1-.26-.86,8.68,8.68,0,0,1-.12-1.29c0-.51,0-1.12,0-1.85s.08-1.22.14-1.7a8.29,8.29,0,0,1,.22-1.19,3.46,3.46,0,0,1,.33-.81,2.35,2.35,0,0,1,.44-.55,2.19,2.19,0,0,1,.46-.33,2.73,2.73,0,0,1,.61-.23,4.31,4.31,0,0,1,.8-.12,7.56,7.56,0,0,1,1,0,9.18,9.18,0,0,1,1.14.15,6.92,6.92,0,0,1,1,.28,5.56,5.56,0,0,1,.89.41,5,5,0,0,1,.77.54L133,14.25a5.39,5.39,0,0,0-1-.79,6.92,6.92,0,0,0-1.24-.57,9.7,9.7,0,0,0-1.42-.37,14,14,0,0,0-1.58-.2" transform="translate(-2.48 -1.75)"/><polyline class="cls-4" points="137.4 11.63 134.33 11.42 133.35 25.96 136.35 26.17 137.4 11.63"/><polyline class="cls-4" points="150.7 12.56 141.14 11.9 140 26.42 143.03 26.63 143.52 20.78 149.32 21.19 149.54 18.81 143.72 18.4 144.04 14.54 150.48 14.99 150.7 12.56"/><polyline class="cls-4" points="164.36 13.52 151.86 12.64 151.63 15.09 156.32 15.42 155.09 27.48 158.12 27.69 159.4 15.64 164.08 15.96 164.36 13.52"/><polyline class="cls-4" points="184.14 14.9 180.9 14.68 175.45 25.93 173.08 14.13 169.74 13.9 173.28 28.75 176.72 28.99 184.14 14.9"/><path class="cls-4" d="M192.45,29.72a6.52,6.52,0,0,1-.86-.11,4.17,4.17,0,0,1-.7-.2,2.77,2.77,0,0,1-.55-.29,1.92,1.92,0,0,1-.78-1.07,4,4,0,0,1-.16-1,9.25,9.25,0,0,1,0-1.25c0-.47.1-1,.18-1.55s.19-1.14.29-1.6a8.69,8.69,0,0,1,.35-1.2,4.2,4.2,0,0,1,.45-.88,3.07,3.07,0,0,1,.59-.64,3.11,3.11,0,0,1,.57-.37,3.36,3.36,0,0,1,.67-.25,4.33,4.33,0,0,1,.78-.13,6.28,6.28,0,0,1,.9,0,6.19,6.19,0,0,1,.88.12,4.09,4.09,0,0,1,.71.22,2.81,2.81,0,0,1,.55.3,2.09,2.09,0,0,1,.8,1.1,3.83,3.83,0,0,1,.17,1,8.75,8.75,0,0,1,0,1.25c0,.47-.11,1-.2,1.56s-.2,1.13-.31,1.59a8.65,8.65,0,0,1-.37,1.2,4.25,4.25,0,0,1-.47.88,3,3,0,0,1-.6.64,3.11,3.11,0,0,1-.55.35,3.32,3.32,0,0,1-.65.24,4.35,4.35,0,0,1-.77.12,6.51,6.51,0,0,1-.91,0m2.19-12.8a11.73,11.73,0,0,0-1.76,0,8.49,8.49,0,0,0-1.48.25,6.71,6.71,0,0,0-1.23.45A5.94,5.94,0,0,0,188,19.36a7,7,0,0,0-.81,1.37,10.05,10.05,0,0,0-.56,1.61,16.63,16.63,0,0,0-.36,1.83,16.24,16.24,0,0,0-.17,1.81,9,9,0,0,0,.08,1.57,5.55,5.55,0,0,0,.36,1.35,4.29,4.29,0,0,0,.68,1.12,4.14,4.14,0,0,0,.79.71,5.46,5.46,0,0,0,1.05.57,7.8,7.8,0,0,0,1.33.4,11.45,11.45,0,0,0,1.61.22,11.83,11.83,0,0,0,1.72,0,8.58,8.58,0,0,0,1.45-.23,6.78,6.78,0,0,0,1.21-.43,6,6,0,0,0,1-.59,5.86,5.86,0,0,0,1.13-1.09,6.81,6.81,0,0,0,.83-1.34,10,10,0,0,0,.58-1.58,17,17,0,0,0,.39-1.8,16.47,16.47,0,0,0,.21-1.82,9.25,9.25,0,0,0,0-1.6,5.72,5.72,0,0,0-.34-1.39,4.4,4.4,0,0,0-.67-1.17,4.32,4.32,0,0,0-.78-.73,5.37,5.37,0,0,0-1.05-.59,7.62,7.62,0,0,0-1.35-.42,11.57,11.57,0,0,0-1.68-.23" transform="translate(-2.48 -1.75)"/><path class="cls-4" d="M217.24,18.79l-3.1-.22L212.4,28a7.6,7.6,0,0,1-.33,1.3,2.3,2.3,0,0,1-.59.91,2.21,2.21,0,0,1-1.06.5,6.34,6.34,0,0,1-1.74.07,5.9,5.9,0,0,1-1.72-.32,1.63,1.63,0,0,1-.84-.65,1.81,1.81,0,0,1-.22-1,7.86,7.86,0,0,1,.15-1.27l1.66-9.4-3.1-.22L203,27.33c-.06.34-.1.68-.13,1a6,6,0,0,0,0,1,3.93,3.93,0,0,0,.19.93,3.11,3.11,0,0,0,.44.84,3.43,3.43,0,0,0,.67.68,4.68,4.68,0,0,0,1,.57,7.1,7.1,0,0,0,1.32.43,11.24,11.24,0,0,0,1.7.24,11.88,11.88,0,0,0,1.78,0,8.58,8.58,0,0,0,1.51-.25,6.38,6.38,0,0,0,1.24-.46,5,5,0,0,0,1-.64,4.29,4.29,0,0,0,.69-.72,4.9,4.9,0,0,0,.51-.85,6.68,6.68,0,0,0,.36-.95,10.34,10.34,0,0,0,.25-1l1.77-9.31" transform="translate(-2.48 -1.75)"/><path class="cls-4" d="M227.12,19.23a11,11,0,0,0-1.6,0,8,8,0,0,0-1.36.22,6.44,6.44,0,0,0-1.16.41,6,6,0,0,0-1,.58,6.5,6.5,0,0,0-1.23,1.17,7.57,7.57,0,0,0-.9,1.42,10.73,10.73,0,0,0-.63,1.62,17.39,17.39,0,0,0-.44,1.77,17,17,0,0,0-.25,1.71,9.48,9.48,0,0,0,0,1.62,5.58,5.58,0,0,0,.31,1.47,3.9,3.9,0,0,0,1.4,1.86,4.58,4.58,0,0,0,.87.49,6.21,6.21,0,0,0,1.11.35,9.27,9.27,0,0,0,1.37.19,9.76,9.76,0,0,0,1.67,0,8.08,8.08,0,0,0,1.54-.3,7.75,7.75,0,0,0,1.42-.59,8.72,8.72,0,0,0,1.33-.89l-1.47-1.73a7.14,7.14,0,0,1-.93.59,6,6,0,0,1-1,.42,5.43,5.43,0,0,1-2.08.26,4.39,4.39,0,0,1-.74-.11,2.71,2.71,0,0,1-.56-.2,1.94,1.94,0,0,1-.41-.27,1.78,1.78,0,0,1-.29-.33,2,2,0,0,1-.28-.61,3.61,3.61,0,0,1-.12-.86,8.16,8.16,0,0,1,.06-1.19c.05-.46.14-1,.26-1.61s.24-1.09.36-1.55a11.91,11.91,0,0,1,.4-1.21,6.09,6.09,0,0,1,.43-.89,3,3,0,0,1,.46-.6,2.57,2.57,0,0,1,.45-.35,2.84,2.84,0,0,1,.6-.27,3.79,3.79,0,0,1,.78-.16,5.75,5.75,0,0,1,1,0,6.35,6.35,0,0,1,.89.12,4.86,4.86,0,0,1,.82.25,4,4,0,0,1,.75.4,3.7,3.7,0,0,1,.65.56l2.1-1.73a4.09,4.09,0,0,0-.91-.87,5.2,5.2,0,0,0-1.12-.59,7.42,7.42,0,0,0-1.25-.36,10.71,10.71,0,0,0-1.32-.17" transform="translate(-2.48 -1.75)"/><polyline class="cls-4" points="244.88 19.15 241.78 18.93 240.4 24.86 234.1 24.42 235.42 18.49 232.34 18.27 229.21 32.66 232.22 32.87 233.57 26.8 239.85 27.24 238.44 33.3 241.47 33.52 244.88 19.15"/><polyline class="cls-4" points="258.15 20.08 248.59 19.41 245.1 33.77 254.55 34.43 255.12 32.21 248.63 31.75 249.59 27.9 255.45 28.31 256.03 26.05 250.15 25.63 251.06 21.94 257.56 22.39 258.15 20.08"/><path class="cls-4" d="M265.16,29.09l1.2-4.48,3,.21.6.06a3.75,3.75,0,0,1,.47.1,1.81,1.81,0,0,1,.36.14,1,1,0,0,1,.25.19.77.77,0,0,1,.17.28,1.35,1.35,0,0,1,.07.38,2.5,2.5,0,0,1,0,.48,4.25,4.25,0,0,1-.12.56,3.59,3.59,0,0,1-.57,1.23,2.3,2.3,0,0,1-.86.71,3.49,3.49,0,0,1-1.16.3,8.88,8.88,0,0,1-1.47,0l-2-.14m5-6.59-6.22-.44L260.13,36.4l3,.21,1.41-5.26,2.44.17a1.85,1.85,0,0,1,1,.33,1.57,1.57,0,0,1,.52.92,7.08,7.08,0,0,1,.12,1.66c0,.69-.06,1.53-.14,2.55l3.19.22c.11-1,.19-1.91.22-2.67a8.84,8.84,0,0,0-.11-2,2.73,2.73,0,0,0-.57-1.29,2.28,2.28,0,0,0-1.16-.69,6.14,6.14,0,0,0,1.61-.43,4.78,4.78,0,0,0,1.26-.79,4.67,4.67,0,0,0,.93-1.11,5.66,5.66,0,0,0,.59-1.39,4.88,4.88,0,0,0,.19-1.14,3,3,0,0,0-.1-.92,2.32,2.32,0,0,0-.35-.73,2.62,2.62,0,0,0-.55-.56,4,4,0,0,0-.7-.41,5.67,5.67,0,0,0-.83-.3,8.41,8.41,0,0,0-1-.2q-.51-.08-1.07-.12" transform="translate(-2.48 -1.75)"/><path class="cls-4" d="M20.74,1.82a18,18,0,0,0-7.5.84A9.5,9.5,0,0,0,8.82,5.86,10.74,10.74,0,0,0,6.9,10.52a17.68,17.68,0,0,0-.05,5.23l.37,2.92-4.74-.33.83,6.16L8,24.82,9.33,35.09l-4.62-.32.79,5.86,31,2.17L36,37,17.55,35.67,16.36,25.41l10,.7L25.79,20l-10.14-.71-.31-2.68A25.87,25.87,0,0,1,15.12,13a6.24,6.24,0,0,1,.57-2.69A3.32,3.32,0,0,1,17.53,8.7a8.59,8.59,0,0,1,3.63-.36,14.56,14.56,0,0,1,2,.27,12.23,12.23,0,0,1,1.8.52,10.3,10.3,0,0,1,1.6.76,8.86,8.86,0,0,1,1.37,1l4.42-4.76A13.71,13.71,0,0,0,30,4.41a17,17,0,0,0-2.78-1.29,21.49,21.49,0,0,0-3.11-.86,26.59,26.59,0,0,0-3.36-.44" transform="translate(-2.48 -1.75)"/><polyline class="cls-4" points="54.39 3.08 46.01 2.5 37.23 27.82 37.73 34.07 54.77 35.26 55.16 42.52 62.74 43.05 62.43 35.8 69.25 36.27 69.05 29.88 62.16 29.4 61.55 14.67 53.77 14.13 54.56 28.92 45.27 28.27 54.39 3.08"/><path class="cls-4" d="M92.12,41.48a6.83,6.83,0,0,1-3.36-1,5.85,5.85,0,0,1-2.08-2.55,14.94,14.94,0,0,1-1.08-4.23,51.66,51.66,0,0,1-.35-6.07,54.12,54.12,0,0,1,.27-6.67,15.61,15.61,0,0,1,1.13-4.62,5.4,5.4,0,0,1,2.24-2.6,6.29,6.29,0,0,1,3.58-.64A6.89,6.89,0,0,1,96,14.18a6.06,6.06,0,0,1,2.12,2.74,15.86,15.86,0,0,1,1,4.47,54,54,0,0,1,.22,6.25,53.32,53.32,0,0,1-.4,6.49,14.65,14.65,0,0,1-1.17,4.36,5.14,5.14,0,0,1-2.19,2.41,6.31,6.31,0,0,1-3.46.58m.42-35a21.93,21.93,0,0,0-3.69,0,14.93,14.93,0,0,0-3.08.62,11.58,11.58,0,0,0-2.54,1.15,10.9,10.9,0,0,0-2.06,1.63,12.38,12.38,0,0,0-2.37,3.35,18.26,18.26,0,0,0-1.4,4.09A30.84,30.84,0,0,0,76.76,22c-.11,1.61-.13,3.28-.09,5s.13,3.22.3,4.74A31.23,31.23,0,0,0,77.73,36a19.06,19.06,0,0,0,1.38,3.78,13.32,13.32,0,0,0,2.15,3.14,12.38,12.38,0,0,0,1.92,1.68A13.45,13.45,0,0,0,85.56,46a16.51,16.51,0,0,0,2.9.95,22.23,22.23,0,0,0,3.47.5,22,22,0,0,0,3.49,0,15.71,15.71,0,0,0,3-.54,12,12,0,0,0,2.47-1,10.16,10.16,0,0,0,2-1.43,12.12,12.12,0,0,0,2.36-3,17.63,17.63,0,0,0,1.53-3.81,29.46,29.46,0,0,0,.85-4.43c.19-1.57.29-3.21.34-4.9s0-3.21-.08-4.76a32.76,32.76,0,0,0-.59-4.51A20.53,20.53,0,0,0,106,14.91a13.74,13.74,0,0,0-2.1-3.41,12.41,12.41,0,0,0-2-1.89A13.53,13.53,0,0,0,99.39,8.1,16.75,16.75,0,0,0,96.28,7a22.73,22.73,0,0,0-3.74-.56" transform="translate(-2.48 -1.75)"/></g></g></g></g></svg>