<?xml version="1.0" encoding="utf-8"?>
<!-- Generator: Adobe Illustrator 19.2.0, SVG Export Plug-In . SVG Version: 6.00 Build 0)  -->
<!DOCTYPE svg PUBLIC "-//W3C//DTD SVG 1.1//EN" "http://www.w3.org/Graphics/SVG/1.1/DTD/svg11.dtd">
<svg version="1.1" id="Layer_1" xmlns="http://www.w3.org/2000/svg" xmlns:xlink="http://www.w3.org/1999/xlink" x="0px" y="0px"
	 width="3px" height="30px" viewBox="0 0 3 30" style="enable-background:new 0 0 3 30;" xml:space="preserve">
<style type="text/css">
	.st0{fill:#0078FF;}
	.st1{fill:none;}
</style>
<g>
	<g>
		<path class="st0" d="M184-77c1.1,0,2,0.9,2,2v0.2l0.1,0.2l4.5,10.8c0.2,0.5,0.2,1,0,1.5l-4.5,10.8l-0.1,0.2v0.2c0,1.1-0.9,2-2,2
			H61c-1.1,0-2-0.9-2-2v-24c0-1.1,0.9-2,2-2H184 M184-78H61c-1.7,0-3,1.3-3,3v24c0,1.7,1.3,3,3,3h123c1.7,0,3-1.3,3-3l4.5-10.8
			c0.3-0.7,0.3-1.6,0-2.3L187-75C187-76.7,185.7-78,184-78L184-78z"/>
	</g>
</g>
<g>
	<path class="st0" d="M45-77c1.1,0,2,0.9,2,2v0.2l0.1,0.2l4.5,10.8c0.2,0.5,0.2,1,0,1.5l-4.5,10.8L47-51.2v0.2c0,1.1-0.9,2-2,2H3
		c-1.1,0-2-0.9-2-2v-24c0-1.1,0.9-2,2-2H45 M45-78H3c-1.7,0-3,1.3-3,3v24c0,1.7,1.3,3,3,3h42c1.7,0,3-1.3,3-3l4.5-10.8
		c0.3-0.7,0.3-1.6,0-2.3L48-75C48-76.7,46.7-78,45-78L45-78z"/>
</g>
<g>
	<g>
		<g>
			<g>
				<rect x="64" y="-69" class="st1" width="154.5" height="28"/>
				<text transform="matrix(0.994 0 0 1 63.9999 -58.29)" class="st0" style="font-family:'Facit-Regular'; font-size:14px;">Existing customers</text>
			</g>
		</g>
	</g>
</g>
<rect x="53" y="-63" class="st0" width="5" height="1"/>
<rect id="_x3C_Slice_x3E_" y="-78" class="st1" width="4" height="30"/>
<rect id="_x3C_Slice_x3E__1_" x="44" y="-78" class="st1" width="14" height="30"/>
<rect id="_x3C_Slice_x3E__2_" x="61" y="-78" class="st1" width="3" height="30"/>
<g>
	<path class="st0" d="M1-38c1.1,0,2,0.9,2,2v0.2l0.1,0.2l4.5,10.8c0.2,0.5,0.2,1,0,1.5L3.1-12.4L3-12.2v0.2c0,1.1-0.9,2-2,2h-42
		c-1.1,0-2-0.9-2-2v-24c0-1.1,0.9-2,2-2H1 M1-39h-42c-1.7,0-3,1.3-3,3v24c0,1.7,1.3,3,3,3H1c1.7,0,3-1.3,3-3l4.5-10.8
		c0.3-0.7,0.3-1.6,0-2.3L4-36C4-37.7,2.7-39,1-39L1-39z"/>
</g>
<rect x="9" y="-24" class="st0" width="5" height="1"/>
<g>
	<path class="st0" d="M22.3,1c1.1,0,2,0.9,2,2v0.2l0.1,0.2l4.5,10.8c0.2,0.5,0.2,1,0,1.5l-4.5,10.8l-0.1,0.2V27c0,1.1-0.9,2-2,2h-42
		c-1.1,0-2-0.9-2-2V3c0-1.1,0.9-2,2-2H22.3 M22.3,0h-42c-1.7,0-3,1.3-3,3v24c0,1.7,1.3,3,3,3h42c1.7,0,3-1.3,3-3l4.5-10.8
		c0.3-0.7,0.3-1.6,0-2.3L25.3,3C25.3,1.3,23.9,0,22.3,0L22.3,0z"/>
</g>
</svg>
