<?xml version="1.0" encoding="utf-8"?>
<!-- Generator: Adobe Illustrator 16.0.0, SVG Export Plug-In . SVG Version: 6.00 Build 0)  -->
<!DOCTYPE svg PUBLIC "-//W3C//DTD SVG 1.1//EN" "http://www.w3.org/Graphics/SVG/1.1/DTD/svg11.dtd">
<svg version="1.1" id="Layer_1" xmlns="http://www.w3.org/2000/svg" xmlns:xlink="http://www.w3.org/1999/xlink" x="0px" y="0px"
	 width="30px" height="30px" viewBox="0 0 30 30" enable-background="new 0 0 30 30" xml:space="preserve">
<g>
	<g id="Policy_Number_3_">
		<g id="Question_3_">
			<g>
				<path fill="#FFFFFF" d="M15.032,1c3.725,0,7.241,1.456,9.874,4.098c2.631,2.643,4.086,6.153,4.082,9.885
					c-0.007,7.72-6.29,14.007-14.021,14.014C7.23,28.997,1.095,22.849,0.997,15c-0.046-3.667,1.361-7.14,3.959-9.78
					C7.621,2.512,11.194,1.013,15.014,1H15 M15.064,0c-0.018,0-0.036,0-0.054,0C6.665,0.029-0.104,6.769-0.001,15.013
					C0.103,23.291,6.694,30,14.971,30c0.004,0,0.008,0,0.013,0c8.284,0,15.004-6.73,15.012-15.014
					C30.004,6.721,23.322,0.001,15.064,0L15.064,0z"/>
			</g>
		</g>
	</g>
	<g>
		<line fill="none" stroke="#FFFFFF" stroke-width="2" stroke-miterlimit="10" x1="22.346" y1="7.633" x2="7.66" y2="22.318"/>
		<line fill="none" stroke="#FFFFFF" stroke-width="2" stroke-miterlimit="10" x1="22.346" y1="22.318" x2="7.66" y2="7.633"/>
	</g>
</g>
</svg>
