<?xml version="1.0" encoding="utf-8"?>
<!-- Generator: Adobe Illustrator 16.0.0, SVG Export Plug-In . SVG Version: 6.00 Build 0)  -->
<!DOCTYPE svg PUBLIC "-//W3C//DTD SVG 1.1//EN" "http://www.w3.org/Graphics/SVG/1.1/DTD/svg11.dtd">
<svg version="1.1" id="Layer_1" xmlns="http://www.w3.org/2000/svg" xmlns:xlink="http://www.w3.org/1999/xlink" x="0px" y="0px"
	 width="30.002px" height="30px" viewBox="0 0 30.002 30" enable-background="new 0 0 30.002 30" xml:space="preserve">
<g>
	<g id="Policy_Number_7_">
		<g id="Question_7_">
			<g>
				<path fill="#A4CCEA" d="M24.874,24.924c-2.634,2.634-6.149,4.09-9.88,4.084c-3.729-0.01-7.24-1.462-9.876-4.105
					c-5.456-5.463-5.459-14.35,0.005-19.822C10.595-0.39,19.279-0.381,24.899,5.1c2.625,2.56,4.087,6.011,4.116,9.715
					c0.029,3.799-1.437,7.385-4.129,10.096l0.01-0.011 M25.559,25.653c0.013-0.013,0.025-0.025,0.038-0.038
					c5.88-5.922,5.901-15.474-0.002-21.231c-5.925-5.78-15.33-5.863-21.184-0.009C4.408,4.378,4.405,4.381,4.402,4.385
					c-5.857,5.857-5.853,15.368,0,21.23C10.241,31.464,19.719,31.491,25.559,25.653L25.559,25.653z"/>
			</g>
		</g>
	</g>
	<g>
		<line fill="none" stroke="#A4CCEA" stroke-width="2" stroke-miterlimit="10" x1="15.012" y1="25.405" x2="15.014" y2="4.636"/>
		<line fill="none" stroke="#A4CCEA" stroke-width="2" stroke-miterlimit="10" x1="4.628" y1="15.022" x2="25.397" y2="15.02"/>
	</g>
</g>
</svg>
