<?xml version="1.0" encoding="UTF-8" standalone="no"?>
<svg width="116px" height="23px" viewBox="0 0 116 23" version="1.1" xmlns="http://www.w3.org/2000/svg" xmlns:xlink="http://www.w3.org/1999/xlink">
    <!-- Generator: Sketch 40.3 (33839) - http://www.bohemiancoding.com/sketch -->
    <title>reevoo-logo</title>
    <desc>Created with Sketch.</desc>
    <defs></defs>
    <g id="Page-1" stroke="none" stroke-width="1" fill="none" fill-rule="evenodd">
        <g id="reevoo-logo" fill="#FFFFFF">
            <g id="Page-1">
                <path d="M109.8235,7.2301 C106.9795,7.2301 104.7545,9.6571 104.7545,12.3221 C104.7545,12.8351 104.8485,15.3211 107.6565,16.9931 C108.6965,17.6121 108.8975,19.2711 107.9525,20.0731 C107.7925,20.2081 107.7935,20.5481 108.0545,20.5481 C108.3165,20.5481 109.1255,20.3661 110.3135,19.8211 C112.9075,18.6311 114.9595,15.6441 114.9375,12.3801 C114.9185,9.5371 112.6675,7.2301 109.8235,7.2301" id="Fill-1"></path>
                <path d="M98.8962,0 C101.7402,0 103.9652,2.427 103.9652,5.092 C103.9652,5.605 103.8712,8.091 101.0632,9.763 C100.0232,10.382 99.8222,12.041 100.7672,12.843 C100.9272,12.978 100.9262,13.318 100.6652,13.318 C100.4032,13.318 99.5942,13.136 98.4062,12.591 C95.8122,11.401 93.7602,8.414 93.7822,5.15 C93.8012,2.307 96.0522,0 98.8962,0" id="Fill-3"></path>
                <path d="M20.2435,13.5188 L15.3575,13.5188 L15.3575,12.7628 C15.3575,11.3128 16.0195,10.3038 17.9105,10.3038 C19.8015,10.3038 20.2435,11.3128 20.2435,12.7628 L20.2435,13.5188 Z M17.8795,7.1508 C12.9615,7.1508 11.5105,9.8938 11.5105,13.1408 L11.5105,17.2068 C11.5105,20.8958 13.1815,23.1338 18.0055,23.1338 C19.8335,23.1338 21.9145,22.8188 23.6475,22.1568 L23.0495,19.2568 C21.3785,19.7608 19.8335,19.9818 18.3525,19.9818 C16.0195,19.9818 15.3575,19.2568 15.3575,17.3968 L15.3575,16.6078 L23.9005,16.6078 L23.9005,13.3288 C23.9005,10.0198 22.7975,7.1508 17.8795,7.1508 L17.8795,7.1508 Z" id="Fill-5"></path>
                <path d="M35.7428,13.5188 L30.8558,13.5188 L30.8558,12.7628 C30.8558,11.3128 31.5188,10.3038 33.4098,10.3038 C35.3008,10.3038 35.7428,11.3128 35.7428,12.7628 L35.7428,13.5188 Z M33.3788,7.1508 C28.4608,7.1508 27.0098,9.8938 27.0098,13.1408 L27.0098,17.2068 C27.0098,20.8958 28.6808,23.1338 33.5048,23.1338 C35.3328,23.1338 37.4138,22.8188 39.1478,22.1568 L38.5488,19.2568 C36.8778,19.7608 35.3328,19.9818 33.8518,19.9818 C31.5188,19.9818 30.8558,19.2568 30.8558,17.3968 L30.8558,16.6078 L39.4008,16.6078 L39.4008,13.3288 C39.4008,10.0198 38.2968,7.1508 33.3788,7.1508 L33.3788,7.1508 Z" id="Fill-7"></path>
                <polygon id="Fill-9" points="48.6893 19.1299 45.1903 7.4659 41.2493 7.4659 46.1673 22.8179 51.2433 22.8179 56.1613 7.4659 52.2203 7.4659"></polygon>
                <path d="M67.5305,17.2069 C67.5305,18.9409 66.7425,19.8559 64.6935,19.8559 C62.6445,19.8559 61.8565,18.9409 61.8565,17.2069 L61.8565,13.0779 C61.8565,11.3439 62.6445,10.4289 64.6935,10.4289 C66.7425,10.4289 67.5305,11.3439 67.5305,13.0779 L67.5305,17.2069 Z M64.6935,7.1509 C59.4285,7.1509 58.0095,10.0509 58.0095,13.2029 L58.0095,17.0809 C58.0095,20.2339 59.4285,23.1339 64.6935,23.1339 C69.9575,23.1339 71.3765,20.2339 71.3765,17.0809 L71.3765,13.2029 C71.3765,10.0509 69.9575,7.1509 64.6935,7.1509 L64.6935,7.1509 Z" id="Fill-11"></path>
                <path d="M84.165,17.2069 C84.165,18.9409 83.376,19.8559 81.327,19.8559 C79.278,19.8559 78.489,18.9409 78.489,17.2069 L78.489,13.0779 C78.489,11.3439 79.278,10.4289 81.327,10.4289 C83.376,10.4289 84.165,11.3439 84.165,13.0779 L84.165,17.2069 Z M81.327,7.1509 C76.062,7.1509 74.643,10.0509 74.643,13.2029 L74.643,17.0809 C74.643,20.2339 76.062,23.1339 81.327,23.1339 C86.593,23.1339 88.012,20.2339 88.012,17.0809 L88.012,13.2029 C88.012,10.0509 86.593,7.1509 81.327,7.1509 L81.327,7.1509 Z" id="Fill-13"></path>
                <path d="M3.4993,9.1683 L3.2473,7.4663 L0.0003,7.4663 L0.0003,22.8183 L3.8463,22.8183 L3.8453,12.8203 C3.8453,12.8203 4.8123,11.9553 6.0633,11.3333 C7.3133,10.7113 8.9943,10.9203 8.9943,10.9203 L9.2043,7.6213 C9.2043,7.6213 7.3273,7.3633 5.9993,7.8033 C4.6163,8.2623 3.4993,9.1683 3.4993,9.1683" id="Fill-15"></path>
            </g>
        </g>
    </g>
</svg>