<?xml version="1.0" encoding="UTF-8" standalone="no"?>
<svg width="94px" height="80px" viewBox="0 0 94 80" version="1.1" xmlns="http://www.w3.org/2000/svg" xmlns:xlink="http://www.w3.org/1999/xlink">
    <!-- Generator: Sketch 40.3 (33839) - http://www.bohemiancoding.com/sketch -->
    <title>reevoo-score</title>
    <desc>Created with Sketch.</desc>
    <defs>
        <polygon id="path-1" points="0 80.1631 93.198 80.1631 93.198 0.0001 0 0.0001"></polygon>
    </defs>
    <g id="Page-1" stroke="none" stroke-width="1" fill="none" fill-rule="evenodd">
        <g id="reevoo-score">
            <g id="Page-1">
                <path d="M27.7974,23.3994 C29.8714,23.3994 30.8674,23.1504 31.6144,22.4034 C32.5264,21.4914 32.9424,19.9144 32.9424,16.6784 C32.9424,13.6914 32.5264,12.1144 31.6974,11.2844 C30.9504,10.6214 29.9544,10.2894 27.7974,10.2894 L19.5824,10.2894 C17.3424,10.2894 16.4294,10.6214 15.6824,11.2844 C14.7704,12.1144 14.3554,13.6914 14.3554,16.6784 C14.3554,19.9144 14.7704,21.4914 15.6824,22.4034 C16.4294,23.1504 17.5074,23.3994 19.5824,23.3994 L27.7974,23.3994 L27.7974,23.3994 Z M27.7144,47.7954 C30.0374,47.7954 31.1994,47.5454 32.1114,46.7164 C33.1084,45.6374 33.5224,43.8954 33.5224,40.5754 C33.5224,36.9244 33.1084,35.2654 32.1114,34.2694 C31.2824,33.4404 30.1204,33.1074 27.7144,33.1074 L19.6654,33.1074 C17.1764,33.1074 16.0974,33.4404 15.1844,34.2694 C14.1894,35.2654 13.7744,36.9244 13.7744,40.5754 C13.7744,43.8954 14.1894,45.6374 15.2674,46.7164 C16.0974,47.5454 17.3424,47.7954 19.6654,47.7954 L27.7144,47.7954 L27.7144,47.7954 Z M32.4434,0.0004 C37.6714,0.0004 40.6584,0.9954 42.8164,3.2354 C45.6374,5.9744 46.7154,10.0404 46.7154,15.0184 C46.7154,22.9014 43.5634,26.8844 38.3354,28.1294 L38.3354,28.2954 C43.9784,29.4574 47.2974,33.3574 47.2974,42.0694 C47.2974,47.7954 45.8864,51.7774 43.0654,54.5994 C40.7414,57.0054 37.4224,58.0844 32.1944,58.0844 L15.1014,58.0844 C9.8744,58.0844 6.6384,57.0054 4.2314,54.5994 C1.4104,51.7774 0.0004,47.7954 0.0004,42.0694 C0.0004,33.3574 3.4014,29.4574 9.0444,28.2954 L9.0444,28.1294 C3.8174,26.8844 0.6634,22.9014 0.6634,15.0184 C0.6634,10.0404 1.7424,5.9744 4.4804,3.2354 C6.7214,0.9954 9.7084,0.0004 14.9354,0.0004 L32.4434,0.0004 L32.4434,0.0004 Z" id="Fill-1" fill="#FFFFFF"></path>
                <path d="M79.8545,37.0884 C81.4155,37.0884 82.6525,36.7114 84.1045,35.9044 C83.8895,30.2554 83.3525,28.5334 82.8135,28.0494 C82.3295,27.5654 81.6305,27.2964 79.4785,27.2964 L74.6355,27.2964 C73.0755,27.2964 72.3755,27.4034 71.8375,27.9424 C71.2465,28.5334 70.9775,29.8794 70.9775,32.2464 C70.9775,34.6134 71.2465,35.8504 71.8375,36.3884 C72.3225,36.9264 73.0755,37.0884 74.6895,37.0884 L79.8545,37.0884 Z M84.1585,41.1234 C81.6305,43.2214 80.1235,43.8134 77.3795,43.8134 L71.3545,43.8134 C67.8565,43.8134 66.0275,43.2754 64.6285,41.8764 C62.7995,40.0474 62.2615,37.0884 62.2615,32.7304 C62.2615,27.1344 62.9605,24.4444 64.7905,22.5074 C66.0815,21.2164 68.0715,20.4634 71.3005,20.4634 L81.8455,20.4634 C85.9885,20.4634 87.8175,21.0554 89.4855,22.6694 C91.7455,24.7674 93.1975,28.8024 93.1975,39.2944 C93.1975,49.5164 91.7455,53.7674 89.4315,55.9194 C87.6565,57.5874 85.8265,58.1254 81.5765,58.1254 L71.9455,58.1254 C68.3405,58.1254 66.2965,57.5874 64.9515,56.1884 C63.0145,54.3054 62.5305,51.4534 62.4225,47.1494 L71.0845,47.1494 C71.1925,49.0324 71.4075,50.0544 71.8925,50.5394 C72.4305,51.0234 73.1295,51.1844 74.7975,51.1844 L79.4245,51.1844 C81.6305,51.1844 82.3295,50.9154 82.8675,50.4314 C83.4595,49.8934 84.1045,48.9244 84.1585,41.1234 L84.1585,41.1234 Z" id="Fill-3" fill="#FFFFFF"></path>
                <mask id="mask-2" fill="white">
                    <use xlink:href="#path-1"></use>
                </mask>
                <g id="Clip-6"></g>
                <polygon id="Fill-5" fill="#FFFFFF" mask="url(#mask-2)" points="49.464 58.1251 57.911 58.1251 57.911 49.5171 49.464 49.5171"></polygon>
                <path d="M9.7744,78.46 C10.5354,78.46 11.0984,78.205 11.4644,77.693 C11.8294,77.182 12.0124,76.433 12.0124,75.446 C12.0124,74.46 11.8294,73.708 11.4644,73.19 C11.0984,72.673 10.5354,72.415 9.7744,72.415 C9.0014,72.415 8.4294,72.675 8.0584,73.195 C7.6864,73.715 7.5014,74.466 7.5014,75.446 C7.5014,76.427 7.6864,77.175 8.0584,77.689 C8.4294,78.203 9.0014,78.46 9.7744,78.46 M9.7744,70.73 C10.4524,70.73 11.0684,70.84 11.6244,71.06 C12.1804,71.28 12.6554,71.592 13.0514,71.996 C13.4464,72.4 13.7514,72.894 13.9654,73.476 C14.1794,74.059 14.2864,74.71 14.2864,75.429 C14.2864,76.154 14.1794,76.808 13.9654,77.39 C13.7514,77.973 13.4464,78.469 13.0514,78.879 C12.6554,79.29 12.1804,79.605 11.6244,79.824 C11.0684,80.044 10.4524,80.154 9.7744,80.154 C9.0904,80.154 8.4694,80.044 7.9114,79.824 C7.3524,79.605 6.8754,79.29 6.4804,78.879 C6.0844,78.469 5.7784,77.973 5.5614,77.39 C5.3444,76.808 5.2354,76.154 5.2354,75.429 C5.2354,74.71 5.3444,74.059 5.5614,73.476 C5.7784,72.894 6.0844,72.4 6.4804,71.996 C6.8754,71.592 7.3524,71.28 7.9114,71.06 C8.4694,70.84 9.0904,70.73 9.7744,70.73" id="Fill-7" fill="#FFFFFF" mask="url(#mask-2)"></path>
                <path d="M24.9229,70.8726 L24.9229,80.0206 L23.5769,80.0206 C23.2849,80.0206 23.1009,79.8866 23.0239,79.6196 L22.8719,78.8886 C22.4979,79.2686 22.0849,79.5766 21.6329,79.8106 C21.1809,80.0456 20.6489,80.1636 20.0369,80.1636 C19.5379,80.1636 19.0959,80.0786 18.7129,79.9096 C18.3289,79.7396 18.0069,79.5006 17.7449,79.1916 C17.4839,78.8826 17.2859,78.5156 17.1519,78.0906 C17.0189,77.6646 16.9519,77.1976 16.9519,76.6856 L16.9519,70.8726 L19.1539,70.8726 L19.1539,76.6856 C19.1539,77.2446 19.2829,77.6776 19.5419,77.9826 C19.7999,78.2896 20.1889,78.4426 20.7059,78.4426 C21.0859,78.4426 21.4429,78.3576 21.7759,78.1876 C22.1089,78.0186 22.4229,77.7856 22.7209,77.4886 L22.7209,70.8726 L24.9229,70.8726 Z" id="Fill-8" fill="#FFFFFF" mask="url(#mask-2)"></path>
                <path d="M31.2183,80.1631 C30.4213,80.1631 29.8113,79.9391 29.3853,79.4901 C28.9613,79.0411 28.7483,78.4211 28.7483,77.6311 L28.7483,72.5221 L27.8123,72.5221 C27.6933,72.5221 27.5923,72.4831 27.5093,72.4061 C27.4263,72.3291 27.3843,72.2131 27.3843,72.0581 L27.3843,71.1841 L28.8553,70.9441 L29.3193,68.4471 C29.3483,68.3281 29.4053,68.2361 29.4883,68.1711 C29.5723,68.1051 29.6783,68.0731 29.8093,68.0731 L30.9503,68.0731 L30.9503,70.9531 L33.3943,70.9531 L33.3943,72.5221 L30.9503,72.5221 L30.9503,77.4791 C30.9503,77.7651 31.0203,77.9881 31.1603,78.1481 C31.3003,78.3091 31.4913,78.3891 31.7353,78.3891 C31.8723,78.3891 31.9863,78.3721 32.0783,78.3401 C32.1713,78.3071 32.2513,78.2731 32.3193,78.2371 C32.3873,78.2021 32.4483,78.1671 32.5023,78.1351 C32.5553,78.1021 32.6093,78.0851 32.6623,78.0851 C32.7283,78.0851 32.7813,78.1021 32.8233,78.1351 C32.8643,78.1671 32.9093,78.2161 32.9573,78.2821 L33.6163,79.3511 C33.2963,79.6191 32.9273,79.8211 32.5113,79.9581 C32.0943,80.0951 31.6643,80.1631 31.2183,80.1631" id="Fill-9" fill="#FFFFFF" mask="url(#mask-2)"></path>
                <path d="M45.3232,78.46 C46.0842,78.46 46.6472,78.205 47.0132,77.693 C47.3782,77.182 47.5612,76.433 47.5612,75.446 C47.5612,74.46 47.3782,73.708 47.0132,73.19 C46.6472,72.673 46.0842,72.415 45.3232,72.415 C44.5502,72.415 43.9782,72.675 43.6072,73.195 C43.2352,73.715 43.0502,74.466 43.0502,75.446 C43.0502,76.427 43.2352,77.175 43.6072,77.689 C43.9782,78.203 44.5502,78.46 45.3232,78.46 M45.3232,70.73 C46.0012,70.73 46.6172,70.84 47.1732,71.06 C47.7292,71.28 48.2042,71.592 48.6002,71.996 C48.9952,72.4 49.3002,72.894 49.5142,73.476 C49.7282,74.059 49.8352,74.71 49.8352,75.429 C49.8352,76.154 49.7282,76.808 49.5142,77.39 C49.3002,77.973 48.9952,78.469 48.6002,78.879 C48.2042,79.29 47.7292,79.605 47.1732,79.824 C46.6172,80.044 46.0012,80.154 45.3232,80.154 C44.6392,80.154 44.0182,80.044 43.4602,79.824 C42.9012,79.605 42.4242,79.29 42.0292,78.879 C41.6332,78.469 41.3272,77.973 41.1102,77.39 C40.8932,76.808 40.7842,76.154 40.7842,75.429 C40.7842,74.71 40.8932,74.059 41.1102,73.476 C41.3272,72.894 41.6332,72.4 42.0292,71.996 C42.4242,71.592 42.9012,71.28 43.4602,71.06 C44.0182,70.84 44.6392,70.73 45.3232,70.73" id="Fill-10" fill="#FFFFFF" mask="url(#mask-2)"></path>
                <path d="M53.0093,80.0205 L53.0093,72.5305 L52.2153,72.4055 C52.0433,72.3705 51.9053,72.3095 51.8013,72.2235 C51.6973,72.1375 51.6453,72.0135 51.6453,71.8535 L51.6453,70.9525 L53.0093,70.9525 L53.0093,70.2745 C53.0093,69.7515 53.0883,69.2825 53.2453,68.8665 C53.4033,68.4505 53.6293,68.0965 53.9233,67.8055 C54.2173,67.5145 54.5753,67.2915 54.9973,67.1365 C55.4193,66.9815 55.8953,66.9045 56.4243,66.9045 C56.8463,66.9045 57.2383,66.9605 57.6013,67.0745 L57.5563,68.1795 C57.5503,68.2635 57.5263,68.3295 57.4853,68.3805 C57.4433,68.4305 57.3883,68.4695 57.3203,68.4965 C57.2513,68.5225 57.1733,68.5405 57.0843,68.5495 C56.9943,68.5585 56.8993,68.5625 56.7983,68.5625 C56.5363,68.5625 56.3033,68.5915 56.0983,68.6475 C55.8933,68.7045 55.7193,68.8025 55.5773,68.9415 C55.4343,69.0815 55.3253,69.2665 55.2513,69.4945 C55.1773,69.7235 55.1403,70.0075 55.1403,70.3465 L55.1403,70.9525 L57.5203,70.9525 L57.5203,72.5215 L55.2113,72.5215 L55.2113,80.0205 L53.0093,80.0205 Z" id="Fill-11" fill="#FFFFFF" mask="url(#mask-2)"></path>
                <path d="M73.0352,78.3711 L73.0352,80.0201 L65.9022,80.0201 L65.9022,78.3711 L68.5142,78.3711 L68.5142,70.8541 C68.5142,70.5571 68.5232,70.2511 68.5412,69.9361 L66.6862,71.4881 C66.5792,71.5711 66.4742,71.6231 66.3702,71.6431 C66.2662,71.6641 66.1682,71.6661 66.0762,71.6481 C65.9832,71.6301 65.9022,71.5991 65.8302,71.5551 C65.7592,71.5101 65.7062,71.4611 65.6702,71.4071 L64.9742,70.4531 L68.9072,67.1101 L70.7172,67.1101 L70.7172,78.3711 L73.0352,78.3711 Z" id="Fill-12" fill="#FFFFFF" mask="url(#mask-2)"></path>
                <path d="M82.8428,73.5742 C82.8428,72.6402 82.7748,71.8682 82.6378,71.2562 C82.5008,70.6432 82.3178,70.1562 82.0898,69.7932 C81.8608,69.4312 81.5968,69.1772 81.3008,69.0312 C81.0028,68.8862 80.6938,68.8122 80.3728,68.8122 C80.0578,68.8122 79.7538,68.8862 79.4588,69.0312 C79.1648,69.1772 78.9048,69.4312 78.6788,69.7932 C78.4528,70.1562 78.2728,70.6432 78.1388,71.2562 C78.0058,71.8682 77.9388,72.6402 77.9388,73.5742 C77.9388,74.5072 78.0058,75.2802 78.1388,75.8922 C78.2728,76.5042 78.4528,76.9922 78.6788,77.3542 C78.9048,77.7172 79.1648,77.9712 79.4588,78.1162 C79.7538,78.2622 80.0578,78.3352 80.3728,78.3352 C80.6938,78.3352 81.0028,78.2622 81.3008,78.1162 C81.5968,77.9712 81.8608,77.7172 82.0898,77.3542 C82.3178,76.9922 82.5008,76.5042 82.6378,75.8922 C82.7748,75.2802 82.8428,74.5072 82.8428,73.5742 M85.1158,73.5742 C85.1158,74.6972 84.9958,75.6742 84.7558,76.5032 C84.5148,77.3322 84.1818,78.0172 83.7568,78.5582 C83.3318,79.0992 82.8288,79.5022 82.2498,79.7662 C81.6708,80.0312 81.0448,80.1632 80.3728,80.1632 C79.7008,80.1632 79.0788,80.0312 78.5048,79.7662 C77.9308,79.5022 77.4338,79.0992 77.0108,78.5582 C76.5898,78.0172 76.2598,77.3322 76.0218,76.5032 C75.7838,75.6742 75.6648,74.6972 75.6648,73.5742 C75.6648,72.4452 75.7838,71.4672 76.0218,70.6402 C76.2598,69.8142 76.5898,69.1312 77.0108,68.5902 C77.4338,68.0492 77.9308,67.6462 78.5048,67.3822 C79.0788,67.1172 79.7008,66.9852 80.3728,66.9852 C81.0448,66.9852 81.6708,67.1172 82.2498,67.3822 C82.8288,67.6462 83.3318,68.0492 83.7568,68.5902 C84.1818,69.1312 84.5148,69.8142 84.7558,70.6402 C84.9958,71.4672 85.1158,72.4452 85.1158,73.5742" id="Fill-13" fill="#FFFFFF" mask="url(#mask-2)"></path>
            </g>
        </g>
    </g>
</svg>