<?xml version="1.0" encoding="UTF-8" standalone="no"?>
<svg width="298px" height="47px" viewBox="0 0 298 47" version="1.1" xmlns="http://www.w3.org/2000/svg" xmlns:xlink="http://www.w3.org/1999/xlink">
    <!-- Generator: Sketch 40.3 (33839) - http://www.bohemiancoding.com/sketch -->
    <title>reevoo-stars</title>
    <desc>Created with Sketch.</desc>
    <defs></defs>
    <g id="Page-1" stroke="none" stroke-width="1" fill="none" fill-rule="evenodd">
        <g id="reevoo-stars">
            <g id="Page-1">
                <polygon id="Fill-1" fill="#FFCF36" points="17.9811 17.473 0.4811 18.162 14.1281 29.33 9.5461 46.063 24.2151 36.659 38.8841 46.063 34.3021 29.33 47.9491 18.162 30.4491 17.473 24.2151 0.919"></polygon>
                <polygon id="Stroke-2" stroke="#FBB03B" stroke-width="0.36" points="24.215 0.919 30.449 17.473 47.949 18.163 34.302 29.331 38.883 46.064 24.215 36.659 9.547 46.064 14.128 29.331 0.481 18.163 17.981 17.473"></polygon>
                <polygon id="Fill-4" fill="#FFCF36" points="79.884 17.473 62.383 18.162 76.031 29.33 71.449 46.063 86.118 36.659 100.786 46.063 96.205 29.33 109.852 18.162 92.352 17.473 86.118 0.919"></polygon>
                <polygon id="Stroke-5" stroke="#FBB03B" stroke-width="0.36" points="86.1179 0.919 92.3519 17.473 109.8519 18.163 96.2049 29.331 100.7859 46.064 86.1179 36.659 71.4499 46.064 76.0309 29.331 62.3839 18.163 79.8839 17.473"></polygon>
                <polygon id="Fill-6" fill="#FFCF36" points="141.7869 17.473 124.2869 18.162 137.9339 29.33 133.3519 46.063 148.0199 36.659 162.6889 46.063 158.1079 29.33 171.7549 18.162 154.2549 17.473 148.0199 0.919"></polygon>
                <polygon id="Stroke-7" stroke="#FBB03B" stroke-width="0.36" points="148.0207 0.919 154.2547 17.473 171.7547 18.163 158.1077 29.331 162.6887 46.064 148.0207 36.659 133.3527 46.064 137.9337 29.331 124.2867 18.163 141.7867 17.473"></polygon>
                <polygon id="Fill-8" fill="#FFCF36" points="205.1289 17.473 187.6289 18.162 201.2759 29.33 196.6949 46.063 211.3629 36.659 226.0319 46.063 221.4509 29.33 235.0969 18.162 217.5979 17.473 211.3629 0.919"></polygon>
                <polygon id="Stroke-9" stroke="#FBB03B" stroke-width="0.36" points="211.3632 0.919 217.5972 17.473 235.0972 18.163 221.4502 29.331 226.0312 46.064 211.3632 36.659 196.6952 46.064 201.2762 29.331 187.6292 18.163 205.1292 17.473"></polygon>
                <polygon id="Fill-10" fill="#FFCF36" points="267.0318 17.473 249.5318 18.162 263.1788 29.33 258.5978 46.063 273.2658 36.659 287.9338 46.063 283.3538 29.33 296.9998 18.162 279.5008 17.473 273.2658 0.919"></polygon>
                <polygon id="Stroke-11" stroke="#FBB03B" stroke-width="0.36" points="273.2661 0.919 279.5001 17.473 297.0001 18.163 283.3531 29.331 287.9341 46.064 273.2661 36.659 258.5981 46.064 263.1791 29.331 249.5321 18.163 267.0321 17.473"></polygon>
                <polygon id="Fill-12" fill="#CCCCCC" points="272.8854 36.9859 288.1004 46.4399 283.3604 29.3309 297.4804 18.1519 279.6804 17.1179 273.2664 0.9189"></polygon>
                <polygon id="Stroke-13" stroke="#E6E6E6" stroke-width="0.36" points="273.2661 0.919 279.6811 17.118 297.4811 18.152 283.3601 29.33 288.1011 46.44 272.8851 36.986"></polygon>
            </g>
        </g>
    </g>
</svg>