<?xml version="1.0" encoding="utf-8"?>
<!-- Generator: Adobe Illustrator 16.0.0, SVG Export Plug-In . SVG Version: 6.00 Build 0)  -->
<!DOCTYPE svg PUBLIC "-//W3C//DTD SVG 1.1//EN" "http://www.w3.org/Graphics/SVG/1.1/DTD/svg11.dtd">
<svg version="1.1" id="Layer_1" xmlns:sketch="http://www.bohemiancoding.com/sketch/ns"
	 xmlns="http://www.w3.org/2000/svg" xmlns:xlink="http://www.w3.org/1999/xlink" x="0px" y="0px" width="37.125px"
	 height="34.375px" viewBox="10.5 11.25 37.125 34.375" enable-background="new 10.5 11.25 37.125 34.375" xml:space="preserve">
<g id="Page-1" sketch:type="MSPage">
	<g id="icon-classicCar" sketch:type="MSLayerGroup">
		<path id="Path-2" sketch:type="MSShapeGroup" fill="#FFFFFF" fill-opacity="0.01" d="M0,0h58v58H0V0z"/>
		<path id="Imported-Layers-9" sketch:type="MSShapeGroup" fill="#FFFFFF" d="M47,37.8c0,0.5-1.5,0.7-1.5,0.8v0.2
			c0,0.8,0,1.601,0,2.4c0,3.6-0.7,3.8-2.6,3.8C40.8,45,40.3,44.8,40.3,41.2c0-0.8,0-1.2,0-2v-0.3c-1.2,0.3-4.1,0.399-7.2,0.5
			C31.4,40.5,29.7,40.8,29.2,40.8c-0.1,0-0.2,0-0.2,0c-0.5,0-2.2-0.3-3.9-1.399c-3.1-0.101-6-0.2-7.2-0.5v0.3c0,0.8,0,1.2,0,2
			c0,3.6-0.5,3.8-2.6,3.8c-1.8,0-2.6-0.2-2.6-3.8c0-0.8,0-1.601,0-2.4v-0.2c0,0-1.5-0.3-1.5-0.8c0-2.6,0-6,0-8.6
			c0-6.4,4.7-5.2,5.9-4.4c1,0.6,2.3,2.1,2.3,2.1S19,24.5,16.8,23c0,0,0.5-4.3,0.9-6.2c0.5-2.3,1.4-3.8,4.6-4.4
			c1.9-0.3,4.1-0.4,6.4-0.4H29c0,0,4.7,0.1,6.6,0.4c3.301,0.6,4.2,2.1,4.601,4.4C40.6,18.7,41.1,23,41.1,23
			C38.9,24.5,38.7,26.9,38.7,26.9s1.3-1.4,2.3-2.1c1.3-0.8,5.9-2,5.9,4.4C47,31.7,47,35.2,47,37.8z M41.8,31.9
			c1.4,0,2.601-1.2,2.601-2.601c0-1.4-1.2-2.6-2.601-2.6c-1.6,0-2.7,1.4-2.6,2.7C39.2,30.5,40.2,31.9,41.8,31.9L41.8,31.9z M23,32.1
			c0,4.5,5.7,5.2,5.8,5.2c0,0,0.1,0,0.2,0l0,0l0,0l0,0l0,0c0.1,0,0.2,0,0.2,0c0.2,0,5.8-0.7,5.8-5.2v-8c0-0.1-0.6-0.3-0.9-0.3
			c-1.1-0.2-3.199-0.4-5-0.4H29l0,0h-0.1c-1.9,0-3.9,0.2-5,0.4c-0.3,0-0.9,0.2-0.9,0.3V32.1L23,32.1z M37.9,22.4
			c0-0.1,0-3.1-0.9-6.6c-0.2-1-4.1-1.5-8-1.5c-3.9,0-7.9,0.5-8,1.5c-0.8,3.5-0.8,6.5-0.9,6.6c1.7-0.7,5.3-1,8.9-1
			C32.6,21.4,36.2,21.8,37.9,22.4L37.9,22.4z M13.6,29.3c0,1.5,1.2,2.601,2.6,2.601c1.6,0,2.6-1.4,2.6-2.5c0.1-1.3-1.1-2.7-2.6-2.7
			C14.8,26.7,13.6,27.9,13.6,29.3L13.6,29.3z"/>
	</g>
</g>
<title>icon-classicCar</title>
<desc>Created with Sketch.</desc>
</svg>
