<?xml version="1.0" encoding="UTF-8" standalone="no"?>
<svg width="58px" height="58px" viewBox="0 0 58 58" version="1.1" xmlns="http://www.w3.org/2000/svg" xmlns:xlink="http://www.w3.org/1999/xlink" xmlns:sketch="http://www.bohemiancoding.com/sketch/ns">
    <!-- Generator: Sketch 3.3 (11970) - http://www.bohemiancoding.com/sketch -->
    <title>icon-life</title>
    <desc>Created with Sketch.</desc>
    <defs></defs>
    <g id="Page-1" stroke="none" stroke-width="1" fill="none" fill-rule="evenodd" sketch:type="MSPage">
        <g id="icon-life" sketch:type="MSArtboardGroup" fill="#41A5F5">
            <path d="M11.972,28.2925667 C12.0525424,28.2759167 12.1355254,28.2666667 12.220339,28.2666667 L15.9460339,28.2666667 L17.5092881,26.3371167 C17.7582373,26.0294 18.1420339,25.86105 18.5325424,25.8875667 C18.9254915,25.9134667 19.2824407,26.1293 19.4898983,26.46785 L21.0336271,28.9807667 L23.7629153,19.95585 C23.9233898,19.4242833 24.4035932,19.0684667 24.9667797,19.0838833 C25.5165424,19.10115 25.9869831,19.4871833 26.116339,20.028 L28.967661,31.9716 L30.7981695,24.0320167 C30.9220339,23.4936667 31.3863729,23.1039333 31.9330847,23.0798833 C32.4865085,23.0657 32.9758644,23.4017833 33.1461017,23.9278 L34.5537627,28.2666667 L46.5106441,28.2666667 C46.7199322,27.3429 46.8474576,26.40865 46.856,25.4663833 C47.9945763,9.01063333 31.419322,8.85461667 29.3874576,15.1970333 C27.6863051,8.91073333 10.7382373,8.45131667 11.5509831,25.5200333 C11.5949153,26.45305 11.7468475,27.37805 11.972,28.2925667" id="Fill-1" sketch:type="MSShapeGroup"></path>
            <path d="M33.6696271,30.7333333 C33.1424407,30.7333333 32.6744407,30.3904667 32.5096949,29.8841833 L32.1856949,28.8845667 L30.1770169,37.6967333 C30.0488814,38.2529667 29.5589153,38.75 28.9932881,38.75 L28.9884068,38.75 C28.4252203,38.75 27.9346441,38.25975 27.8022373,37.7059833 L24.791661,25.0439667 L22.5816271,32.3255667 C22.4418983,32.7880667 22.0471186,33.1124333 21.5724068,33.1753333 C21.0989153,33.2326833 20.6303051,33.0076 20.3783051,32.5962833 L18.3165424,29.2366833 L17.4677966,30.28255 C17.2359322,30.5686833 16.8893559,30.7333333 16.5238644,30.7333333 L12.7652203,30.7333333 C16.5305763,39.971 27.7338983,47.4166333 28.9768136,47.4308167 C30.2178983,47.4456167 42.0234576,39.9747 45.7412203,30.7333333 L33.6696271,30.7333333" id="Fill-2" sketch:type="MSShapeGroup"></path>
        </g>
    </g>
</svg>