<?xml version="1.0" encoding="UTF-8" standalone="no"?>
<svg width="149px" height="52px" viewBox="0 0 149 52" version="1.1" xmlns="http://www.w3.org/2000/svg" xmlns:xlink="http://www.w3.org/1999/xlink">
    <!-- Generator: Sketch 41.1 (35376) - http://www.bohemiancoding.com/sketch -->
    <title>icon-reg</title>
    <desc>Created with Sketch.</desc>
    <defs>
        <polygon id="path-1" points="131.139698 0.887 0.592 0.887 0.592 51.4359 131.139698 51.4359 131.139698 0.887"></polygon>
    </defs>
    <g id="Page-1" stroke="none" stroke-width="1" fill="none" fill-rule="evenodd">
        <g id="icon-reg">
            <g id="Page-1" transform="translate(0.000000, -1.000000)">
                <path d="M14.6012,12.9098 L4.1652,14.2708 C1.9662,14.4788 -0.1938,15.9788 0.0142,18.1788 L2.9242,49.0408 C3.1322,51.2408 5.6272,53.3058 7.8272,53.0988 L18.2632,51.7378 L14.6012,12.9098 Z" id="Fill-1" fill="#5CA3EE"></path>
                <g id="Group-5" transform="translate(18.000000, 0.113200)">
                    <mask id="mask-2" fill="white">
                        <use xlink:href="#path-1"></use>
                    </mask>
                    <g id="Clip-4"></g>
                    <path d="M124.668,0.9069 L0.592,12.6089 L4.254,51.4359 L128.33,39.7349 C130.353,39.5439 131.32,37.1519 131.112,34.9519 L128.202,4.0889 C127.994,1.8899 126.691,0.7159 124.668,0.9069" id="Fill-3" fill="#5CA3EE" mask="url(#mask-2)"></path>
                </g>
                <polygon id="Fill-6" fill="#FFFFFF" points="44.0728 19.9459 44.2088 19.9629 44.3428 19.9779 44.4958 20.0089 44.6308 20.0259 44.7658 20.0579 44.9038 20.0909 45.0268 20.1359 45.1638 20.1699 45.2868 20.2169 45.4258 20.2779 45.5498 20.3259 45.6868 20.3719 45.8118 20.4349 45.9348 20.4819 46.0458 20.5459 46.1698 20.6089 46.2948 20.6719 46.4058 20.7499 46.5308 20.8119 46.6418 20.8899 46.7388 20.9709 46.8358 21.0509 46.9318 21.1309 47.0298 21.2109 47.1938 21.3879 47.2768 21.4689 47.3738 21.5639 47.4578 21.6609 47.5418 21.7569 47.6238 21.8529 47.7088 21.9639 47.7788 22.0759 47.8628 22.1859 47.9328 22.2989 48.0178 22.4089 48.0878 22.5209 48.1448 22.6499 48.2148 22.7619 48.2718 22.8909 48.2918 22.9479 48.3278 23.0179 48.3458 23.0619 48.3838 23.1329 48.4028 23.1899 48.4208 23.2169 48.4238 23.2479 48.4398 23.2609 48.4418 23.2909 48.4628 23.3479 48.4798 23.3759 48.4828 23.4049 48.5018 23.4489 48.5218 23.5059 48.5418 23.5499 48.5598 23.5909 48.5798 23.6339 48.5818 23.6639 48.5838 23.6779 48.6018 23.7199 48.6038 23.7349 48.6048 23.7499 48.6058 23.7649 48.6258 23.8069 48.6438 23.8659 48.6658 23.9369 48.6678 23.9519 48.6708 23.9819 48.6718 23.9969 48.6898 24.0239 48.6908 24.0389 48.6928 24.0529 48.6938 24.0689 48.6958 24.0839 48.7108 24.0819 45.1868 25.6169 45.1588 25.4709 45.1168 25.3419 45.0748 25.2129 45.0318 25.0819 44.9898 24.9529 44.9508 24.8369 44.8788 24.7109 44.8238 24.5959 44.7548 24.4999 44.7188 24.4429 44.6868 24.4009 44.6508 24.3459 44.6178 24.3039 44.5848 24.2629 44.5508 24.2209 44.4688 24.1399 44.4358 24.0989 44.4028 24.0729 44.3548 24.0319 44.3228 24.0059 44.2428 23.9549 44.1968 23.9279 44.1488 23.9029 44.1028 23.8789 44.0558 23.8679 43.9948 23.8419 43.9498 23.8329 43.8878 23.8079 43.8278 23.7999 43.7668 23.7919 43.6928 23.7829 43.6308 23.7589 43.5568 23.7659 43.4818 23.7589 43.4068 23.7509 43.3328 23.7429 43.2448 23.7519 41.0908 23.9089 41.0778 23.9249 40.9298 23.9389 40.7838 23.9679 40.7268 23.9889 40.6548 24.0099 40.5248 24.0519 40.4118 24.1079 40.2828 24.1639 40.1708 24.2339 40.1148 24.2689 40.0578 24.3029 40.0038 24.3389 39.9478 24.3879 39.8918 24.4229 39.8508 24.4709 39.8118 24.5199 39.7718 24.5679 39.7178 24.6189 39.6918 24.6649 39.6508 24.7139 39.6268 24.7599 39.5628 24.8699 39.5388 24.9319 39.5148 24.9939 39.4908 25.0559 39.4668 25.1159 39.4348 25.2389 39.4158 25.3589 39.3848 25.4969 39.3828 25.6299 39.3798 25.7629 39.3778 25.8969 39.3908 26.0449 39.4058 26.1919 39.4218 26.2049 40.2878 34.7659 40.2878 34.9149 40.3018 35.0609 40.3138 35.3579 40.3428 35.6529 40.3558 35.7999 40.3698 35.9469 40.3908 36.0179 40.3978 36.0919 40.4198 36.1649 40.4268 36.2379 40.4628 36.2949 40.4828 36.3519 40.5038 36.4239 40.5388 36.4799 40.5728 36.5359 40.6088 36.5919 40.6568 36.6319 40.6918 36.6889 40.7428 36.7419 40.7898 36.7829 40.8388 36.8229 40.9008 36.8619 40.9508 36.9019 41.0098 36.9249 41.1368 37.0029 41.2458 37.0519 41.3078 37.0759 41.3838 37.0979 41.4448 37.1059 41.5068 37.1319 41.5658 37.1399 41.6428 37.1629 41.7778 37.1789 41.8528 37.1879 41.9108 37.1819 41.9258 37.1809 44.6448 36.8799 44.7328 36.8559 44.7918 36.8509 44.8628 36.8299 44.9358 36.8079 44.9638 36.7909 44.9928 36.7879 45.0648 36.7649 45.1228 36.7459 45.1508 36.7279 45.1798 36.7249 45.2088 36.7079 45.2228 36.7069 45.2508 36.6889 45.2648 36.6879 45.2788 36.6719 45.3218 36.6529 45.3498 36.6339 45.3628 36.6189 45.4058 36.5999 45.4468 36.5659 45.4898 36.5479 45.5168 36.5149 45.5848 36.4499 45.5968 36.4199 45.6098 36.4029 45.6508 36.3689 45.6768 36.3219 45.7038 36.2899 45.7288 36.2429 45.7418 36.2269 45.7688 36.1949 45.7948 36.1469 45.8188 36.1009 45.8438 36.0529 45.8698 36.0079 45.8938 35.9449 45.9178 35.8839 45.9428 35.8369 45.9678 35.7749 45.9758 35.7149 45.9998 35.6529 46.0108 35.6229 46.0098 35.6069 46.0228 35.5909 46.0308 35.5169 46.0548 35.4549 46.0648 35.3939 46.0778 35.3779 46.0768 35.3629 46.0868 35.3189 46.0958 35.2579 46.0938 35.2279 46.1068 35.2129 46.1048 35.1979 46.1038 35.1829 46.1138 35.1229 46.1218 35.0479 46.1308 34.9879 46.1298 34.9729 46.1278 34.9579 46.1268 34.9429 46.1368 34.9119 46.1448 34.8379 46.1528 34.7629 46.1458 34.6889 49.7368 35.4489 49.7218 35.5989 49.7248 35.6289 49.7258 35.6429 49.7138 35.6599 49.7148 35.6739 49.7208 35.7479 49.7068 35.8969 49.6958 35.9579 49.6878 36.0339 49.6768 36.0639 49.6668 36.1089 49.6588 36.1839 49.6488 36.2449 49.6408 36.3199 49.6088 36.4569 49.5978 36.4869 49.5868 36.5179 49.5788 36.5919 49.5298 36.7169 49.4988 36.8519 49.4498 36.9759 49.4198 37.1129 49.3718 37.2369 49.3238 37.3589 49.2748 37.4819 49.2288 37.6059 49.2028 37.6529 49.1788 37.7149 49.1318 37.8379 49.0678 37.9469 49.0178 38.0559 48.9548 38.1669 48.9138 38.2139 48.8898 38.2759 48.8268 38.3859 48.7868 38.4329 48.7598 38.4809 48.6958 38.5779 48.6178 38.6879 48.5768 38.7209 48.5368 38.7849 48.4958 38.8189 48.4558 38.8669 48.4438 38.8959 48.4168 38.9149 48.3758 38.9639 48.2968 39.0599 48.2398 39.0949 48.2268 39.1109 48.2008 39.1429 48.1038 39.2259 48.0088 39.3099 47.9118 39.3929 47.8018 39.4769 47.7048 39.5609 47.5928 39.6329 47.5788 39.6469 47.5638 39.6479 47.5518 39.6649 47.4958 39.6999 47.3978 39.7689 47.3008 39.8369 47.0888 39.9609 46.9748 40.0159 46.8758 40.0699 46.7758 40.1089 46.6768 40.1639 46.4778 40.2559 46.4488 40.2579 46.4208 40.2769 46.3778 40.2809 46.3488 40.2989 46.3348 40.2999 46.3048 40.3019 46.2608 40.3209 46.2178 40.3259 46.1758 40.3439 46.1308 40.3479 46.0718 40.3539 46.0558 40.3549 46.0418 40.3569 46.0138 40.3739 45.9558 40.3799 45.8968 40.3849 45.8678 40.3879 45.8518 40.3889 45.8238 40.4069 45.7648 40.4129 45.6918 40.4199 45.6198 40.4409 45.5318 40.4489 45.4588 40.4559 45.4138 40.4609 45.3708 40.4799 45.2828 40.4879 45.1938 40.4969 45.1048 40.5059 45.0028 40.5149 44.9148 40.5229 42.2388 40.8049 42.1948 40.8089 42.1498 40.8129 42.0618 40.8219 41.9888 40.8289 41.9288 40.8349 41.8998 40.8369 41.8708 40.8399 41.8258 40.8439 41.8108 40.8449 41.7828 40.8479 41.7368 40.8379 41.6918 40.8419 41.6488 40.8459 41.5878 40.8369 41.5448 40.8419 41.4838 40.8309 41.4238 40.8219 41.3628 40.8129 41.3198 40.8169 41.2438 40.8089 41.1828 40.7999 41.1248 40.7909 41.1098 40.7929 41.0928 40.7789 41.0488 40.7829 40.9888 40.7729 40.8508 40.7419 40.7168 40.7259 40.5648 40.6949 40.4418 40.6469 40.3038 40.6149 40.1678 40.5689 40.0288 40.5229 39.9058 40.4749 39.7678 40.4279 39.6418 40.3659 39.5178 40.3039 39.3928 40.2409 39.2688 40.1779 39.1588 40.1149 39.0498 40.0499 38.9368 39.9719 38.8268 39.8929 38.7148 39.8139 38.6028 39.7369 38.5068 39.6569 38.3928 39.5639 38.2958 39.4679 38.1818 39.3759 38.0988 39.2639 37.9858 39.1719 37.9008 39.0599 37.8018 38.9519 37.7168 38.8249 37.6308 38.7149 37.5448 38.5889 37.4588 38.4639 37.3868 38.3369 37.3018 38.2109 37.2448 38.0829 37.1728 37.9559 37.1168 37.8269 37.0458 37.7009 36.9908 37.5869 36.9498 37.4719 36.8918 37.3429 36.8518 37.2289 36.8118 37.1129 36.7698 36.9839 36.7428 36.8529 36.7028 36.7379 36.6758 36.6069 36.6478 36.4749 36.6348 36.3289 36.6148 36.2849 36.6098 36.2409 36.5998 36.1379 36.5988 36.1239 35.5508 25.4699 35.5478 25.4429 35.5498 25.3079 35.5528 25.1889 35.5718 25.0679 35.5768 24.9639 35.5808 24.8439 35.5998 24.7389 35.6048 24.6339 35.6268 24.5439 35.6328 24.4539 35.6518 24.3479 35.6738 24.2579 35.6808 24.1809 35.7038 24.1049 35.7258 24.0299 35.7488 23.9529 35.7728 23.8899 35.8668 23.6309 35.9748 23.3679 36.0848 23.1039 36.2098 22.8549 36.2868 22.7279 36.3488 22.6039 36.4268 22.4789 36.5058 22.3669 36.5978 22.2539 36.6768 22.1289 36.7838 22.0129 36.8798 21.9159 36.9868 21.8009 37.0948 21.6869 37.1898 21.6039 37.3008 21.5049 37.4108 21.4209 37.5078 21.3369 37.6188 21.2669 37.7168 21.1989 37.9408 21.0579 38.1518 20.9349 38.3798 20.8239 38.6068 20.7279 38.7208 20.6739 38.8348 20.6169 38.9498 20.5769 39.0798 20.5349 39.2088 20.4769 39.3228 20.4379 39.4688 20.4099 39.5988 20.3679 39.7428 20.3239 39.8738 20.2969 40.0198 20.2679 40.1658 20.2399 40.3118 20.2249 40.4608 20.2119 40.6218 20.1969 43.2418 19.9489 43.3308 19.9409 43.4048 19.9489 43.4928 19.9399 43.5668 19.9329 43.6418 19.9409 43.7008 19.9349 43.7748 19.9279 43.8338 19.9239 43.8928 19.9319 43.9378 19.9279 43.9828 19.9389 44.0268 19.9349"></polygon>
                <path d="M57.481,25.8238 L57.424,25.8438 L57.398,25.8758 L57.369,25.8928 L57.342,25.9268 L57.329,25.9418 L57.317,25.9718 L57.305,26.0038 L57.308,26.0338 L56.71,32.1178 L56.713,32.1628 L56.731,32.1908 L56.734,32.2198 L56.735,32.2348 L56.752,32.2478 L56.766,32.2618 L56.783,32.2758 L56.786,32.3048 L56.816,32.3168 L56.85,32.3578 L56.867,32.3708 L56.897,32.3838 L56.915,32.4108 L56.93,32.4248 L56.96,32.4218 L56.992,32.4328 L57.049,32.4278 L57.109,32.4228 L57.138,32.4198 L57.169,32.4168 L57.226,32.4108 L57.241,32.4098 L57.255,32.4078 L57.3,32.4038 L57.33,32.4008 L57.359,32.3988 L57.389,32.3958 L57.419,32.3928 L57.461,32.3888 L57.506,32.3848 L57.61,32.3748 L57.653,32.3708 L57.712,32.3648 L57.771,32.3598 L57.831,32.3538 L57.977,32.3408 L58.051,32.3338 L58.125,32.3268 L58.287,32.3108 L58.375,32.3028 L58.463,32.2948 L58.551,32.2858 L58.655,32.2758 L58.757,32.2658 L58.861,32.2578 L59.082,32.2358 L59.111,32.2328 L59.14,32.2308 L59.199,32.2248 L59.228,32.2218 L59.257,32.2198 L59.315,32.1988 L59.359,32.1948 L59.417,32.1758 L59.446,32.1728 L59.474,32.1548 L59.504,32.1518 L59.532,32.1348 L59.545,32.1188 L59.573,32.1008 L59.587,32.0838 L59.614,32.0528 L59.627,32.0368 L59.638,32.0068 L59.65,31.9738 L59.663,31.9588 L59.662,31.9438 L59.676,31.9278 L59.674,31.9138 L59.673,31.8978 L59.671,31.8848 L59.67,31.8688 L59.668,31.8398 L59.667,31.8258 L58.735,28.8838 L57.805,25.9568 L57.756,25.9018 L57.722,25.8598 L57.675,25.8348 L57.629,25.8098 L57.583,25.8008 L57.568,25.8018 L57.553,25.8028 L57.509,25.8068 L57.481,25.8238 Z M55.009,18.8248 L58.63,18.4828 L65.336,38.5668 L61.703,38.9398 L60.622,35.6558 L56.445,36.0788 L55.992,39.4778 L52.374,39.8488 L55.009,18.8248 Z" id="Fill-8" fill="#FFFFFF"></path>
                <path d="M74.3912,20.9615 L74.2562,20.9445 L74.1352,20.9275 L74.0612,20.9185 L74.0002,20.9095 L73.8672,20.9075 L73.7172,20.9065 L73.5702,20.9205 L73.4962,20.9275 L73.4232,20.9345 L73.3342,20.9425 L73.2612,20.9495 L69.6252,21.2925 L70.0552,25.6925 L73.8232,25.3225 L73.8962,25.3155 L73.9692,25.3095 L74.0292,25.3035 L74.1172,25.2945 L74.1902,25.2875 L74.2642,25.2805 L74.3372,25.2735 L74.4262,25.2655 L74.4702,25.2615 L74.5132,25.2415 L74.5552,25.2235 L74.5992,25.2185 L74.6432,25.1995 L74.6852,25.1815 L74.7272,25.1485 L74.7842,25.1275 L74.7972,25.1105 L74.8122,25.1085 L74.8102,25.0945 L74.8522,25.0625 L74.8942,25.0285 L74.9502,24.9925 L75.0172,24.9125 L75.0582,24.8785 L75.0982,24.8305 L75.1252,24.7985 L75.1372,24.7825 L75.1772,24.7335 L75.1762,24.7195 L75.1742,24.7045 L75.1892,24.7025 L75.2012,24.6725 L75.2132,24.6405 L75.2272,24.6245 L75.2502,24.5645 L75.2602,24.5035 L75.2842,24.4415 L75.2812,24.4115 L75.2952,24.3965 L75.2922,24.3665 L75.3042,24.3365 L75.3032,24.3205 L75.3012,24.3065 L75.3002,24.2915 L75.3112,24.2615 L75.3082,24.2325 L75.3162,24.1555 L75.3132,24.1275 L75.3122,24.1115 L75.3102,24.0975 L75.3092,24.0825 L75.3022,24.0095 L75.2972,23.9645 L75.2962,23.9495 L75.2952,23.9355 L75.3082,23.9205 L75.2932,23.9215 L75.2922,23.9065 L75.2902,23.8915 L75.2872,23.8475 L75.2832,23.8035 L75.2792,23.7585 L75.1452,22.3465 L75.1422,22.3155 L75.1412,22.3015 L75.1372,22.2575 L75.1342,22.2285 L75.1322,22.2135 L75.1472,22.2125 L75.1432,22.1675 L75.1422,22.1535 L75.1402,22.1395 L75.1372,22.1095 L75.1332,22.0655 L75.1322,22.0505 L75.1302,22.0355 L75.1292,22.0215 L75.1252,21.9765 L75.1082,21.9475 L75.1062,21.9345 L75.1052,21.9195 L75.0992,21.8595 L75.0952,21.8155 L75.0782,21.7875 L75.0772,21.7735 L75.0752,21.7585 L75.0742,21.7435 L75.0722,21.7305 L75.0702,21.7005 L75.0512,21.6565 L75.0322,21.5995 L75.0302,21.5855 L75.0292,21.5695 L75.0262,21.5405 L75.0042,21.4835 L74.9852,21.4255 L74.9502,21.3685 L74.9312,21.3265 L74.8962,21.2705 L74.8622,21.2295 L74.8282,21.1885 L74.7962,21.1605 L74.7472,21.1205 L74.7152,21.0955 L74.6672,21.0545 L74.6202,21.0295 L74.5592,21.0055 L74.5132,20.9955 L74.4522,20.9705 L74.3912,20.9615 Z M75.4772,17.1915 L75.5982,17.2255 L75.6582,17.2335 L75.7202,17.2575 L75.8422,17.2905 L75.9652,17.3395 L76.0732,17.3735 L76.1962,17.4195 L76.3192,17.4685 L76.4292,17.5325 L76.5372,17.5815 L76.6622,17.6445 L76.7572,17.7095 L76.8682,17.7735 L76.9792,17.8515 L77.0892,17.9155 L77.1852,17.9955 L77.2842,18.0905 L77.3812,18.1715 L77.4772,18.2495 L77.5602,18.3465 L77.6582,18.4405 L77.7412,18.5225 L77.8232,18.6175 L77.9082,18.7295 L77.9922,18.8245 L78.0612,18.9375 L78.1462,19.0475 L78.2152,19.1465 L78.2852,19.2585 L78.3402,19.3725 L78.4102,19.4835 L78.4652,19.5985 L78.5222,19.7255 L78.5772,19.8395 L78.6182,19.9535 L78.6732,20.0675 L78.7002,20.1995 L78.7412,20.3145 L78.7682,20.4445 L78.7932,20.5615 L78.8212,20.6925 L78.8272,20.7515 L78.8312,20.8105 L78.8562,20.9125 L78.8682,21.0295 L78.8722,21.0885 L78.8782,21.1485 L78.8822,21.1905 L78.9032,21.2495 L78.9122,21.3535 L78.9222,21.4555 L78.9282,21.5145 L78.9322,21.5595 L78.9352,21.5875 L79.1722,24.2675 L79.1662,24.3575 L79.1732,24.4315 L79.1772,24.4745 L79.1792,24.4895 L79.1822,24.5195 L79.1892,24.5935 L79.1812,24.6685 L79.1882,24.7415 L79.1802,24.8165 L79.1872,24.8905 L79.1792,24.9655 L79.1702,25.0405 L79.1732,25.0695 L79.1612,25.0865 L79.1622,25.1015 L79.1622,25.1155 L79.1702,25.1895 L79.1622,25.2495 L79.1512,25.2945 L79.1532,25.3105 L79.1542,25.3235 L79.1412,25.3405 L79.1422,25.3555 L79.1472,25.3985 L79.1372,25.4595 L79.1292,25.5345 L79.1052,25.5965 L79.0972,25.6705 L79.0882,25.7315 L79.0782,25.7915 L79.0552,25.8535 L79.0462,25.9285 L79.0232,25.9895 L79.0152,26.0495 L78.9912,26.1115 L78.9782,26.1285 L78.9652,26.1585 L78.9662,26.1735 L78.9412,26.2205 L78.9322,26.2795 L78.9092,26.3425 L78.8942,26.3445 L78.8952,26.3585 L78.8962,26.3735 L78.8832,26.4035 L78.8592,26.4515 L78.8352,26.5125 L78.7972,26.5755 L78.7712,26.6225 L78.7472,26.6855 L78.7362,26.7145 L78.7072,26.7325 L78.6832,26.7945 L78.6712,26.8245 L78.6582,26.8415 L78.6202,26.9045 L78.5942,26.9505 L78.5542,26.9985 L78.5302,27.0465 L78.5152,27.0625 L78.5002,27.0645 L78.4892,27.0945 L78.4772,27.1265 L78.4622,27.1275 L78.4632,27.1425 L78.4232,27.1895 L78.3842,27.2375 L78.3592,27.2845 L78.3172,27.3185 L78.2772,27.3675 L78.1962,27.4475 L78.1142,27.5305 L78.0742,27.5785 L78.0622,27.5965 L78.0332,27.6125 L78.0062,27.6455 L77.9942,27.6615 L77.9362,27.6945 L77.8972,27.7445 L77.8582,27.7925 L77.7452,27.8625 L77.7042,27.9115 L77.6502,27.9455 L77.5942,27.9955 L77.5372,28.0305 L77.4412,28.1005 L77.3282,28.1695 L77.2162,28.2385 L77.1172,28.2925 L77.0052,28.3635 L76.8912,28.4185 L76.7912,28.4575 L76.7332,28.4785 L76.6762,28.4975 L76.5782,28.5515 L76.5182,28.5575 L76.4752,28.5755 L76.4332,28.5955 L76.3752,28.6155 L76.2882,28.6395 L76.2032,28.6765 L76.1602,28.6805 L76.1312,28.6975 L76.0432,28.7215 L75.9842,28.7275 L75.9122,28.7335 L75.8542,28.7545 L75.7802,28.7615 L75.7222,28.7675 L75.6622,28.7735 L75.6042,28.7775 L75.5592,28.7825 L80.5252,37.1935 L76.4632,37.5775 L71.3832,29.2195 L70.3382,29.3175 L71.1802,38.0895 L67.4412,38.4415 L65.4712,17.8675 L73.0372,17.1395 L73.2262,17.1075 L73.4022,17.0905 L73.5642,17.0745 L73.7432,17.0725 L73.9052,17.0575 L74.0522,17.0585 L74.2162,17.0585 L74.3652,17.0585 L74.5152,17.0745 L74.6622,17.0755 L74.8142,17.0915 L74.9632,17.1055 L75.0982,17.1235 L75.2192,17.1415 L75.3562,17.1725 L75.4772,17.1915 Z" id="Fill-10" fill="#FFFFFF"></path>
                <path d="M96.65,18.8619 L96.515,18.8449 L96.394,18.8289 L96.32,18.8199 L96.259,18.8099 L96.125,18.8079 L95.976,18.8069 L95.829,18.8219 L95.755,18.8289 L95.681,18.8359 L95.593,18.8429 L95.52,18.8499 L91.884,19.1939 L92.315,23.5929 L96.081,23.2229 L96.155,23.2159 L96.228,23.2099 L96.288,23.2039 L96.376,23.1959 L96.449,23.1889 L96.522,23.1819 L96.596,23.1749 L96.685,23.1669 L96.729,23.1629 L96.772,23.1419 L96.814,23.1239 L96.858,23.1199 L96.902,23.1009 L96.944,23.0819 L96.986,23.0489 L97.043,23.0279 L97.056,23.0109 L97.071,23.0099 L97.069,22.9959 L97.111,22.9629 L97.152,22.9289 L97.209,22.8929 L97.276,22.8129 L97.317,22.7789 L97.356,22.7319 L97.383,22.6999 L97.396,22.6829 L97.436,22.6339 L97.435,22.6199 L97.433,22.6049 L97.448,22.6039 L97.46,22.5729 L97.472,22.5419 L97.486,22.5249 L97.509,22.4659 L97.519,22.4039 L97.542,22.3429 L97.539,22.3119 L97.553,22.2969 L97.55,22.2679 L97.562,22.2379 L97.561,22.2219 L97.559,22.2079 L97.558,22.1929 L97.57,22.1619 L97.567,22.1329 L97.575,22.0569 L97.572,22.0289 L97.571,22.0129 L97.569,21.9989 L97.568,21.9839 L97.561,21.9109 L97.557,21.8659 L97.555,21.8509 L97.554,21.8369 L97.567,21.8209 L97.552,21.8229 L97.551,21.8079 L97.549,21.7929 L97.546,21.7489 L97.542,21.7049 L97.538,21.6599 L97.404,20.2479 L97.401,20.2169 L97.4,20.2029 L97.396,20.1589 L97.393,20.1299 L97.391,20.1149 L97.406,20.1129 L97.402,20.0679 L97.401,20.0539 L97.399,20.0399 L97.396,20.0099 L97.392,19.9659 L97.391,19.9509 L97.389,19.9359 L97.388,19.9219 L97.384,19.8769 L97.367,19.8489 L97.365,19.8359 L97.364,19.8209 L97.358,19.7609 L97.354,19.7169 L97.337,19.6879 L97.336,19.6739 L97.334,19.6589 L97.333,19.6439 L97.331,19.6309 L97.329,19.6009 L97.309,19.5579 L97.29,19.5009 L97.288,19.4859 L97.287,19.4699 L97.284,19.4409 L97.262,19.3839 L97.244,19.3269 L97.209,19.2699 L97.19,19.2269 L97.155,19.1719 L97.121,19.1309 L97.087,19.0899 L97.055,19.0609 L97.005,19.0219 L96.975,18.9969 L96.926,18.9559 L96.879,18.9299 L96.818,18.9069 L96.771,18.8959 L96.711,18.8719 L96.65,18.8619 Z M97.736,15.0929 L97.857,15.1259 L97.917,15.1349 L97.978,15.1589 L98.101,15.1909 L98.223,15.2399 L98.331,15.2739 L98.454,15.3209 L98.578,15.3689 L98.687,15.4329 L98.796,15.4819 L98.921,15.5449 L99.016,15.6109 L99.127,15.6739 L99.237,15.7529 L99.348,15.8169 L99.444,15.8959 L99.543,15.9919 L99.639,16.0719 L99.736,16.1509 L99.819,16.2479 L99.917,16.3409 L100,16.4239 L100.083,16.5189 L100.167,16.6309 L100.251,16.7259 L100.32,16.8389 L100.405,16.9489 L100.473,17.0469 L100.544,17.1589 L100.599,17.2729 L100.669,17.3839 L100.724,17.4989 L100.781,17.6269 L100.836,17.7409 L100.878,17.8549 L100.931,17.9689 L100.959,18.0999 L101,18.2149 L101.027,18.3459 L101.052,18.4619 L101.08,18.5939 L101.086,18.6519 L101.09,18.7119 L101.115,18.8139 L101.127,18.9309 L101.131,18.9899 L101.137,19.0489 L101.141,19.0919 L101.162,19.1499 L101.171,19.2539 L101.181,19.3559 L101.187,19.4149 L101.191,19.4599 L101.194,19.4879 L101.431,22.1689 L101.425,22.2579 L101.432,22.3329 L101.436,22.3759 L101.438,22.3899 L101.441,22.4209 L101.448,22.4939 L101.44,22.5689 L101.447,22.6419 L101.439,22.7179 L101.446,22.7919 L101.438,22.8659 L101.429,22.9419 L101.432,22.9709 L101.42,22.9869 L101.421,23.0019 L101.421,23.0159 L101.429,23.0899 L101.42,23.1509 L101.409,23.1959 L101.411,23.2109 L101.412,23.2249 L101.399,23.2409 L101.4,23.2559 L101.405,23.2989 L101.396,23.3609 L101.388,23.4349 L101.364,23.4969 L101.356,23.5719 L101.347,23.6329 L101.338,23.6919 L101.314,23.7539 L101.305,23.8299 L101.282,23.8899 L101.273,23.9509 L101.249,24.0129 L101.237,24.0289 L101.224,24.0599 L101.225,24.0749 L101.2,24.1209 L101.191,24.1809 L101.168,24.2439 L101.153,24.2449 L101.154,24.2589 L101.155,24.2739 L101.142,24.3049 L101.118,24.3519 L101.093,24.4129 L101.056,24.4759 L101.03,24.5229 L101.006,24.5859 L100.995,24.6159 L100.966,24.6329 L100.942,24.6949 L100.93,24.7259 L100.917,24.7419 L100.879,24.8049 L100.853,24.8509 L100.813,24.8989 L100.789,24.9469 L100.774,24.9639 L100.759,24.9649 L100.748,24.9959 L100.736,25.0269 L100.721,25.0279 L100.722,25.0429 L100.682,25.0909 L100.643,25.1389 L100.618,25.1859 L100.576,25.2189 L100.536,25.2679 L100.455,25.3489 L100.373,25.4309 L100.333,25.4799 L100.32,25.4969 L100.291,25.5139 L100.265,25.5469 L100.253,25.5619 L100.195,25.5959 L100.156,25.6449 L100.116,25.6929 L100.004,25.7639 L99.963,25.8119 L99.908,25.8469 L99.853,25.8959 L99.796,25.9309 L99.699,26.0009 L99.587,26.0699 L99.474,26.1399 L99.376,26.1939 L99.263,26.2639 L99.15,26.3189 L99.049,26.3579 L98.992,26.3789 L98.935,26.3989 L98.836,26.4529 L98.777,26.4579 L98.734,26.4769 L98.692,26.4969 L98.633,26.5169 L98.547,26.5399 L98.462,26.5779 L98.418,26.5819 L98.389,26.5989 L98.302,26.6219 L98.243,26.6279 L98.17,26.6339 L98.113,26.6559 L98.039,26.6629 L97.98,26.6689 L97.921,26.6739 L97.863,26.6789 L97.818,26.6829 L102.784,35.0949 L98.722,35.4779 L93.642,27.1209 L92.597,27.2189 L93.439,35.9899 L89.7,36.3429 L87.73,15.7679 L95.296,15.0409 L95.485,15.0079 L95.661,14.9909 L95.823,14.9759 L96.002,14.9729 L96.164,14.9589 L96.311,14.9599 L96.475,14.9589 L96.623,14.9599 L96.774,14.9759 L96.921,14.9759 L97.072,14.9919 L97.222,15.0069 L97.357,15.0239 L97.478,15.0429 L97.615,15.0739 L97.736,15.0929 Z" id="Fill-12" fill="#FFFFFF"></path>
                <polygon id="Fill-14" fill="#FFFFFF" points="116.2672 16.8795 107.1442 17.7835 107.5302 22.4845 114.2702 21.8495 114.6192 25.5445 107.9222 26.1905 108.3552 30.7825 117.6092 29.8505 117.9612 33.5885 104.9412 34.8925 102.9122 14.3075 115.9232 13.0795"></polygon>
                <polygon id="Fill-16" fill="#FFFFFF" points="127.6724 12.0768 127.8084 12.0788 127.9284 12.0958 128.0474 12.0988 128.1684 12.1338 128.2754 12.1528 128.3964 12.1858 128.5194 12.2198 128.6404 12.2518 128.7494 12.3018 128.8714 12.3488 128.9814 12.3978 129.0894 12.4468 129.1974 12.4968 129.3074 12.5608 129.4014 12.6108 129.4964 12.6758 129.6884 12.8058 129.7834 12.8868 129.8794 12.9518 129.9764 13.0318 130.0714 13.0978 130.2504 13.2728 130.3334 13.3548 130.4154 13.4348 130.5124 13.5158 130.5954 13.6118 130.6624 13.6948 130.7454 13.7918 130.8144 13.8888 130.8834 13.9868 130.9504 14.0838 131.0054 14.1828 131.0734 14.2798 131.1284 14.3798 131.1824 14.4778 131.2204 14.5788 131.2754 14.6758 131.3154 14.7928 131.3544 14.8918 131.3944 14.9928 131.4334 15.0928 131.4584 15.2098 131.4984 15.3238 131.5244 15.4398 131.5504 15.5558 131.5764 15.6738 131.5964 15.7308 131.5984 15.7448 131.5994 15.7598 131.6024 15.7888 131.6084 15.8478 131.6264 15.8908 131.6324 15.9508 131.6374 16.0088 131.6474 16.1118 128.1914 17.7288 128.1814 17.6258 128.1564 17.5248 128.1334 17.4228 128.1094 17.3208 128.1014 17.2328 128.0924 17.1448 128.0694 17.0578 128.0634 16.9838 128.0554 16.9118 128.0324 16.8388 128.0104 16.7518 127.9914 16.7098 127.9884 16.6798 127.9504 16.5948 127.9144 16.5238 127.9114 16.4948 127.8954 16.4798 127.8764 16.4378 127.8394 16.3658 127.8074 16.3248 127.7884 16.2828 127.7224 16.2148 127.6904 16.1868 127.6564 16.1458 127.5914 16.0948 127.5124 16.0418 127.4664 16.0158 127.4184 15.9898 127.3264 15.9548 127.2344 15.9198 127.1884 15.9088 127.1264 15.8848 127.0804 15.8748 127.0214 15.8648 126.9144 15.8458 126.8564 15.8508 126.8114 15.8398 126.7514 15.8458 126.6914 15.8368 126.6324 15.8418 126.5734 15.8478 126.5144 15.8528 126.4554 15.8578 126.3974 15.8638 123.8074 16.1228 123.6914 16.1498 123.5594 16.1618 123.4434 16.1878 123.3414 16.2128 123.2264 16.2528 123.1264 16.2918 123.0264 16.3308 122.9254 16.3698 122.8414 16.4218 122.7714 16.4738 122.7314 16.5078 122.6884 16.5258 122.6604 16.5588 122.6344 16.5908 122.5934 16.6238 122.5674 16.6708 122.5404 16.7038 122.5304 16.7488 122.4804 16.8428 122.4544 16.8888 122.4434 16.9348 122.4084 17.0278 122.3734 17.1358 122.3624 17.1808 122.3554 17.2408 122.3354 17.3468 122.3274 17.4358 122.3184 17.4958 122.3224 17.5398 122.3264 17.5848 122.3174 17.6308 122.3204 17.6758 122.3234 17.7048 122.3264 17.7328 122.3284 17.7638 122.3304 17.7778 122.3334 17.8068 123.2924 27.5028 123.3014 27.5918 123.3094 27.6788 123.3104 27.8568 123.3184 27.9308 123.3404 28.0038 123.3484 28.0908 123.3554 28.1648 123.3764 28.2378 123.3834 28.3098 123.4054 28.3828 123.4104 28.4418 123.4304 28.4988 123.4514 28.5718 123.4574 28.6308 123.4774 28.6878 123.4964 28.7298 123.5314 28.7868 123.5704 28.8878 123.5904 28.9298 123.6234 28.9718 123.6414 28.9988 123.6754 29.0408 123.7074 29.0828 123.7394 29.1088 123.7734 29.1358 123.8054 29.1618 123.8524 29.1868 123.8844 29.2138 123.9154 29.2248 123.9614 29.2518 124.0384 29.2738 124.1144 29.2968 124.2054 29.3168 124.2954 29.3238 124.3874 29.3448 124.4764 29.3508 124.5654 29.3428 124.6534 29.3488 124.6834 29.3468 127.9344 29.0108 127.9474 29.0088 127.9904 28.9898 128.0054 28.9878 128.0214 28.9868 128.0654 28.9828 128.1084 28.9648 128.1664 28.9588 128.2244 28.9378 128.2974 28.9308 128.3264 28.9128 128.3694 28.9088 128.3974 28.8918 128.4414 28.8738 128.5114 28.8378 128.5544 28.8178 128.5804 28.7858 128.6084 28.7678 128.6514 28.7338 128.6774 28.7028 128.7184 28.6688 128.7454 28.6378 128.7704 28.5908 128.8114 28.5558 128.8524 28.5078 128.8774 28.4608 128.9014 28.4148 128.9284 28.3678 128.9274 28.3528 128.9424 28.3508 128.9524 28.3198 128.9494 28.2908 128.9644 28.2888 128.9624 28.2738 128.9864 28.2128 128.9844 28.1978 128.9964 28.1678 129.0074 28.1068 129.0184 28.0608 129.0294 28.0308 129.0264 28.0018 129.0354 27.9408 129.0444 27.8808 129.0404 27.8368 129.0374 27.8068 129.0324 27.7478 129.0264 27.6898 129.0204 27.6158 128.9934 27.3358 128.9524 27.0578 128.9264 26.7778 128.8974 26.4688 126.6734 26.6638 126.3584 23.0108 132.2894 22.4508 132.3134 22.7018 132.3344 22.9228 132.3554 23.1428 132.3754 23.3638 132.3954 23.5698 132.4144 23.7758 132.4324 23.9678 132.4674 24.1728 132.4844 24.3478 132.5004 24.5248 132.5184 24.7028 132.5264 24.7898 132.5324 24.8638 132.5484 25.0258 132.5624 25.1738 132.5754 25.3208 132.5824 25.3938 132.5854 25.4228 132.5894 25.4678 132.5954 25.5258 132.6024 25.5998 132.6134 25.7178 132.6244 25.8358 132.6354 25.9528 132.6384 25.9828 132.6404 25.9978 132.6454 26.0558 132.6544 26.1588 132.6634 26.2478 132.6714 26.3358 132.6624 26.4108 132.6704 26.4848 132.6724 26.5138 132.6774 26.5568 132.6824 26.6168 132.6884 26.6758 132.6924 26.7208 132.6944 26.7488 132.6984 26.7928 132.7084 27.0458 132.7174 27.2968 132.7274 27.5638 132.7374 27.8298 132.7404 27.8578 132.7434 27.8888 132.7354 27.9628 132.7324 28.0828 132.7374 28.1408 132.7294 28.2168 132.7254 28.3358 132.7094 28.4718 132.6984 28.5158 132.7034 28.5598 132.6904 28.5758 132.6914 28.5908 132.6934 28.6048 132.6814 28.6378 132.6704 28.6968 132.6524 28.8168 132.6184 28.9248 132.6004 29.0448 132.5664 29.1528 132.5464 29.2578 132.5114 29.3658 132.4774 29.4728 132.4414 29.5648 132.4204 29.6708 132.4094 29.7008 132.3984 29.7328 132.3844 29.7488 132.3864 29.7638 132.3494 29.8568 132.3144 29.9488 132.3034 29.9938 132.2774 30.0418 132.2674 30.0878 132.2414 30.1328 132.1924 30.2268 132.1544 30.3058 132.1044 30.3988 132.0514 30.4778 132.0024 30.5708 131.9504 30.6658 131.8834 30.7468 131.8194 30.8418 131.7534 30.9358 131.6884 31.0318 131.6084 31.1288 131.5284 31.2248 131.4614 31.3058 131.3804 31.3878 131.3134 31.4688 131.2324 31.5508 131.1504 31.6168 131.0814 31.6828 130.9974 31.7358 130.9294 31.8018 130.8454 31.8538 130.7614 31.9068 130.6784 31.9738 130.5794 32.0288 130.4824 32.0958 130.3834 32.1498 130.2854 32.2188 130.1874 32.2728 130.0864 32.3108 129.9874 32.3648 129.8874 32.4048 129.8014 32.4428 129.6994 32.4678 129.6124 32.4898 129.5264 32.5138 129.4964 32.5158 129.4824 32.5168 129.4674 32.5178 129.4384 32.5208 129.4074 32.5238 129.3634 32.5278 129.3064 32.5338 129.2344 32.5558 129.2044 32.5578 129.1594 32.5618 129.0714 32.5708 129.0274 32.5748 128.9834 32.5788 128.8804 32.5888 128.7624 32.5998 128.7034 32.6048 128.6464 32.6268 128.5874 32.6328 128.5134 32.6388 128.4544 32.6448 128.3814 32.6518 128.2344 32.6658 128.1604 32.6728 128.0864 32.6798 127.9094 32.6958 127.8364 32.7028 127.7924 32.7068 127.7484 32.7118 127.6594 32.7198 127.5714 32.7278 127.3794 32.7458 127.2764 32.7558 127.1734 32.7648 126.9694 32.7998 126.8654 32.8088 126.7624 32.8188 126.6454 32.8298 126.5414 32.8398 126.4244 32.8508 126.3074 32.8618 126.1904 32.8728 126.0704 32.8848 125.8204 32.9078 125.5704 32.9308 125.3074 32.9568 125.1584 32.9708 125.0274 32.9978 124.7474 33.0238 124.4694 33.0508 124.4544 33.0518 124.3204 33.0638 124.2034 33.0748 124.0844 33.0718 123.9654 33.0678 123.8474 33.0628 123.7274 33.0598 123.6214 33.0408 123.5164 33.0208 123.2894 32.9818 123.0624 32.9298 122.9394 32.8968 122.8314 32.8628 122.7104 32.8288 122.6034 32.7948 122.4814 32.7618 122.3734 32.7268 122.2644 32.6778 122.1574 32.6428 122.0644 32.5938 121.9564 32.5448 121.8604 32.4778 121.7674 32.4288 121.6714 32.3628 121.5914 32.3098 121.4964 32.2458 121.4014 32.1808 121.2404 32.0478 121.0664 31.9148 120.9854 31.8478 120.9014 31.7678 120.8344 31.6838 120.7534 31.6028 120.6864 31.5198 120.6184 31.4368 120.5504 31.3398 120.4974 31.2568 120.4284 31.1588 120.3754 31.0598 120.3224 30.9618 120.2684 30.8618 120.2294 30.7628 120.1744 30.6628 120.1354 30.5628 120.0814 30.4638 120.0024 30.2488 119.9634 30.1478 119.9254 30.0628 119.8604 29.8608 119.8224 29.7748 119.8004 29.6878 119.7764 29.5868 119.7524 29.4998 119.7154 29.4148 119.7074 29.3258 119.6844 29.2388 119.6624 29.1668 119.6534 29.0778 119.6474 29.0058 118.5394 17.7338 118.5284 17.6168 118.5334 17.5128 118.5244 17.4098 118.5284 17.3048 118.5214 17.2158 118.5264 17.1268 118.5194 17.0378 118.5254 16.9488 118.5184 16.8748 118.5264 16.7998 118.5194 16.7258 118.5264 16.6518 118.5214 16.5918 118.5294 16.5318 118.5394 16.4728 118.5334 16.4128 118.5534 16.3068 118.5584 16.2028 118.5774 16.0978 118.5984 15.9918 118.6324 15.8838 118.6514 15.7788 118.7204 15.5638 118.8034 15.3338 118.8874 15.1328 118.9864 14.9158 119.0854 14.7118 119.1504 14.6018 119.1994 14.4938 119.2644 14.3988 119.3294 14.3028 119.4074 14.1918 119.4744 14.0978 119.5534 13.9998 119.6344 13.9188 119.7154 13.8208 119.7954 13.7248 119.8764 13.6428 119.9734 13.5588 120.0544 13.4778 120.1514 13.4098 120.2474 13.3258 120.3444 13.2568 120.5404 13.1358 120.7524 13.0118 120.9474 12.8888 121.1624 12.7938 121.2624 12.7388 121.3764 12.6998 121.4904 12.6598 121.6084 12.6338 121.7224 12.5928 121.8394 12.5668 121.9714 12.5548 122.1054 12.5418 122.5874 12.4808 122.8384 12.4578 123.0874 12.4198 123.1164 12.4168 126.6924 12.0638 126.9444 12.0698 127.0774 12.0578 127.2114 12.0598 127.4484 12.0678"></polygon>
            </g>
        </g>
    </g>
</svg>