<?xml version="1.0" encoding="UTF-8" standalone="no"?>
<svg width="58px" height="58px" viewBox="0 0 58 58" version="1.1" xmlns="http://www.w3.org/2000/svg" xmlns:xlink="http://www.w3.org/1999/xlink" xmlns:sketch="http://www.bohemiancoding.com/sketch/ns">
    <!-- Generator: Sketch 3.2.2 (9983) - http://www.bohemiancoding.com/sketch -->
    <title>icon-personal-belongings</title>
    <desc>Created with Sketch.</desc>
    <defs></defs>
    <g id="Page-1" stroke="none" stroke-width="1" fill="none" fill-rule="evenodd" sketch:type="MSPage">
        <g id="icon-personal-belongings" sketch:type="MSLayerGroup">
            <path d="M0,0 L58,0 L58,58 L0,58 L0,0 Z" id="Rectangle-17" fill-opacity="0.01" fill="#FFFFFF" sketch:type="MSShapeGroup"></path>
            <path d="M26.4643147,30.5425893 L25.8663147,30.5425893 C20.0271897,30.5425893 14.1880647,30.5425893 8.35037716,30.5440268 C7.67331466,30.5440268 7.05087716,30.4247143 6.56068966,29.8971518 C5.71687716,28.9915268 5.83762716,27.5799018 6.84100216,26.8611518 C7.02500216,26.7303393 7.22912716,26.6225268 7.43325216,26.5219018 C20.8494397,19.8116518 34.2670647,13.1042768 47.6789397,6.3868393 C48.3790022,6.0360893 49.0690022,5.8391518 49.8021272,6.1683393 C50.9478147,6.6800893 51.3258772,7.8717768 50.7408147,9.0447768 C48.4940022,13.5484643 46.2414397,18.0478393 43.9917522,22.5486518 C39.4334397,31.6667143 34.8751272,40.7819018 30.3182522,49.8999643 C29.8769397,50.7811518 28.9957522,51.1707143 27.9765647,50.9249018 C27.1054397,50.7164643 26.4671897,49.9085893 26.4657522,48.9799643 C26.4614397,44.3397143 26.4643147,39.7009018 26.4643147,35.0620893 L26.4643147,30.5425893" id="Imported-Layers" fill="#40A4F4" sketch:type="MSShapeGroup"></path>
        </g>
    </g>
</svg>