<?xml version="1.0" encoding="UTF-8" standalone="no"?>
<svg width="58px" height="58px" viewBox="0 0 58 58" version="1.1" xmlns="http://www.w3.org/2000/svg" xmlns:xlink="http://www.w3.org/1999/xlink" xmlns:sketch="http://www.bohemiancoding.com/sketch/ns">
    <!-- Generator: Sketch 3.3 (11970) - http://www.bohemiancoding.com/sketch -->
    <title>icon-travel</title>
    <desc>Created with Sketch.</desc>
    <defs></defs>
    <g id="Page-1" stroke="none" stroke-width="1" fill="none" fill-rule="evenodd" sketch:type="MSPage">
        <g id="icon-travel" sketch:type="MSArtboardGroup" fill="#41A5F5">
            <path d="M25.9209511,28.3690782 L7.84941329,16.9764781 C7.84941329,16.9764781 9.45953387,15.7247638 11.1723428,14.7953759 C13.3705144,15.1488952 34.9976349,19.3199433 34.9976349,19.3199433 L25.9209511,28.3690782" id="Fill-1" sketch:type="MSShapeGroup"></path>
            <path d="M27.9587527,16.543851 L29.1824407,15.3239052 C29.6030294,14.9046028 29.5995677,14.5206736 29.1824407,14.1039594 L26.1223552,11.0540949 C25.7441715,10.6770678 25.2716583,10.6822444 24.8986671,11.0540949 L21.2267376,14.7139323 L27.9587527,16.543851 Z" id="Fill-2" sketch:type="MSShapeGroup"></path>
            <path d="M41.3193839,50.3440632 C41.3193839,50.3440632 42.5749089,48.7396294 43.5071262,47.0320191 C43.1525306,44.8405192 38.9687843,23.2790398 38.9687843,23.2790398 L29.8921005,32.3281747 L41.3193839,50.3440632 Z" id="Fill-3" sketch:type="MSShapeGroup"></path>
            <path d="M41.9670837,30.5660461 L43.1916372,29.3461003 C43.6122259,28.9267979 43.9973328,28.9302489 44.4153252,29.3461003 L47.4745453,32.3968276 C47.852729,32.7738547 47.8475365,33.2449229 47.4745453,33.6167734 L43.8034812,37.2774736 L41.9670837,30.5660461 Z" id="Fill-4" sketch:type="MSShapeGroup"></path>
            <path d="M49.2881504,9.50170269 C50.4573177,10.6672945 48.7143844,16.8489859 46.9359693,18.6228251 L23.7481124,40.4306302 L24.3616872,45.9195236 L21.9220998,48.3516503 L17.8641979,40.6575367 L10.2953325,36.7604397 L12.7357853,34.3283129 L18.2415161,34.9400114 L40.1399139,11.8475532 C41.8672699,10.124617 48.0938863,8.3110908 49.2881504,9.50170269 Z" id="Fill-5" sketch:type="MSShapeGroup"></path>
            <path d="M20.4708092,42.2898829 L14.6578583,43.8152465 L16.187901,38.0192098" id="Fill-6" sketch:type="MSShapeGroup"></path>
        </g>
    </g>
</svg>