<?xml version="1.0" encoding="UTF-8" standalone="no"?>
<svg width="30px" height="30px" viewBox="0 0 30 30" version="1.1" xmlns="http://www.w3.org/2000/svg" xmlns:xlink="http://www.w3.org/1999/xlink" xmlns:sketch="http://www.bohemiancoding.com/sketch/ns">
    <!-- Generator: Sketch 3.2.2 (9983) - http://www.bohemiancoding.com/sketch -->
    <title>icon-faq-cross</title>
    <desc>Created with Sketch.</desc>
    <defs></defs>
    <g id="Page-1" stroke="none" stroke-width="1" fill="none" fill-rule="evenodd" sketch:type="MSPage">
        <g id="icon-faq-cross" sketch:type="MSLayerGroup" transform="translate(-1.000000, 0.000000)">
            <path d="M23.346,7.657 L8.66,22.344" id="Shape" stroke="#0078FF" stroke-width="2" sketch:type="MSShapeGroup"></path>
            <path d="M23.346,22.344 L8.66,7.657" id="Shape" stroke="#0078FF" stroke-width="2" sketch:type="MSShapeGroup"></path>
            <path d="M16.064,1 C19.789,1 23.29,2.468 25.921,5.111 C28.552,7.754 29.999,11.271 29.996,15.003 C29.989,22.723 23.702,29.012 15.969,29.019 C8.234,29.019 2.097,22.872 1.999,15.022 C1.953,11.356 3.358,7.871 5.956,5.231 C8.622,2.523 12.193,1 16.014,1 L16,1 L16.064,1 Z M16.064,0 L16.01,0 C7.665,0 0.896,6.769 1,15.013 C1.104,23.291 7.694,30 15.97,30 L15.985,30 C24.268,30 30.99,23.27 30.998,14.987 C31.004,6.722 24.323,0 16.064,0 L16.064,0 L16.064,0 Z" id="Shape" fill="#0078FF" sketch:type="MSShapeGroup"></path>
        </g>
    </g>
</svg>