<?xml version="1.0" encoding="UTF-8" standalone="no"?>
<svg width="58px" height="58px" viewBox="0 0 58 58" version="1.1" xmlns="http://www.w3.org/2000/svg" xmlns:xlink="http://www.w3.org/1999/xlink" xmlns:sketch="http://www.bohemiancoding.com/sketch/ns">
    <!-- Generator: Sketch 3.2.2 (9983) - http://www.bohemiancoding.com/sketch -->
    <title>Icon-Make-A-Claim-On</title>
    <desc>Created with Sketch.</desc>
    <defs></defs>
    <g id="Page-1" stroke="none" stroke-width="1" fill="none" fill-rule="evenodd" sketch:type="MSPage">
        <g id="Icon-Make-A-Claim-On" sketch:type="MSArtboardGroup" fill="#A5CDDB">
            <path d="M49.4198229,40.349435 L32.7088947,11.1760866 C31.0604408,8.30746649 26.9393061,8.2586908 25.2908522,11.1267012 L8.57992402,40.3744325 C6.93207707,43.242443 8.99203749,47 12.2889453,47 L45.7108017,47 C49.0077095,47 51.0682768,43.2180551 49.4198229,40.349435 Z M30.3990737,40.719827 C29.9704842,40.9797953 29.4624579,41.1149064 28.9587421,41.1058588 C28.3084684,41.0943984 27.7327053,40.8784619 27.2443842,40.4628746 C26.7800789,40.0683984 26.5171368,39.5412238 26.4604842,38.892208 C26.4056789,38.2570651 26.7302,37.3167159 27.1908105,36.8661445 C27.6797474,36.3890334 28.2844526,36.1471603 28.9870684,36.1471603 C29.6859895,36.1471603 30.2913105,36.3866207 30.7876368,36.8577 C31.3196789,37.3625572 31.5906263,38.0984302 31.5444421,38.8222397 C31.4914842,39.6503984 31.106,40.2909699 30.3990737,40.719827 Z M31.4582316,24.7899215 L30.9083316,30.668552 C30.8288947,31.6058248 30.6330737,32.280064 30.3067053,32.742383 C30.0376053,33.1225758 29.5714526,33.3339216 29.0837474,33.3632114 C28.3121632,33.4097305 27.7154632,33.0955833 27.4155737,32.4902612 C27.2043579,32.0635494 27.0614947,31.4616732 26.9771316,30.6495997 L26.5657842,24.9128237 C26.4875789,23.7693738 26.4494,22.9722324 26.4494,22.4743062 C26.4494,21.6656786 26.6926368,21.0132632 27.1729526,20.5342892 C27.6637368,20.0444033 28.3084684,19.7963017 29.0899053,19.7963017 C30.3177895,19.7963017 30.8701526,20.3585506 31.1170842,20.8300585 C31.4089684,21.3894358 31.5506,22.1417811 31.5506,23.1307418 C31.5506,23.6711669 31.5198105,24.2288212 31.4582316,24.7899215 Z" id="Path" sketch:type="MSShapeGroup"></path>
        </g>
    </g>
</svg>