<?xml version="1.0" encoding="UTF-8" standalone="no"?>
<svg width="33px" height="26px" viewBox="0 0 33 26" version="1.1" xmlns="http://www.w3.org/2000/svg" xmlns:xlink="http://www.w3.org/1999/xlink" xmlns:sketch="http://www.bohemiancoding.com/sketch/ns">
    <!-- Generator: Sketch 3.2.2 (9983) - http://www.bohemiancoding.com/sketch -->
    <title>icon-landline</title>
    <desc>Created with Sketch.</desc>
    <defs>
        <path id="path-1" d="M29.8709677,11.055 C31.4193548,11.055 31.4193548,10.296 31.4193548,8.021 C31.4193548,5.745 30.4516129,3.776 27.3548387,2.952 C24.4777419,2.186 23.483871,1.952 16.7096774,1.952 C9.93548387,1.952 8.9416129,2.186 6.06451613,2.952 C2.96774194,3.776 2,5.917 2,8.106 C2,10.296 2.77419355,11.055 3.5483871,11.055 L4.70967742,11.055 L6.06451613,8.106 C6.06451613,8.107 7.35451613,6.951 8,6.951 L8.96774194,6.951 L8.96774194,5.745 C8.96774194,5.745 9.09645161,5.008 9.74193548,5.008 L12.8387097,5.008 C13.6129032,5.008 13.8064516,5.952 13.8064516,5.952 L13.8064516,6.951 L19.6129032,6.951 L19.6129032,5.952 C19.6129032,5.952 19.9351613,5.008 20.5806452,5.008 L23.483871,5.008 C23.483871,5.008 24.4516129,5.324 24.4516129,5.952 L24.4516129,6.951 L25.4193548,6.951 C26.0609677,6.951 27.1390323,7.514 27.3548387,8.106 L28.7096774,11.055 L29.8709677,11.055 L29.8709677,11.055 Z"></path>
        <path d="M16.7096774,20.4 C20.5583871,20.4 23.6774194,18.192 23.6774194,15.469 C23.6774194,12.745 20.5583871,10.538 16.7096774,10.538 C12.8619355,10.538 9.74193548,12.745 9.74193548,15.469 C9.74193548,18.192 12.8619355,20.4 16.7096774,20.4 L16.7096774,20.4 Z M24.4516129,9.021 C24.9858065,9.021 25.5945161,9.425 25.816129,9.938 C25.816129,9.938 28.6506452,16.415 29.2903226,18.883 C29.93,21.351 29.5564516,21.969 29.5564516,21.969 C29.4093548,23.064 28.4241935,23.952 27.3577419,23.952 L6.0616129,23.952 C4.99419355,23.952 4.12903226,23.057 4.12903226,21.948 L4.12903226,19.884 C4.12903226,19.331 4.29548387,18.459 4.49387097,17.955 L7.63612903,9.948 C7.83645161,9.436 8.42967742,9.021 8.96774194,9.021 L9.93548387,9.021 L9.93548387,7.453 C9.93548387,7.176 10.1445161,6.951 10.4145161,6.951 L12.3596774,6.951 C12.623871,6.951 12.8387097,7.173 12.8387097,7.453 L12.8387097,9.021 L20.5806452,9.021 L20.5806452,7.453 C20.5806452,7.176 20.7896774,6.951 21.0596774,6.951 L23.0048387,6.951 C23.2690323,6.951 23.483871,7.173 23.483871,7.453 L23.483871,9.021 L24.4516129,9.021 L24.4516129,9.021 Z" id="path-3"></path>
        <path id="path-5" d="M22.1290323,15.052 C22.1290323,13.229 19.7464516,11.752 16.8064516,11.752 C13.8674194,11.752 11.483871,13.229 11.483871,15.052 C11.483871,16.874 13.8674194,18.352 16.8064516,18.352 C19.7464516,18.352 22.1290323,16.874 22.1290323,15.052 Z"></path>
    </defs>
    <g id="Page-1" stroke="none" stroke-width="1" fill="none" fill-rule="evenodd" sketch:type="MSPage">
        <g id="icon-landline" sketch:type="MSArtboardGroup">
            <mask id="mask-2" sketch:name="Clip 5" fill="white">
                <use xlink:href="#path-1"></use>
            </mask>
            <use id="Clip-5" opacity="0.65" fill="#FFFFFF" sketch:type="MSShapeGroup" xlink:href="#path-1"></use>
            <mask id="mask-4" sketch:name="Clip 2" fill="white">
                <use xlink:href="#path-3"></use>
            </mask>
            <use id="Clip-2" opacity="0.65" fill="#FFFFFF" sketch:type="MSShapeGroup" xlink:href="#path-3"></use>
            <mask id="mask-6" sketch:name="Clip 8" fill="white">
                <use xlink:href="#path-5"></use>
            </mask>
            <use id="Clip-8" opacity="0.65" fill="#FFFFFF" sketch:type="MSShapeGroup" xlink:href="#path-5"></use>
        </g>
    </g>
</svg>