<?xml version="1.0" encoding="utf-8"?>
<!-- Generator: Adobe Illustrator 16.0.0, SVG Export Plug-In . SVG Version: 6.00 Build 0)  -->
<!DOCTYPE svg PUBLIC "-//W3C//DTD SVG 1.1//EN" "http://www.w3.org/Graphics/SVG/1.1/DTD/svg11.dtd">
<svg version="1.1" id="Layer_1" xmlns="http://www.w3.org/2000/svg" xmlns:xlink="http://www.w3.org/1999/xlink" x="0px" y="0px"
	 width="42.838px" height="37.42px" viewBox="0 0 42.838 37.42" enable-background="new 0 0 42.838 37.42" xml:space="preserve">
<g>
	<g>
		<polygon fill="#41A5F5" points="19.672,32.288 6.034,39.458 8.638,24.27 -2.396,13.515 12.853,11.299 19.672,-2.519 
			26.492,11.299 41.742,13.515 30.707,24.27 33.312,39.458 		"/>
		<path fill="#FFFFFF" d="M19.672,0l6.08,12.318l13.594,1.975l-9.837,9.588l2.322,13.539l-12.159-6.392L7.514,37.42l2.322-13.539
			L0,14.293l13.593-1.975L19.672,0 M19.672-5.038l-2,4.051l-5.56,11.267L-0.32,12.086l-4.471,0.649l3.235,3.154l8.997,8.77
			L5.316,37.043l-0.763,4.453l3.999-2.102l11.121-5.846l11.121,5.846l3.999,2.102l-0.764-4.453l-2.125-12.384l8.998-8.77
			l3.236-3.154l-4.472-0.649L27.232,10.28L21.672-0.987L19.672-5.038L19.672-5.038z"/>
	</g>
	<g>
		<polygon fill="#41A5F5" points="14.963,17.933 19.807,13.089 24.885,18.167 38.975,3.607 43.859,9.102 24.73,29.003 		"/>
		<path fill="#FFFFFF" d="M38.952,4.71l3.887,4.372L24.753,27.896l-8.762-9.932l3.815-3.815l5.087,5.087L38.952,4.71 M38.999,2.505
			l-1.125,1.162L24.876,17.098l-4.009-4.009l-1.061-1.061l-1.061,1.061l-3.815,3.815L13.934,17.9l0.932,1.057l8.762,9.932
			l1.078,1.222l1.129-1.174L43.92,10.122l0.961-1l-0.921-1.036l-3.887-4.372L38.999,2.505L38.999,2.505z"/>
	</g>
</g>
</svg>
