<?xml version="1.0" encoding="UTF-8" standalone="no"?>
<svg width="58px" height="58px" viewBox="0 0 58 58" version="1.1" xmlns="http://www.w3.org/2000/svg" xmlns:xlink="http://www.w3.org/1999/xlink" xmlns:sketch="http://www.bohemiancoding.com/sketch/ns">
    <!-- Generator: Sketch 3.3 (11970) - http://www.bohemiancoding.com/sketch -->
    <title>icon-bike</title>
    <desc>Created with Sketch.</desc>
    <defs></defs>
    <g id="Page-1" stroke="none" stroke-width="1" fill="none" fill-rule="evenodd" sketch:type="MSPage">
        <g id="icon-bike" sketch:type="MSArtboardGroup" fill="#41A5F5">
            <path d="M23.5263853,36.8117431 C23.5263853,31.6574754 19.543955,27.0000001 15.3266602,27 C13.9541867,27 13.2462947,27 12.0446949,27 C11.0396811,27 10.0001512,26.4489142 10.0001512,26 C10.0001512,16.5300493 18.038282,14 20,14 C19.9999996,15.7526602 20,20 20,20 C28.9568067,19.9834274 27.95882,24.3693846 31.990758,24.3693846 C38.4810461,24.3693846 36.0928086,21.8396412 38.7104083,21.8055494 C45.4483627,21.717794 48.7334195,24.0202219 48.7334195,24.0202219 C49.2087852,24.2915932 49.5941452,24.9614242 49.5941451,25.515716 C49.5941451,25.515716 49.5941451,25.4945725 49.5941452,27.1710035 C43.1337208,25.4945728 34.702673,28.4323693 34.702672,36.81327 C34.7026717,39.4835407 33.8399073,39.0461388 28.8514524,39.0461388 C23.8629976,39.0461388 23.5263853,38.2911885 23.5263853,36.8117431 Z" id="Fill-1" sketch:type="MSShapeGroup"></path>
            <path d="M14,44 C10.1337374,44 7,40.8655556 7,37 C7,33.1337374 10.1337374,30 14,30 C17.8662626,30 21,33.1337374 21,37 C21,40.8655556 17.8662626,44 14,44 Z" id="Fill-2" sketch:type="MSShapeGroup"></path>
            <path d="M44,44 C40.1337374,44 37,40.8655556 37,37 C37,33.1337374 40.1337374,30 44,30 C47.8655556,30 51,33.1337374 51,37 C51,40.8655556 47.8655556,44 44,44 Z" id="Fill-3" sketch:type="MSShapeGroup"></path>
        </g>
    </g>
</svg>