<?xml version="1.0" encoding="UTF-8" standalone="no"?>
<svg width="34px" height="41px" viewBox="0 0 34 41" version="1.1" xmlns="http://www.w3.org/2000/svg" xmlns:xlink="http://www.w3.org/1999/xlink" xmlns:sketch="http://www.bohemiancoding.com/sketch/ns">
    <!-- Generator: Sketch 3.2.2 (9983) - http://www.bohemiancoding.com/sketch -->
    <title>Boiler Emergency</title>
    <desc>Created with Sketch.</desc>
    <defs></defs>
    <g id="Page-1" stroke="none" stroke-width="1" fill="none" fill-rule="evenodd" sketch:type="MSPage">
        <g id="Boiler-Emergency" sketch:type="MSLayerGroup" transform="translate(-12.000000, -8.000000)">
            <rect id="Rectangle-5" fill-opacity="0" fill="#FFFFFF" sketch:type="MSShapeGroup" x="0" y="0" width="58" height="58"></rect>
            <g transform="translate(12.000000, 8.000000)" id="Boiler-L" fill="#40A4F4" sketch:type="MSShapeGroup">
                <g>
                    <g id="Fill-4-+-Fill-6">
                        <path d="M5.53731034,25.8181159 C4.04131034,17.4202464 11.1531724,16.0957681 13.1867241,8.37231884 C14.9605862,11.0188986 14.9664483,14.3226667 14.9664483,14.3226667 C14.9664483,14.3226667 16.6986897,11.799087 15.8903103,7.56895652 C15.6663793,6.3965942 14.7178966,4.65676812 13.9452759,3.3833913 C15.8064828,3.45528986 28.6379655,9.15428986 28.6379655,21.8916232 C28.6379655,27.5543768 26.2843448,30.8985507 23.6475862,32.6811594 L34,32.6811594 L34,4.00373913 C34,1.62811594 32.2736207,0 29.9305517,0 L4.41882759,0 C2.07575862,0 0,1.62811594 0,4.00373913 L0,32.6811594 L9.41213793,32.6811594 C7.62772414,30.8985507 6.09244828,28.9353043 5.53731034,25.8181159 Z M22.5822709,28.5975536 C23.064155,22.740321 17.9098295,19.6297173 15.9446352,19.6086957 C16.2060641,20.4351468 17.0119919,21.0935125 16.9970945,22.9577601 C16.9732231,25.9450224 15.6682666,26.6619537 15.6682666,26.6619537 C15.6682666,26.6619537 16.3796706,24.3446204 14.6200849,22.7439247 C13.3216277,25.9452219 10.4391311,26.9812889 11.2035792,31.0979288 C11.3286052,31.7688198 11.5611724,32.6811594 11.7892069,32.6811594 L21.0372069,32.6811594 C21.8618301,32.0805408 22.4253681,30.5003133 22.5822709,28.5975536 Z M4.68965517,41 C2.06227586,41 0,38.9095942 0,36.3313478 L0,35.1625507 C0,35.104913 0.0463103448,35.057971 0.103172414,35.057971 L33.9437241,35.057971 C33.9730345,35.057971 33.997069,35.0823333 33.997069,35.1120435 L33.997069,36.3313478 C33.997069,38.9095942 31.9347931,41 29.3912414,41 L4.68965517,41 Z" id="Fill-4"></path>
                    </g>
                </g>
            </g>
        </g>
    </g>
</svg>