<?xml version="1.0" encoding="utf-8"?>
<!-- Generator: Adobe Illustrator 19.2.1, SVG Export Plug-In . SVG Version: 6.00 Build 0)  -->
<!DOCTYPE svg PUBLIC "-//W3C//DTD SVG 1.1//EN" "http://www.w3.org/Graphics/SVG/1.1/DTD/svg11.dtd">
<svg version="1.1" id="Layer_1" xmlns:sketch="http://www.bohemiancoding.com/sketch/ns"
	 xmlns="http://www.w3.org/2000/svg" xmlns:xlink="http://www.w3.org/1999/xlink" x="0px" y="0px" viewBox="0 0 58 58"
	 style="enable-background:new 0 0 58 58;" xml:space="preserve">
<style type="text/css">
	.st0{fill:#41A5F6;}
</style>
<title>icon-loan</title>
<desc>Created with Sketch.</desc>
<g id="Page-1_1_" sketch:type="MSPage">
	<g id="icon-loan" sketch:type="MSArtboardGroup">
		<g id="Page-1" transform="translate(10.000000, 10.000000)" sketch:type="MSLayerGroup">
			<path id="Fill-1" sketch:type="MSShapeGroup" class="st0" d="M11.4,27.1l-0.7-1.5c-0.4-0.4-0.9-0.8-1.2-1.1h0
				c-1.1-1.4-2.3-1.8-3.3-1.3c0.2-0.1-0.2,0-0.4,0.2c0.6,0.3,5.7,5.5,5.7,5.5c-0.1-0.2-0.2-0.5-0.2-0.8
				C11.3,27.7,11.3,27.4,11.4,27.1"/>
			<path id="Fill-3" sketch:type="MSShapeGroup" class="st0" d="M10,21.6l1.9,4.3c0.5-0.7,1.4-1.3,3-1.3c0.4,0,0.8,0,1.1,0.1
				c0,0,0,0,0.1,0c0.2,0,0.3,0,0.5,0c0.5,0,0.9,0,1.3,0.1c0.1,0,0.4,0.1,0.6,0.1c1.2,0.1,2.8,0.2,5.2,0.4c1.2-0.3,2.3-0.5,3.5-0.5
				c0.7,0,1.3,0.1,1.9,0.2c0.2-0.1,0.4-0.2,0.6-0.3l-2.2-4.7c-0.7,0.3-1.3,0.5-1.7,0.6c-0.4,0.1-0.9,0.2-1.5,0.2
				c-0.7,0-1.7-0.1-2.8-0.4C20.7,20.1,20,20,19.5,20c-0.4,0-0.9,0.1-1.5,0.2c0.5-0.6,0.9-1.2,1.1-1.7c0.3-0.7,0.4-1.4,0.5-2.5h4.2
				v-3.8H19c-0.4-1.1-0.7-2.1-0.8-2.5c-0.1-0.4-0.1-0.7-0.1-1.1c0-0.7,0.2-1.3,0.6-1.7c0.4-0.4,0.9-0.6,1.5-0.6c0.5,0,1,0.2,1.4,0.6
				c0.4,0.4,0.8,1.1,1.1,2.2l6.1-0.9c-0.3-1.3-0.8-2.5-1.5-3.4c-0.7-0.9-1.6-1.6-2.7-2c-1.1-0.4-2.5-0.6-4.3-0.6
				c-2,0-3.5,0.2-4.7,0.7c-1.2,0.5-2.1,1.2-2.8,2.3c-0.7,1-1.1,2.2-1.1,3.6c0,0.5,0,0.9,0.1,1.2c0.1,0.2,0.3,1,0.7,2.4H10V16h3.3
				c0,0.5,0,0.7,0,0.7C13.4,18.3,12.3,20,10,21.6"/>
			<path id="Fill-5" sketch:type="MSShapeGroup" class="st0" d="M23.9,26.4c-4.7-0.3-6.5-0.5-7.9-0.7c-1.2-0.1-3.5-0.4-3.5,2.1
				c0,2,1.7,2.4,2.5,2.6c0.7,0.2,6.7,1.6,6.7,1.6h-6.8c-1.2,0-2.1-0.2-3.5-1.6C9.9,28.9,5.9,25,5.9,25s-1.8-1.7-3.3-0.2
				c-1.5,1.5,0.3,3.3,0.3,3.3s4.8,5.3,5.5,6.1c2.8,3,5.1,3.9,7.3,3.9c1.4,0,15.6,0,16.9,0c4.3,0,4.4-0.1,4.4-2.5
				C37,28.8,31,24.3,23.9,26.4"/>
		</g>
	</g>
</g>
</svg>
