<?xml version="1.0" encoding="utf-8"?>
<!-- Generator: Adobe Illustrator 16.0.0, SVG Export Plug-In . SVG Version: 6.00 Build 0)  -->
<!DOCTYPE svg PUBLIC "-//W3C//DTD SVG 1.1//EN" "http://www.w3.org/Graphics/SVG/1.1/DTD/svg11.dtd">
<svg version="1.1" id="Layer_1" xmlns="http://www.w3.org/2000/svg" xmlns:xlink="http://www.w3.org/1999/xlink" x="0px" y="0px"
	 width="49.638px" height="43.401px" viewBox="0 0 49.638 43.401" enable-background="new 0 0 49.638 43.401" xml:space="preserve">
<g>
	<g>
		<path fill="#41A5F5" d="M11.21,35.321c0,1.149,0.001,3.772,0,4.885c0,2.876-0.938,3.183-4.543,3.183
			c-3.519,0-4.638-0.074-4.659-3.01C2,39.207,2.007,36.111,2.007,34.899c-0.147-0.007-1.992-0.356-1.996-0.927
			c-0.027-3.484,0.005-6.969,0.005-10.453c0-4.627,3.587-6.102,3.587-6.102s1.818-7.213,2.705-10.825
			c0.768-2.874,1.731-5.085,7.781-6.039c6.349-0.737,15.311-0.737,21.465-0.007c5.43,0.734,6.923,2.704,7.703,5.776
			c0.928,3.651,2.737,10.964,2.737,10.964s3.624,1.966,3.624,6.346c0.037,3.425,0.012,6.85,0.01,10.274
			c0,0.658-2.045,0.986-2.127,1.005c0,0.1,0,0.212,0,0.325c0,1.042,0.003,2.084,0,3.126c0,4.718-0.921,5.037-4.362,5.037
			c-4.058,0-4.848-0.319-4.848-5.026c0.01-1.018,0.001-1.621,0.001-2.64c0-0.13,0-0.259,0-0.414
			C30.121,36.275,19.61,36.275,11.21,35.321z M9.436,16.425c8.714-0.977,22.007-1.063,30.845,0
			c-0.016-0.079-0.941-5.62-2.334-10.286C37.36,3.608,12.727,3.327,11.75,6.23C10.307,10.522,9.436,16.425,9.436,16.425z
			 M45.923,26.295c0.004-2.361-1.934-4.275-4.298-4.288c-2.571-0.013-4.414,2.311-4.323,4.471c0.074,1.746,1.659,4.14,4.31,4.125
			C44.001,30.589,45.92,28.69,45.923,26.295z M11.822,26.282c0.008-2.336-1.918-4.243-4.272-4.275
			c-2.603-0.035-4.43,2.361-4.347,4.448c0.066,1.662,1.606,4.173,4.322,4.148C9.909,30.582,11.815,28.688,11.822,26.282z"/>
	</g>
</g>
</svg>
