<?xml version="1.0" encoding="UTF-8" standalone="no"?>
<svg width="58px" height="58px" viewBox="0 0 58 58" version="1.1" xmlns="http://www.w3.org/2000/svg" xmlns:xlink="http://www.w3.org/1999/xlink" xmlns:sketch="http://www.bohemiancoding.com/sketch/ns">
    <!-- Generator: Sketch 3.2.2 (9983) - http://www.bohemiancoding.com/sketch -->
    <title>icon-flexi-classicCar</title>
    <desc>Created with Sketch.</desc>
    <defs></defs>
    <g id="Page-1" stroke="none" stroke-width="1" fill="none" fill-rule="evenodd" sketch:type="MSPage">
        <g id="icon-classicCar" sketch:type="MSLayerGroup" transform="translate(11.000000, 12.000000)" fill="#41A5F6">
            <path d="M35.9632914,25.7815515 C35.9632914,26.281649 34.4209966,26.5314297 34.4209966,26.545902 L34.4209966,26.7930026 C34.4209966,27.5852256 34.3773719,28.3774486 34.3752438,29.1696716 C34.3752438,32.7566514 33.6314949,33 31.8136194,33 C29.6701543,33 29.1711296,32.7566514 29.1711296,29.1777117 C29.1764497,28.4037131 29.1541053,27.9448884 29.1541053,27.1708898 L29.1541053,26.8557158 C27.9836851,27.1130007 25.0501862,27.2780918 21.9953893,27.3531332 C20.3429686,28.4085372 18.6384111,28.7467596 18.0931016,28.7467596 C17.9659514,28.7451515 17.9345629,28.7467596 17.9068984,28.7467596 C17.3615889,28.7467596 15.6570314,28.4085372 14.0046107,27.3531332 C10.9498138,27.2780918 8.01631495,27.1130007 6.84589466,26.8557158 L6.84589466,27.1708898 C6.84589466,27.9448884 6.82355027,28.4037131 6.82887037,29.1777117 C6.82887037,32.7566514 6.32984572,33 4.18638056,33 C2.36903706,33 1.62475616,32.7566514 1.62475616,29.1696716 C1.62262813,28.3774486 1.57900337,27.5852256 1.57900337,26.7930026 L1.57900337,26.545902 C1.57900337,26.5314297 0.0367086363,26.281649 0.0367086363,25.7815515 C0.0356446178,23.1776143 0,19.7369652 0,17.133028 C0,10.7443232 4.66465685,11.9235455 5.94147899,12.7275607 C6.95868062,13.3680928 8.28231956,14.8180002 8.28231956,14.8180002 C8.28231956,14.8180002 8.01631495,12.4595556 5.83507714,10.9587272 C5.83507714,10.9587272 6.36549034,6.69476659 6.74640894,4.80693889 C7.2172371,2.47100672 8.11899273,0.973394406 11.3961695,0.414871845 C13.2486256,0.138290615 15.5229651,2.0771303e-16 17.8132648,2.0771303e-16 L17.9819117,2.0771303e-16 C17.9877638,2.0771303e-16 22.7056216,0.131322483 24.6038305,0.414871845 C27.8815393,0.973394406 28.7827629,2.47100672 29.2535911,4.80693889 C29.6345097,6.69476659 30.1649229,10.9587272 30.1649229,10.9587272 C27.9836851,12.4595556 27.7176804,14.8180002 27.7176804,14.8180002 C27.7176804,14.8180002 29.0413194,13.3680928 30.058521,12.7275607 C31.3353431,11.9235455 36,10.7443232 36,17.133028 C36,19.7369652 35.9648874,23.1776143 35.9632914,25.7815515 Z M30.7980138,19.9342169 C32.2397588,19.9256408 33.3984749,18.7705389 33.4006029,17.3136634 C33.402199,15.8766202 32.2328427,14.7129422 30.805994,14.7054381 C29.2535911,14.6973979 28.1416918,16.1108566 28.1964887,17.4251535 C28.2411775,18.4869896 29.1977301,19.9433291 30.7980138,19.9342169 L30.7980138,19.9342169 Z M12.0063841,20.1014521 C12.0063841,24.6328818 17.6605781,25.3162947 17.8122007,25.330767 C17.826033,25.329159 17.88615,25.3221908 17.9819117,25.3071825 L17.9819117,25.3012864 C17.9882958,25.3023584 17.9941479,25.3034305 18,25.3045025 C18.0058521,25.3034305 18.0117042,25.3023584 18.0180883,25.3012864 L18.0180883,25.3071825 C18.11385,25.3221908 18.173967,25.329159 18.1877993,25.330767 C18.3394219,25.3162947 23.9936159,24.6328818 23.9936159,20.1014521 L23.9936159,12.1063249 C23.9936159,12.005555 23.4115978,11.8361758 23.1205888,11.792223 C22.0512502,11.6298119 19.960454,11.4357762 18.1058698,11.4304161 L18.0180883,11.4314882 L17.9819117,11.4314882 L17.8941302,11.4304161 C16.039546,11.4357762 13.9487498,11.6298119 12.8794112,11.792223 C12.5884022,11.8361758 12.0063841,12.005555 12.0063841,12.1063249 L12.0063841,20.1014521 L12.0063841,20.1014521 Z M26.887214,10.4430855 C26.8771059,10.3846357 26.8691257,7.34701873 26.0306792,3.8784085 C25.8503281,2.91900567 21.9028196,2.39590972 18,2.40004254 C14.0971804,2.39590972 10.1496719,2.91900567 9.9693208,3.8784085 C9.13087427,7.34701873 9.12289413,10.3846357 9.11278595,10.4430855 C10.7769108,9.77179869 14.4025536,9.44176411 18,9.45357215 C21.5974464,9.44176411 25.2230892,9.77179869 26.887214,10.4430855 L26.887214,10.4430855 Z M2.59992907,17.3136634 C2.60152509,18.7705389 3.76024118,19.9256408 5.20251818,19.9342169 C6.80226991,19.9433291 7.75882249,18.4869896 7.80351126,17.4251535 C7.85830821,16.1108566 6.74640894,14.6973979 5.19400603,14.7054381 C3.7671573,14.7129422 2.59780103,15.8766202 2.59992907,17.3136634 L2.59992907,17.3136634 Z" id="Imported-Layers-9" sketch:type="MSShapeGroup"></path>
        </g>
    </g>
</svg>