<?xml version="1.0" encoding="UTF-8" standalone="no"?>
<svg width="30px" height="30px" viewBox="0 0 30 30" version="1.1" xmlns="http://www.w3.org/2000/svg" xmlns:xlink="http://www.w3.org/1999/xlink">
    <!-- Generator: Sketch 3.8.3 (29802) - http://www.bohemiancoding.com/sketch -->
    <title>icon-calculator-plus</title>
    <desc>Created with Sketch.</desc>
    <defs></defs>
    <g id="Page-1" stroke="none" stroke-width="1" fill="none" fill-rule="evenodd">
        <g id="icon-calculator-plus">
            <path d="M14.9109,2.35922393e-15 L2.9999,2.35922393e-15 C1.3429,2.35922393e-15 -0.0001,1.343 -0.0001,3 L-0.0001,26.898 C-0.0001,28.555 1.3429,30 2.9999,30 C2.9999,30 14.2169,30.025 14.9829,30.025 C18.8239,30.025 22.6669,28.55 25.5979,25.624 C31.4599,19.771 31.4749,10.255 25.5979,4.418 C22.6349,1.476 18.7619,2.35922393e-15 14.9109,2.35922393e-15 Z" id="Fill-1" fill="#4F4F4F"></path>
            <polygon id="Fill-4" fill="#FFFFFF" points="13 25.0005 15 25.0005 15 5.0005 13 5.0005"></polygon>
            <polygon id="Fill-6" fill="#FFFFFF" points="4 16.0005 24 16.0005 24 14.0005 4 14.0005"></polygon>
        </g>
    </g>
</svg>