<?xml version="1.0" encoding="UTF-8" standalone="no"?>
<svg width="58px" height="58px" viewBox="0 0 58 58" version="1.1" xmlns="http://www.w3.org/2000/svg" xmlns:xlink="http://www.w3.org/1999/xlink" xmlns:sketch="http://www.bohemiancoding.com/sketch/ns">
    <!-- Generator: Sketch 3.2.2 (9983) - http://www.bohemiancoding.com/sketch -->
    <title>Icon-Useful-Info</title>
    <desc>Created with Sketch.</desc>
    <defs></defs>
    <g id="Page-1" stroke="none" stroke-width="1" fill="none" fill-rule="evenodd" sketch:type="MSPage">
        <g id="Icon-Useful-Info" sketch:type="MSArtboardGroup" fill="#0078FF">
            <path d="M39.016514,15.7101294 C39.016514,10.347415 34.5318272,6 28.9997825,6 C23.4677378,6 18.982386,10.347415 18.982386,15.7101294 C18.982386,19.2382139 20.9294742,22.3169883 23.8321519,24.0175341 C12.1004134,27.1878465 12,41.0094546 12,41.0094546 C12,44.5091753 12.5419662,46.2264816 16.6243345,47.0290515 C17.082512,47.6936697 17.6577277,48.0153423 18.0793308,48.1765009 C19.229762,48.615497 21.554564,48.6709356 22.6650959,47.2198633 C22.6650959,47.2198633 26.595514,49.4458767 28.560723,50.5588834 C28.820346,50.7059223 30.0822134,50.5725083 30.4535241,50.3587624 C32.2804458,49.3070908 35.9342893,47.2037475 35.9342893,47.2037475 C36.0021182,47.2914178 36.0726071,47.3758649 36.1477508,47.4525764 C37.4212051,48.6593322 39.4866613,48.5787528 40.5134046,48.1765009 C40.976237,47.994714 41.6279264,47.6253384 42.1033936,46.8150329 C45.5221028,45.9215695 45.999565,44.1926598 45.999565,41.0094546 C45.999565,41.0094546 46.2575808,27.1220938 34.2053176,23.9949719 C37.0867155,22.289269 39.016514,19.2220981 39.016514,15.7101294 Z M39.0477869,30.7913401 L38.8545574,32.8364807 L29.7817434,37.0393908 L39.0477869,30.7913401 L39.0477869,30.7913401 Z M27.9266203,36.8362312 L19.326411,32.8364807 L19.1200204,30.7913401 L27.9266203,36.8362312 L27.9266203,36.8362312 Z M35.3085345,44.7356878 C35.3085345,45.2450885 35.4076179,45.6714284 35.5751952,46.0309712 L29.339592,48.6825268 L22.9729859,46.1384275 C23.1684927,45.7562318 23.2855308,45.2962028 23.2835358,44.7356878 C23.272231,41.5782166 20.1374722,40.4118807 18.614647,40.171411 L17.1776055,34.2369219 L29.0589666,37.7603251 L41.284792,34.2369219 L39.7280524,40.2184594 C38.1360684,40.5385048 35.3085345,41.7391106 35.3085345,44.7356878 Z" id="Fill-1" sketch:type="MSShapeGroup"></path>
        </g>
    </g>
</svg>