<?xml version="1.0" encoding="UTF-8" standalone="no"?>
<svg width="42px" height="46px" viewBox="0 0 42 46" version="1.1" xmlns="http://www.w3.org/2000/svg" xmlns:xlink="http://www.w3.org/1999/xlink" xmlns:sketch="http://www.bohemiancoding.com/sketch/ns">
    <!-- Generator: Sketch 3.2.2 (9983) - http://www.bohemiancoding.com/sketch -->
    <title>24Hr</title>
    <desc>Created with Sketch.</desc>
    <defs></defs>
    <g id="Page-1" stroke="none" stroke-width="1" fill="none" fill-rule="evenodd" sketch:type="MSPage">
        <g id="24Hr" sketch:type="MSLayerGroup" transform="translate(-8.000000, -5.000000)">
            <rect id="Rectangle-28" fill-opacity="0" fill="#FFFFFF" sketch:type="MSShapeGroup" x="0.5" y="0" width="58" height="58"></rect>
            <g id="Oval-1-+-Path" transform="translate(8.000000, 5.000000)" fill="#40A4F4" sketch:type="MSShapeGroup">
                <path d="M11.393218,43.7252138 C21.6458043,49.0514353 34.2572596,44.7645696 39.5616918,34.1502312 C40.0328177,33.2074931 40.4304565,32.2465479 40.756762,31.274335 L38.0353355,31.274335 L37.3875886,34.7979599 L33.9904487,34.7763536 L31.7842958,34.7544881 C27.2973421,39.8146354 20.0809296,41.4039429 14.1047641,38.2993233 C12.3788515,37.4027112 10.9027831,36.1906573 9.70925559,34.7601485 L2.51281983,34.7812737 C4.43488536,38.5096801 7.45317997,41.6783629 11.393218,43.7252138 Z M0.277529532,27.6086744 C0.0978288937,26.2321527 0.047281236,24.8315969 0.132042685,23.4268391 L6.25092424,23.5035038 C6.24289553,23.5952346 6.23567055,23.6869413 6.22924576,23.7786136 C3.97269459,24.5955598 1.92550742,25.7786116 0.277529532,27.6086744 L0.277529532,27.6086744 L0.277529532,27.6086744 Z M0.617609613,19.9703824 C1.00327458,18.2365098 1.60475645,16.5212042 2.43379236,14.8622768 C6.99560868,5.73393645 16.9617103,1.28540444 26.1840298,3.60652206 L27.9042809,0.164244638 L37.2678232,13.2644228 L21.3692999,13.2409506 L23.3579474,9.26160339 C18.7261877,8.61127807 13.952022,10.3013677 10.5896963,13.8464524 C6.03302666,14.2249253 2.58009682,16.3436916 0.617609613,19.9703824 L0.617609613,19.9703824 L0.617609613,19.9703824 Z M6.83814931,29.3701475 C7.04787719,30.0777346 7.30716012,30.7679489 7.61399183,31.4348395 C6.58039204,31.2930855 5.95781596,30.9471561 6.09556378,30.2851548 C6.16944453,29.9300917 6.43224439,29.633404 6.83814931,29.3701475 L6.83814931,29.3701475 L6.83814931,29.3701475 Z M41.8923373,24.9581158 C41.979769,22.2062453 41.5502213,19.4819058 40.6501413,16.9347272 L39.1212232,24.9581158 L41.8923373,24.9581158 L41.8923373,24.9581158 L41.8923373,24.9581158 Z M30.1221586,32.483618 L34.3766711,32.483618 L34.8859026,29.7186216 L37.5294832,29.7186216 L38.1791924,26.1908676 L35.5356118,26.1908676 L37.4145004,15.9889843 L31.4664441,15.9889843 L21.5267093,26.0001782 L20.8418807,29.7186216 L30.6313901,29.7186216 L30.1221586,32.483618 L30.1221586,32.483618 Z M31.2810992,26.1908676 L25.993938,26.1908676 L32.4839392,19.6597554 L31.2810992,26.1908676 L31.2810992,26.1908676 Z" id="Oval-1"></path>
                <path d="M18.9434036,28.8128469 L7.72883899,28.8128469 C10.3103511,25.7856526 19.388286,27.4065125 20.5384468,21.1614345 C21.2232754,17.442991 18.5253127,15.6076055 13.7544758,15.6076055 C9.12820976,15.6076055 5.42325079,17.1092846 4.23856409,21.9718644 L9.31919555,21.9718644 C9.81496051,20.0649704 11.3022714,19.2783766 13.0577741,19.2783766 C14.9121518,19.3022128 15.6641419,20.0411342 15.4709851,21.0899259 C15.3217276,21.9003559 14.5510843,22.4962603 13.6766762,22.7584582 L10.0213031,23.8787585 C6.17127332,25.0467311 3.00249494,27.0012975 1.80693501,32.483618 L18.2673548,32.483618" id="Path"></path>
            </g>
        </g>
    </g>
</svg>