<?xml version="1.0" encoding="UTF-8" standalone="no"?>
<svg width="69px" height="69px" viewBox="0 0 69 69" version="1.1" xmlns="http://www.w3.org/2000/svg" xmlns:xlink="http://www.w3.org/1999/xlink" xmlns:sketch="http://www.bohemiancoding.com/sketch/ns">
    <!-- Generator: Sketch 3.2.2 (9983) - http://www.bohemiancoding.com/sketch -->
    <title>icon-motorBooks</title>
    <desc>Created with Sketch.</desc>
    <defs></defs>
    <g id="Page-1" stroke="none" stroke-width="1" fill="none" fill-rule="evenodd" sketch:type="MSPage">
        <g id="icon-motorBooks-2" sketch:type="MSLayerGroup" fill="#0078FF">
            <path d="M17.8462579,50.6323792 C17.8462579,52.0523792 17.8472579,55.2923792 17.8452579,56.6673792 C17.8452579,60.2193792 16.6882579,60.5973792 12.2352579,60.5973792 C7.88925785,60.5973792 6.50725785,60.5073792 6.48125785,56.8813792 C6.47025785,55.4333792 6.47925785,51.6093792 6.47925785,50.1113792 C6.29625785,50.1023792 4.01925785,49.6723792 4.01325785,48.9673792 C3.98025785,44.6623792 4.01925785,40.3573792 4.01925785,36.0533792 C4.01925785,30.3373792 8.45025785,28.5163792 8.45025785,28.5163792 C8.45025785,28.5163792 10.6962579,19.6063792 11.7912579,15.1443792 C12.7392579,11.5933792 13.9292579,8.86237919 21.4012579,7.68437919 C29.2432579,6.77337919 40.3102579,6.77337919 47.9132579,7.67537919 C54.6182579,8.58237919 56.4622579,11.0153792 57.4262579,14.8103792 C58.5722579,19.3213792 60.8072579,28.3553792 60.8072579,28.3553792 C60.8072579,28.3553792 65.2842579,30.7833792 65.2842579,36.1953792 C65.3302579,40.4253792 65.2972579,44.6563792 65.2952579,48.8873792 C65.2952579,49.6993792 62.7692579,50.1053792 62.6692579,50.1283792 L62.6692579,50.5303792 C62.6692579,51.8173792 62.6722579,53.1043792 62.6682579,54.3913792 C62.6682579,60.2193792 61.5312579,60.6143792 57.2802579,60.6143792 C52.2682579,60.6143792 51.2932579,60.2193792 51.2932579,54.4043792 C51.3052579,53.1473792 51.2942579,52.4013792 51.2942579,51.1443792 L51.2942579,50.6323792 C41.2032579,51.8113792 28.2212579,51.8113792 17.8462579,50.6323792 L17.8462579,50.6323792 Z M15.6542579,27.2903792 C26.4162579,26.0833792 42.8342579,25.9773792 53.7512579,27.2903792 C53.7302579,27.1933792 52.5872579,20.3473792 50.8672579,14.5843792 C50.1442579,11.4573792 19.7192579,11.1103792 18.5132579,14.6963792 C16.7302579,19.9973792 15.6542579,27.2903792 15.6542579,27.2903792 L15.6542579,27.2903792 Z M60.7192579,39.4823792 C60.7232579,36.5643792 58.3312579,34.2013792 55.4112579,34.1863792 C52.2352579,34.1693792 49.9592579,37.0403792 50.0722579,39.7093792 C50.1632579,41.8653792 52.1202579,44.8233792 55.3942579,44.8043792 C58.3452579,44.7873792 60.7152579,42.4413792 60.7192579,39.4823792 L60.7192579,39.4823792 Z M18.6022579,39.4663792 C18.6112579,36.5813792 16.2332579,34.2253792 13.3252579,34.1863792 C10.1112579,34.1423792 7.85425785,37.1023792 7.95625785,39.6803792 C8.03825785,41.7323792 9.94025785,44.8353792 13.2952579,44.8043792 C16.2382579,44.7783792 18.5932579,42.4383792 18.6022579,39.4663792 L18.6022579,39.4663792 Z" id="Imported-Layers" sketch:type="MSShapeGroup"></path>
        </g>
    </g>
</svg>