<?xml version="1.0" encoding="UTF-8" standalone="no"?>
<svg width="58px" height="58px" viewBox="0 0 58 58" version="1.1" xmlns="http://www.w3.org/2000/svg" xmlns:xlink="http://www.w3.org/1999/xlink" xmlns:sketch="http://www.bohemiancoding.com/sketch/ns">
    <!-- Generator: Sketch 3.2.2 (9983) - http://www.bohemiancoding.com/sketch -->
    <title>icon-classicCar</title>
    <desc>Created with Sketch.</desc>
    <defs></defs>
    <g id="Page-1" stroke="none" stroke-width="1" fill="none" fill-rule="evenodd" sketch:type="MSPage">
        <g id="icon-classicCar" sketch:type="MSLayerGroup">
            <path d="M0,0 L58,0 L58,58 L0,58 L0,0 Z" id="Path-2" fill-opacity="0.01" fill="#FFFFFF" sketch:type="MSShapeGroup"></path>
            <path d="M46.9632914,37.7815515 C46.9632914,38.281649 45.4209966,38.5314297 45.4209966,38.545902 L45.4209966,38.7930026 C45.4209966,39.5852256 45.3773719,40.3774486 45.3752438,41.1696716 C45.3752438,44.7566514 44.6314949,45 42.8136194,45 C40.6701543,45 40.1711296,44.7566514 40.1711296,41.1777117 C40.1764497,40.4037131 40.1541053,39.9448884 40.1541053,39.1708898 L40.1541053,38.8557158 C38.9836851,39.1130007 36.0501862,39.2780918 32.9953893,39.3531332 C31.3429686,40.4085372 29.6384111,40.7467596 29.0931016,40.7467596 C28.9659514,40.7451515 28.9345629,40.7467596 28.9068984,40.7467596 C28.3615889,40.7467596 26.6570314,40.4085372 25.0046107,39.3531332 C21.9498138,39.2780918 19.0163149,39.1130007 17.8458947,38.8557158 L17.8458947,39.1708898 C17.8458947,39.9448884 17.8235503,40.4037131 17.8288704,41.1777117 C17.8288704,44.7566514 17.3298457,45 15.1863806,45 C13.3690371,45 12.6247562,44.7566514 12.6247562,41.1696716 C12.6226281,40.3774486 12.5790034,39.5852256 12.5790034,38.7930026 L12.5790034,38.545902 C12.5790034,38.5314297 11.0367086,38.281649 11.0367086,37.7815515 C11.0356446,35.1776143 11,31.7369652 11,29.133028 C11,22.7443232 15.6646569,23.9235455 16.941479,24.7275607 C17.9586806,25.3680928 19.2823196,26.8180002 19.2823196,26.8180002 C19.2823196,26.8180002 19.0163149,24.4595556 16.8350771,22.9587272 C16.8350771,22.9587272 17.3654903,18.6947666 17.7464089,16.8069389 C18.2172371,14.4710067 19.1189927,12.9733944 22.3961695,12.4148718 C24.2486256,12.1382906 26.5229651,12 28.8132648,12 L28.9819117,12 C28.9877638,12 33.7056216,12.1313225 35.6038305,12.4148718 C38.8815393,12.9733944 39.7827629,14.4710067 40.2535911,16.8069389 C40.6345097,18.6947666 41.1649229,22.9587272 41.1649229,22.9587272 C38.9836851,24.4595556 38.7176804,26.8180002 38.7176804,26.8180002 C38.7176804,26.8180002 40.0413194,25.3680928 41.058521,24.7275607 C42.3353431,23.9235455 47,22.7443232 47,29.133028 C47,31.7369652 46.9648874,35.1776143 46.9632914,37.7815515 Z M41.7980138,31.9342169 C43.2397588,31.9256408 44.3984749,30.7705389 44.4006029,29.3136634 C44.402199,27.8766202 43.2328427,26.7129422 41.805994,26.7054381 C40.2535911,26.6973979 39.1416918,28.1108566 39.1964887,29.4251535 C39.2411775,30.4869896 40.1977301,31.9433291 41.7980138,31.9342169 L41.7980138,31.9342169 Z M23.0063841,32.1014521 C23.0063841,36.6328818 28.6605781,37.3162947 28.8122007,37.330767 C28.826033,37.329159 28.88615,37.3221908 28.9819117,37.3071825 L28.9819117,37.3012864 C28.9882958,37.3023584 28.9941479,37.3034305 29,37.3045025 C29.0058521,37.3034305 29.0117042,37.3023584 29.0180883,37.3012864 L29.0180883,37.3071825 C29.11385,37.3221908 29.173967,37.329159 29.1877993,37.330767 C29.3394219,37.3162947 34.9936159,36.6328818 34.9936159,32.1014521 L34.9936159,24.1063249 C34.9936159,24.005555 34.4115978,23.8361758 34.1205888,23.792223 C33.0512502,23.6298119 30.960454,23.4357762 29.1058698,23.4304161 L29.0180883,23.4314882 L28.9819117,23.4314882 L28.8941302,23.4304161 C27.039546,23.4357762 24.9487498,23.6298119 23.8794112,23.792223 C23.5884022,23.8361758 23.0063841,24.005555 23.0063841,24.1063249 L23.0063841,32.1014521 L23.0063841,32.1014521 Z M37.887214,22.4430855 C37.8771059,22.3846357 37.8691257,19.3470187 37.0306792,15.8784085 C36.8503281,14.9190057 32.9028196,14.3959097 29,14.4000425 C25.0971804,14.3959097 21.1496719,14.9190057 20.9693208,15.8784085 C20.1308743,19.3470187 20.1228941,22.3846357 20.112786,22.4430855 C21.7769108,21.7717987 25.4025536,21.4417641 29,21.4535721 C32.5974464,21.4417641 36.2230892,21.7717987 37.887214,22.4430855 L37.887214,22.4430855 Z M13.5999291,29.3136634 C13.6015251,30.7705389 14.7602412,31.9256408 16.2025182,31.9342169 C17.8022699,31.9433291 18.7588225,30.4869896 18.8035113,29.4251535 C18.8583082,28.1108566 17.7464089,26.6973979 16.194006,26.7054381 C14.7671573,26.7129422 13.597801,27.8766202 13.5999291,29.3136634 L13.5999291,29.3136634 Z" id="Imported-Layers-9" fill="#40A4F4" sketch:type="MSShapeGroup"></path>
        </g>
    </g>
</svg>