<?xml version="1.0" encoding="utf-8"?>
<!-- Generator: Adobe Illustrator 16.0.0, SVG Export Plug-In . SVG Version: 6.00 Build 0)  -->
<!DOCTYPE svg PUBLIC "-//W3C//DTD SVG 1.1//EN" "http://www.w3.org/Graphics/SVG/1.1/DTD/svg11.dtd">
<svg version="1.1" id="Layer_1" xmlns:sketch="http://www.bohemiancoding.com/sketch/ns"
	 xmlns="http://www.w3.org/2000/svg" xmlns:xlink="http://www.w3.org/1999/xlink" x="0px" y="0px" width="105px" height="95px"
	 viewBox="-23.5 -19.5 105 95" enable-background="new -23.5 -19.5 105 95" xml:space="preserve">
<title>Icon-Make-A-Claim-On</title>
<desc>Created with Sketch.</desc>
<g id="Page-1" sketch:type="MSPage">
	<g id="Icon-Make-A-Claim-On" sketch:type="MSArtboardGroup">
		<path id="Path" sketch:type="MSShapeGroup" fill="#FFFFFF" d="M80.05,58.874L38.272-14.06c-4.121-7.172-14.424-7.294-18.545-0.124
			L-22.05,58.938c-4.12,7.168,1.03,16.563,9.272,16.563h83.555C79.02,75.5,84.171,66.047,80.05,58.874z M32.496,59.8
			c-1.069,0.651-2.34,0.988-3.599,0.964c-1.626-0.029-3.065-0.566-4.287-1.606c-1.16-0.986-1.818-2.305-1.959-3.926
			c-0.137-1.59,0.674-3.94,1.826-5.066c1.222-1.193,2.734-1.799,4.491-1.799c1.746,0,3.259,0.601,4.5,1.777
			c1.333,1.262,2.009,3.103,1.895,4.912C35.23,57.126,34.264,58.728,32.496,59.8z M35.145,19.975L33.771,34.67
			c-0.198,2.344-0.688,4.03-1.504,5.186c-0.674,0.952-1.839,1.479-3.057,1.553c-1.93,0.117-3.422-0.669-4.171-2.183
			c-0.528-1.067-0.885-2.571-1.096-4.603l-1.028-14.342c-0.195-2.857-0.292-4.851-0.292-6.096c0-2.021,0.608-3.652,1.809-4.85
			c1.227-1.225,2.839-1.845,4.792-1.845c3.071,0,4.45,1.405,5.068,2.584c0.729,1.399,1.084,3.279,1.084,5.752
			C35.377,17.178,35.299,18.572,35.145,19.975z"/>
	</g>
</g>
</svg>
