<?xml version="1.0" encoding="utf-8"?>
<!-- Generator: Adobe Illustrator 16.0.0, SVG Export Plug-In . SVG Version: 6.00 Build 0)  -->
<!DOCTYPE svg PUBLIC "-//W3C//DTD SVG 1.0//EN" "http://www.w3.org/TR/2001/REC-SVG-20010904/DTD/svg10.dtd">
<svg version="1.0" id="Layer_1" xmlns="http://www.w3.org/2000/svg" xmlns:xlink="http://www.w3.org/1999/xlink" x="0px" y="0px"
	 width="58px" height="58px" viewBox="0 0 58 58" enable-background="new 0 0 58 58" xml:space="preserve">
<g>
	<g>
		<g>
			<g>
				<g>
					<path fill="#3FA7F3" d="M20.448,46.922c0,0.723,0.001,2.37,0,3.07c0,1.807-0.589,2-2.854,2c-2.211,0-2.914-0.047-2.928-1.892
						c-0.006-0.736-0.001-2.683-0.001-3.444c-0.093-0.004-1.252-0.224-1.255-0.582c-0.017-2.19,0.004-4.381,0.004-6.57
						c0-2.908,2.254-3.835,2.254-3.835s1.143-4.533,1.699-6.803c0.482-1.807,1.089-3.196,4.891-3.795
						c3.989-0.464,9.62-0.464,13.488-0.004c3.411,0.461,4.35,1.699,4.84,3.63c0.583,2.294,1.72,6.892,1.72,6.892
						s2.278,1.234,2.278,3.988c0.023,2.152,0.007,4.305,0.006,6.457c0,0.414-1.285,0.62-1.337,0.632c0,0.063,0,0.134,0,0.204
						c0,0.655,0.002,1.311,0,1.965c0,2.965-0.578,3.166-2.741,3.166c-2.55,0-3.046-0.201-3.046-3.159
						c0.006-0.64,0.001-1.019,0-1.659c0-0.081,0-0.162,0-0.26C32.332,47.521,25.728,47.521,20.448,46.922z M19.333,35.045
						c5.476-0.613,13.829-0.668,19.383,0c-0.011-0.049-0.592-3.531-1.467-6.464c-0.368-1.591-15.848-1.767-16.461,0.058
						C19.881,31.335,19.333,35.045,19.333,35.045z M42.262,41.248c0.002-1.484-1.216-2.687-2.701-2.694
						c-1.616-0.009-2.773,1.452-2.716,2.811c0.046,1.097,1.042,2.602,2.707,2.592C41.054,43.947,42.26,42.754,42.262,41.248z
						 M20.833,41.24c0.005-1.468-1.205-2.666-2.685-2.687c-1.636-0.022-2.784,1.483-2.731,2.796
						c0.041,1.044,1.009,2.622,2.716,2.607C19.631,43.943,20.828,42.752,20.833,41.24z"/>
				</g>
			</g>
		</g>
	</g>
	<g>
		<defs>
			<polygon id="SVGID_1_" points="29.173,27.729 7.205,6 50.795,6 			"/>
		</defs>
		<clipPath id="SVGID_2_">
			<use xlink:href="#SVGID_1_"  overflow="visible"/>
		</clipPath>
		<g clip-path="url(#SVGID_2_)">
			<path fill="#41A5F5" d="M28.935,37.854c-5.698,0-10.333-4.635-10.333-10.333s4.635-10.333,10.333-10.333
				c5.697,0,10.332,4.635,10.332,10.333S34.632,37.854,28.935,37.854z M28.935,19.619c-4.357,0-7.902,3.545-7.902,7.902
				s3.545,7.903,7.902,7.903c4.356,0,7.902-3.546,7.902-7.903S33.291,19.619,28.935,19.619z"/>
		</g>
		<g clip-path="url(#SVGID_2_)">
			<path fill="#41A5F5" d="M28.935,42.683c-8.36,0-15.162-6.802-15.162-15.162c0-8.36,6.802-15.162,15.162-15.162
				s15.161,6.801,15.161,15.162C44.096,35.881,37.295,42.683,28.935,42.683z M28.935,14.79c-7.021,0-12.732,5.711-12.732,12.731
				c0,7.021,5.711,12.731,12.732,12.731c7.021,0,12.731-5.71,12.731-12.731C41.666,20.5,35.955,14.79,28.935,14.79z"/>
		</g>
		<g clip-path="url(#SVGID_2_)">
			<path fill="#41A5F5" d="M28.935,47.428c-10.978,0-19.907-8.93-19.907-19.907c0-10.977,8.93-19.907,19.907-19.907
				c10.977,0,19.906,8.93,19.906,19.907C48.841,38.498,39.911,47.428,28.935,47.428z M28.935,10.044
				c-9.638,0-17.477,7.839-17.477,17.477s7.839,17.477,17.477,17.477c9.637,0,17.477-7.84,17.477-17.477
				S38.571,10.044,28.935,10.044z"/>
		</g>
	</g>
</g>
</svg>
