<?xml version="1.0" encoding="UTF-8" standalone="no"?>
<svg width="75px" height="73px" viewBox="0 0 75 73" version="1.1" xmlns="http://www.w3.org/2000/svg" xmlns:xlink="http://www.w3.org/1999/xlink">
    <!-- Generator: Sketch 41.1 (35376) - http://www.bohemiancoding.com/sketch -->
    <title>icon-details</title>
    <desc>Created with Sketch.</desc>
    <defs>
        <polygon id="path-1" points="75 -0.00012260765 75 73.1386 0 73.1386 0 -0.00012260765 75 -0.00012260765"></polygon>
    </defs>
    <g id="Page-1" stroke="none" stroke-width="1" fill="none" fill-rule="evenodd">
        <g id="icon-details">
            <g id="Page-1">
                <mask id="mask-2" fill="white">
                    <use xlink:href="#path-1"></use>
                </mask>
                <g id="Clip-2"></g>
                <path d="M19.5171,56.7996 C17.9551,55.2026 18.9451,52.5496 18.9451,52.5496 L23.0701,39.2916 C23.0701,39.2916 23.7731,37.4836 25.4351,35.7856 C26.1991,35.0056 39.2711,21.6526 47.6351,13.1096 L46.7241,7.0776 C46.3311,4.6496 46.0331,4.3656 43.5611,4.7096 L2.4741,11.1566 C-0.0549,11.6296 -0.2299,11.8836 0.1561,14.3846 L8.6541,70.6286 C9.0801,73.1276 9.3171,73.3746 11.8151,72.9976 L52.9081,66.5496 C55.4091,66.1136 55.4571,64.8616 55.2251,63.3226 L51.4071,38.0646 C45.4121,44.1866 40.0401,49.6736 39.5361,50.1896 C37.5671,52.1986 36.1341,52.6636 36.1341,52.6636 L23.4691,57.3426 C23.4691,57.3426 20.9441,58.2576 19.5171,56.7996 L19.5171,56.7996 Z M24.6031,41.5946 C24.7761,41.9496 25.0041,42.3296 25.3331,42.6116 C25.7951,43.0086 26.3781,43.0816 26.7531,43.1406 C26.8021,44.5756 26.9831,46.1426 28.3601,47.5486 C29.7361,48.9516 31.2621,49.1756 32.6751,49.2436 C32.6001,49.8956 33.1511,50.8616 33.9491,51.2226 C31.7931,51.9466 24.4241,54.5376 23.7401,54.7076 C23.0931,54.8666 22.2411,55.0176 21.6291,54.6126 C21.5971,54.5806 21.5671,54.5496 21.5361,54.5176 C21.1321,53.9336 21.2671,53.0806 21.3901,52.4436 C21.5121,51.8156 21.6701,51.1806 21.9061,50.6316 C22.6301,48.1996 23.9801,43.7766 24.6031,41.5946 L24.6031,41.5946 Z M28.3481,36.3696 C27.8601,36.8686 27.7601,36.9976 27.3401,37.4266 C26.2521,38.5386 26.1431,40.5046 27.4051,40.8036 C27.9511,40.9336 28.4821,40.7426 29.0521,40.3976 C28.8461,41.2546 28.7381,42.1176 28.8661,43.0016 C28.9911,43.8656 29.2851,44.7966 30.0741,45.6176 C30.8571,46.4316 31.7881,46.7486 32.6361,46.8806 C33.4981,47.0136 34.3801,46.9436 35.1721,46.7036 C34.8471,47.3096 34.6331,47.7696 34.7461,48.3036 C34.8861,48.9546 35.4931,49.1796 36.0211,49.1726 C36.5001,49.1656 37.3401,48.9356 38.0221,48.2406 C38.5421,47.7076 38.5261,47.7526 39.0071,47.2596 C46.1591,39.9556 53.4451,32.5126 60.5151,25.2916 C57.5881,21.5276 53.5501,17.3716 49.8541,14.4036 L28.3481,36.3696 Z M57.7291,5.3546 C57.3831,5.7096 57.0751,6.0236 56.7611,6.3446 C56.4621,6.6496 56.0171,6.9926 55.7911,7.3346 C55.6931,7.4836 55.6601,7.7666 55.6041,7.9586 C55.5481,8.1606 55.5031,8.3926 55.3931,8.5826 C55.2051,8.9036 54.7791,9.2636 54.4361,9.6116 C54.1871,9.8686 53.8151,10.3096 53.5471,10.4386 C53.2951,10.5626 52.8141,10.4466 52.6191,10.5756 C52.2871,10.7946 52.0211,11.1856 51.7411,11.4696 C51.4501,11.7686 51.1671,12.0576 50.8661,12.3656 C54.9151,15.5106 59.4171,20.1466 62.5201,24.2706 C62.8161,23.9676 63.0921,23.6856 63.3841,23.3886 C63.6311,23.1366 64.0941,22.7796 64.2601,22.4946 C64.3221,22.3876 64.3071,22.1196 64.3131,21.9516 C64.3211,21.7676 64.3201,21.5826 64.3931,21.4096 C64.5071,21.1436 64.9791,20.7306 65.2561,20.4466 C65.4811,20.2166 65.8461,19.7556 66.1581,19.5796 C66.3281,19.4836 66.5651,19.4806 66.7701,19.4436 C66.9521,19.4106 67.2491,19.3926 67.3921,19.2946 C67.5721,19.1726 67.7251,18.9546 67.8841,18.7936 C68.4051,18.2606 68.8461,17.8106 69.3851,17.2596 C66.7301,13.0786 61.8271,8.0616 57.7291,5.3546 L57.7291,5.3546 Z M60.2831,4.5636 C60.9191,3.9146 61.5811,3.2386 62.2351,2.5706 C62.9121,1.8786 63.5401,1.1216 64.1861,0.5776 C64.7391,0.1106 65.5881,-0.0874 66.1771,0.0356 C66.9351,0.1926 67.8211,0.7586 68.5801,1.2966 C69.4131,1.8846 70.1521,2.5706 70.9831,3.3436 C72.3931,4.6546 73.6461,6.2626 74.3951,7.6416 C74.8151,8.4156 75.1021,9.0886 74.9661,9.8516 C74.8831,10.3086 74.7051,10.7756 74.3691,11.1676 C73.2621,12.4466 71.6901,13.7886 70.5441,15.0726 C68.0011,11.4146 63.8671,7.1916 60.2831,4.5636 L60.2831,4.5636 Z" id="Fill-1" fill="#5CA3EE" mask="url(#mask-2)"></path>
            </g>
        </g>
    </g>
</svg>