<?xml version="1.0" encoding="UTF-8" standalone="no"?>
<svg width="114px" height="80px" viewBox="0 0 114 80" version="1.1" xmlns="http://www.w3.org/2000/svg" xmlns:xlink="http://www.w3.org/1999/xlink" xmlns:sketch="http://www.bohemiancoding.com/sketch/ns">
    <!-- Generator: Sketch 3.2.2 (9983) - http://www.bohemiancoding.com/sketch -->
    <title>icon-multicar</title>
    <desc>Created with Sketch.</desc>
    <defs></defs>
    <g id="Page-1" stroke="none" stroke-width="1" fill="none" fill-rule="evenodd" sketch:type="MSPage">
        <g id="icon-multicar" sketch:type="MSLayerGroup" transform="translate(-1.000000, 0.000000)" fill="#40A4F4">
            <path d="M15.77,40.039 L15.817,38.436 C15.817,33.079 18.595,29.688 21.045,27.967 C21.602,25.749 22.664,21.567 23.516,18.136 C19.135,18.254 14.943,18.513 11.426,18.908 C11.426,18.908 12.392,12.381 13.988,7.636 C14.656,5.648 25.352,5.012 33.555,5.479 C34.721,5.124 36.02,4.822 37.503,4.588 C40.303,4.262 43.519,4.054 46.843,3.941 C45.583,2.682 43.622,1.801 40.304,1.352 C33.5,0.545 23.593,0.545 16.574,1.361 C9.887,2.415 8.821,4.86 7.973,8.038 C6.992,12.031 4.982,20.006 4.982,20.006 C4.982,20.006 1.017,21.636 1.017,26.752 C1.017,30.606 0.982,34.458 1.012,38.311 C1.016,38.942 3.055,39.328 3.218,39.335 C3.218,40.676 3.21,44.099 3.22,45.395 C3.244,48.64 4.393,48.721 8.282,48.721 C12.268,48.721 13.216,48.382 13.216,45.202 L13.216,39.802 C16.216,39.892 14.939,39.964 15.77,40.039 M9.319,34.584 C6.317,34.611 4.614,31.835 4.541,29.998 C4.449,27.69 6.469,25.041 9.346,25.08 C11.949,25.115 14.077,27.225 14.069,29.807 C14.062,32.467 11.953,34.561 9.319,34.584" id="Fill-1" sketch:type="MSShapeGroup"></path>
            <path d="M37.532,54.224 L37.566,49.692 C37.566,43.749 40.686,40.035 43.376,38.204 C43.927,36.014 44.964,31.908 45.879,28.237 C40.85,28.383 36.037,28.681 31.989,29.135 C31.989,29.135 33.133,21.396 35.024,15.769 C35.784,13.51 47.47,12.722 57.003,13.148 C58.325,12.73 59.81,12.371 61.53,12.1 C65.195,11.672 69.491,11.411 73.906,11.31 C72.408,9.858 70.094,8.841 66.228,8.318 C58.16,7.361 46.414,7.361 38.091,8.328 C30.161,9.579 28.898,12.477 27.892,16.245 C26.729,20.981 24.346,30.437 24.346,30.437 C24.346,30.437 19.644,32.37 19.644,38.436 C19.644,43.003 19.603,47.573 19.637,52.14 C19.643,52.889 22.061,53.346 22.254,53.356 C22.254,54.945 22.245,59.003 22.256,60.541 C22.284,64.389 23.7,64.485 28.312,64.485 C33.038,64.485 34.217,64.083 34.217,60.313 L34.217,53.909 C37.217,54.029 36.428,54.126 37.532,54.224 M29.488,47.723 C25.928,47.755 23.909,44.463 23.822,42.285 C23.713,39.549 26.109,36.407 29.52,36.453 C32.607,36.496 35.13,38.995 35.121,42.058 C35.111,45.212 32.612,47.696 29.488,47.723" id="Fill-2" sketch:type="MSShapeGroup"></path>
            <path d="M57.875,67.089 C57.875,68.784 57.877,72.649 57.875,74.29 C57.875,78.529 56.493,78.979 51.18,78.979 C45.994,78.979 44.345,78.873 44.313,74.545 C44.301,72.817 44.311,68.253 44.311,66.466 C44.094,66.456 41.376,65.943 41.369,65.1 C41.33,59.964 41.376,54.828 41.376,49.69 C41.376,42.871 46.663,40.697 46.663,40.697 C46.663,40.697 49.343,30.064 50.65,24.741 C51.781,20.504 53.202,17.245 62.118,15.839 C71.475,14.752 84.682,14.752 93.754,15.828 C101.756,16.911 103.956,19.814 105.106,24.343 C106.473,29.725 109.141,40.506 109.141,40.506 C109.141,40.506 114.483,43.403 114.483,49.861 C114.539,54.909 114.5,59.958 114.498,65.006 C114.497,65.976 111.483,66.46 111.362,66.488 C111.362,66.634 111.363,66.801 111.362,66.967 C111.362,68.503 111.366,70.039 111.361,71.574 C111.361,78.529 110.006,79 104.932,79 C98.953,79 97.788,78.529 97.788,71.59 C97.802,70.09 97.789,69.2 97.789,67.7 L97.789,67.089 C85.748,68.496 70.257,68.496 57.875,67.089 M55.261,39.235 C68.103,37.795 87.695,37.669 100.722,39.235 C100.697,39.12 99.333,30.951 97.281,24.073 C96.419,20.342 60.112,19.927 58.674,24.208 C56.546,30.533 55.261,39.235 55.261,39.235 M109.037,53.784 C109.042,50.303 106.186,47.481 102.701,47.464 C98.913,47.445 96.196,50.87 96.332,54.055 C96.439,56.628 98.775,60.159 102.683,60.135 C106.204,60.114 109.031,57.315 109.037,53.784 M58.778,53.765 C58.79,50.323 55.951,47.511 52.481,47.463 C48.645,47.411 45.952,50.943 46.074,54.02 C46.172,56.469 48.442,60.171 52.445,60.135 C55.958,60.103 58.768,57.311 58.778,53.765" id="Fill-3" sketch:type="MSShapeGroup"></path>
        </g>
    </g>
</svg>