<?xml version="1.0" encoding="utf-8"?>
<!-- Generator: Adobe Illustrator 16.0.0, SVG Export Plug-In . SVG Version: 6.00 Build 0)  -->
<!DOCTYPE svg PUBLIC "-//W3C//DTD SVG 1.1//EN" "http://www.w3.org/Graphics/SVG/1.1/DTD/svg11.dtd">
<svg version="1.1" id="Layer_1" xmlns="http://www.w3.org/2000/svg" xmlns:xlink="http://www.w3.org/1999/xlink" x="0px" y="0px"
	 width="60px" height="70px" viewBox="0 0 60 70" enable-background="new 0 0 60 70" xml:space="preserve">
<g>
	<path fill="#41A5F5" d="M40.672,30.782c-0.176-0.053-0.211-0.286-0.061-0.39c2.424-1.662,3.994-4.477,3.898-7.659
		c-0.14-4.59-3.919-8.445-8.506-8.667c-5.148-0.25-9.401,3.851-9.401,8.945c0,3.253,1.74,6.093,4.336,7.662
		c-1.896,0.498-4.487,1.903-6.26,3.902c-4.271,4.85-4.319,11.892-4.319,11.892c0,3.228,0.484,5.249,4.135,5.993l0,0
		c-0.126,0.65,1.589,1.075,2.049,1.209c3.126,0.911,7.024,0.385,8.07,0c1.521-0.559,2.264-1.025,2.01-1.599
		c7.425,0,6.351-7.371,6.351-7.371s1.245,1.019,0.664,5.874c-0.319,2.668-3.405,5.479-1.442,6.979
		c1.962,1.5,8.561-1.383,8.561-11.084C50.756,46.467,50.981,33.902,40.672,30.782z"/>
	<path fill="#FFFFFF" d="M34.83,50.184c0.259,0.52-0.065,1.039-0.597,1.27c-1.08,0.465-5.939,0.934-7.887-0.06
		c-0.53-0.271-1.114-1.193-1.158-1.855c-0.746-11.219,0.914-16.774,1.048-16.934c0.122-0.146-0.126-0.298,2.092-1.552
		c0.172-0.098,1.433-0.417,1.433-0.417s0.122,4.066,1.458,9.369C32.528,45.205,34.077,48.672,34.83,50.184z"/>
</g>
</svg>
