<?xml version="1.0" encoding="UTF-8" standalone="no"?>
<svg width="30px" height="30px" viewBox="0 0 30 30" version="1.1" xmlns="http://www.w3.org/2000/svg" xmlns:xlink="http://www.w3.org/1999/xlink" xmlns:sketch="http://www.bohemiancoding.com/sketch/ns">
    <!-- Generator: Sketch 3.2.2 (9983) - http://www.bohemiancoding.com/sketch -->
    <title>icon-faq-plus</title>
    <desc>Created with Sketch.</desc>
    <defs></defs>
    <g id="Page-1" stroke="none" stroke-width="1" fill="none" fill-rule="evenodd" sketch:type="MSPage">
        <g id="icon-faq-plus" sketch:type="MSLayerGroup">
            <path d="M25.387,15.002 L4.617,15.002" id="Shape" stroke="#0078FF" stroke-width="2" sketch:type="MSShapeGroup"></path>
            <path d="M15.002,25.387 L15.002,4.618" id="Shape" stroke="#0078FF" stroke-width="2" sketch:type="MSShapeGroup"></path>
            <path d="M14.91,1 C18.667,1 22.212,2.466 24.892,5.127 C27.536,7.752 28.995,11.253 28.999,14.983 C29.004,18.73 27.545,22.254 24.891,24.903 C22.244,27.545 18.726,29 14.982,29 C11.238,29 7.72,27.545 5.073,24.902 C-0.407,19.432 -0.403,10.741 5.082,5.117 C7.672,2.462 11.163,1 14.91,1 L14.91,1 Z M14.91,0 C11.066,0 7.243,1.47 4.367,4.419 C-1.416,10.349 -1.495,19.759 4.367,25.61 C7.298,28.537 11.141,30 14.982,30 C18.823,30 22.666,28.537 25.597,25.611 C31.459,19.758 31.474,10.255 25.597,4.418 C22.634,1.476 18.761,0 14.91,0 L14.91,0 L14.91,0 Z" id="Shape" fill="#0078FF" sketch:type="MSShapeGroup"></path>
        </g>
    </g>
</svg>