<?xml version="1.0" encoding="UTF-8" standalone="no"?>
<svg width="58px" height="58px" viewBox="0 0 58 58" version="1.1" xmlns="http://www.w3.org/2000/svg" xmlns:xlink="http://www.w3.org/1999/xlink" xmlns:sketch="http://www.bohemiancoding.com/sketch/ns">
    <!-- Generator: Sketch 3.3 (11970) - http://www.bohemiancoding.com/sketch -->
    <title>icon-car-warranty</title>
    <desc>Created with Sketch.</desc>
    <defs>
        <ellipse id="path-1" cx="12.9566893" cy="12.3854718" rx="12.2718228" ry="11.6830446"></ellipse>
    </defs>
    <g id="Page-1" stroke="none" stroke-width="1" fill="none" fill-rule="evenodd" sketch:type="MSPage">
        <g id="icon-car-warranty" sketch:type="MSArtboardGroup">
            <path d="M16.1658782,45.8875362 C16.1658782,47.5583689 15.6502383,47.7366478 13.6671853,47.7366478 C11.7319514,47.7366478 11.1160643,47.6940556 11.1045416,45.9885406 C11.0999325,45.3076732 11.1039654,43.5090638 11.1039654,42.8050749 C11.0227306,42.8002073 10.0081587,42.5981984 10.0058542,42.2665874 C9.99145082,40.2422391 10.0081587,38.2172823 10.0081587,36.192934 C10.0081587,33.5047553 11.9814174,32.6480428 11.9814174,32.6480428 C11.9814174,32.6480428 12.9815859,28.4575749 13.4689952,26.3589945 C13.8913014,24.6893787 14.4219207,23.4049184 17.7490942,22.8506109 C21.2416181,22.4222546 26.1698677,22.4222546 29.5552307,22.8463516 C32.5413329,23.2728825 33.3628999,24.4173968 33.7921196,26.2026201 C34.3019982,28.3237136 35.2975576,32.5725937 35.2975576,32.5725937 C35.2975576,32.5725937 37.290981,33.7146742 37.290981,36.2598647 C37.3117218,38.2489223 37.2967423,40.2391968 37.2961662,42.2288628 C37.2961662,42.610976 36.1715528,42.8020326 36.1266143,42.8129849 L36.1266143,43.0016077 C36.1266143,43.607026 36.1277666,44.2124442 36.1260382,44.817254 C36.1260382,47.5583689 35.540886,47.7366465 33.6482861,47.7366465 C31.4163432,47.7366465 31.0606687,47.5583689 31.0606687,44.8239471 C31.0658539,44.2325234 31.0612448,43.8820501 31.0612448,43.2906265 L31.0612448,43.0496761 C26.5674001,43.6039837 20.7864723,43.6039837 16.1658782,43.0496761 C16.1658782,43.7177658 16.1664543,45.241351 16.1658782,45.8875362 Z M15.1899073,32.0712222 C19.9821893,31.5035285 27.293905,31.4536347 32.1553231,32.0712222 C32.146105,32.0261961 31.6368026,28.8062228 30.8711206,26.095531 C30.5490617,24.6248819 17.0001201,24.4618144 16.4631633,26.1484671 C15.6692507,28.6419385 15.1899073,32.0712222 15.1899073,32.0712222 L15.1899073,32.0712222 Z M35.2583805,37.8053545 C35.2601089,36.433276 34.1948372,35.3216185 32.894503,35.3149254 C31.4800942,35.3070155 30.4666746,36.6571894 30.5167982,37.9124436 C30.5577037,38.9261389 31.4293944,40.3176882 32.8870132,40.3085613 C34.2011747,40.3006513 35.2566521,39.1975123 35.2583805,37.8053545 L35.2583805,37.8053545 Z M16.5023404,37.798053 C16.5063733,36.4411859 15.4474391,35.3331793 14.1528662,35.3149254 C12.7211734,35.2942378 11.7158197,36.6863956 11.7619104,37.8990574 C11.7982068,38.8640759 12.6451237,40.3231643 14.139039,40.3085613 C15.4497437,40.2963921 16.4983074,39.1956869 16.5023404,37.798053 L16.5023404,37.798053 Z" id="Imported-Layers-10" fill="#41A5F5" sketch:type="MSShapeGroup"></path>
            <ellipse id="mask" stroke="#FFFFFF" stroke-width="2" sketch:type="MSShapeGroup" cx="36.5953276" cy="22.0216147" rx="14.7570909" ry="15.1354778"></ellipse>
            <ellipse id="Oval-58" stroke="#FFFFFF" stroke-width="2" fill="#41A5F5" sketch:type="MSShapeGroup" cx="36.5953276" cy="22.0216147" rx="14.7570909" ry="15.1354778"></ellipse>
            <g id="Fill-20-+-Fill-23" sketch:type="MSLayerGroup" transform="translate(36.066874, 21.748872) rotate(-6.000000) translate(-36.066874, -21.748872) translate(23.066874, 9.248872)">
                <mask id="mask-2" sketch:name="Mask" fill="white">
                    <use xlink:href="#path-1"></use>
                </mask>
                <use id="Mask" sketch:type="MSShapeGroup" xlink:href="#path-1"></use>
                <g mask="url(#mask-2)" fill="#FFFFFF" sketch:type="MSShapeGroup">
                    <g transform="translate(2.985833, 2.892998)">
                        <path d="M4.02098442,0.98323065 C3.83861351,1.06350708 3.66245237,1.17085346 3.50949612,1.29469074 C3.24835928,1.50658317 3.26502759,1.79781857 3.53237419,2.00348802 C3.60689134,2.06105058 3.69448166,2.10398913 3.77815004,2.15003917 C5.10344402,2.87906114 6.42677702,3.61088345 7.75697345,4.33150439 C7.93280776,4.42702712 7.99523222,4.52970627 7.99294441,4.72106286 C7.9818322,5.62557283 7.98215903,6.53039395 7.99261758,7.43490392 C7.99457856,7.61692605 7.93574923,7.71431567 7.76710516,7.80112622 C6.93205557,8.2314452 6.10256207,8.67109866 5.2766637,9.11666394 C5.1197855,9.20129645 5.00670246,9.18947279 4.85603402,9.10172879 C3.80691104,8.48938768 2.75386611,7.88358069 1.69689922,7.28337438 C1.45667947,7.14678 1.2017524,7.03072145 0.945517999,6.92244161 C0.605942056,6.7786908 0.302971028,6.95417881 0.311141768,7.3088886 C0.318005189,7.6013686 0.363761332,7.89758239 0.430434568,8.18383942 C1.00826928,10.6621407 3.2663349,12.6880315 5.8963326,13.0993704 C9.5966972,13.6781074 13.0630518,11.3426235 13.6742231,7.79739243 C14.3187311,4.05893792 11.6063723,1.18454401 8.61490111,0.516818389 C8.09981768,0.40200443 7.5631635,0.37555677 7.0363142,0.308348599 C5.97607902,0.337907749 4.97467316,0.56349073 4.02098442,0.98323065 Z" id="Fill-20"></path>
                        <path d="M19.0940382,19.6387876 C19.1120138,20.3572305 19.7751511,20.9649044 20.5314347,20.9561922 C21.3063477,20.9471689 21.9606605,20.3024683 21.9390898,19.5690903 C21.9178458,18.8490916 21.2524208,18.2603978 20.4801225,18.2790668 C19.7107656,18.2974246 19.0757357,18.9200336 19.0940382,19.6387876 L19.0940382,19.6387876 Z M14.7579901,9.99970463 C18.091325,13.1724904 20.3967809,15.3265745 23.7268476,18.5024717 C24.5916387,19.3273275 24.5991558,20.3407396 23.7559354,21.1802195 C23.2532715,21.6808581 22.7414564,22.1730958 22.2289876,22.6643999 C21.4436161,23.4173804 20.2314052,23.4189361 19.4457068,22.6712452 C16.1126987,19.4981483 13.8095306,17.3418862 10.4732542,14.1719008 C10.4003712,14.1028257 10.285654,14.0735777 10.1902197,14.0256608 C12.2747388,13.1227065 13.6784719,11.7486728 14.5746387,9.84008522 C14.6462143,9.90200386 14.70439,9.9486762 14.7579901,9.99970463 L14.7579901,9.99970463 Z" id="Fill-21"></path>
                    </g>
                </g>
            </g>
        </g>
    </g>
</svg>