<?xml version="1.0" encoding="utf-8"?>
<!-- Generator: Adobe Illustrator 16.0.0, SVG Export Plug-In . SVG Version: 6.00 Build 0)  -->
<!DOCTYPE svg PUBLIC "-//W3C//DTD SVG 1.1//EN" "http://www.w3.org/Graphics/SVG/1.1/DTD/svg11.dtd">
<svg version="1.1" xmlns="http://www.w3.org/2000/svg" xmlns:xlink="http://www.w3.org/1999/xlink" x="0px" y="0px" width="100px"
	 height="100px" viewBox="0 0 100 100" enable-background="new 0 0 100 100" xml:space="preserve">
<g id="Guides">
</g>
<g id="Logo">
	<g>
	</g>
	<g>
		<g>
			<g>
				<g>
					<path fill="#EF4044" d="M68.812,62.401h-2.677v-8.243h2.782c2.83,0,3.429,1.351,3.429,4.133
						C72.346,61.074,72.088,62.401,68.812,62.401z M68.94,55.744H68.06v5.072h0.822c1.444,0,1.526-0.552,1.526-2.536
						C70.408,55.99,70.244,55.744,68.94,55.744z"/>
				</g>
				<g>
					<path fill="#EF4044" d="M76.077,57.998c-0.528,0-0.928,0.247-1.28,0.553v3.851h-1.902V56.46h1.645l0.234,0.669
						c0.459-0.434,1.045-0.763,1.68-0.763c0.035,0,0.082,0,0.117,0v1.667C76.453,58.01,76.383,57.998,76.077,57.998z"/>
				</g>
				<g>
					<path fill="#EF4044" d="M77.983,55.963c-0.751,0-1.045-0.317-1.045-1.01c0-0.705,0.294-1.01,1.045-1.01
						c0.752,0,1.045,0.305,1.045,1.01C79.028,55.646,78.735,55.963,77.983,55.963z M77.032,62.451v-6.09h1.902v6.09H77.032z"/>
				</g>
				<g>
					<path fill="#EF4044" d="M83.383,62.418h-1.854l-2.278-6.04h1.984l1.257,3.84l1.362-3.84h1.938L83.383,62.418z"/>
				</g>
				<g>
					<path fill="#EF4044" d="M87.353,60.029c0.07,0.916,0.375,1.116,1.032,1.116c0.834,0,1.457-0.165,2.231-0.364v1.479
						c-0.692,0.141-1.608,0.282-2.571,0.282c-1.68,0-2.571-0.904-2.571-3.007c0-1.866,0.575-3.17,2.747-3.17
						c1.797,0,2.455,0.893,2.455,3.17v0.493H87.353z M88.139,57.764c-0.61,0-0.752,0.493-0.786,1.256h1.526
						C88.879,58.186,88.737,57.764,88.139,57.764z"/>
				</g>
				<g>
					<path fill="#EF4044" d="M94.554,57.998c-0.528,0-0.928,0.247-1.279,0.553v3.851h-1.902V56.46h1.644l0.234,0.669
						c0.458-0.434,1.045-0.763,1.68-0.763c0.035,0,0.082,0,0.117,0v1.667C94.93,58.01,94.859,57.998,94.554,57.998z"/>
				</g>
			</g>
			<g>
				<g>
					<path fill="#EF4044" d="M44.59,54.129h-1.987l0,0h-0.816l0.004,1.477h0.27l-2.288,6.668h1.929l0.584-2.002h2.444l0.55,2.002
						h2.034L44.59,54.129z M42.743,58.803l0.795-2.619l0.76,2.619H42.743z"/>
				</g>
				<g>
					<path fill="#EF4044" d="M50.566,62.444c-0.411,0-0.728-0.035-1.022-0.106v2.314h-1.902v-8.291h1.597l0.106,0.306
						c0.247-0.212,0.634-0.399,1.198-0.399c1.479,0,2.595,0.775,2.595,3.076C53.138,61.27,52.269,62.444,50.566,62.444z
						 M50.237,57.7c-0.27,0-0.504,0.083-0.693,0.247v2.971c0.259,0.07,0.505,0.105,0.764,0.105c0.704,0,0.928-0.423,0.928-1.691
						C51.235,57.889,50.848,57.7,50.237,57.7z"/>
				</g>
				<g>
					<path fill="#EF4044" d="M56.615,62.444c-0.411,0-0.729-0.035-1.022-0.106v2.314h-1.901v-8.291h1.597l0.105,0.306
						c0.247-0.212,0.634-0.399,1.198-0.399c1.479,0,2.595,0.775,2.595,3.076C59.187,61.27,58.317,62.444,56.615,62.444z
						 M56.286,57.7c-0.271,0-0.505,0.083-0.693,0.247v2.971c0.259,0.07,0.506,0.105,0.764,0.105c0.704,0,0.928-0.423,0.928-1.691
						C57.284,57.889,56.896,57.7,56.286,57.7z"/>
				</g>
				<g>
					<path fill="#EF4044" d="M62.112,64.652H60.21l1.021-2.35H61.22l-2.278-5.941h1.996l1.21,3.547l1.232-3.547h2.008L62.112,64.652
						z"/>
				</g>
			</g>
		</g>
		<g>
			<g>
				<g>
					<g>
						<path fill="#003E7E" d="M14.629,40.938c0.257-0.794,0.907-3.582,2.566-4.536c-3.595-1.588-4.292,0.234-3.989,4.598
							C13.25,41.628,14.488,41.377,14.629,40.938z M19.536,42.328c0,0.095,0.036,0.177,0.108,0.202
							c0.013,0.004,0.026,0.007,0.039,0.007c0.094-0.002,0.183-0.097,0.225-0.225c0.01-0.031,0.016-0.067,0.019-0.098
							c0.023,0.015,0.046,0.031,0.069,0.054c0.034,0.033,0.063,0.039,0.084,0.039h0.001c0.006,0,0.011,0,0.013,0l0.006-0.001
							c0.012-0.001,0.026-0.007,0.038-0.015c0.015-0.006,0.028-0.018,0.04-0.029c0.015-0.015,0.026-0.027,0.034-0.042
							c0.006-0.013,0.011-0.027,0.011-0.044v-0.004c-0.003-0.024-0.014-0.046-0.033-0.063c-0.016-0.015-0.036-0.03-0.058-0.042
							c-0.024-0.013-0.047-0.023-0.07-0.032c-0.022-0.007-0.042-0.015-0.059-0.021c-0.025-0.009-0.046-0.017-0.073-0.022
							c-0.025-0.007-0.048-0.013-0.071-0.016c-0.023-0.004-0.045-0.005-0.068-0.009c-0.022-0.001-0.044-0.001-0.067-0.001H19.72
							h-0.001l0,0l0,0l-0.002,0.002c-0.02,0-0.034,0-0.048,0.002l0,0c-0.016,0.001-0.031,0.003-0.044,0.006
							c-0.021,0.004-0.04,0.01-0.057,0.015c-0.002,0-0.007,0.001-0.014,0.003c-0.05,0.017-0.099,0.038-0.141,0.063
							c-0.043,0.025-0.082,0.054-0.118,0.088c-0.035,0.03-0.065,0.063-0.094,0.096c-0.001,0-0.001,0-0.002,0
							c-0.003,0.003-0.005,0.009-0.005,0.015c0,0,0,0.001,0,0.002l0,0c0,0.001,0,0.002,0,0.002l0,0c0,0,0,0,0,0.002l0,0l0,0
							c0,0.001,0,0.001,0,0.001c0,0.001,0.001,0.001,0.001,0.001c0,0,0.001,0.002,0.001,0.002h0.001l0,0
							c0.001,0.005,0.005,0.007,0.01,0.009c0.006,0.004,0.014,0.001,0.019-0.003c0.013-0.006,0.013-0.012,0.034-0.025
							c0.059-0.04,0.183-0.115,0.331-0.13c-0.014,0.026-0.026,0.053-0.035,0.083C19.542,42.245,19.536,42.288,19.536,42.328z
							 M19.719,41.966l0.004,0.001L19.719,41.966L19.719,41.966z M27.588,44.479l-1.216-0.012c0.022-0.05,0.06-0.108,0.098-0.163
							c0.037-0.056,0.074-0.109,0.094-0.158c0.049-0.12,0.128-0.541,0.1-0.743c0.097,0.005,0.313,0.015,0.699,0.032
							c0.572,0.028,1.503,0.069,2.897,0.137l0.044,0.002V43.53c-0.003-0.212-0.006-0.366-0.009-0.514
							c-0.003-0.164-0.006-0.322-0.01-0.556c-0.001-0.091-0.002-0.314-0.005-0.523c0-0.171-0.002-0.334-0.003-0.41v-0.041h-0.042
							c-0.015,0-0.216,0.009-0.632,0.028l-1.095,0.049c-1.152,0.051-1.8,0.077-1.921,0.077l-0.022-0.002h-0.014l-0.016,0
							L26.47,41.64c-0.214,0-0.249-0.021-0.25-0.021c-0.138-0.131-0.724-0.23-1.361-0.23c-0.126,0-0.252,0.004-0.375,0.011
							c-0.333,0.02-0.616,0.083-0.714,0.131c-0.112,0.057-0.19,0.145-0.246,0.28l-0.011,0.027c-0.016,0.04-0.032,0.079-0.054,0.117
							c-0.002,0.003-0.015,0.003-0.02,0.003c-0.01,0-0.018,0-0.026-0.002c-0.009,0-0.018-0.001-0.032-0.001h-0.007
							c-1.148,0.046-2.147,0.077-2.482,0.085c0.08-0.098,0.159-0.177,0.182-0.218c0.033-0.057-0.063-0.505-0.07-0.563
							c0.205,0.02,0.349,0.037,0.349,0.037c0.146-1.207,0.267-4.734,0.148-5.413c-0.054-0.3-1.575-0.308-1.591-0.308
							c-2.099,0-3.725,1.511-4.829,5.261c-0.112,0.382-0.247,0.954-1.19,0.976c-0.483,0.01-0.651-0.118-0.651-0.118
							s0.282,0.373,0.939,0.554c0.165,0.032,0.511,0.06,1.202,0.023c0.724-0.041,1.062-0.167,1.469-0.349
							c0,0-0.214,0.154-0.559,0.301c0.001,0,0.002-0.001,0.003-0.001c0.062,0.16,0.063,0.316,0.063,0.316s0.157,0.068,0.224,0.095
							c0.078,0.033,0.422,0.17,0.422,0.17s0.032-0.387,0.315-0.656c0.2-0.192,0.248-0.368,0.3-0.522
							c1.054-0.708,2.304-0.613,2.803-0.48c0.038,0.009,0.091,0.067,0.098,0.085c0.019,0.047,0.173,0.424,0.19,0.505
							c0.001,0.012-0.292,0.271-0.292,0.271s0.054,0.172,0.08,0.249c0.131,0.359,0.322,0.722,0.6,1.145
							c-0.045,0.026-0.081,0.036-0.115,0.036h-0.443c-0.029,0-0.052,0.013-0.07,0.034c-0.042,0.048-0.025,0.118-0.01,0.279
							c0.019,0.208,0.003,0.279,0.003,0.307c-0.005,0.007-0.015,0.02-0.028,0.036c-0.208,0.123-0.476,0.11-0.476,0.11
							c0.211,0.087,0.347,0.094,0.431,0.079c0.007,0.015,0.017,0.029,0.027,0.042h0.001c0.008,0.009,0.034,0.05,0.032,0.08
							c0,0.005,0,0.012-0.002,0.02c-0.017,0.057-0.015,0.044-0.047,0.067c-0.03,0.021-0.125,0.055-0.178,0.167
							c-0.015,0.033-0.02,0.067-0.02,0.096c0.012,0.168,0.089,0.252,0.086,0.45c0,0.072-0.01,0.157-0.042,0.259
							c-0.117,0.148-0.409,0.245-0.545,0.223c0,0-1.481-0.139-1.948-0.226c-0.055-0.011-0.39,0.478-0.98,2.551
							c0.096-2.992-0.567-4.301-0.567-4.301s-0.208,0.065-0.263,0.061c-0.354-0.023-0.344-0.44-0.346-0.463
							c-0.014-0.17-0.098-0.302-0.178-0.429c-0.026-0.041-0.106-0.207-0.133-0.395c-0.537,0.061-0.898,0.059-1.138,0.031
							c-0.013,0.589,0.173,1.368,0.99,2.086c0.015,0.014,0.028,0.024,0.031,0.024c0,0,0-0.001,0-0.001
							c0.025,0.086,0.028,0.185,0.012,0.301c-0.004,0.029-0.01,0.057-0.018,0.084c-0.02,0.008-0.062,0.017-0.079,0.02
							c-0.013,0.004-0.026,0.006-0.031,0.007c-0.11,0.034-0.227,0.072-0.341,0.116l-0.086,0.03
							c-0.403,0.147-0.669,0.245-1.025,0.523l-0.034,0.027l0.025,0.032c0.729,0.944,1.139,2.05,1.494,3.152
							c-0.689-1.567-1.255-2.072-1.284-2.098l-0.02-0.016l-0.022,0.01c-0.601,0.224-1.569,0.51-2.037,0.628l-0.396,0.099
							c-0.083,0.021-0.371,0.65-0.363,0.852c0.095,2.604,2.631,6.233,6.548,6.233c2.944,0,4.658-1.973,4.677-1.988
							c0,0-0.06-1.004,0.101-1.545c0.021-0.005,0.651-0.005,0.905-0.005c0.95,0,2.746-0.007,3.15-0.007
							c0.19,0,0.601-0.146,0.682-0.223c0.217-0.198,0.348-0.396,0.396-0.604c0.043-0.183,0.038-1.112-0.019-2.305
							c-0.056-1.194-0.088-1.227-0.089-1.324l0.304,0.014C27.603,45.544,27.588,44.479,27.588,44.479z M22.714,47.303
							c-0.173-0.067-0.337-0.142-0.494-0.225c-0.176-0.04-0.358-0.069-0.543-0.086c-0.138-0.013-0.859-0.021-0.915-0.021
							c0.279-0.792,0.639-1.587,0.639-1.587s-0.496-0.133-0.834-0.224c-0.01-0.199-0.072-0.349-0.084-0.394
							c0.007-0.004,0.022-0.014,0.06-0.034c0.062-0.032,0.155-0.118,0.179-0.25c0.005-0.027,0.009-0.054,0.009-0.08
							c-0.001-0.069-0.02-0.126-0.041-0.168c0.046-0.017,0.087-0.039,0.101-0.068c0.022-0.049,0-0.099-0.022-0.152
							c-0.017-0.036-0.032-0.074-0.036-0.113l-0.006-0.051c-0.005-0.054-0.013-0.121,0.001-0.139
							c0.003-0.002,0.013-0.004,0.017-0.004c0.095,0,0.207,0,0.265-0.001c0.065-0.001,0.206-0.092,0.222-0.102
							c0.086-0.056,0.176-0.114,0.152-0.205c-0.022-0.09-0.212-0.404-0.226-0.433c0.228,0.009,0.641,0.029,1.076,0.044
							c0.46,0.017,0.875,0.032,0.908,0.034c0.05,0.003,0.089,0.004,0.123,0.005c0.05,0.005,0.093,0.006,0.103,0.019
							c0.009,0.041,0.024,0.113,0.033,0.154c0.017,0.089,0.062,0.259,0.09,0.332c0.043,0.104,0.208,0.267,0.341,0.399l0.023,0.023
							l0.06,0.058c0.216,0.216,0.28,0.28,0.318,0.35c-0.005,0.001-0.008,0.001-0.011,0.001l-0.033,0.017l-0.048,0.003l0.009,0.048
							c0.011,0.058,0.036,0.17,0.051,0.278c0.062,0.454,0.116,0.883,0.215,1.625c0.004,0.04,0.121-0.006,0.125,0.036
							c0.051,0.387,0.097,0.838,0.125,1.357C24.036,47.697,23.303,47.536,22.714,47.303z M25.329,42.542
							c-0.061,0.068-0.25,0.074-0.348,0.013c-0.016-0.01-0.029-0.032-0.041-0.059c-0.008,0.019-0.019,0.036-0.029,0.046
							c-0.09,0.074-0.305,0.074-0.403-0.004c-0.012-0.011-0.022-0.028-0.03-0.045c0.035,0.179-0.205,0.517-0.415,0.564
							c0.041,0.12,0.098,0.158,0.149,0.271c0.432,0.072,0.636,0.072,0.966,0.375c0.225-0.171,0.852-0.098,0.969,0.159
							c0.031,0.168-0.126,0.406-0.458,0.458c-0.33,0.049-0.647,0.047-0.98-0.045c-0.419-0.114-0.983-0.69-1.017-0.749
							c-0.035-0.059-0.14-0.563-0.113-0.654c0.028-0.093,0.434-0.271,0.63-0.327c0,0-0.054-0.008-0.101-0.039
							c-0.001-0.001-0.001-0.002-0.002-0.002c-0.104,0.019-0.254,0.017-0.317-0.055c-0.15-0.164-0.131-0.527-0.093-0.579
							c0.056-0.072,0.254-0.048,0.371,0.015c0.066-0.057,0.315-0.115,0.432-0.004c0.002,0.005,0.002,0.01,0.004,0.015
							c0.162-0.06,0.319-0.06,0.426,0.026c0.017,0.012,0.03,0.03,0.041,0.053c0.008-0.011,0.019-0.019,0.03-0.025
							c0.11-0.057,0.288-0.045,0.385,0.011 M20.278,41.984c0.006,0,0.012,0,0.014,0c0.001,0,0.001,0,0.001,0v-0.002h0.004v0.001
							h0.005c0.019-0.001,0.04-0.009,0.058-0.018c0.023-0.01,0.045-0.027,0.066-0.043c0.021-0.02,0.04-0.04,0.053-0.059
							c0.012-0.021,0.019-0.041,0.02-0.063c0.001-0.002,0.001-0.005,0.001-0.008c-0.004-0.035-0.022-0.064-0.048-0.087
							c-0.025-0.023-0.059-0.044-0.094-0.062c-0.037-0.021-0.074-0.036-0.111-0.049c-0.035-0.014-0.07-0.023-0.094-0.033
							c-0.042-0.012-0.08-0.024-0.119-0.033c-0.039-0.011-0.078-0.018-0.117-0.024c-0.036-0.007-0.074-0.009-0.109-0.012
							c-0.028-0.002-0.053-0.002-0.081-0.002c-0.009,0-0.019,0-0.028,0h-0.002l-0.001,0l-0.003,0
							c-0.029,0.001-0.056,0.003-0.079,0.005h-0.001c-0.028,0.002-0.051,0.007-0.075,0.01c-0.029,0.005-0.06,0.011-0.088,0.02
							c-0.009,0.002-0.017,0.004-0.024,0.006c-0.083,0.023-0.16,0.054-0.231,0.092c-0.071,0.036-0.136,0.08-0.195,0.128
							c-0.06,0.045-0.112,0.096-0.159,0.146c-0.001,0-0.001,0-0.001,0.001c-0.004,0.004-0.006,0.009-0.006,0.015
							c0,0.004,0.002,0.01,0.006,0.014c0,0,0.001,0.001,0.001,0.001c0.002,0.001,0.004,0.002,0.005,0.003
							c0.006,0.003,0.014,0.002,0.019-0.002c0.016-0.007,0.025-0.018,0.057-0.036c0.108-0.066,0.354-0.198,0.636-0.198
							c0.188,0,0.393,0.059,0.59,0.233c0.054,0.049,0.099,0.058,0.127,0.058H20.278z M47.038,42.728
							c-0.502-0.142-1.004-0.222-1.869-0.222c-2.913,0-4.403,2.009-4.403,5.308c0,3.937,1.912,5.263,4.444,5.263
							c0.963,0,1.627-0.32,2.05-0.682l0.099,0.442h2.936v-14.11h-3.256V42.728z M47.038,50.162
							c-0.362,0.342-0.785,0.563-1.307,0.563c-1.024,0-1.709-0.421-1.709-2.893c0-2.171,0.383-2.896,1.588-2.896
							c0.462,0,0.926,0.102,1.428,0.263V50.162z M33.031,38.727l-0.001,0.001h-1.207v2.384h0.385l-4.042,11.725h3.316l1.005-3.295
							h4.199l0.946,3.295h3.496l-4.682-14.11H33.031z M33.27,46.968l1.368-4.501l1.306,4.501H33.27z M64.063,42.606
							c-1.186,0-2.353,0.704-3.318,1.468c-0.361-0.885-1.084-1.468-2.047-1.468c-1.088,0-2.154,0.601-3.078,1.288l-0.423-1.228
							h-2.812v10.171h3.254v-6.714c0.524-0.4,0.985-0.683,1.387-0.683c0.425,0,0.725,0.262,0.725,1.106v6.291h3.255v-6.714
							c0.524-0.4,0.986-0.683,1.39-0.683c0.42,0,0.722,0.262,0.722,1.106v6.291h3.255v-7.256
							C66.371,43.894,65.487,42.606,64.063,42.606z M77.144,43.812l-0.4-1.146h-2.813v10.171h3.254v-6.592
							c0.604-0.522,1.286-0.945,2.191-0.945c0.523,0,0.642,0.02,0.846,0.06v-2.854h-0.204C78.935,42.505,77.93,43.07,77.144,43.812z
							 M91.816,38.727v14.11h3.256v-14.11H91.816z M85.948,42.505c-1.748,0-3.354,0.282-4.22,0.542v2.474
							c0.722-0.282,2.131-0.645,3.438-0.645c1.402,0,1.426,0.764,1.426,1.446v0.283c-4.664-0.06-5.77,0.743-5.77,3.536
							c0,1.969,1.205,2.896,2.675,2.896c1.045,0,2.068-0.362,3.155-1.085l0.281,0.884h2.873v-7.236
							C89.807,43.207,88.159,42.505,85.948,42.505z M86.592,50.063c-0.542,0.403-1.186,0.725-1.831,0.725
							c-0.621,0-0.803-0.403-0.803-1.005c0-1.107,0.261-1.268,2.634-1.187V50.063z M70.111,38.525c-1.287,0-1.79,0.524-1.79,1.729
							c0,1.185,0.503,1.727,1.79,1.727c1.285,0,1.788-0.542,1.788-1.727C71.899,39.049,71.396,38.525,70.111,38.525z M68.481,52.837
							h3.257V42.666h-3.257V52.837z"/>
						<g>
							<path fill="#EF4044" d="M41.234,54.125H22.472l0,0h-0.484c-1.243,0.877-2.768,1.395-4.417,1.395
								c-4.182,0-7.571-3.319-7.571-7.414c0-2.321,1.09-4.393,2.795-5.751c-0.152-0.397-0.258-1.006-0.329-1.725
								c-2.459,1.614-4.079,4.359-4.079,7.477c0,4.967,4.111,8.994,9.184,8.994c1.878,0,3.625-0.553,5.08-1.501h18.585V54.125z"/>
						</g>
					</g>
				</g>
			</g>
		</g>
	</g>
</g>
</svg>
