<?xml version="1.0" encoding="UTF-8" standalone="no"?>
<svg width="58px" height="58px" viewBox="0 0 58 58" version="1.1" xmlns="http://www.w3.org/2000/svg" xmlns:xlink="http://www.w3.org/1999/xlink" xmlns:sketch="http://www.bohemiancoding.com/sketch/ns">
    <!-- Generator: Sketch 3.2.2 (9983) - http://www.bohemiancoding.com/sketch -->
    <title>Icon-Contact-Admiral</title>
    <desc>Created with Sketch.</desc>
    <defs></defs>
    <g id="Page-1" stroke="none" stroke-width="1" fill="none" fill-rule="evenodd" sketch:type="MSPage">
        <g id="Icon-Contact-Admiral" sketch:type="MSArtboardGroup" fill="#0078FF">
            <path d="M43.1430657,20.092041 C43.1430657,20.092041 44.3889153,20.092041 44.3889153,20.092041 C47.9672845,20.092041 50,23.0445 50,26.8624375 L50,36.0771719 C50,39.2129219 48.082972,41.8613125 45.4556191,42.7076875 L47.0519922,48.1062187 L37.5475469,42.9903906 L29.8996087,42.9903906 C27.2972074,42.9903906 25.0600554,41.2843437 24.0805714,39 L36.0244295,39 C39.9970466,39.0392246 43.1430657,36.0771713 43.1430657,31.1282549 L43.1430657,20.092041 Z M33.9939785,36.96875 C36.3748709,36.96875 41,36.96875 41,29.9451186 L41,18.8149844 C41,15.0515536 37.9555719,12 34.2002275,12 L13.8003412,12 C10.0438594,12 7,15.0515536 7,18.8149844 L7,29.9451186 C7,33.1682295 8.922526,36.246582 12.2620444,36.96875 L10,43 L21.6066084,36.96875 L33.9939785,36.96875 Z" id="Imported-Layers" sketch:type="MSShapeGroup"></path>
        </g>
    </g>
</svg>