<?xml version="1.0" encoding="UTF-8" standalone="no"?>
<svg width="69px" height="69px" viewBox="0 0 69 69" version="1.1" xmlns="http://www.w3.org/2000/svg" xmlns:xlink="http://www.w3.org/1999/xlink" xmlns:sketch="http://www.bohemiancoding.com/sketch/ns">
    <!-- Generator: Sketch 3.2.2 (9983) - http://www.bohemiancoding.com/sketch -->
    <title>icon-homeBooks-over</title>
    <desc>Created with Sketch.</desc>
    <defs></defs>
    <g id="Page-1" stroke="none" stroke-width="1" fill="none" fill-rule="evenodd" sketch:type="MSPage">
        <g id="icon-homeBooks-over" sketch:type="MSLayerGroup" fill="#A5CDEC">
            <path d="M29.0605491,61.9959386 L28.4025496,61.9959386 C23.2462264,61.9959386 18.0909002,61.9908744 12.934577,61.99999 C11.8528657,62.0020156 10.913721,61.6981633 10.3494366,60.7086177 C10.1011913,60.2741089 9.89980359,59.7352775 9.89681268,59.2420239 C9.86889755,52.3445767 9.8738824,45.4481423 9.89481875,38.5506951 C9.89581572,38.2691253 10.0573247,37.8994383 10.2676851,37.7221911 C18.2095395,31.015158 26.1673453,24.3253432 34.1221603,17.6345155 C34.2388056,17.5352571 34.3634267,17.4461271 34.513969,17.3306632 C36.1230769,18.6828059 37.7281968,20.0308973 39.3323198,21.3800015 C45.7847026,26.8078165 52.2350915,32.2386699 58.69545,37.6563565 C59.0274406,37.9348877 59.1480739,38.2205089 59.1470769,38.6479278 C59.1371072,45.4096543 59.1400981,52.170368 59.1410951,58.9310817 C59.1410951,60.8088889 58.0005627,61.9888487 56.1442066,61.9939129 C52.5162367,62.0020156 48.8872698,61.9959386 45.2593,61.9959386 L39.9883253,61.9959386 L39.9883253,45.2830492 L29.0605491,45.2830492 L29.0605491,61.9959386 L29.0605491,61.9959386 Z M47.7646829,15.6888479 C44.4976157,12.9025223 41.2285547,10.1202481 37.9664724,7.32784547 C35.9057376,5.56347644 33.1112338,5.55537371 31.0475081,7.31569138 C28.8362311,9.20261416 26.6199692,11.0834599 24.4047043,12.9663313 C16.5416105,19.6500691 8.67851667,26.3317812 0.816419838,33.015519 C-0.196500577,33.8774467 -0.256318711,34.5216135 0.578144268,35.5425573 C1.33584064,36.4703196 2.09652792,37.3950435 2.85821217,38.3197673 C3.48630258,39.0814237 4.29783528,39.1492841 5.05951953,38.5020787 C13.5497068,31.2795095 22.039894,24.0559275 30.5300813,16.8333583 C31.8470772,15.7131561 33.1650701,14.5949797 34.4890448,13.4697133 C34.6415811,13.5902414 34.7652052,13.6803842 34.8808536,13.7796427 C37.6384696,16.1243696 40.3950887,18.4701093 43.1517077,20.8148363 C50.0726659,26.7034938 56.9936241,32.5921514 63.9145823,38.4797962 C64.7271119,39.1705538 65.5177083,39.0895265 66.1946502,38.2589968 C66.903495,37.3899793 67.6143339,36.5240002 68.3271667,35.659034 C69.2842568,34.499331 69.2364023,33.9098576 68.0799184,32.9284147 C65.2624842,30.5350714 62.4450501,28.1427409 59.6156523,25.7656031 C59.2756859,25.4799819 59.1241466,25.1933479 59.1291315,24.7345309 C59.1520618,22.4748827 59.1400981,20.2152344 59.1400981,17.9545733 C59.1400981,14.5453505 59.1410951,11.1361276 59.1391012,7.72589198 C59.1381042,6.68975564 58.6655409,6.19042502 57.6496296,6.13674445 C57.5928024,6.13370593 57.5349782,6.13471877 57.478151,6.13471877 C54.9378742,6.13471877 52.3985944,6.12965456 49.8583176,6.13775729 C48.6549761,6.14180865 48.1893916,6.62594665 48.1883946,7.83224029 L48.1883946,12.859983 L48.1883946,16.0109314 C47.9740463,15.847864 47.8653767,15.7739266 47.7646829,15.6888479 L47.7646829,15.6888479 Z" id="Imported-Layers" sketch:type="MSShapeGroup"></path>
        </g>
    </g>
</svg>