<?xml version="1.0" encoding="UTF-8" standalone="no"?>
<svg width="67px" height="72px" viewBox="0 0 67 72" version="1.1" xmlns="http://www.w3.org/2000/svg" xmlns:xlink="http://www.w3.org/1999/xlink">
    <!-- Generator: Sketch 41.1 (35376) - http://www.bohemiancoding.com/sketch -->
    <title>icon-driver</title>
    <desc>Created with Sketch.</desc>
    <defs>
        <polygon id="path-1" points="0.5071 25 50.3641 25 50.3641 0.0715 0.5071 0.0715 0.5071 25"></polygon>
        <polygon id="path-3" points="0.0003 72 66.8701631 72 66.8701631 0.9682 0.0003 0.9682 0.0003 72"></polygon>
    </defs>
    <g id="Page-1" stroke="none" stroke-width="1" fill="none" fill-rule="evenodd">
        <g id="icon-driver">
            <g id="Page-1">
                <g id="Group-3" transform="translate(8.000000, 47.031700)">
                    <mask id="mask-2" fill="white">
                        <use xlink:href="#path-1"></use>
                    </mask>
                    <g id="Clip-2"></g>
                    <path d="M25.4351,0.0715 C11.6671,0.0715 0.5071,11.2325 0.5071,25.0005 L17.6721,25.0005 C14.3191,21.6965 10.2861,18.8015 5.6231,16.2855 C3.8161,15.2845 4.5261,12.5355 6.5921,12.5355 L44.2781,12.5355 C46.3031,12.5355 47.0461,15.1985 45.3141,16.2465 C40.6651,18.7175 36.9141,21.6615 33.9141,25.0005 L50.3641,25.0005 C50.3641,11.2325 39.2031,0.0715 25.4351,0.0715" id="Fill-1" fill="#5CA3EE" mask="url(#mask-2)"></path>
                </g>
                <g id="Group-6" transform="translate(0.000000, 0.031700)">
                    <mask id="mask-4" fill="white">
                        <use xlink:href="#path-3"></use>
                    </mask>
                    <g id="Clip-5"></g>
                    <path d="M43.6743,37.4782 C49.3413,34.0172 53.1353,27.7952 53.1353,20.6692 C53.1353,9.7902 44.3163,0.9682 33.4343,0.9682 C22.5533,0.9682 13.7343,9.7912 13.7343,20.6702 C13.7343,27.8282 17.5633,34.0752 23.2723,37.5252 C0.1973,43.9582 0.0003,72.0002 0.0003,72.0002 L2.7383,72.0002 C2.7383,55.0732 16.5083,41.3032 33.4353,41.3032 C50.3613,41.3032 64.1323,55.0732 64.1323,72.0002 L66.8693,72.0002 C66.8693,72.0002 67.3783,43.8242 43.6743,37.4782" id="Fill-4" fill="#5CA3EE" mask="url(#mask-4)"></path>
                </g>
                <path d="M12.332,68.2072 C10.261,68.2072 6.524,67.9592 4.765,66.3042 C4.43,65.9892 4.172,65.9462 3.964,65.9462 C3.768,65.9462 3.559,65.9892 3.338,66.0342 C3.096,66.0832 2.845,66.1352 2.577,66.1352 C1,65.1452 1.507,48.6932 12.966,50.0162 C17.214,50.0162 20.669,53.4712 20.669,57.7192 L20.669,59.5832 C20.669,63.8312 17.214,68.1962 12.966,68.1962 C12.822,68.2012 12.593,68.2072 12.332,68.2072" id="Fill-7" fill="#5CA3EE"></path>
                <path d="M54.7241,68.2072 C56.7951,68.2072 60.5321,67.9592 62.2911,66.3042 C62.6261,65.9892 62.8841,65.9462 63.0921,65.9462 C63.2881,65.9462 63.4971,65.9892 63.7181,66.0342 C63.9601,66.0832 64.2101,66.1352 64.4791,66.1352 C66.0561,65.1452 65.5491,48.6932 54.0901,50.0162 C49.8421,50.0162 46.3871,53.4712 46.3871,57.7192 L46.3871,59.5832 C46.3871,63.8312 49.8421,68.1962 54.0901,68.1962 C54.2341,68.2012 54.4631,68.2072 54.7241,68.2072" id="Fill-9" fill="#5CA3EE"></path>
            </g>
        </g>
    </g>
</svg>