<?xml version="1.0" encoding="utf-8"?>
<!-- Generator: Adobe Illustrator 16.0.0, SVG Export Plug-In . SVG Version: 6.00 Build 0)  -->
<!DOCTYPE svg PUBLIC "-//W3C//DTD SVG 1.0//EN" "http://www.w3.org/TR/2001/REC-SVG-20010904/DTD/svg10.dtd">
<svg version="1.0" id="Layer_1" xmlns="http://www.w3.org/2000/svg" xmlns:xlink="http://www.w3.org/1999/xlink" x="0px" y="0px"
	 width="58px" height="58px" viewBox="0 0 58 58" enable-background="new 0 0 58 58" xml:space="preserve">
<path id="nB1st8.tif_7_" fill="#41A5F5" d="M26.004,44.355c-0.158,0-0.26,0-0.363,0c-2.839,0-5.679-0.003-8.518,0.002
	c-0.596,0.001-1.113-0.164-1.423-0.7c-0.137-0.235-0.249-0.528-0.25-0.795c-0.016-3.739-0.013-7.478-0.001-11.218
	c0-0.151,0.09-0.352,0.205-0.448c4.375-3.636,8.756-7.262,13.138-10.89c0.064-0.053,0.133-0.102,0.216-0.165
	c0.886,0.733,1.77,1.463,2.654,2.195c3.553,2.942,7.105,5.886,10.663,8.823c0.183,0.151,0.249,0.307,0.249,0.538
	c-0.006,3.665-0.005,7.33-0.004,10.995c0,1.018-0.628,1.658-1.65,1.66c-1.998,0.005-3.996,0.002-5.994,0.002
	c-0.956,0-1.911,0-2.903,0c0-3.028,0-6.033,0-9.061c-2.019,0-4.001,0-6.018,0C26.004,38.293,26.004,41.297,26.004,44.355z
	 M36.306,19.252c-1.8-1.51-3.601-3.019-5.396-4.532c-1.135-0.956-2.674-0.961-3.811-0.006c-1.218,1.023-2.438,2.042-3.658,3.063
	c-4.33,3.623-8.661,7.245-12.991,10.869c-0.558,0.467-0.591,0.816-0.131,1.37c0.417,0.503,0.836,1.004,1.256,1.505
	c0.346,0.414,0.793,0.45,1.212,0.1c4.676-3.916,9.352-7.832,14.027-11.747c0.726-0.607,1.451-1.214,2.181-1.824
	c0.084,0.065,0.152,0.115,0.216,0.168c1.519,1.271,3.036,2.542,4.555,3.813c3.812,3.192,7.623,6.385,11.435,9.577
	c0.447,0.374,0.883,0.33,1.256-0.12c0.391-0.472,0.781-0.94,1.174-1.409c0.527-0.629,0.502-0.949-0.136-1.481
	c-1.552-1.297-3.103-2.594-4.661-3.883c-0.188-0.154-0.271-0.31-0.268-0.559c0.012-1.225,0.006-2.45,0.006-3.675
	c0-1.848,0-3.697-0.001-5.545c0-0.562-0.261-0.833-0.82-0.862c-0.031-0.001-0.063,0-0.095,0c-1.398,0-2.797-0.003-4.195,0.001
	c-0.664,0.002-0.92,0.264-0.92,0.918c-0.001,0.909,0,1.817,0,2.725c0,0.546,0,1.093,0,1.708
	C36.42,19.338,36.36,19.298,36.306,19.252z"/>
</svg>
