<?xml version="1.0" encoding="utf-8"?>
<!-- Generator: Adobe Illustrator 16.0.0, SVG Export Plug-In . SVG Version: 6.00 Build 0)  -->
<!DOCTYPE svg PUBLIC "-//W3C//DTD SVG 1.0//EN" "http://www.w3.org/TR/2001/REC-SVG-20010904/DTD/svg10.dtd">
<svg version="1.0" id="Layer_1" xmlns="http://www.w3.org/2000/svg" xmlns:xlink="http://www.w3.org/1999/xlink" x="0px" y="0px"
	 width="58px" height="58px" viewBox="0 0 58 58" enable-background="new 0 0 58 58" xml:space="preserve">
<g>
	<g>
		<g>
			<g>
				<g>
					<path fill="#3FA7F3" d="M10.937,29.178l0.467-0.656c0-2.19,1.358-3.577,2.36-4.281c0.229-0.906,0.774-2.617,1.122-4.02
						c-1.791,0.048-3.449,0.154-4.888,0.315c0,0,0.423-2.669,1.075-4.609c0.273-0.813,4.661-1.073,8.016-0.882
						c0.478-0.145,1.016-0.269,1.622-0.364c1.145-0.133,2.463-0.218,3.822-0.265c-0.515-0.515-1.315-0.875-2.672-1.059
						c-2.782-0.33-6.832-0.33-9.703,0.003c-2.734,0.431-3.17,1.431-3.517,2.73c-0.401,1.633-1.223,4.894-1.223,4.894
						s-1.621,0.667-1.621,2.759c0,1.576-0.015,3.151-0.003,4.727c0.002,0.258,0.836,0.416,0.902,0.419
						c0,0.548-0.003,1.948,0.001,2.478c0.01,1.328-0.413,1.36,1.178,1.36C9.505,32.728,9,32.589,9,31.289c0-0.504,0-1.689,0-2.208
						C10,29.118,10.598,29.147,10.937,29.178z M9.192,26.947c-1.228,0.011-1.924-1.124-1.954-1.875
						c-0.037-0.943,0.789-2.027,1.966-2.011c1.063,0.015,1.935,0.877,1.931,1.933C11.132,26.081,10.27,26.938,9.192,26.947z"/>
				</g>
			</g>
		</g>
		<g>
			<g>
				<g>
					<path fill="#3FA7F3" d="M20.043,34.979l0.357-1.854c0-2.43,1.447-3.949,2.548-4.698c0.225-0.895,0.735-2.574,1.109-4.075
						c-2.057,0.06-3.982,0.182-5.638,0.367c0,0,0.489-3.165,1.263-5.465c0.311-0.924,5.101-1.247,8.999-1.072
						c0.54-0.17,1.152-0.317,1.856-0.428c1.499-0.175,3.258-0.282,5.063-0.323c-0.612-0.594-1.558-1.01-3.139-1.224
						c-3.299-0.392-8.102-0.392-11.505,0.004c-3.243,0.511-3.76,1.697-4.171,3.237c-0.476,1.937-1.45,5.804-1.45,5.804
						s-1.923,0.791-1.923,3.271c0,1.869-0.017,3.736-0.002,5.605c0.002,0.306,0.991,0.492,1.07,0.496c0,0.65-0.004,2.311,0,2.938
						c0.012,1.573-0.096,1.612,1.79,1.612c1.933,0,1.728-0.164,1.728-1.705c0-0.598,0-2.003,0-2.619
						C19,34.898,19.592,34.938,20.043,34.979z M17.44,32.32c-1.456,0.014-2.281-1.334-2.317-2.225
						c-0.044-1.118,0.936-2.403,2.33-2.384c1.263,0.017,2.294,1.039,2.29,2.292C19.739,31.293,18.718,32.309,17.44,32.32z"/>
				</g>
			</g>
			<path fill="#3FA7F3" d="M29.049,40.239c0,0.693,0.001,2.274,0,2.944c0,1.734-0.565,1.918-2.738,1.918
				c-2.12,0-2.795-0.043-2.808-1.813c-0.005-0.707-0.001-2.573-0.001-3.304c-0.089-0.005-1.2-0.215-1.203-0.559
				c-0.016-2.101,0.003-4.201,0.003-6.302c0-2.789,2.162-3.678,2.162-3.678s1.096-4.348,1.63-6.525
				c0.463-1.732,1.044-3.065,4.69-3.64c3.826-0.445,9.228-0.445,12.937-0.004c3.272,0.442,4.172,1.63,4.643,3.482
				c0.559,2.201,1.649,6.609,1.649,6.609s2.185,1.185,2.185,3.826c0.022,2.064,0.007,4.129,0.006,6.193
				c0,0.396-1.232,0.595-1.281,0.606c0,0.059,0,0.127,0,0.195c0,0.629,0.001,1.256-0.001,1.885c0,2.844-0.555,3.036-2.629,3.036
				c-2.445,0-2.922-0.192-2.922-3.03c0.006-0.613,0.001-0.978,0.001-1.591c0-0.078,0-0.156,0-0.25
				C40.446,40.814,34.112,40.814,29.049,40.239z M27.979,28.849c5.252-0.589,13.264-0.641,18.591,0
				c-0.011-0.047-0.568-3.388-1.407-6.201c-0.354-1.526-15.2-1.695-15.788,0.055C28.505,25.291,27.979,28.849,27.979,28.849z
				 M49.971,34.799c0.002-1.424-1.166-2.578-2.591-2.585c-1.55-0.008-2.66,1.393-2.605,2.695c0.045,1.052,1,2.495,2.598,2.486
				C48.812,37.387,49.968,36.242,49.971,34.799z M29.418,34.791c0.005-1.408-1.156-2.558-2.575-2.577
				c-1.568-0.021-2.67,1.423-2.62,2.681c0.04,1.002,0.969,2.516,2.605,2.501C28.265,37.383,29.414,36.24,29.418,34.791z"/>
		</g>
	</g>
</g>
</svg>
