<?xml version="1.0" encoding="utf-8"?>
<!-- Generator: Adobe Illustrator 16.0.0, SVG Export Plug-In . SVG Version: 6.00 Build 0)  -->
<!DOCTYPE svg PUBLIC "-//W3C//DTD SVG 1.1//EN" "http://www.w3.org/Graphics/SVG/1.1/DTD/svg11.dtd">
<svg version="1.1" id="Layer_1" xmlns="http://www.w3.org/2000/svg" xmlns:xlink="http://www.w3.org/1999/xlink" x="0px" y="0px"
	 width="28px" height="28px" viewBox="0 0 28 28" enable-background="new 0 0 28 28" xml:space="preserve">
<g id="XMLID_3_" opacity="0.7">
	<g>
		<path fill="#FFFFFF" d="M12.513,12.413c-3.301-1.924-8.319-4.67-8.779-3.873c-0.463,0.803,4.463,3.862,7.745,5.783
			c0,0.024-0.005,0.049-0.005,0.071c0,1.328,1.075,2.4,2.4,2.4c1.326,0,2.4-1.072,2.4-2.4c0-0.019-0.005-0.033-0.005-0.049
			c2.481-1.619,5.736-3.935,5.26-4.648c-0.46-0.621-3.764,1.23-6.248,2.754c-0.397-0.288-0.879-0.462-1.407-0.462
			C13.367,11.989,12.899,12.146,12.513,12.413z M12.791,27.604c-6.866-0.5-12.015-6.021-12.545-12.502h2.941v-2.101h-2.96
			C0.713,6.394,5.987,0.91,12.791,0.396V3.4h2.101V0.398c6.863,0.525,12.061,6.063,12.545,12.603h-3.018v2.101h3.021
			c-0.53,6.502-5.712,11.993-12.548,12.5v-3.048h-2.101V27.604z"/>
	</g>
	<g>
	</g>
</g>
</svg>
