<?xml version="1.0" encoding="UTF-8" standalone="no"?>
<svg width="58px" height="58px" viewBox="0 0 58 58" version="1.1" xmlns="http://www.w3.org/2000/svg" xmlns:xlink="http://www.w3.org/1999/xlink" xmlns:sketch="http://www.bohemiancoding.com/sketch/ns">
    <!-- Generator: Sketch 3.3 (11970) - http://www.bohemiancoding.com/sketch -->
    <title>icon-breakdown</title>
    <desc>Created with Sketch.</desc>
    <defs></defs>
    <g id="Page-1" stroke="none" stroke-width="1" fill="none" fill-rule="evenodd" sketch:type="MSPage">
        <g id="icon-breakdown" sketch:type="MSArtboardGroup" fill="#41A5F5">
            <g id="Group" sketch:type="MSLayerGroup" transform="translate(28.500000, 31.000000) scale(-1, 1) translate(-28.500000, -31.000000) translate(7.000000, 17.000000)">
                <path d="M4.54342852,23.0093324 C3.60114233,23.0125349 3.05141631,23.0147792 3.05141631,23.0147792 C1.91845036,23.0188532 0.994832506,22.1074129 0.988434739,20.974889 L0.96021772,15.9799504 C0.954040425,14.886454 1.83988511,14 2.93124126,14 L17.5090567,14 C19.16072,14 20.8737716,12.7080078 21.334711,11.1161661 L23.9983722,1.91728541 C24.3049874,0.858397918 25.4435284,0 26.5436619,0 L28.9640647,0 C30.0631741,0 30.9571388,0.90249579 30.9607481,2.00279164 L30.9677734,4.14448681 L30.9677734,2 L33.6491604,2 C34.7526778,2 36.127575,2.7511872 36.7274231,3.68930864 L41.8876058,11.759483 C42.4841659,12.6924624 42.9677734,14.3451469 42.9677734,15.4461375 L42.9677734,20.9792779 C42.9677734,22.0823815 42.0658231,22.9766237 40.9592432,22.9766237 L38.9774889,22.9766237 L38.9774889,22.9766237 C38.7123214,19.9079967 36.1373696,17.5 33,17.5 C29.8453919,17.5 27.259399,19.9345313 27.0183497,23.0272657 C26.8577529,23.0256385 26.6897843,23.0239361 26.5141769,23.0221558 C24.0373046,22.9970455 20.5167765,22.9882215 16.9539536,22.9874899 C16.5778441,19.8953669 13.943656,17.5 10.75,17.5 C7.5488281,17.5 4.90976049,19.9066546 4.54342852,23.0093324 Z M34.2688193,5.43011475 C34.1203531,5.19256893 33.7842449,5 33.5046085,5 L30.9999975,5 L30.9677709,13 L37.5080236,13 C38.3320194,13 38.6404122,12.4246597 38.2077347,11.7323762 L34.2688193,5.43011475 Z" id="Path-304" sketch:type="MSShapeGroup"></path>
                <path d="M33.0521728,28 C35.3972132,28 37.3000031,26.0972102 37.3000031,23.75 C37.3000031,21.4027898 35.3972132,19.5 33.0500031,19.5 C30.7027929,19.5 28.8000031,21.4027898 28.8000031,23.75 C28.8000031,26.0972102 30.7027929,28 33.0521728,28 Z" id="Oval-13" sketch:type="MSShapeGroup"></path>
                <path d="M10.75,28 C13.0972102,28 15,26.0972102 15,23.75 C15,21.4027898 13.0972102,19.5 10.75,19.5 C8.40278981,19.5 6.5,21.4027898 6.5,23.75 C6.5,26.0972102 8.40278981,28 10.75,28 Z" id="Oval-13" sketch:type="MSShapeGroup"></path>
            </g>
            <g id="hook" sketch:type="MSLayerGroup" transform="translate(25.000000, 14.000000)">
                <path d="M1.71373052,11.2052041 C1.71372882,11.2052154 27.9040594,-0.858106378 24.5340069,3.77712031 C21.1639544,8.41234701 3.56337725,21.5122642 3.56337725,21.5122642 C3.56337725,21.5122642 1.71373221,11.2051929 1.71373052,11.2052041 Z" id="Path-307" sketch:type="MSShapeGroup" transform="translate(13.273576, 12.114533) rotate(-10.000000) translate(-13.273576, -12.114533) "></path>
                <path d="M18.7047263,5.23140574 C17.8709872,4.20716347 18.6462728,1.43328553 22.302502,1.4003042 C25.9587312,1.36732287 26.3378055,4.26020873 26.3378055,4.7985469 C26.3378055,5.19108515 26.2915295,5.53034526 26.1989762,5.81633741 C26.1064229,6.10232956 25.9830204,6.34906419 25.8287649,6.55654869 C25.6745094,6.7640332 25.4986608,6.94908417 25.3012137,7.11170716 C25.1037667,7.27433014 24.9063227,7.43414689 24.7088756,7.59116219 C24.4744073,7.77060825 24.2584528,7.94444401 24.0610058,8.11267468 C23.8635588,8.28090536 23.6907952,8.46876013 23.5427099,8.67624464 C23.3946247,8.88372914 23.089201,8.80391169 23.089201,10.9827318 L23.089201,16.0862951 L21.0747033,14.1002963 C21.0747033,13.9860654 21.0822924,10.2098413 21.085268,10.1037239 C21.0951469,9.75141503 21.1214248,9.44382035 21.1641022,9.18093415 C21.2196341,8.8388651 21.309101,8.53885823 21.4325054,8.28090452 C21.5559098,8.02295081 21.7070779,7.79584281 21.8860143,7.59957368 C22.0649506,7.40330456 22.27782,7.20984218 22.5246288,7.01918074 C22.7220758,6.86216545 22.9102647,6.71636771 23.0892011,6.58178317 C23.2681374,6.44719863 23.4285607,6.29859709 23.5704758,6.1359741 C23.7123908,5.97335111 23.8234531,5.79110395 23.903666,5.58922713 C23.9445527,5.48632488 23.9750187,5.37322454 23.9950642,5.24992516 C24.0143446,5.131332 24.0239847,5.00330351 24.0239847,4.86583884 C24.0239847,4.52937748 24.084802,3.22932905 22.0854154,3.17085791 C19.8489321,3.22932905 19.9701706,4.74246648 19.9701706,5.50511221 C19.9701706,5.50511221 19.5384654,6.25564802 18.7047263,5.23140574 Z" id="?" sketch:type="MSShapeGroup" transform="translate(22.368903, 8.743160) scale(-1, 1) rotate(-180.000000) translate(-22.368903, -8.743160) "></path>
            </g>
        </g>
    </g>
</svg>