<?xml version="1.0" encoding="UTF-8" standalone="no"?>
<svg width="58px" height="58px" viewBox="0 0 58 58" version="1.1" xmlns="http://www.w3.org/2000/svg" xmlns:xlink="http://www.w3.org/1999/xlink" xmlns:sketch="http://www.bohemiancoding.com/sketch/ns">
    <!-- Generator: Sketch 3.3 (11970) - http://www.bohemiancoding.com/sketch -->
    <title>icon-pet</title>
    <desc>Created with Sketch.</desc>
    <defs></defs>
    <g id="Page-1" stroke="none" stroke-width="1" fill="none" fill-rule="evenodd" sketch:type="MSPage">
        <g id="icon-pet" sketch:type="MSArtboardGroup" fill="#41A5F5">
            <path d="M40.5413062,39.7804091 C39.955813,43.8979803 37.2005507,46.1709048 33.1316187,43.031954 C31.7038024,41.9302169 31.0208909,39.9645581 27.5915734,39.6541355 C24.1622559,39.3426607 23.4527758,40.0003356 20.9789439,40.558044 C16.1936437,41.6366308 14.7540191,39.5446984 15.1240115,36.1384685 C15.7498497,30.3625042 22.5897883,24.4760506 29.5901226,25.6156697 C36.5894728,26.7552888 41.3600127,34.0328564 40.5413062,39.7804091" id="Fill-1" sketch:type="MSShapeGroup"></path>
            <path d="M28.1810527,19.0557456 C27.7507006,21.6110294 25.5914234,23.2848102 23.3579151,22.7924585 C21.1244069,22.3001068 19.6613979,19.8297482 20.0917499,17.2733894 C20.522102,14.7181055 22.845815,12.0671463 25.0802629,12.559498 C27.3137712,13.0518497 28.6114047,16.5004617 28.1810527,19.0557456" id="Fill-2" sketch:type="MSShapeGroup"></path>
            <path d="M20.0139689,23.1800222 C20.0910962,25.3054954 18.4944716,27.1042792 16.4466078,27.1988996 C14.3987439,27.292524 12.6753468,25.6461289 12.5982195,23.5216517 C12.5202056,21.3961786 13.8242782,18.6511907 15.8721421,18.5565703 C17.9200059,18.4619499 19.935955,21.0545491 20.0139689,23.1800222" id="Fill-3" sketch:type="MSShapeGroup"></path>
            <path d="M30.7524313,19.5458555 C30.5567677,22.1113838 32.2387217,24.3705803 34.5076663,24.5907562 C36.7766108,24.8109322 38.773696,22.9101863 38.9693595,20.3446581 C39.1640824,17.7791298 37.2977532,14.4615997 35.0288086,14.2414237 C32.759864,14.0201841 30.9471541,16.9803272 30.7524313,19.5458555" id="Fill-4" sketch:type="MSShapeGroup"></path>
            <path d="M38.2223115,25.9509598 C37.8262087,28.0647198 39.321049,30.1356127 41.5613191,30.5785736 C43.8015892,31.0205137 45.9393503,29.6661151 46.3354531,27.5533757 C46.7325512,25.4406362 45.3989386,22.5123998 43.1586685,22.0704596 C40.9183984,21.6285194 38.6194096,23.8382203 38.2223115,25.9509598" id="Fill-5" sketch:type="MSShapeGroup"></path>
        </g>
    </g>
</svg>