<?xml version="1.0" encoding="utf-8"?>
<!-- Generator: Adobe Illustrator 16.0.0, SVG Export Plug-In . SVG Version: 6.00 Build 0)  -->
<!DOCTYPE svg PUBLIC "-//W3C//DTD SVG 1.0//EN" "http://www.w3.org/TR/2001/REC-SVG-20010904/DTD/svg10.dtd">
<svg version="1.0" id="Layer_1" xmlns="http://www.w3.org/2000/svg" xmlns:xlink="http://www.w3.org/1999/xlink" x="0px" y="0px"
	 width="279.303px" height="154.788px" viewBox="0 0 279.303 154.788" enable-background="new 0 0 279.303 154.788"
	 xml:space="preserve">
<rect x="1801" y="1121" fill="#F0F0EB" width="414" height="570"/>
<g>
	<g>
		<path fill="#41A5F5" d="M1960.39,1054.063c-0.46,0-0.924-0.015-1.394-0.043c-3.51-0.213-11.979-1.135-14.803-5.071
			c-0.913-1.271-1.174-2.758-0.755-4.298c1.431-5.269,8.719-7.628,15.307-7.628c0.576,0,1.152,0.018,1.726,0.053
			c5.261,0.318,9.52,1.932,11.685,4.426c1.151,1.327,1.691,2.889,1.561,4.517C1973.346,1050.604,1967.617,1054.063,1960.39,1054.063
			z"/>
		<path fill="#FFFFFF" d="M1958.745,1038.523c0.546,0,1.091,0.017,1.635,0.05c6.926,0.42,12.169,3.246,11.841,7.325
			c-0.309,3.82-5.486,6.665-11.831,6.665c-0.43,0-0.863-0.014-1.303-0.04c-6.925-0.421-15.562-2.474-14.201-7.479
			C1946.041,1040.789,1952.344,1038.523,1958.745,1038.523 M1958.746,1035.523L1958.746,1035.523
			c-6.636,0-15.005,2.288-16.756,8.735c-0.54,1.989-0.2,3.914,0.984,5.564c3.084,4.3,11.305,5.413,15.931,5.694
			c0.494,0.03,0.993,0.046,1.484,0.046c8.147,0,14.381-3.964,14.821-9.424c0.164-2.04-0.501-3.983-1.924-5.621
			c-2.427-2.796-7.065-4.597-12.726-4.939C1959.962,1035.542,1959.351,1035.523,1958.746,1035.523L1958.746,1035.523z"/>
	</g>
</g>
<g>
	<defs>
		<rect id="SVGID_1_" x="1852.358" y="1018.884" width="304.283" height="125.011"/>
	</defs>
	<clipPath id="SVGID_2_">
		<use xlink:href="#SVGID_1_"  overflow="visible"/>
	</clipPath>
	<g id="_x32_2881PPWRGB75_42_" clip-path="url(#SVGID_2_)">
	</g>
</g>
<g>
	<path fill="#41A5F5" d="M2089.554,971.08c3.503-14.563-12.586-20.005-12.586-20.005s17.082-7.593,8.826-22.223
		c-7.584-13.439-27.103-10.736-27.103-10.736s0.416-11.399-20.969-14.901c-23.213-3.803-28.328,6.199-28.328,6.199
		s-3.141-6.94-13.662-8.994c-12.473-2.435-21.474,3.268-21.474,3.268s-4.452-6.476-16.703-5.626
		c-11.317,0.786-15.166,8.577-15.166,8.577s-11.083-3.657-22.473,1.5c-13.332,6.036-13.134,16.182-13.134,16.182
		s-10.332-3.216-18.79,4.038c-9.455,8.109-5.719,18.354-5.719,18.354s-14.858,5.344-14.858,20.034
		c0,15.298,20.209,19.746,20.209,19.746s-8.049,14.15,9.711,24.48c17.762,10.33,36.77,2.371,36.77,2.371s-2.975,11.706,21.36,14.513
		c20.48,2.362,25.46-8.184,25.46-8.184c0-0.062,11.324,6.819,27.221,3.049c13.524-3.208,15.497-14.075,15.497-14.075
		s10.948,6.979,30.722-1.019c17.57-7.104,14.511-20.689,14.511-20.689S2086.055,985.625,2089.554,971.08z"/>
</g>
<g>
	<g>
		<path fill="#FFFFFF" d="M1923.765,990.074c0,0.86,0.001,2.827,0,3.661c0,2.156-0.703,2.386-3.404,2.386
			c-2.639,0-3.477-0.055-3.493-2.256c-0.007-0.879-0.001-3.2-0.001-4.108c-0.109-0.005-1.492-0.267-1.495-0.695
			c-0.021-2.611,0.003-5.225,0.003-7.837c0-3.468,2.688-4.573,2.688-4.573s1.363-5.407,2.028-8.115
			c0.576-2.155,1.298-3.813,5.832-4.527c4.759-0.553,11.475-0.553,16.088-0.006c4.07,0.551,5.189,2.027,5.774,4.33
			c0.695,2.737,2.051,8.22,2.051,8.22s2.718,1.474,2.718,4.758c0.027,2.566,0.009,5.135,0.007,7.702
			c0,0.493-1.532,0.739-1.594,0.752c0,0.075,0,0.159,0,0.244c0,0.781,0.002,1.563-0.001,2.344c0,3.536-0.689,3.776-3.27,3.776
			c-3.041,0-3.634-0.24-3.634-3.768c0.008-0.764,0-1.217,0-1.979c0-0.099,0-0.194,0-0.312
			C1937.938,990.788,1930.062,990.788,1923.765,990.074z M1922.435,975.908c6.531-0.733,16.495-0.797,23.12,0
			c-0.013-0.061-0.707-4.213-1.749-7.712c-0.439-1.897-18.903-2.108-19.636,0.068
			C1923.088,971.482,1922.435,975.908,1922.435,975.908z M1949.783,983.307c0.002-1.771-1.449-3.205-3.222-3.214
			c-1.928-0.011-3.308,1.731-3.24,3.352c0.056,1.309,1.243,3.104,3.23,3.092C1948.343,986.525,1949.78,985.103,1949.783,983.307z
			 M1924.224,983.297c0.006-1.751-1.438-3.181-3.202-3.205c-1.952-0.026-3.321,1.77-3.258,3.334c0.049,1.245,1.203,3.128,3.24,3.109
			C1922.79,986.521,1924.218,985.101,1924.224,983.297z"/>
	</g>
</g>
<g>
	<g>
		<g>
			<g>
				<g>
					<path fill="#FFFFFF" d="M2034.873,978.465c0,0.731,0.001,2.399,0,3.107c0,1.83-0.597,2.025-2.89,2.025
						c-2.238,0-2.95-0.048-2.964-1.916c-0.006-0.745-0.001-2.716-0.001-3.486c-0.095-0.004-1.268-0.227-1.271-0.589
						c-0.018-2.218,0.004-4.436,0.004-6.651c0-2.944,2.282-3.883,2.282-3.883s1.157-4.589,1.72-6.887
						c0.488-1.83,1.103-3.236,4.951-3.842c4.038-0.47,9.739-0.47,13.655-0.005c3.453,0.467,4.403,1.721,4.899,3.675
						c0.591,2.323,1.741,6.978,1.741,6.978s2.307,1.249,2.307,4.037c0.023,2.179,0.007,4.358,0.006,6.537
						c0,0.419-1.301,0.628-1.354,0.64c0,0.064,0,0.136,0,0.207c0,0.663,0.002,1.327,0,1.989c0,3.002-0.585,3.205-2.775,3.205
						c-2.581,0-3.083-0.203-3.083-3.198c0.006-0.647,0.001-1.031,0-1.68c0-0.082,0-0.164,0-0.263
						C2046.904,979.071,2040.218,979.071,2034.873,978.465z M2033.744,966.44c5.544-0.62,14-0.676,19.623,0
						c-0.012-0.05-0.6-3.574-1.485-6.544c-0.373-1.61-16.044-1.789-16.665,0.059C2034.299,962.685,2033.744,966.44,2033.744,966.44z
						 M2056.957,972.721c0.002-1.503-1.231-2.721-2.734-2.728c-1.637-0.009-2.808,1.47-2.75,2.846
						c0.047,1.11,1.055,2.634,2.74,2.624C2055.733,975.453,2056.955,974.245,2056.957,972.721z M2035.263,972.712
						c0.005-1.485-1.22-2.698-2.719-2.72c-1.655-0.022-2.818,1.501-2.765,2.83c0.042,1.058,1.021,2.654,2.75,2.64
						C2034.046,975.449,2035.258,974.243,2035.263,972.712z"/>
				</g>
			</g>
		</g>
	</g>
	<g>
		<g>
			<defs>
				<polygon id="SVGID_3_" points="2043.706,959.034 2021.466,937.036 2065.595,937.036 				"/>
			</defs>
			<clipPath id="SVGID_4_">
				<use xlink:href="#SVGID_3_"  overflow="visible"/>
			</clipPath>
			<g clip-path="url(#SVGID_4_)">
				<path fill="#FFFFFF" d="M2043.465,969.284c-5.769,0-10.461-4.692-10.461-10.461s4.692-10.46,10.461-10.46
					c5.768,0,10.46,4.691,10.46,10.46S2049.232,969.284,2043.465,969.284z M2043.465,950.824c-4.411,0-8,3.589-8,7.999
					c0,4.411,3.589,8.001,8,8.001c4.41,0,8-3.59,8-8.001C2051.465,954.413,2047.875,950.824,2043.465,950.824z"/>
			</g>
		</g>
		<g>
			<defs>
				<polygon id="SVGID_5_" points="2043.706,959.034 2021.466,937.036 2065.595,937.036 				"/>
			</defs>
			<clipPath id="SVGID_6_">
				<use xlink:href="#SVGID_5_"  overflow="visible"/>
			</clipPath>
			<g clip-path="url(#SVGID_6_)">
				<path fill="#FFFFFF" d="M2043.465,974.173c-8.464,0-15.35-6.886-15.35-15.35c0-8.463,6.886-15.35,15.35-15.35
					c8.463,0,15.349,6.886,15.349,15.35S2051.928,974.173,2043.465,974.173z M2043.465,945.936c-7.107,0-12.89,5.781-12.89,12.888
					c0,7.108,5.782,12.889,12.89,12.889s12.889-5.78,12.889-12.889C2056.354,951.716,2050.571,945.936,2043.465,945.936z"/>
			</g>
		</g>
		<g>
			<defs>
				<polygon id="SVGID_7_" points="2043.706,959.034 2021.466,937.036 2065.595,937.036 				"/>
			</defs>
			<clipPath id="SVGID_8_">
				<use xlink:href="#SVGID_7_"  overflow="visible"/>
			</clipPath>
			<g clip-path="url(#SVGID_8_)">
				<path fill="#FFFFFF" d="M2043.465,978.977c-11.114,0-20.153-9.04-20.153-20.153c0-11.112,9.041-20.153,20.153-20.153
					s20.152,9.041,20.152,20.153C2063.617,969.937,2054.576,978.977,2043.465,978.977z M2043.465,941.131
					c-9.757,0-17.693,7.936-17.693,17.692c0,9.758,7.937,17.693,17.693,17.693c9.756,0,17.693-7.937,17.693-17.693
					C2061.158,949.067,2053.22,941.131,2043.465,941.131z"/>
			</g>
		</g>
	</g>
</g>
<g>
	<g>
		<g>
			<g>
				<g>
					<path fill="#FFFFFF" d="M1947.094,945.308l0.72-1.011c0-3.375,2.093-5.512,3.637-6.597c0.353-1.396,1.192-4.032,1.729-6.194
						c-2.76,0.074-5.314,0.238-7.531,0.486c0,0,0.651-4.113,1.656-7.103c0.421-1.252,7.182-1.653,12.352-1.358
						c0.736-0.224,1.565-0.415,2.499-0.562c1.765-0.204,3.795-0.336,5.889-0.408c-0.793-0.793-2.025-1.348-4.116-1.632
						c-4.287-0.508-10.527-0.508-14.951,0.005c-4.213,0.664-4.885,2.205-5.419,4.207c-0.618,2.516-1.885,7.54-1.885,7.54
						s-2.498,1.028-2.498,4.252c0,2.428-0.022,4.854-0.004,7.283c0.003,0.397,1.288,0.641,1.39,0.646
						c0,0.845-0.005,3.002,0.001,3.818c0.016,2.046-0.636,2.096,1.815,2.096c2.512,0.001,1.733-0.213,1.733-2.216
						c0-0.776,0-2.603,0-3.402C1945.65,945.215,1946.572,945.26,1947.094,945.308z M1944.405,941.87
						c-1.892,0.017-2.965-1.731-3.011-2.889c-0.057-1.453,1.216-3.124,3.029-3.099c1.638,0.022,2.981,1.351,2.976,2.978
						C1947.395,940.536,1946.066,941.856,1944.405,941.87z"/>
				</g>
			</g>
		</g>
		<g>
			<g>
				<g>
					<path fill="#FFFFFF" d="M1961.125,954.246l0.55-2.856c0-3.744,2.229-6.085,3.927-7.239c0.347-1.379,1.132-3.966,1.708-6.279
						c-3.169,0.093-6.135,0.281-8.687,0.566c0,0,0.753-4.877,1.945-8.421c0.479-1.424,7.86-1.922,13.866-1.652
						c0.832-0.262,1.775-0.488,2.86-0.659c2.31-0.27,5.02-0.435,7.801-0.498c-0.942-0.915-2.4-1.556-4.837-1.886
						c-5.083-0.604-12.483-0.604-17.727,0.006c-4.997,0.788-5.794,2.615-6.427,4.988c-0.733,2.984-2.234,8.942-2.234,8.942
						s-2.963,1.219-2.963,5.041c0,2.88-0.026,5.756-0.004,8.636c0.004,0.472,1.527,0.759,1.649,0.765c0,1.001-0.007,3.561,0,4.527
						c0.019,2.423-0.148,2.483,2.758,2.483c2.979,0,2.662-0.253,2.662-2.627c0-0.922,0-3.087,0-4.036
						C1959.518,954.121,1960.43,954.183,1961.125,954.246z M1957.114,950.149c-2.243,0.021-3.515-2.056-3.57-3.429
						c-0.067-1.723,1.442-3.703,3.591-3.674c1.945,0.026,3.534,1.602,3.528,3.532
						C1960.656,948.566,1959.083,950.132,1957.114,950.149z"/>
				</g>
			</g>
			<path fill="#FFFFFF" d="M1975.002,962.351c0,1.068,0.002,3.504,0,4.536c0,2.672-0.871,2.956-4.219,2.956
				c-3.267,0-4.307-0.066-4.327-2.794c-0.008-1.09-0.001-3.965-0.001-5.091c-0.138-0.008-1.85-0.331-1.854-0.861
				c-0.025-3.237,0.004-6.473,0.004-9.71c0-4.298,3.332-5.668,3.332-5.668s1.688-6.699,2.511-10.054
				c0.714-2.669,1.609-4.723,7.227-5.608c5.896-0.686,14.219-0.686,19.935-0.006c5.041,0.681,6.428,2.511,7.153,5.364
				c0.862,3.392,2.541,10.184,2.541,10.184s3.367,1.826,3.367,5.896c0.034,3.181,0.011,6.362,0.009,9.542
				c0,0.61-1.898,0.917-1.974,0.935c0,0.091,0,0.195,0,0.3c0,0.97,0.002,1.936-0.001,2.904c0,4.383-0.855,4.679-4.052,4.679
				c-3.767,0-4.502-0.296-4.502-4.669c0.009-0.944,0.002-1.507,0.002-2.451c0-0.12,0-0.241,0-0.386
				C1992.563,963.237,1982.803,963.237,1975.002,962.351z M1973.354,944.801c8.092-0.907,20.438-0.987,28.646,0
				c-0.018-0.072-0.875-5.221-2.168-9.555c-0.546-2.352-23.421-2.611-24.327,0.085
				C1974.164,939.318,1973.354,944.801,1973.354,944.801z M2007.239,953.969c0.003-2.194-1.797-3.973-3.992-3.983
				c-2.389-0.012-4.099,2.146-4.014,4.153c0.069,1.62,1.54,3.844,4.003,3.83C2005.453,957.956,2007.234,956.192,2007.239,953.969z
				 M1975.57,953.956c0.008-2.169-1.781-3.941-3.968-3.971c-2.416-0.032-4.114,2.193-4.037,4.132
				c0.062,1.543,1.493,3.876,4.015,3.854C1973.794,957.95,1975.564,956.189,1975.57,953.956z"/>
		</g>
	</g>
</g>
<g>
	<g>
		<path fill="#41A5F5" d="M1927.559,1013.181c4.101-9.195,20.044-11.561,34.306-8.449c14.261,3.111,23.276,8.469,23.553,16.897
			c0,0,0,12.371-30.748,11.688C1927.137,1032.704,1925.645,1020.123,1927.559,1013.181L1927.559,1013.181z"/>
	</g>
</g>
<rect x="1801" y="1121" fill="#F0F0EB" width="414" height="570"/>
<g>
	<g>
		<path fill="#41A5F5" d="M1960.39,1054.063c-0.46,0-0.924-0.015-1.394-0.043c-3.51-0.213-11.979-1.135-14.803-5.071
			c-0.913-1.271-1.174-2.758-0.755-4.298c1.431-5.269,8.719-7.628,15.307-7.628c0.576,0,1.152,0.018,1.726,0.053
			c5.261,0.318,9.52,1.932,11.685,4.426c1.151,1.327,1.691,2.889,1.561,4.517C1973.346,1050.604,1967.617,1054.063,1960.39,1054.063
			z"/>
		<path fill="#FFFFFF" d="M1958.745,1038.523c0.546,0,1.091,0.017,1.635,0.05c6.926,0.42,12.169,3.246,11.841,7.325
			c-0.309,3.82-5.486,6.665-11.831,6.665c-0.43,0-0.863-0.014-1.303-0.04c-6.925-0.421-15.562-2.474-14.201-7.479
			C1946.041,1040.789,1952.344,1038.523,1958.745,1038.523 M1958.746,1035.523L1958.746,1035.523
			c-6.636,0-15.005,2.288-16.756,8.735c-0.54,1.989-0.2,3.914,0.984,5.564c3.084,4.3,11.305,5.413,15.931,5.694
			c0.494,0.03,0.993,0.046,1.484,0.046c8.147,0,14.381-3.964,14.821-9.424c0.164-2.04-0.501-3.983-1.924-5.621
			c-2.427-2.796-7.065-4.597-12.726-4.939C1959.962,1035.542,1959.351,1035.523,1958.746,1035.523L1958.746,1035.523z"/>
	</g>
</g>
<g>
	<defs>
		<rect id="SVGID_9_" x="1852.358" y="1018.884" width="304.283" height="125.011"/>
	</defs>
	<clipPath id="SVGID_10_">
		<use xlink:href="#SVGID_9_"  overflow="visible"/>
	</clipPath>
	<g id="_x32_2881PPWRGB75_1_" clip-path="url(#SVGID_10_)">
		<image overflow="visible" width="378" height="383" xlink:href="65025379.png"  transform="matrix(1 0 0 1 1806 897)">
		</image>
	</g>
</g>
<g>
	<path fill="#41A5F5" d="M2089.554,971.08c3.503-14.563-12.586-20.005-12.586-20.005s17.082-7.593,8.826-22.223
		c-7.584-13.439-27.103-10.736-27.103-10.736s0.416-11.399-20.969-14.901c-23.213-3.803-28.328,6.199-28.328,6.199
		s-3.141-6.94-13.662-8.994c-12.473-2.435-21.474,3.268-21.474,3.268s-4.452-6.476-16.703-5.626
		c-11.317,0.786-15.166,8.577-15.166,8.577s-11.083-3.657-22.473,1.5c-13.332,6.036-13.134,16.182-13.134,16.182
		s-10.332-3.216-18.79,4.038c-9.455,8.109-5.719,18.354-5.719,18.354s-14.858,5.344-14.858,20.034
		c0,15.298,20.209,19.746,20.209,19.746s-8.049,14.15,9.711,24.48c17.762,10.33,36.77,2.371,36.77,2.371s-2.975,11.706,21.36,14.513
		c20.48,2.362,25.46-8.184,25.46-8.184c0-0.062,11.324,6.819,27.221,3.049c13.524-3.208,15.497-14.075,15.497-14.075
		s10.948,6.979,30.722-1.019c17.57-7.104,14.511-20.689,14.511-20.689S2086.055,985.625,2089.554,971.08z"/>
</g>
<g>
	<g>
		<path fill="#FFFFFF" d="M1923.765,990.074c0,0.86,0.001,2.827,0,3.661c0,2.156-0.703,2.386-3.404,2.386
			c-2.639,0-3.477-0.055-3.493-2.256c-0.007-0.879-0.001-3.2-0.001-4.108c-0.109-0.005-1.492-0.267-1.495-0.695
			c-0.021-2.611,0.003-5.225,0.003-7.837c0-3.468,2.688-4.573,2.688-4.573s1.363-5.407,2.028-8.115
			c0.576-2.155,1.298-3.813,5.832-4.527c4.759-0.553,11.475-0.553,16.088-0.006c4.07,0.551,5.189,2.027,5.774,4.33
			c0.695,2.737,2.051,8.22,2.051,8.22s2.718,1.474,2.718,4.758c0.027,2.566,0.009,5.135,0.007,7.702
			c0,0.493-1.532,0.739-1.594,0.752c0,0.075,0,0.159,0,0.244c0,0.781,0.002,1.563-0.001,2.344c0,3.536-0.689,3.776-3.27,3.776
			c-3.041,0-3.634-0.24-3.634-3.768c0.008-0.764,0-1.217,0-1.979c0-0.099,0-0.194,0-0.312
			C1937.938,990.788,1930.062,990.788,1923.765,990.074z M1922.435,975.908c6.531-0.733,16.495-0.797,23.12,0
			c-0.013-0.061-0.707-4.213-1.749-7.712c-0.439-1.897-18.903-2.108-19.636,0.068
			C1923.088,971.482,1922.435,975.908,1922.435,975.908z M1949.783,983.307c0.002-1.771-1.449-3.205-3.222-3.214
			c-1.928-0.011-3.308,1.731-3.24,3.352c0.056,1.309,1.243,3.104,3.23,3.092C1948.343,986.525,1949.78,985.103,1949.783,983.307z
			 M1924.224,983.297c0.006-1.751-1.438-3.181-3.202-3.205c-1.952-0.026-3.321,1.77-3.258,3.334c0.049,1.245,1.203,3.128,3.24,3.109
			C1922.79,986.521,1924.218,985.101,1924.224,983.297z"/>
	</g>
</g>
<g>
	<g>
		<g>
			<g>
				<g>
					<path fill="#FFFFFF" d="M2034.873,978.465c0,0.731,0.001,2.399,0,3.107c0,1.83-0.597,2.025-2.89,2.025
						c-2.238,0-2.95-0.048-2.964-1.916c-0.006-0.745-0.001-2.716-0.001-3.486c-0.095-0.004-1.268-0.227-1.271-0.589
						c-0.018-2.218,0.004-4.436,0.004-6.651c0-2.944,2.282-3.883,2.282-3.883s1.157-4.589,1.72-6.887
						c0.488-1.83,1.103-3.236,4.951-3.842c4.038-0.47,9.739-0.47,13.655-0.005c3.453,0.467,4.403,1.721,4.899,3.675
						c0.591,2.323,1.741,6.978,1.741,6.978s2.307,1.249,2.307,4.037c0.023,2.179,0.007,4.358,0.006,6.537
						c0,0.419-1.301,0.628-1.354,0.64c0,0.064,0,0.136,0,0.207c0,0.663,0.002,1.327,0,1.989c0,3.002-0.585,3.205-2.775,3.205
						c-2.581,0-3.083-0.203-3.083-3.198c0.006-0.647,0.001-1.031,0-1.68c0-0.082,0-0.164,0-0.263
						C2046.904,979.071,2040.218,979.071,2034.873,978.465z M2033.744,966.44c5.544-0.62,14-0.676,19.623,0
						c-0.012-0.05-0.6-3.574-1.485-6.544c-0.373-1.61-16.044-1.789-16.665,0.059C2034.299,962.685,2033.744,966.44,2033.744,966.44z
						 M2056.957,972.721c0.002-1.503-1.231-2.721-2.734-2.728c-1.637-0.009-2.808,1.47-2.75,2.846
						c0.047,1.11,1.055,2.634,2.74,2.624C2055.733,975.453,2056.955,974.245,2056.957,972.721z M2035.263,972.712
						c0.005-1.485-1.22-2.698-2.719-2.72c-1.655-0.022-2.818,1.501-2.765,2.83c0.042,1.058,1.021,2.654,2.75,2.64
						C2034.046,975.449,2035.258,974.243,2035.263,972.712z"/>
				</g>
			</g>
		</g>
	</g>
	<g>
		<g>
			<defs>
				<polygon id="SVGID_11_" points="2043.706,959.034 2021.466,937.036 2065.595,937.036 				"/>
			</defs>
			<clipPath id="SVGID_12_">
				<use xlink:href="#SVGID_11_"  overflow="visible"/>
			</clipPath>
			<g clip-path="url(#SVGID_12_)">
				<path fill="#FFFFFF" d="M2043.465,969.284c-5.769,0-10.461-4.692-10.461-10.461s4.692-10.46,10.461-10.46
					c5.768,0,10.46,4.691,10.46,10.46S2049.232,969.284,2043.465,969.284z M2043.465,950.824c-4.411,0-8,3.589-8,7.999
					c0,4.411,3.589,8.001,8,8.001c4.41,0,8-3.59,8-8.001C2051.465,954.413,2047.875,950.824,2043.465,950.824z"/>
			</g>
		</g>
		<g>
			<defs>
				<polygon id="SVGID_13_" points="2043.706,959.034 2021.466,937.036 2065.595,937.036 				"/>
			</defs>
			<clipPath id="SVGID_14_">
				<use xlink:href="#SVGID_13_"  overflow="visible"/>
			</clipPath>
			<g clip-path="url(#SVGID_14_)">
				<path fill="#FFFFFF" d="M2043.465,974.173c-8.464,0-15.35-6.886-15.35-15.35c0-8.463,6.886-15.35,15.35-15.35
					c8.463,0,15.349,6.886,15.349,15.35S2051.928,974.173,2043.465,974.173z M2043.465,945.936c-7.107,0-12.89,5.781-12.89,12.888
					c0,7.108,5.782,12.889,12.89,12.889s12.889-5.78,12.889-12.889C2056.354,951.716,2050.571,945.936,2043.465,945.936z"/>
			</g>
		</g>
		<g>
			<defs>
				<polygon id="SVGID_15_" points="2043.706,959.034 2021.466,937.036 2065.595,937.036 				"/>
			</defs>
			<clipPath id="SVGID_16_">
				<use xlink:href="#SVGID_15_"  overflow="visible"/>
			</clipPath>
			<g clip-path="url(#SVGID_16_)">
				<path fill="#FFFFFF" d="M2043.465,978.977c-11.114,0-20.153-9.04-20.153-20.153c0-11.112,9.041-20.153,20.153-20.153
					s20.152,9.041,20.152,20.153C2063.617,969.937,2054.576,978.977,2043.465,978.977z M2043.465,941.131
					c-9.757,0-17.693,7.936-17.693,17.692c0,9.758,7.937,17.693,17.693,17.693c9.756,0,17.693-7.937,17.693-17.693
					C2061.158,949.067,2053.22,941.131,2043.465,941.131z"/>
			</g>
		</g>
	</g>
</g>
<g>
	<g>
		<g>
			<g>
				<g>
					<path fill="#FFFFFF" d="M1947.094,945.308l0.72-1.011c0-3.375,2.093-5.512,3.637-6.597c0.353-1.396,1.192-4.032,1.729-6.194
						c-2.76,0.074-5.314,0.238-7.531,0.486c0,0,0.651-4.113,1.656-7.103c0.421-1.252,7.182-1.653,12.352-1.358
						c0.736-0.224,1.565-0.415,2.499-0.562c1.765-0.204,3.795-0.336,5.889-0.408c-0.793-0.793-2.025-1.348-4.116-1.632
						c-4.287-0.508-10.527-0.508-14.951,0.005c-4.213,0.664-4.885,2.205-5.419,4.207c-0.618,2.516-1.885,7.54-1.885,7.54
						s-2.498,1.028-2.498,4.252c0,2.428-0.022,4.854-0.004,7.283c0.003,0.397,1.288,0.641,1.39,0.646
						c0,0.845-0.005,3.002,0.001,3.818c0.016,2.046-0.636,2.096,1.815,2.096c2.512,0.001,1.733-0.213,1.733-2.216
						c0-0.776,0-2.603,0-3.402C1945.65,945.215,1946.572,945.26,1947.094,945.308z M1944.405,941.87
						c-1.892,0.017-2.965-1.731-3.011-2.889c-0.057-1.453,1.216-3.124,3.029-3.099c1.638,0.022,2.981,1.351,2.976,2.978
						C1947.395,940.536,1946.066,941.856,1944.405,941.87z"/>
				</g>
			</g>
		</g>
		<g>
			<g>
				<g>
					<path fill="#FFFFFF" d="M1961.125,954.246l0.55-2.856c0-3.744,2.229-6.085,3.927-7.239c0.347-1.379,1.132-3.966,1.708-6.279
						c-3.169,0.093-6.135,0.281-8.687,0.566c0,0,0.753-4.877,1.945-8.421c0.479-1.424,7.86-1.922,13.866-1.652
						c0.832-0.262,1.775-0.488,2.86-0.659c2.31-0.27,5.02-0.435,7.801-0.498c-0.942-0.915-2.4-1.556-4.837-1.886
						c-5.083-0.604-12.483-0.604-17.727,0.006c-4.997,0.788-5.794,2.615-6.427,4.988c-0.733,2.984-2.234,8.942-2.234,8.942
						s-2.963,1.219-2.963,5.041c0,2.88-0.026,5.756-0.004,8.636c0.004,0.472,1.527,0.759,1.649,0.765c0,1.001-0.007,3.561,0,4.527
						c0.019,2.423-0.148,2.483,2.758,2.483c2.979,0,2.662-0.253,2.662-2.627c0-0.922,0-3.087,0-4.036
						C1959.518,954.121,1960.43,954.183,1961.125,954.246z M1957.114,950.149c-2.243,0.021-3.515-2.056-3.57-3.429
						c-0.067-1.723,1.442-3.703,3.591-3.674c1.945,0.026,3.534,1.602,3.528,3.532
						C1960.656,948.566,1959.083,950.132,1957.114,950.149z"/>
				</g>
			</g>
			<path fill="#FFFFFF" d="M1975.002,962.351c0,1.068,0.002,3.504,0,4.536c0,2.672-0.871,2.956-4.219,2.956
				c-3.267,0-4.307-0.066-4.327-2.794c-0.008-1.09-0.001-3.965-0.001-5.091c-0.138-0.008-1.85-0.331-1.854-0.861
				c-0.025-3.237,0.004-6.473,0.004-9.71c0-4.298,3.332-5.668,3.332-5.668s1.688-6.699,2.511-10.054
				c0.714-2.669,1.609-4.723,7.227-5.608c5.896-0.686,14.219-0.686,19.935-0.006c5.041,0.681,6.428,2.511,7.153,5.364
				c0.862,3.392,2.541,10.184,2.541,10.184s3.367,1.826,3.367,5.896c0.034,3.181,0.011,6.362,0.009,9.542
				c0,0.61-1.898,0.917-1.974,0.935c0,0.091,0,0.195,0,0.3c0,0.97,0.002,1.936-0.001,2.904c0,4.383-0.855,4.679-4.052,4.679
				c-3.767,0-4.502-0.296-4.502-4.669c0.009-0.944,0.002-1.507,0.002-2.451c0-0.12,0-0.241,0-0.386
				C1992.563,963.237,1982.803,963.237,1975.002,962.351z M1973.354,944.801c8.092-0.907,20.438-0.987,28.646,0
				c-0.018-0.072-0.875-5.221-2.168-9.555c-0.546-2.352-23.421-2.611-24.327,0.085
				C1974.164,939.318,1973.354,944.801,1973.354,944.801z M2007.239,953.969c0.003-2.194-1.797-3.973-3.992-3.983
				c-2.389-0.012-4.099,2.146-4.014,4.153c0.069,1.62,1.54,3.844,4.003,3.83C2005.453,957.956,2007.234,956.192,2007.239,953.969z
				 M1975.57,953.956c0.008-2.169-1.781-3.941-3.968-3.971c-2.416-0.032-4.114,2.193-4.037,4.132
				c0.062,1.543,1.493,3.876,4.015,3.854C1973.794,957.95,1975.564,956.189,1975.57,953.956z"/>
		</g>
	</g>
</g>
<g>
	<g>
		<path fill="#41A5F5" d="M1927.559,1013.181c4.101-9.195,20.044-11.561,34.306-8.449c14.261,3.111,23.276,8.469,23.553,16.897
			c0,0,0,12.371-30.748,11.688C1927.137,1032.704,1925.645,1020.123,1927.559,1013.181L1927.559,1013.181z"/>
	</g>
</g>
<g>
	<g>
		<path fill="#41A5F5" d="M95.031,156.078c-0.46,0-0.924-0.014-1.394-0.042c-3.51-0.213-11.979-1.134-14.803-5.071
			c-0.912-1.271-1.173-2.758-0.754-4.298c1.43-5.269,8.719-7.627,15.307-7.627c0.575,0,1.151,0.017,1.725,0.052
			c5.26,0.319,9.519,1.932,11.684,4.425c1.152,1.327,1.692,2.889,1.561,4.517C107.987,152.62,102.258,156.078,95.031,156.078z"/>
		<path fill="#FFFFFF" d="M93.387,140.539c0.545,0,1.091,0.016,1.634,0.049c6.926,0.42,12.169,3.246,11.841,7.325
			c-0.308,3.82-5.487,6.665-11.831,6.665c-0.43,0-0.864-0.013-1.303-0.04c-6.925-0.421-15.562-2.474-14.201-7.479
			C80.683,142.804,86.986,140.539,93.387,140.539 M93.388,137.539L93.388,137.539c-6.635,0-15.005,2.288-16.755,8.735
			c-0.541,1.99-0.201,3.914,0.983,5.565c3.085,4.299,11.305,5.413,15.931,5.694c0.494,0.03,0.994,0.045,1.485,0.045
			c8.147,0,14.381-3.963,14.821-9.423c0.164-2.04-0.501-3.983-1.923-5.622c-2.428-2.796-7.066-4.596-12.726-4.939
			C94.603,137.558,93.992,137.539,93.388,137.539L93.388,137.539z"/>
	</g>
</g>
<g>
	<path fill="#41A5F5" d="M224.195,73.095c3.503-14.563-12.586-20.005-12.586-20.005s17.082-7.593,8.826-22.223
		c-7.584-13.439-27.103-10.736-27.103-10.736s0.416-11.399-20.969-14.901c-23.213-3.803-28.328,6.199-28.328,6.199
		s-3.141-6.94-13.662-8.994C117.901,0,108.9,5.703,108.9,5.703s-4.452-6.476-16.703-5.626C80.88,0.863,77.031,8.654,77.031,8.654
		s-11.083-3.657-22.473,1.5C41.227,16.19,41.425,26.335,41.425,26.335s-10.332-3.216-18.79,4.038
		c-9.455,8.109-5.719,18.354-5.719,18.354S2.058,54.071,2.058,68.761c0,15.298,20.209,19.746,20.209,19.746
		s-8.049,14.15,9.711,24.48c17.762,10.33,36.77,2.371,36.77,2.371s-2.975,11.706,21.36,14.513c20.48,2.362,25.46-8.184,25.46-8.184
		c0-0.062,11.324,6.819,27.221,3.049c13.524-3.208,15.497-14.075,15.497-14.075s10.948,6.979,30.722-1.019
		c17.57-7.104,14.511-20.689,14.511-20.689S220.696,87.64,224.195,73.095z"/>
</g>
<g>
	<g>
		<path fill="#FFFFFF" d="M58.406,92.089c0,0.86,0.001,2.827,0,3.661c0,2.156-0.703,2.386-3.404,2.386
			c-2.639,0-3.477-0.055-3.493-2.256c-0.007-0.879-0.001-3.2-0.001-4.108c-0.109-0.005-1.492-0.267-1.495-0.695
			c-0.021-2.611,0.003-5.225,0.003-7.837c0-3.468,2.688-4.573,2.688-4.573s1.363-5.407,2.028-8.115
			c0.576-2.155,1.298-3.813,5.832-4.527c4.759-0.553,11.475-0.553,16.088-0.006c4.07,0.551,5.189,2.027,5.774,4.33
			c0.695,2.737,2.051,8.22,2.051,8.22s2.718,1.474,2.718,4.758c0.027,2.566,0.009,5.135,0.007,7.702
			c0,0.493-1.532,0.739-1.594,0.752c0,0.075,0,0.159,0,0.244c0,0.781,0.002,1.563-0.001,2.344c0,3.536-0.689,3.776-3.27,3.776
			c-3.041,0-3.634-0.24-3.634-3.768c0.008-0.764,0-1.217,0-1.979c0-0.099,0-0.194,0-0.312C72.58,92.803,64.703,92.803,58.406,92.089
			z M57.076,77.923c6.531-0.733,16.495-0.797,23.12,0c-0.013-0.061-0.707-4.213-1.749-7.712c-0.439-1.897-18.903-2.108-19.636,0.068
			C57.729,73.498,57.076,77.923,57.076,77.923z M84.425,85.322c0.002-1.771-1.449-3.205-3.222-3.214
			c-1.928-0.011-3.308,1.731-3.24,3.352c0.056,1.309,1.243,3.104,3.23,3.092C82.984,88.541,84.422,87.118,84.425,85.322z
			 M58.865,85.312c0.006-1.751-1.438-3.181-3.202-3.205c-1.952-0.026-3.321,1.77-3.258,3.334c0.049,1.245,1.203,3.128,3.24,3.109
			C57.432,88.537,58.859,87.116,58.865,85.312z"/>
	</g>
</g>
<g>
	<g>
		<g>
			<g>
				<g>
					<path fill="#FFFFFF" d="M169.515,80.48c0,0.731,0.001,2.399,0,3.107c0,1.83-0.597,2.025-2.89,2.025
						c-2.238,0-2.95-0.048-2.964-1.916c-0.006-0.745-0.001-2.716-0.001-3.486c-0.095-0.004-1.268-0.227-1.271-0.589
						c-0.018-2.218,0.004-4.436,0.004-6.651c0-2.944,2.282-3.883,2.282-3.883s1.157-4.589,1.72-6.887
						c0.488-1.83,1.103-3.236,4.951-3.842c4.038-0.47,9.739-0.47,13.655-0.005c3.453,0.467,4.403,1.721,4.899,3.675
						c0.591,2.323,1.741,6.978,1.741,6.978s2.307,1.249,2.307,4.037c0.023,2.179,0.007,4.358,0.006,6.537
						c0,0.419-1.301,0.628-1.354,0.64c0,0.064,0,0.136,0,0.207c0,0.663,0.002,1.327,0,1.989c0,3.002-0.585,3.205-2.775,3.205
						c-2.581,0-3.083-0.203-3.083-3.198c0.006-0.647,0.001-1.031,0-1.68c0-0.082,0-0.164,0-0.263
						C181.546,81.086,174.859,81.086,169.515,80.48z M168.386,68.456c5.544-0.62,14-0.676,19.623,0
						c-0.012-0.05-0.6-3.574-1.485-6.544c-0.373-1.61-16.044-1.789-16.665,0.059C168.94,64.7,168.386,68.456,168.386,68.456z
						 M191.599,74.736c0.002-1.503-1.231-2.721-2.734-2.728c-1.637-0.009-2.808,1.47-2.75,2.846c0.047,1.11,1.055,2.634,2.74,2.624
						C190.375,77.468,191.597,76.26,191.599,74.736z M169.904,74.727c0.005-1.485-1.22-2.698-2.719-2.72
						c-1.655-0.022-2.818,1.501-2.765,2.83c0.042,1.058,1.021,2.654,2.75,2.64C168.688,77.464,169.899,76.258,169.904,74.727z"/>
				</g>
			</g>
		</g>
	</g>
	<g>
		<g>
			<defs>
				<polygon id="SVGID_17_" points="178.348,61.049 156.107,39.051 200.236,39.051 				"/>
			</defs>
			<clipPath id="SVGID_18_">
				<use xlink:href="#SVGID_17_"  overflow="visible"/>
			</clipPath>
			<g clip-path="url(#SVGID_18_)">
				<path fill="#FFFFFF" d="M178.106,71.299c-5.769,0-10.461-4.692-10.461-10.461s4.692-10.46,10.461-10.46
					c5.768,0,10.46,4.691,10.46,10.46S183.874,71.299,178.106,71.299z M178.106,52.839c-4.411,0-8,3.589-8,7.999
					c0,4.411,3.589,8.001,8,8.001c4.41,0,8-3.59,8-8.001C186.106,56.428,182.517,52.839,178.106,52.839z"/>
			</g>
		</g>
		<g>
			<defs>
				<polygon id="SVGID_19_" points="178.348,61.049 156.107,39.051 200.236,39.051 				"/>
			</defs>
			<clipPath id="SVGID_20_">
				<use xlink:href="#SVGID_19_"  overflow="visible"/>
			</clipPath>
			<g clip-path="url(#SVGID_20_)">
				<path fill="#FFFFFF" d="M178.106,76.188c-8.464,0-15.35-6.886-15.35-15.35c0-8.463,6.886-15.35,15.35-15.35
					c8.463,0,15.349,6.886,15.349,15.35S186.569,76.188,178.106,76.188z M178.106,47.951c-7.107,0-12.89,5.781-12.89,12.888
					c0,7.108,5.782,12.889,12.89,12.889s12.889-5.78,12.889-12.889C190.995,53.731,185.213,47.951,178.106,47.951z"/>
			</g>
		</g>
		<g>
			<defs>
				<polygon id="SVGID_21_" points="178.348,61.049 156.107,39.051 200.236,39.051 				"/>
			</defs>
			<clipPath id="SVGID_22_">
				<use xlink:href="#SVGID_21_"  overflow="visible"/>
			</clipPath>
			<g clip-path="url(#SVGID_22_)">
				<path fill="#FFFFFF" d="M178.106,80.992c-11.114,0-20.153-9.04-20.153-20.153c0-11.112,9.041-20.153,20.153-20.153
					s20.152,9.041,20.152,20.153C198.259,71.952,189.218,80.992,178.106,80.992z M178.106,43.146
					c-9.757,0-17.693,7.936-17.693,17.692c0,9.758,7.937,17.693,17.693,17.693c9.756,0,17.693-7.937,17.693-17.693
					C195.8,51.083,187.861,43.146,178.106,43.146z"/>
			</g>
		</g>
	</g>
</g>
<g>
	<g>
		<g>
			<g>
				<g>
					<path fill="#FFFFFF" d="M81.735,47.323l0.72-1.011c0-3.375,2.093-5.512,3.637-6.597c0.353-1.396,1.192-4.032,1.729-6.194
						c-2.76,0.074-5.314,0.238-7.531,0.486c0,0,0.651-4.113,1.656-7.103c0.421-1.252,7.182-1.653,12.352-1.358
						c0.736-0.224,1.565-0.415,2.499-0.562c1.765-0.204,3.795-0.336,5.889-0.408c-0.793-0.793-2.025-1.348-4.116-1.632
						c-4.287-0.508-10.527-0.508-14.951,0.005c-4.213,0.664-4.885,2.205-5.419,4.207c-0.618,2.516-1.885,7.54-1.885,7.54
						s-2.498,1.028-2.498,4.252c0,2.428-0.022,4.854-0.004,7.283c0.003,0.397,1.288,0.641,1.39,0.646
						c0,0.845-0.005,3.002,0.001,3.818c0.016,2.046-0.636,2.096,1.815,2.096c2.512,0.001,1.733-0.213,1.733-2.216
						c0-0.776,0-2.603,0-3.402C80.292,47.23,81.214,47.275,81.735,47.323z M79.047,43.885c-1.892,0.017-2.965-1.731-3.011-2.889
						c-0.057-1.453,1.216-3.124,3.029-3.099c1.638,0.022,2.981,1.351,2.976,2.978C82.036,42.551,80.708,43.872,79.047,43.885z"/>
				</g>
			</g>
		</g>
		<g>
			<g>
				<g>
					<path fill="#FFFFFF" d="M95.767,56.261l0.55-2.856c0-3.744,2.229-6.085,3.927-7.239c0.347-1.379,1.132-3.966,1.708-6.279
						c-3.169,0.093-6.135,0.281-8.687,0.566c0,0,0.753-4.877,1.945-8.421c0.479-1.424,7.86-1.922,13.866-1.652
						c0.832-0.262,1.775-0.488,2.86-0.659c2.31-0.27,5.02-0.435,7.801-0.498c-0.942-0.915-2.4-1.556-4.837-1.886
						c-5.083-0.604-12.483-0.604-17.727,0.006c-4.997,0.788-5.794,2.615-6.427,4.988c-0.733,2.984-2.234,8.942-2.234,8.942
						s-2.963,1.219-2.963,5.041c0,2.88-0.026,5.756-0.004,8.636c0.004,0.472,1.527,0.759,1.649,0.765c0,1.001-0.007,3.561,0,4.527
						c0.019,2.423-0.148,2.483,2.758,2.483c2.979,0,2.662-0.253,2.662-2.627c0-0.922,0-3.087,0-4.036
						C94.159,56.136,95.071,56.198,95.767,56.261z M91.756,52.165c-2.243,0.021-3.515-2.056-3.57-3.429
						c-0.067-1.723,1.442-3.703,3.591-3.674c1.945,0.026,3.534,1.602,3.528,3.532C95.298,50.582,93.725,52.147,91.756,52.165z"/>
				</g>
			</g>
			<path fill="#FFFFFF" d="M109.644,64.366c0,1.068,0.002,3.504,0,4.536c0,2.672-0.871,2.956-4.219,2.956
				c-3.267,0-4.307-0.066-4.327-2.794c-0.008-1.09-0.001-3.965-0.001-5.091c-0.138-0.008-1.85-0.331-1.854-0.861
				c-0.025-3.237,0.004-6.473,0.004-9.71c0-4.298,3.332-5.668,3.332-5.668s1.688-6.699,2.511-10.054
				c0.714-2.669,1.609-4.723,7.227-5.608c5.896-0.686,14.219-0.686,19.935-0.006c5.041,0.681,6.428,2.511,7.153,5.364
				c0.862,3.392,2.541,10.184,2.541,10.184s3.367,1.826,3.367,5.896c0.034,3.181,0.011,6.362,0.009,9.542
				c0,0.61-1.898,0.917-1.974,0.935c0,0.091,0,0.195,0,0.3c0,0.97,0.002,1.936-0.001,2.904c0,4.383-0.855,4.679-4.052,4.679
				c-3.767,0-4.502-0.296-4.502-4.669c0.009-0.944,0.002-1.507,0.002-2.451c0-0.12,0-0.241,0-0.386
				C127.204,65.252,117.444,65.252,109.644,64.366z M107.995,46.816c8.092-0.907,20.438-0.987,28.646,0
				c-0.018-0.072-0.875-5.221-2.168-9.555c-0.546-2.352-23.421-2.611-24.327,0.085C108.806,41.333,107.995,46.816,107.995,46.816z
				 M141.881,55.984c0.003-2.194-1.797-3.973-3.992-3.983c-2.389-0.012-4.099,2.146-4.014,4.153c0.069,1.62,1.54,3.844,4.003,3.83
				C140.095,59.971,141.876,58.208,141.881,55.984z M110.212,55.971c0.008-2.169-1.781-3.941-3.968-3.971
				c-2.416-0.032-4.114,2.193-4.037,4.132c0.062,1.543,1.493,3.876,4.015,3.854C108.436,59.965,110.206,58.205,110.212,55.971z"/>
		</g>
	</g>
</g>
<g>
	<g>
		<path fill="#41A5F5" d="M62.2,115.196c4.101-9.195,20.044-11.561,34.306-8.449c14.261,3.111,23.276,8.469,23.553,16.897
			c0,0,0,12.371-30.748,11.688C61.778,134.719,60.286,122.138,62.2,115.196L62.2,115.196z"/>
	</g>
</g>
</svg>
