<?xml version="1.0" encoding="UTF-8" standalone="no"?>
<svg width="58px" height="58px" viewBox="0 0 58 58" version="1.1" xmlns="http://www.w3.org/2000/svg" xmlns:xlink="http://www.w3.org/1999/xlink" xmlns:sketch="http://www.bohemiancoding.com/sketch/ns">
    <!-- Generator: Sketch 3.2.2 (9983) - http://www.bohemiancoding.com/sketch -->
    <title>Icon-Questions-On</title>
    <desc>Created with Sketch.</desc>
    <defs></defs>
    <g id="Page-1" stroke="none" stroke-width="1" fill="none" fill-rule="evenodd" sketch:type="MSPage">
        <g id="Icon-Questions-On" sketch:type="MSArtboardGroup" fill="#A5CDDB">
            <path d="M24.7146416,28.5279103 C25.1899374,27.7904216 25.6322346,27.122591 26.1654849,26.5956784 C26.6980644,26.0681088 27.2393637,25.5911281 27.7927367,25.1607942 C28.3051936,24.7711943 28.8082599,24.3993333 29.3019356,24.0478392 C29.7956113,23.6963451 31.7832031,22.5544824 32.0795593,20.9937264 C32.3193738,19.7307467 32.0795593,17.3280815 27.792737,17.3280815 C23.5059147,17.3280815 20.8276159,19.6945688 19.8013607,20.7096311 L14.9025879,13.9188121 C15.8010254,12.7154916 17.8575125,10.6851518 20.2454005,9.6116167 C22.6326179,8.53808157 25.3659448,8 28.4440399,8 C30.2201993,8 31.9165389,8.21549543 33.5350709,8.64451528 C35.1522614,9.07484913 36.5923726,9.75747031 37.8560751,10.6943498 C39.1184362,11.6318863 40.1252396,12.8322221 40.8751437,14.2960142 C41.6243772,15.7604633 42,17.5087356 42,19.5382032 C42,20.6708682 41.871215,21.6760755 41.6149866,22.5544822 C41.3580874,23.4335458 41.0126485,24.2048618 40.5793407,24.867773 C40.1446915,25.5326552 39.6617478,26.1272387 39.1291683,26.6541513 C38.595918,27.1817208 38.0539479,27.6600156 37.5012457,28.0896924 C36.908969,28.5968951 36.3073016,29.0758468 35.695573,29.5239196 C35.0831736,29.9733064 34.5412035,30.4424032 34.0676504,30.9298959 C33.5940974,31.4187026 33.2097547,31.9751801 32.913281,32.5993284 C32.617478,33.2241337 32.4692411,33.9461748 32.4692411,34.7661086 L32.4692411,35 L23.2946531,35 L23.2946531,34.7076358 C23.2946531,33.3410794 23.4965601,30.4179363 24.7146416,28.5279103 L24.7146416,28.5279103 Z M23,38 L33,38 L33,48 L23,48 L23,38 L23,38 Z" id="Imported-Layers" sketch:type="MSShapeGroup"></path>
        </g>
    </g>
</svg>