<?xml version="1.0" encoding="UTF-8" standalone="no"?>
<svg width="41px" height="41px" viewBox="0 0 41 41" version="1.1" xmlns="http://www.w3.org/2000/svg" xmlns:xlink="http://www.w3.org/1999/xlink" xmlns:sketch="http://www.bohemiancoding.com/sketch/ns">
    <!-- Generator: Sketch 3.2.2 (9983) - http://www.bohemiancoding.com/sketch -->
    <title>Home Emergency@1x</title>
    <desc>Created with Sketch.</desc>
    <defs></defs>
    <g id="Page-1" stroke="none" stroke-width="1" fill="none" fill-rule="evenodd" sketch:type="MSPage">
        <g id="Home-Emergency" sketch:type="MSLayerGroup" transform="translate(-9.000000, -8.000000)">
            <rect id="Rectangle-5" fill-opacity="0" fill="#FFFFFF" sketch:type="MSShapeGroup" x="0" y="0" width="58" height="58"></rect>
            <g transform="translate(9.000000, 8.000000)" id="Spanner" fill="#40A4F4" sketch:type="MSShapeGroup">
                <g>
                    <path d="M11.7691867,0.541746667 C9.9958,0.59368 8.32081333,0.990013333 6.72564,1.72746667 C6.4206,1.86850667 6.12594667,2.05710667 5.87010667,2.27468 C5.43332,2.64696 5.4612,3.15864 5.90837333,3.51998667 C6.03301333,3.62112 6.17952,3.69656 6.31946667,3.77746667 C8.5362,5.05830667 10.7496533,6.34406667 12.9745867,7.61014667 C13.2686933,7.77797333 13.3731067,7.95837333 13.36928,8.29457333 C13.3506933,9.88373333 13.35124,11.47344 13.3687333,13.0626 C13.3720133,13.3824 13.2736133,13.5535067 12.9915333,13.7060267 C11.5948,14.4620667 10.20736,15.2345067 8.82593333,16.0173333 C8.56353333,16.1660267 8.37438667,16.1452533 8.12237333,15.9910933 C6.36757333,14.9152533 4.60621333,13.8508933 2.83829333,12.7963733 C2.43649333,12.5563867 2.01009333,12.35248 1.58150667,12.16224 C1.01352,11.90968 0.50676,12.218 0.520426667,12.8412 C0.531906667,13.3550667 0.60844,13.8754933 0.71996,14.3784267 C1.68646667,18.7326267 5.46338667,22.2919733 9.86241333,23.0146667 C16.0517733,24.0314667 21.84972,19.9281867 22.8719867,13.6994667 C23.9500133,7.13126667 19.4132267,2.08116 14.4095867,0.908013333 C13.54804,0.706293333 12.6504133,0.659826667 11.7691867,0.541746667" id="Fill-20"></path>
                    <path d="M31.93736,34.50396 C31.9674267,35.7662133 33.0766133,36.8338533 34.3416,36.8185467 C35.6377467,36.8026933 36.7321733,35.67 36.6960933,34.3815067 C36.66056,33.11652 35.5475467,32.0822267 34.2557733,32.1150267 C32.96892,32.14728 31.9067467,33.24116 31.93736,34.50396 L31.93736,34.50396 Z M24.6847333,17.5687733 C30.2601867,23.1431333 34.1163733,26.9277067 39.68636,32.5075333 C41.13284,33.9567467 41.1454133,35.73724 39.7350133,37.2121467 C38.89424,38.0917333 38.03816,38.95656 37.1809867,39.8197467 C35.8673467,41.14268 33.83976,41.1454133 32.5255733,39.8317733 C26.9506667,34.2568667 23.0983067,30.4684667 17.5179333,24.8990267 C17.3960267,24.7776667 17.2041467,24.72628 17.04452,24.6420933 C20.53116,23.0556667 22.8790933,20.6415867 24.3780533,17.2883333 C24.4977733,17.39712 24.59508,17.47912 24.6847333,17.5687733 L24.6847333,17.5687733 Z" id="Fill-21"></path>
                </g>
            </g>
        </g>
    </g>
</svg>