<?xml version="1.0" encoding="UTF-8" standalone="no"?>
<svg width="58px" height="58px" viewBox="0 0 58 58" version="1.1" xmlns="http://www.w3.org/2000/svg" xmlns:xlink="http://www.w3.org/1999/xlink" xmlns:sketch="http://www.bohemiancoding.com/sketch/ns">
    <!-- Generator: Sketch 3.2.2 (9983) - http://www.bohemiancoding.com/sketch -->
    <title>Icon-Change-Details</title>
    <desc>Created with Sketch.</desc>
    <defs></defs>
    <g id="Page-1" stroke="none" stroke-width="1" fill="none" fill-rule="evenodd" sketch:type="MSPage">
        <g id="Icon-Change-Details" sketch:type="MSArtboardGroup" fill="#0078FF">
            <path d="M44.9457774,9.7887604 C45.3071876,9.42027086 45.6835751,9.03581787 46.0547531,8.65668602 C46.4396061,8.26292102 46.796458,7.83323827 47.1637289,7.5239465 C47.4776022,7.25855421 47.9601337,7.14614495 48.2948451,7.21598502 C48.7259326,7.30511426 49.2293021,7.62704376 49.6603895,7.93234466 C50.1338043,8.26691188 50.5538215,8.65602088 51.0259339,9.09568079 C51.8268971,9.8406416 52.5392984,10.7545489 52.9645252,11.538088 C53.2035117,11.9777479 53.3663091,12.3602055 53.2888175,12.7938791 C53.2419319,13.0532851 53.1409975,13.3186774 52.9495478,13.5415005 C52.3204987,14.2685024 51.4277179,15.030757 50.7765284,15.7604195 C49.3315388,13.6818458 46.982047,11.2820077 44.9457774,9.7887604 L44.9457774,9.7887604 L44.9457774,9.7887604 Z M43.4946482,10.238494 C43.2979889,10.4400325 43.1228189,10.618291 42.944393,10.8012054 C42.7744325,10.9741428 42.521771,11.1690298 42.3934867,11.3632518 C42.3374844,11.447725 42.3185999,11.6086898 42.2873428,11.7177733 C42.2554345,11.8328431 42.2300381,11.9645416 42.1675239,12.0722948 C42.0600776,12.2552093 41.8184863,12.4594084 41.6237807,12.6576212 C41.4818213,12.8032876 41.2708359,13.0540468 41.1184576,13.1272126 C40.9751959,13.1977178 40.7016963,13.1318686 40.5909941,13.2050344 C40.4021491,13.3294162 40.2510731,13.5515742 40.0921829,13.7132041 C39.9267808,13.8828157 39.765937,14.0471061 39.5946741,14.2220389 C41.8959779,16.0092797 44.4538503,18.6432483 46.2172716,20.9865491 C46.3852785,20.8149421 46.5422151,20.6546425 46.7076173,20.485696 C46.8482742,20.3426902 47.1113548,20.1398214 47.2057772,19.9775263 C47.2409415,19.9169983 47.232476,19.7646804 47.235732,19.6688997 C47.2402903,19.5644722 47.2396391,19.4593795 47.2813152,19.3609382 C47.345783,19.2099506 47.6140731,18.9751549 47.7716609,18.8141902 C47.8992941,18.6831569 48.1070235,18.4210903 48.2841471,18.3213188 C48.3805231,18.266777 48.5153194,18.2647816 48.6318823,18.2441621 C48.7354214,18.2255381 48.9040795,18.2148958 48.9854782,18.1590238 C49.087715,18.0898488 49.1743232,17.9661321 49.2648385,17.8743423 C49.5611298,17.571702 49.8111865,17.3162868 50.1178968,17.0030042 C48.6090907,14.6271113 45.8233019,11.7763059 43.4946482,10.238494 L43.4946482,10.238494 L43.4946482,10.238494 Z M26.7998135,27.8618688 C26.5224067,28.1452199 26.4657532,28.2183857 26.2267667,28.4624934 C25.6087878,29.0943798 25.5469248,30.2111559 26.2638845,30.3814327 C26.5738507,30.4552636 26.8760026,30.3468452 27.1996438,30.1506278 C27.0824297,30.6375129 27.0212179,31.1277238 27.0941511,31.6299072 C27.1651308,32.1214483 27.3318353,32.6502374 27.7805049,33.1165031 C28.2252673,33.579443 28.7540332,33.7590318 29.2359135,33.834193 C29.7262592,33.9100194 30.2270239,33.8701108 30.6769959,33.7337563 C30.4927093,34.0783007 30.3709368,34.3397021 30.4354046,34.6430076 C30.5148497,35.0128274 30.859329,35.140535 31.1595273,35.1365441 C31.4317245,35.1325533 31.9090465,35.0021851 32.2965042,34.6070898 C32.5921443,34.3044495 32.5830276,34.329725 32.8565272,34.0496995 C36.9199498,29.8992036 41.0602128,25.6702207 45.077401,21.5669499 C43.414263,19.4278481 41.1201223,17.0665884 39.0200361,15.3797843 L26.7998135,27.8618688 L26.7998135,27.8618688 Z M24.6718058,30.830746 C24.7701354,31.0322845 24.8997222,31.2484562 25.0866135,31.4087558 C25.3490429,31.6342395 25.6804984,31.6754784 25.8934374,31.7094007 C25.9214385,32.5248667 26.0243265,33.4148289 26.8064051,34.2136663 C27.5884837,35.0111735 28.4552169,35.1382159 29.2581336,35.1767942 C29.2158063,35.5472792 29.5290285,36.0960226 29.9822564,36.301552 C28.7573689,36.7132759 24.5702203,38.1852386 24.1814601,38.2816845 C23.813538,38.372144 23.3297042,38.4579475 22.981969,38.2278078 C22.9637357,38.209849 22.9468048,38.1918901 22.9285715,38.1739312 C22.6993528,37.8420245 22.7761931,37.3571349 22.8458704,36.9952968 C22.9151532,36.6385593 23.0052365,36.2777749 23.1390108,35.965441 C23.5508264,34.5838417 24.3177222,32.0702233 24.6718058,30.830746 L24.6718058,30.830746 L24.6718058,30.830746 Z M21.7817166,39.4704534 C20.8939951,38.5630598 21.4567698,37.0555004 21.4567698,37.0555004 L23.8007105,29.5222501 C23.8007105,29.5222501 24.200058,28.4946935 25.1443748,27.5301412 C25.578697,27.0865122 33.0066871,19.4993509 37.7587948,14.6447628 L37.2411692,11.2171924 C37.0179671,9.8375904 36.8488167,9.67650693 35.4441056,9.8720155 L12.0975405,13.5353654 C10.6603983,13.8036213 10.5611974,13.9484665 10.7805841,15.3696384 L15.6090002,47.3284687 C15.8512795,48.7483416 15.9860911,48.8886401 17.4054279,48.6742951 L40.7551726,45.0109453 C42.1764172,44.7628248 42.203761,44.0515893 42.0714931,43.1773217 L39.9024258,28.8246548 C36.4958902,32.3035381 33.4435529,35.4212826 33.1567603,35.7142207 C32.0382059,36.8560947 31.2236134,37.1204534 31.2236134,37.1204534 L24.0270922,39.7789802 C24.0270922,39.7789802 22.5924937,40.2986043 21.7817166,39.4704534 Z" id="Change-Details" sketch:type="MSShapeGroup"></path>
        </g>
    </g>
</svg>