<?xml version="1.0" encoding="utf-8"?>
<!-- Generator: Adobe Illustrator 16.0.0, SVG Export Plug-In . SVG Version: 6.00 Build 0)  -->
<!DOCTYPE svg PUBLIC "-//W3C//DTD SVG 1.1//EN" "http://www.w3.org/Graphics/SVG/1.1/DTD/svg11.dtd">
<svg version="1.1" id="Layer_1" xmlns="http://www.w3.org/2000/svg" xmlns:xlink="http://www.w3.org/1999/xlink" x="0px" y="0px"
	 width="54.713px" height="43.708px" viewBox="0 0 54.713 43.708" enable-background="new 0 0 54.713 43.708" xml:space="preserve">
<path id="nB1st8.tif_1_" fill="#41A5F5" d="M23.043,43.705c-0.227,0-0.374,0-0.521,0c-4.089,0-8.177-0.004-12.265,0.003
	c-0.858,0.001-1.603-0.236-2.05-1.008c-0.197-0.339-0.357-0.76-0.359-1.145c-0.022-5.383-0.018-10.767-0.001-16.15
	c0-0.219,0.129-0.508,0.295-0.646c6.298-5.235,12.607-10.457,18.915-15.679c0.093-0.077,0.191-0.146,0.311-0.237
	c1.276,1.055,2.549,2.107,3.821,3.161c5.116,4.236,10.23,8.476,15.354,12.704c0.263,0.217,0.358,0.439,0.358,0.774
	c-0.009,5.277-0.007,10.554-0.006,15.831c0.001,1.465-0.903,2.387-2.376,2.39c-2.877,0.007-5.754,0.002-8.631,0.002
	c-1.375,0-2.751,0-4.18,0c0-4.36,0-8.686,0-13.045c-2.906,0-5.761,0-8.665,0C23.043,34.977,23.043,39.302,23.043,43.705z
	 M37.875,7.562c-2.591-2.174-5.184-4.346-7.77-6.525c-1.635-1.377-3.851-1.384-5.486-0.01c-1.754,1.473-3.512,2.94-5.268,4.41
	c-6.234,5.216-12.47,10.432-18.704,15.649c-0.803,0.672-0.851,1.175-0.189,1.972c0.602,0.724,1.205,1.446,1.809,2.167
	c0.498,0.595,1.142,0.648,1.745,0.142c6.732-5.637,13.465-11.275,20.197-16.912c1.044-0.875,2.089-1.747,3.139-2.625
	c0.121,0.094,0.219,0.165,0.312,0.242c2.186,1.83,4.372,3.661,6.558,5.491c5.488,4.596,10.976,9.192,16.464,13.788
	c0.644,0.539,1.271,0.476,1.808-0.173c0.562-0.678,1.126-1.354,1.69-2.029c0.76-0.905,0.722-1.365-0.195-2.132
	c-2.234-1.867-4.469-3.735-6.712-5.591c-0.27-0.222-0.39-0.446-0.386-0.804c0.019-1.764,0.009-3.528,0.009-5.292
	c0-2.662,0.001-5.323-0.001-7.984c0-0.809-0.375-1.198-1.181-1.241c-0.046-0.002-0.091-0.001-0.137-0.001
	c-2.014,0-4.027-0.004-6.041,0.002C38.58,0.11,38.211,0.488,38.211,1.43c-0.001,1.308,0,2.616,0,3.923c0,0.787,0,1.574,0,2.459
	C38.04,7.686,37.954,7.628,37.875,7.562z"/>
</svg>
