<?xml version="1.0" encoding="utf-8"?>
<!-- Generator: Adobe Illustrator 16.0.0, SVG Export Plug-In . SVG Version: 6.00 Build 0)  -->
<!DOCTYPE svg PUBLIC "-//W3C//DTD SVG 1.0//EN" "http://www.w3.org/TR/2001/REC-SVG-20010904/DTD/svg10.dtd">
<svg version="1.0" id="Layer_1" xmlns="http://www.w3.org/2000/svg" xmlns:xlink="http://www.w3.org/1999/xlink" x="0px" y="0px"
	 width="58px" height="58px" viewBox="0 0 58 58" enable-background="new 0 0 58 58" xml:space="preserve">
<g>
	<g>
		<path fill="#41A5F5" d="M19.09,38.626c0,0.834,0.001,2.738,0,3.546c0,2.088-0.681,2.311-3.297,2.311
			c-2.555,0-3.367-0.053-3.383-2.185c-0.006-0.851-0.001-3.099-0.001-3.979c-0.106-0.005-1.445-0.258-1.448-0.673
			c-0.02-2.529,0.003-5.06,0.003-7.59c0-3.358,2.604-4.429,2.604-4.429s1.32-5.237,1.964-7.859c0.558-2.087,1.257-3.692,5.648-4.385
			c4.609-0.535,11.113-0.535,15.581-0.005c3.941,0.533,5.025,1.963,5.592,4.193c0.673,2.651,1.986,7.961,1.986,7.961
			s2.632,1.427,2.632,4.607c0.026,2.486,0.008,4.973,0.006,7.459c0,0.478-1.483,0.716-1.543,0.729c0,0.072,0,0.154,0,0.236
			c0,0.757,0.002,1.513-0.001,2.27c0,3.425-0.668,3.657-3.166,3.657c-2.945,0-3.519-0.232-3.519-3.649c0.007-0.739,0-1.178,0-1.916
			c0-0.095,0-0.188,0-0.301C32.817,39.318,25.188,39.318,19.09,38.626z M17.802,24.907c6.325-0.71,15.975-0.771,22.391,0
			c-0.013-0.058-0.685-4.08-1.694-7.468c-0.426-1.838-18.307-2.042-19.016,0.066C18.435,20.621,17.802,24.907,17.802,24.907z
			 M44.288,32.072c0.002-1.715-1.404-3.104-3.12-3.112c-1.867-0.01-3.204,1.677-3.138,3.246c0.054,1.267,1.204,3.005,3.128,2.994
			C42.893,35.19,44.285,33.812,44.288,32.072z M19.535,32.063c0.005-1.696-1.393-3.08-3.102-3.104
			c-1.89-0.026-3.216,1.714-3.155,3.229c0.048,1.206,1.166,3.029,3.138,3.011C18.146,35.186,19.529,33.81,19.535,32.063z"/>
	</g>
</g>
</svg>
