<?xml version="1.0" encoding="UTF-8" standalone="no"?>
<svg width="58px" height="58px" viewBox="0 0 58 58" version="1.1" xmlns="http://www.w3.org/2000/svg" xmlns:xlink="http://www.w3.org/1999/xlink" xmlns:sketch="http://www.bohemiancoding.com/sketch/ns">
    <!-- Generator: Sketch 3.3 (11970) - http://www.bohemiancoding.com/sketch -->
    <title>icon-van</title>
    <desc>Created with Sketch.</desc>
    <defs></defs>
    <g id="Page-1" stroke="none" stroke-width="1" fill="none" fill-rule="evenodd" sketch:type="MSPage">
        <g id="icon-van" sketch:type="MSArtboardGroup" fill="#41A5F5">
            <g id="Group" sketch:type="MSLayerGroup" transform="translate(29.000000, 30.500000) scale(-1, 1) translate(-29.000000, -30.500000) translate(8.000000, 15.000000)">
                <path d="M3.54342852,26.0093324 C2.60114233,26.0125349 2.05141631,26.0147792 2.05141631,26.0147792 C0.918450364,26.0188532 5.68434189e-14,25.0960135 5.68434189e-14,23.9584899 L5.68434189e-14,2.99777197 C5.68434189e-14,1.34214823 1.3486523,0 3.00298891,0 L25.0371939,0 C27.7944775,0 30.0296974,2.24187067 30.0296974,4.99704233 L30.0296974,5 L30.0296974,5 L32.6491604,5 C33.7526778,5 35.127575,5.7511872 35.7274231,6.68930864 L40.8876058,14.759483 C41.4841659,15.6924624 41.9677734,17.3451469 41.9677734,18.4461375 L41.9677734,23.9792779 C41.9677734,25.0823815 41.0658231,25.9766237 39.9592432,25.9766237 L37.9774889,25.9766237 L37.9774889,25.9766237 C37.7123214,22.9079967 35.1373696,20.5 32,20.5 C28.8453919,20.5 26.259399,22.9345313 26.0183497,26.0272657 C25.8577529,26.0256385 25.6897843,26.0239361 25.5141769,26.0221558 C23.0373046,25.9970455 19.5167765,25.9882215 15.9539536,25.9874899 C15.5778441,22.8953669 12.943656,20.5 9.75,20.5 C6.5488281,20.5 3.90976049,22.9066546 3.54342852,26.0093324 Z M33.2688193,8.43011475 C33.1203531,8.19256893 32.7842449,8 32.5046085,8 L29.9999975,8 L29.9677709,16 L36.5080236,16 C37.3320194,16 37.6404122,15.4246597 37.2077347,14.7323762 L33.2688193,8.43011475 Z" id="Path-304" sketch:type="MSShapeGroup"></path>
                <path d="M32.0020421,30.5 C34.209139,30.5 36,28.709139 36,26.5 C36,24.290861 34.209139,22.5 32,22.5 C29.790861,22.5 28,24.290861 28,26.5 C28,28.709139 29.790861,30.5 32.0020421,30.5 Z" id="Oval-13" sketch:type="MSShapeGroup"></path>
                <path d="M9.75,31 C12.0972102,31 14,29.0972102 14,26.75 C14,24.4027898 12.0972102,22.5 9.75,22.5 C7.40278981,22.5 5.5,24.4027898 5.5,26.75 C5.5,29.0972102 7.40278981,31 9.75,31 Z" id="Oval-13" sketch:type="MSShapeGroup"></path>
            </g>
        </g>
    </g>
</svg>