<?xml version="1.0" encoding="utf-8"?>
<!-- Generator: Adobe Illustrator 16.0.0, SVG Export Plug-In . SVG Version: 6.00 Build 0)  -->
<!DOCTYPE svg PUBLIC "-//W3C//DTD SVG 1.1//EN" "http://www.w3.org/Graphics/SVG/1.1/DTD/svg11.dtd">
<svg version="1.1" id="Layer_1" xmlns="http://www.w3.org/2000/svg" xmlns:xlink="http://www.w3.org/1999/xlink" x="0px" y="0px"
	 width="141px" height="95px" viewBox="0 0 141 95" enable-background="new 0 0 141 95" xml:space="preserve">
<g>
	<defs>
		<path id="SVGID_1_" d="M31.741,94.767c7.61,0,13.78-6.17,13.78-13.78s-6.169-13.78-13.78-13.78s-13.779,6.17-13.779,13.78
			S24.131,94.767,31.741,94.767z M116.852,80.176c0-7.163-5.807-12.97-12.97-12.97c-7.162,0-12.969,5.807-12.969,12.97
			s5.807,12.97,12.976,12.97C111.045,93.146,116.852,87.339,116.852,80.176z M28.204,21.588c0.481-0.77,1.571-1.395,2.478-1.395
			h8.121l0.104,25.938H17.702c-2.672,0-3.672-1.865-2.269-4.109L28.204,21.588z M68.217,32.325l-6.713-22.127
			c-0.994-3.433-4.686-6.216-8.252-6.216h-7.848c-3.563,0-6.462,2.926-6.474,6.493l-0.023,6.944v-6.953h-8.693
			c-3.578,0-8.036,2.436-9.981,5.478L3.502,42.11C1.568,45.135,0,50.493,0,54.063v17.939c0,3.576,2.924,6.476,6.512,6.476h6.425
			c0.86-9.949,9.208-17.757,19.381-17.757c10.228,0,18.612,7.894,19.394,17.922c0.521-0.006,1.065-0.012,1.635-0.018
			c8.031-0.081,19.446-0.109,30.997-0.111c1.22-10.026,9.761-17.793,20.115-17.793c10.379,0,18.936,7.804,19.201,17.865l0.922-0.002
			c3.056,0.01,4.838,0.018,4.838,0.018c3.674,0.014,6.668-2.941,6.689-6.613l0.091-16.195c0.021-3.546-2.853-6.42-6.391-6.42H90.596
			c11.146-12.401,24.835-28.154,32.992-39.427c0.008,3.622,0.019,8.04,0.024,8.245c0.032,1.142,0.117,2.139,0.256,2.991
			c0.18,1.109,0.47,2.082,0.87,2.919c0.4,0.836,0.891,1.572,1.471,2.209c0.58,0.636,1.27,1.263,2.07,1.881
			c0.64,0.51,1.25,0.982,1.83,1.419s1.101,0.918,1.561,1.445s0.82,1.118,1.08,1.772c0.133,0.334,0.231,0.7,0.297,1.1
			c0.063,0.385,0.094,0.8,0.094,1.246c0,1.091,0.197,5.306-6.285,5.495c-7.252-0.189-6.858-5.096-6.858-7.568
			c0,0-1.4-2.433-4.104,0.888s-0.189,12.314,11.665,12.422c11.855,0.106,13.084-9.273,13.084-11.019c0-1.272-0.15-2.372-0.45-3.3
			s-0.7-1.728-1.2-2.4c-0.5-0.672-1.07-1.272-1.711-1.8c-0.64-0.527-1.28-1.045-1.92-1.554c-0.761-0.582-1.461-1.146-2.102-1.691
			c-0.64-0.545-1.199-1.154-1.68-1.827s-1.471-0.414-1.76-7.479V4.795V3.972c0-1.785-1.45-3.26-3.258-3.26
			C126.563,0.712,85.852,20.19,68.217,32.325z"/>
	</defs>
	<use xlink:href="#SVGID_1_"  overflow="visible" fill-rule="evenodd" clip-rule="evenodd" fill="#FFFFFF"/>
	<clipPath id="SVGID_2_">
		<use xlink:href="#SVGID_1_"  overflow="visible"/>
	</clipPath>
	<rect x="-16.211" y="-15.5" clip-path="url(#SVGID_2_)" fill="#FFFFFF" width="173.065" height="126.478"/>
</g>
</svg>
