<?xml version="1.0" encoding="UTF-8" standalone="no"?>
<svg width="58px" height="58px" viewBox="0 0 58 58" version="1.1" xmlns="http://www.w3.org/2000/svg" xmlns:xlink="http://www.w3.org/1999/xlink" xmlns:sketch="http://www.bohemiancoding.com/sketch/ns">
    <!-- Generator: Sketch 3.2.2 (9983) - http://www.bohemiancoding.com/sketch -->
    <title>Icon-Documents</title>
    <desc>Created with Sketch.</desc>
    <defs></defs>
    <g id="Page-1" stroke="none" stroke-width="1" fill="none" fill-rule="evenodd" sketch:type="MSPage">
        <g id="Icon-Documents" sketch:type="MSArtboardGroup" fill="#0078FF">
            <path d="M37.0550733,24.1982364 L28.0002551,20.4857364 C27.8761642,20.4344864 27.8042551,20.3051114 27.8284369,20.1744864 L28.817346,14.8332364 C28.8517097,14.6488614 28.6964369,14.4832364 28.5068006,14.5013614 L10.960346,16.1463614 C10.8025278,16.1613614 10.6860733,16.2994864 10.701346,16.4551114 L13.8494369,48.5188614 C13.8647097,48.6738614 14.005346,48.7876114 14.1631642,48.7726114 L39.2129824,46.4001114 C39.3714369,46.3857364 39.4878915,46.2463614 39.471346,46.0907364 L37.2300733,24.4301114 C37.2198915,24.3269864 37.1524369,24.2376114 37.0550733,24.1982364 L37.0550733,24.1982364 L37.0550733,24.1982364 Z M21.8360735,9.00117735 C21.6998917,8.98805235 21.5796189,9.08617735 21.5668917,9.21992735 L21.1589826,13.6318024 C21.1449826,13.7824274 21.273528,13.9080524 21.4268917,13.8943024 L28.5032553,13.2505524 C29.0460735,13.2011774 29.5793462,13.4130524 29.9344371,13.8193024 L38.4648917,23.5711774 C38.7188008,23.8618024 38.8747099,24.2218024 38.9116189,24.6030524 L40.5909826,41.9480524 C40.6107099,42.1511774 40.7761644,42.3111774 40.9836189,42.3274274 L42.609528,42.4543024 C42.7438008,42.4643024 42.861528,42.3674274 42.8742553,42.2355524 L45.8403462,11.5286774 C45.8530735,11.3955524 45.7544371,11.2780524 45.6188917,11.2649274 L21.8360735,9.00117735 Z" id="Imported-Layers" sketch:type="MSShapeGroup"></path>
        </g>
    </g>
</svg>