<?xml version="1.0" encoding="UTF-8" standalone="no"?>
<svg width="44px" height="43px" viewBox="0 0 44 43" version="1.1" xmlns="http://www.w3.org/2000/svg" xmlns:xlink="http://www.w3.org/1999/xlink" xmlns:sketch="http://www.bohemiancoding.com/sketch/ns">
    <!-- Generator: Sketch 3.2.2 (9983) - http://www.bohemiancoding.com/sketch -->
    <title>Family Legal</title>
    <desc>Created with Sketch.</desc>
    <defs></defs>
    <g id="Page-1" stroke="none" stroke-width="1" fill="none" fill-rule="evenodd" sketch:type="MSPage">
        <g id="Family-Legal" sketch:type="MSLayerGroup" transform="translate(-7.000000, -7.000000)">
            <rect id="Rectangle-5" fill-opacity="0" fill="#FFFFFF" sketch:type="MSShapeGroup" x="0" y="0" width="58" height="58"></rect>
            <g transform="translate(7.000000, 7.000000)" fill="#40A4F4" sketch:type="MSShapeGroup">
                <path d="M3.37989474,16.2861067 C3.31563158,16.2809467 2.66721053,16.1599733 2.23763158,16.5578667 C2.19421053,16.6002933 2.06568421,16.7172533 1.85031579,16.90932 C1.63552632,17.1008133 1.48847368,17.2355467 1.40973684,17.3140933 C1.331,17.3920667 1.21289474,17.52336 1.05484211,17.7079733 C0.896789474,17.8920133 0.785631579,18.0485333 0.721368421,18.1763867 C0.657105263,18.30424 0.592263158,18.4601867 0.527421053,18.6448 C0.463157895,18.8294133 0.431315789,19.0140267 0.431315789,19.19864 C0.431315789,19.76624 0.632210526,20.24956 1.03342105,20.64688 L9.80736842,29.33632 C10.2091579,29.73364 10.6966316,29.9325867 11.2703684,29.9325867 C11.4562105,29.9325867 11.6432105,29.90048 11.8290526,29.83684 C12.0154737,29.7726267 12.1735263,29.7089867 12.3020526,29.6453467 C12.4317368,29.5811333 12.5892105,29.4710533 12.7750526,29.3151067 C12.9620526,29.1585867 13.0952105,29.0416267 13.1733684,28.9636533 C13.2521053,28.8851067 13.3881579,28.7400533 13.5815263,28.5267733 C13.7754737,28.3140667 13.8935789,28.1862133 13.937,28.1437867 C14.245,27.8169867 14.2050526,27.4712667 14.2768421,27.07796" id="Fill-23"></path>
                <path d="M21.3093158,0.611746667 C20.9075263,0.214426667 20.4200526,0.01548 19.8463158,0.01548 C19.6598947,0.01548 19.4734737,0.0475866667 19.2876316,0.111226667 C19.1012105,0.17544 18.9431579,0.23908 18.8146316,0.30272 C18.6849474,0.366933333 18.5274737,0.477013333 18.3416316,0.63296 C18.1546316,0.78948 18.0214737,0.90644 17.9433158,0.984413333 C17.8645789,1.06296 17.7279474,1.20801333 17.5345789,1.42129333 C17.3412105,1.634 17.2231053,1.76185333 17.1796842,1.80428 C16.8716842,2.13108 16.9110526,2.4768 16.8398421,2.87010667 L17.611,3.63436 L26.9899474,13.0639733 L27.7367895,13.66196 C27.8010526,13.66712 28.4494737,13.7880933 28.8790526,13.3902 C28.9218947,13.3477733 29.051,13.23024 29.2663684,13.0387467 C29.4811579,12.8472533 29.6282105,12.71252 29.7069474,12.6339733 C29.7856842,12.5565733 29.9037895,12.4247067 30.0618421,12.2400933 C30.2198947,12.0560533 30.3310526,11.8995333 30.3947368,11.77168 C30.4595789,11.6438267 30.5244211,11.48788 30.5892632,11.3032667 C30.6535263,11.1186533 30.6853684,10.93404 30.6853684,10.7494267 C30.6853684,10.1818267 30.4844737,9.69850667 30.0832632,9.30118667 L21.3093158,0.611746667 Z" id="Fill-24"></path>
                <path d="M42.779,34.6465333 L32.7713158,24.7358933 C31.7384737,23.7130667 28.8686316,22.5297067 27.8352105,23.5531067 L27.3205263,24.0628 L21.6219474,18.41948 L21.846,18.1976 L25.3573158,14.6899467 L15.9025263,5.32626667 L5.77963158,15.351 L15.2344211,24.7141067 L18.9402632,21.07516 L19.0821053,20.9346933 L24.7806842,26.5780133 L24.3696316,26.98508 C23.3362105,28.00848 24.5311579,30.84992 25.5645789,31.87332 L35.5716842,41.78396 C36.6051053,42.8067867 38.28,42.8067867 39.3134211,41.78396 L42.779,38.3519867 C43.8124211,37.3285867 43.8124211,35.6699333 42.779,34.6465333" id="Fill-25"></path>
            </g>
        </g>
    </g>
</svg>