<?xml version="1.0" encoding="utf-8"?>
<!-- Generator: Adobe Illustrator 19.2.0, SVG Export Plug-In . SVG Version: 6.00 Build 0)  -->
<!DOCTYPE svg PUBLIC "-//W3C//DTD SVG 1.1//EN" "http://www.w3.org/Graphics/SVG/1.1/DTD/svg11.dtd">
<svg version="1.1" id="Layer_1" xmlns="http://www.w3.org/2000/svg" xmlns:xlink="http://www.w3.org/1999/xlink" x="0px" y="0px"
	 width="39px" height="40px" viewBox="0 0 39 40" style="enable-background:new 0 0 39 40;" xml:space="preserve">
<style type="text/css">
	.st0{fill:#41A5F5;}
</style>
<g>
	<path class="st0" d="M24.9,13c-1.7,0-2.1-1-0.9-2.2L28.7,6c1.2-1.2,2.6-3.3,3.1-4.5c0,0,0,0-0.9-0.9c-0.9-0.9-0.9-0.9-0.9-0.9
		c-1.3,0.5-3.3,1.9-4.5,3.1l-5.2,5.2c-1.2,1.2-3.2,1.2-4.5,0l-5.2-5.2C9.5,1.7,7.4,0.3,6.2-0.2c0,0,0,0-0.9,0.9
		C4.4,1.5,4.4,1.5,4.4,1.5C4.9,2.8,6.3,4.8,7.5,6l4.7,4.7c1.2,1.2,0.8,2.2-0.9,2.2H3.1C1.4,13,0,14.4,0,16.1v20.7
		C0,38.6,1.4,40,3.1,40h32.7c1.7,0,3.1-1.4,3.1-3.1V16.1c0-1.7-1.4-3.1-3.1-3.1H24.9z M28,32.9c0,1.7-1.4,3.1-3.1,3.1H7.1
		C5.4,36,4,34.6,4,32.9V20.1C4,18.4,5.4,17,7.1,17h17.7c1.7,0,3.1,1.4,3.1,3.1V32.9z M33.5,28c-1.4,0-2.5-1.1-2.5-2.5
		c0-1.4,1.1-2.5,2.5-2.5c1.4,0,2.5,1.1,2.5,2.5C36,26.9,34.9,28,33.5,28z M33.5,22c-1.4,0-2.5-1.1-2.5-2.5c0-1.4,1.1-2.5,2.5-2.5
		c1.4,0,2.5,1.1,2.5,2.5C36,20.9,34.9,22,33.5,22z"/>
</g>
</svg>
