<?xml version="1.0" encoding="UTF-8" standalone="no"?>
<svg width="340px" height="87px" viewBox="0 0 340 87" version="1.1" xmlns="http://www.w3.org/2000/svg" xmlns:xlink="http://www.w3.org/1999/xlink">
    <!-- Generator: Sketch 3.6.1 (26313) - http://www.bohemiancoding.com/sketch -->
    <title>otto-motos-footer-logo2</title>
    <desc>Created with Sketch.</desc>
    <defs></defs>
    <g id="Cuts" stroke="none" stroke-width="1" fill="none" fill-rule="evenodd">
        <g id="otto-motos-footer-logo2">
            <g id="Group">
                <g id="Page-1" transform="translate(120.000000, 10.000000)" fill="#9B9B9B">
                    <path d="M17.5423232,0.0471869232 C7.8539574,0.0471869232 9.54829193e-06,7.8387364 9.54829193e-06,17.4501296 C9.54829193e-06,27.0615229 7.8539574,34.8530723 17.5423232,34.8530723 C27.2306412,34.8530723 35.0846368,27.0615229 35.0846368,17.4501296 C35.0846368,7.8387364 27.2306412,0.0471869232 17.5423232,0.0471869232 M17.5423232,5.14468183 C24.3819082,5.14468183 29.9463665,10.664884 29.9463665,17.4501296 C29.9463665,24.2354226 24.3819082,29.7556248 17.5423232,29.7556248 C10.7027382,29.7556248 5.13827984,24.2354226 5.13827984,17.4501296 C5.13827984,10.664884 10.7027382,5.14468183 17.5423232,5.14468183" id="Fill-1"></path>
                    <path d="M112.44513,0.0471869232 C102.756765,0.0471869232 94.9028167,7.8387364 94.9028167,17.4501296 C94.9028167,27.0615229 102.756765,34.8530723 112.44513,34.8530723 C122.133448,34.8530723 129.987444,27.0615229 129.987444,17.4501296 C129.987444,7.8387364 122.133448,0.0471869232 112.44513,0.0471869232 M112.44513,5.14468183 C119.284715,5.14468183 124.849174,10.664884 124.849174,17.4501296 C124.849174,24.2354226 119.284715,29.7556248 112.44513,29.7556248 C105.605545,29.7556248 100.041087,24.2354226 100.041087,17.4501296 C100.041087,10.664884 105.605545,5.14468183 112.44513,5.14468183" id="Fill-3"></path>
                    <path d="M62.4227822,0.687907004 L62.4227822,5.7886699 L51.8368292,5.7886699 L51.8368292,33.8369219 L46.695217,33.8369219 L46.695217,5.7886699 L36.109264,5.7886699 L36.109264,0.687907004 L62.4227822,0.687907004 Z" id="Fill-5"></path>
                    <path d="M93.8779078,0.687907004 L93.8779078,5.7886699 L83.2919548,5.7886699 L83.2919548,33.8369219 L78.1503426,33.8369219 L78.1503426,5.7886699 L67.5643896,5.7886699 L67.5643896,0.687907004 L93.8779078,0.687907004 Z" id="Fill-7"></path>
                </g>
            </g>
        </g>
    </g>
</svg>