<?xml version="1.0" encoding="utf-8"?>
<!-- Generator: Adobe Illustrator 20.1.0, SVG Export Plug-In . SVG Version: 6.00 Build 0)  -->
<svg version="1.1" id="Layer_1" xmlns="http://www.w3.org/2000/svg" xmlns:xlink="http://www.w3.org/1999/xlink" x="0px" y="0px"
	 viewBox="0 0 682 168" style="enable-background:new 0 0 682 168;" xml:space="preserve">
<style type="text/css">
	.st0{fill:#FFFFFF;}
	.st1{opacity:0.8;fill:#FFFFFF;}
	.st2{opacity:0.4;fill:#FFFFFF;}
</style>
<title>logo-fcq</title>
<g>
	<path class="st0" d="M76.4,57.8c-0.7-0.1-1.4-0.2-2.2-0.2c-2,0-3.5,0.6-4.3,1.9c-0.8,1.3-1.2,2.9-1.2,4.8v0.6h10v14.9h-10v32.6
		H47.9V79.8h-8.1V64.9h8.1v-1.1c0-2.9,0.3-5.8,1-8.5c0.7-2.7,1.9-5.1,3.6-7.2c1.7-2.1,4-3.7,6.8-4.9c2.9-1.2,6.5-1.8,10.8-1.8
		c1.4,0,3,0.1,4.8,0.3c1.8,0.2,3.4,0.6,4.6,1l-1.4,15.6C77.7,58.1,77.1,57.9,76.4,57.8z"/>
	<path class="st0" d="M82.5,51.2c0-1.4,0.3-2.8,0.9-4.1c0.6-1.3,1.4-2.4,2.3-3.4c1-1,2.1-1.7,3.5-2.3c1.3-0.6,2.7-0.9,4.2-0.9
		c1.4,0,2.8,0.3,4.1,0.9c1.3,0.6,2.4,1.3,3.4,2.3c1,1,1.8,2.1,2.3,3.4c0.6,1.3,0.9,2.7,0.9,4.1c0,1.5-0.3,2.9-0.9,4.2
		c-0.6,1.3-1.4,2.4-2.3,3.3c-1,0.9-2.1,1.7-3.4,2.2s-2.6,0.8-4.1,0.8c-1.5,0-2.9-0.3-4.2-0.8c-1.3-0.5-2.5-1.3-3.5-2.2
		c-1-0.9-1.8-2-2.3-3.3C82.8,54.1,82.5,52.7,82.5,51.2z M82.9,64.9h20.8v47.4H82.9V64.9z"/>
	<path class="st0" d="M113.3,64.9h20v5.4h0.2c1-1.9,2.5-3.5,4.6-4.8c2-1.3,4.4-1.9,7.1-1.9c1.6,0,2.9,0.2,4,0.5l-1.6,17.7
		c-0.7-0.2-1.4-0.3-2.2-0.4c-0.8-0.1-1.5-0.1-2.2-0.1c-2.7,0-4.9,0.8-6.5,2.3c-1.6,1.6-2.4,3.5-2.4,5.8v23h-20.8V64.9z"/>
	<path class="st0" d="M192.3,97.2c0,3.2-0.7,5.9-2,8c-1.3,2.2-3.1,3.9-5.1,5.2c-2.1,1.3-4.3,2.2-6.8,2.8c-2.5,0.6-4.8,0.9-7,0.9
		c-4.1,0-8.1-0.6-12-1.8c-3.9-1.2-7.4-2.8-10.2-5l10.2-11.8c1.4,1.3,3.1,2.4,5.1,3.2c2,0.8,3.8,1.2,5.6,1.2c0.7,0,1.4-0.1,2-0.4
		c0.6-0.3,0.9-0.8,0.9-1.5c0-0.8-0.6-1.4-1.7-1.8c-1.1-0.5-3.1-1-5.8-1.7c-1.5-0.4-3-0.9-4.6-1.6c-1.6-0.7-3-1.6-4.3-2.8
		c-1.3-1.1-2.4-2.5-3.2-4.2c-0.8-1.7-1.3-3.6-1.3-5.9c0-3.1,0.7-5.7,2-7.8c1.4-2.2,3.1-3.9,5.1-5.3c2.1-1.4,4.3-2.3,6.8-3
		c2.4-0.6,4.7-0.9,6.9-0.9c3.7,0,7.3,0.5,10.9,1.6c3.6,1.1,6.9,2.6,9.7,4.5l-9.7,11.6c-1.5-1-3-1.7-4.6-2.3
		c-1.6-0.5-3.1-0.8-4.6-0.8c-1,0-1.9,0.1-2.5,0.4c-0.7,0.3-1,0.8-1,1.6c0,0.6,0.4,1.1,1.1,1.4c0.7,0.3,2.5,0.8,5.2,1.3
		c1.9,0.4,3.7,0.9,5.4,1.7c1.8,0.8,3.4,1.7,4.8,2.9c1.4,1.2,2.5,2.6,3.4,4.3C191.8,93,192.3,95,192.3,97.2z"/>
	<path class="st0" d="M220.4,113.6c-6.4,0-11.1-1.4-14.2-4.1c-3.1-2.7-4.6-7-4.6-12.8v-17H195V64.9h6.6V54.2h20.2v10.6H232v14.9
		h-10.3v12.6c0,2.3,0.5,3.8,1.5,4.6c1,0.8,2.4,1.2,4.1,1.2c0.7,0,1.4-0.1,2.1-0.2c0.7-0.1,1.3-0.2,1.7-0.4v14.2
		c-1.1,0.5-2.6,0.9-4.6,1.2C224.6,113.4,222.5,113.6,220.4,113.6z"/>
	<path class="st1" d="M263.5,114.1c-4,0-7.7-0.6-11.1-1.8c-3.4-1.2-6.3-2.9-8.7-5.1c-2.5-2.2-4.4-4.9-5.8-8
		c-1.4-3.1-2.1-6.6-2.1-10.6c0-3.8,0.7-7.3,2.1-10.5c1.4-3.2,3.4-5.8,5.9-8.1c2.5-2.2,5.5-3.9,8.9-5.1c3.4-1.2,7.1-1.8,11-1.8
		c1.6,0,3.3,0.1,4.9,0.4c1.7,0.3,3.2,0.6,4.8,1.1c1.5,0.5,2.9,1,4.2,1.6c1.3,0.6,2.4,1.3,3.3,2l-10.4,15c-0.7-0.8-1.7-1.4-2.8-1.9
		c-1.2-0.4-2.3-0.7-3.4-0.7c-1,0-2,0.2-3,0.5c-1,0.3-1.8,0.8-2.6,1.5c-0.8,0.7-1.4,1.5-1.8,2.5c-0.5,1-0.7,2.2-0.7,3.5
		c0,1.3,0.2,2.5,0.7,3.5c0.5,1,1.1,1.8,1.8,2.4c0.8,0.6,1.6,1.1,2.6,1.4c1,0.3,2,0.5,3,0.5c1.2,0,2.4-0.2,3.5-0.7
		c1.1-0.5,2.1-1.1,2.8-1.8l10.5,14.5c-2,1.6-4.6,2.9-7.7,3.9C270.3,113.6,267,114.1,263.5,114.1z"/>
	<path class="st1" d="M310.3,82.2c0-1.4-0.5-2.5-1.5-3.2c-1-0.7-2.3-1-3.9-1c-1.9,0-3.7,0.4-5.5,1.2c-1.7,0.8-3.2,1.8-4.6,2.8
		l-10.4-10.3c2.9-2.8,6.3-4.9,10.3-6.4c4-1.5,8.1-2.3,12.3-2.3c4.5,0,8.2,0.6,11.2,1.9c2.9,1.3,5.3,3,7,5.2c1.7,2.2,2.9,4.8,3.6,7.8
		c0.7,2.9,1,6.1,1,9.4v25H311v-3.8h-0.2c-1.2,1.8-2.9,3.1-5.1,3.9c-2.2,0.8-4.4,1.2-6.5,1.2c-1.9,0-3.8-0.3-5.7-0.8
		c-2-0.5-3.7-1.4-5.3-2.6c-1.6-1.2-2.9-2.8-3.9-4.7c-1-1.9-1.5-4.3-1.5-7.1c0-3.3,0.9-6,2.6-8.1c1.7-2.1,3.9-3.7,6.5-4.9
		c2.6-1.2,5.6-2,8.9-2.4c3.3-0.4,6.5-0.6,9.6-0.6V82.2z M310.5,92.6c-3.1,0-5.5,0.3-7.4,1c-1.9,0.7-2.8,1.9-2.8,3.7
		c0,0.7,0.1,1.2,0.5,1.7c0.3,0.5,0.7,0.8,1.2,1.1c0.5,0.3,1,0.5,1.6,0.7c0.6,0.2,1.1,0.2,1.6,0.2c2,0,3.6-0.6,4.8-1.9
		c1.2-1.3,1.8-2.9,1.8-4.9v-1.6H310.5z"/>
	<path class="st1" d="M338.4,64.9h20v5.4h0.2c1-1.9,2.5-3.5,4.6-4.8c2-1.3,4.4-1.9,7.1-1.9c1.6,0,2.9,0.2,4,0.5l-1.6,17.7
		c-0.7-0.2-1.4-0.3-2.2-0.4c-0.8-0.1-1.5-0.1-2.2-0.1c-2.7,0-4.9,0.8-6.5,2.3c-1.6,1.6-2.4,3.5-2.4,5.8v23h-20.8V64.9z"/>
	<path class="st2" d="M396.6,113.6c-3.5,0-6.7-0.7-9.3-2.2c-2.7-1.4-4.9-3.4-6.7-5.7c-1.8-2.4-3.2-5.1-4.1-8.1
		c-0.9-3-1.4-6.1-1.4-9.2c0-3.1,0.5-6.1,1.4-9c0.9-2.9,2.3-5.6,4.1-7.9s4.1-4.2,6.8-5.7c2.7-1.4,5.8-2.2,9.4-2.2
		c2.3,0,4.7,0.5,7.2,1.5c2.5,1,4.6,2.5,6.3,4.5h0.2v-4.8H430v69.1h-20.7v-25.3h-0.2c-1.4,1.6-3.3,2.8-5.6,3.7
		C401.2,113.1,398.9,113.6,396.6,113.6z M394.3,88.4c0,2.3,0.7,4.2,2,5.7c1.3,1.5,3.2,2.3,5.8,2.3c2.5,0,4.4-0.8,5.9-2.3
		c1.5-1.6,2.2-3.5,2.2-5.7c0-2.1-0.7-3.9-2.2-5.5c-1.5-1.6-3.4-2.3-5.9-2.3c-2.5,0-4.4,0.8-5.8,2.3C395,84.5,394.3,86.3,394.3,88.4z
		"/>
	<path class="st2" d="M489.7,112.3h-20.3v-5.2h-0.2c-1.2,1.7-3,3.3-5.4,4.6c-2.4,1.3-5.1,1.9-8.2,1.9c-3.4,0-6.1-0.6-8.3-1.8
		c-2.2-1.2-3.9-2.7-5.2-4.6c-1.3-1.9-2.2-4-2.7-6.4c-0.5-2.4-0.8-4.7-0.8-7.1V64.9h20.8v25.1c0,2.4,0.4,4.1,1.1,5.1
		c0.8,1,1.9,1.4,3.4,1.4c1.4,0,2.5-0.6,3.4-1.7c0.9-1.1,1.3-2.7,1.3-4.8V64.9h20.8V112.3z"/>
	<path class="st2" d="M551.5,88.4c0,4.1-0.7,7.7-2.2,10.9c-1.5,3.2-3.5,5.9-6,8.1c-2.5,2.2-5.4,3.9-8.7,5c-3.3,1.1-6.7,1.7-10.3,1.7
		c-3.5,0-7-0.6-10.2-1.7c-3.3-1.1-6.1-2.8-8.6-5c-2.5-2.2-4.4-4.9-5.9-8.1c-1.5-3.2-2.2-6.8-2.2-10.9c0-4,0.7-7.6,2.2-10.8
		c1.5-3.2,3.4-5.8,5.9-8c2.5-2.2,5.3-3.8,8.6-4.9c3.3-1.1,6.7-1.7,10.2-1.7c3.6,0,7,0.6,10.3,1.7c3.3,1.1,6.2,2.8,8.7,4.9
		c2.5,2.2,4.5,4.8,6,8C550.8,80.8,551.5,84.4,551.5,88.4z M524.4,80.7c-2.3,0-4.1,0.8-5.5,2.3c-1.4,1.6-2.1,3.4-2.1,5.5
		c0,2.2,0.7,4.1,2.2,5.7c1.4,1.6,3.3,2.3,5.6,2.3c2.3,0,4.1-0.8,5.6-2.3c1.4-1.6,2.2-3.5,2.2-5.7c0-2.1-0.7-3.9-2.2-5.5
		C528.5,81.4,526.6,80.7,524.4,80.7z"/>
	<path class="st2" d="M579.8,113.6c-6.4,0-11.1-1.4-14.2-4.1c-3.1-2.7-4.6-7-4.6-12.8v-17h-6.7V64.9h6.6V54.2h20.2v10.6h10.3v14.9
		h-10.3v12.6c0,2.3,0.5,3.8,1.5,4.6c1,0.8,2.4,1.2,4.1,1.2c0.7,0,1.4-0.1,2.1-0.2c0.7-0.1,1.3-0.2,1.7-0.4v14.2
		c-1.1,0.5-2.6,0.9-4.6,1.2C584,113.4,582,113.6,579.8,113.6z"/>
	<path class="st2" d="M646.6,89c0,0.8,0,1.6,0,2.4c0,0.8-0.1,1.5-0.1,2h-31.9c0.1,0.8,0.3,1.6,0.9,2.3c0.5,0.7,1.1,1.2,1.9,1.7
		c0.8,0.5,1.6,0.8,2.5,1.1c0.9,0.2,1.9,0.4,2.8,0.4c1.9,0,3.5-0.3,4.8-1c1.3-0.7,2.3-1.5,2.9-2.3l14.8,7.5c-2.1,3.4-5.2,6.1-9.2,8.1
		c-4,2-8.6,3-13.9,3c-3.4,0-6.8-0.5-10-1.6c-3.2-1.1-6.1-2.7-8.6-4.8c-2.5-2.1-4.5-4.8-6-8c-1.5-3.2-2.3-6.9-2.3-11.1
		c0-3.9,0.7-7.4,2.1-10.6c1.4-3.2,3.3-5.8,5.6-8c2.4-2.2,5.2-3.9,8.4-5.1c3.2-1.2,6.7-1.8,10.3-1.8c3.7,0,7.1,0.6,10.2,1.9
		c3.1,1.3,5.7,3.1,7.9,5.4c2.2,2.3,3.9,5.1,5.1,8.3C646,81.9,646.6,85.3,646.6,89z M628.7,82.3c0-1.7-0.6-3.1-1.8-4.1
		c-1.2-1.1-2.9-1.6-5-1.6c-2.3,0-4.1,0.6-5.3,1.9c-1.3,1.3-2,2.6-2.2,3.9H628.7z"/>
</g>
</svg>
