<svg xmlns="http://www.w3.org/2000/svg" viewBox="0 0 376.88 58.02"><defs><style>.cls-1,.cls-2,.cls-3{fill:#fff;}.cls-2{opacity:0.9;}.cls-3{opacity:0.7;}</style></defs><title>logo-fcq-mobile</title><g id="Layer_2" data-name="Layer 2"><g id="logo"><path class="cls-1" d="M22.74,10.72a6.62,6.62,0,0,0-1.34-.14,2.91,2.91,0,0,0-2.66,1.18,5.38,5.38,0,0,0-.76,3v.39h6.22v9.24H18V44.58H5V24.36H0V15.12H5v-.67a21.08,21.08,0,0,1,.65-5.26A11.46,11.46,0,0,1,7.91,4.73a10.67,10.67,0,0,1,4.25-3.05A17.47,17.47,0,0,1,18.87.56a26.78,26.78,0,0,1,3,.2,12,12,0,0,1,2.88.64l-.84,9.69A5.9,5.9,0,0,0,22.74,10.72Z"/><path class="cls-1" d="M26.54,6.61a6.23,6.23,0,0,1,.53-2.55A6.63,6.63,0,0,1,28.53,2,7.13,7.13,0,0,1,30.69.53,6.57,6.57,0,0,1,33.32,0a6,6,0,0,1,2.52.53A7.36,7.36,0,0,1,37.94,2a6.66,6.66,0,0,1,1.46,2.1,6.24,6.24,0,0,1,.53,2.55,6.35,6.35,0,0,1-2,4.68,7.16,7.16,0,0,1-2.1,1.37,6.33,6.33,0,0,1-2.52.5,6.88,6.88,0,0,1-2.63-.5,7,7,0,0,1-2.16-1.37,6.29,6.29,0,0,1-1.46-2.07A6.36,6.36,0,0,1,26.54,6.61Zm.22,8.51H39.7V44.58H26.77Z"/><path class="cls-1" d="M45.7,15.12H58.13v3.36h.11a7.82,7.82,0,0,1,2.83-3,8.1,8.1,0,0,1,4.4-1.18,9,9,0,0,1,2.46.28l-1,11a9,9,0,0,0-1.37-.25,12.49,12.49,0,0,0-1.37-.08,5.57,5.57,0,0,0-4,1.46,4.78,4.78,0,0,0-1.51,3.58V44.58H45.7Z"/><path class="cls-1" d="M94.7,35.22a9.26,9.26,0,0,1-1.25,5,9.9,9.9,0,0,1-3.18,3.22,13.73,13.73,0,0,1-4.21,1.74,19.23,19.23,0,0,1-4.35.53,26.06,26.06,0,0,1-7.48-1.09,20,20,0,0,1-6.36-3.11l6.33-7.34a10.7,10.7,0,0,0,3.16,2,9.1,9.1,0,0,0,3.5.76,3.16,3.16,0,0,0,1.26-.25.92.92,0,0,0,.59-.92q0-.73-1-1.15a29,29,0,0,0-3.61-1,16.65,16.65,0,0,1-2.86-1,10.21,10.21,0,0,1-2.66-1.71,8.65,8.65,0,0,1-2-2.6,8,8,0,0,1-.78-3.67A9,9,0,0,1,71,19.71a10.49,10.49,0,0,1,3.19-3.28,14.11,14.11,0,0,1,4.2-1.85A17.09,17.09,0,0,1,82.71,14a23.46,23.46,0,0,1,6.78,1,22.46,22.46,0,0,1,6,2.8l-6,7.22a13.52,13.52,0,0,0-2.86-1.4,8.71,8.71,0,0,0-2.86-.5,4.18,4.18,0,0,0-1.57.25,1,1,0,0,0-.62,1q0,.56.7.87A19.89,19.89,0,0,0,85.5,26a16.83,16.83,0,0,1,3.37,1,11.84,11.84,0,0,1,3,1.79,7.88,7.88,0,0,1,2.87,6.36Z"/><path class="cls-1" d="M112.17,45.36q-5.94,0-8.79-2.55t-2.86-7.92V24.36H96.38V15.12h4.09V8.51H113v6.61h6.38v9.24H113V32.2a3.6,3.6,0,0,0,.92,2.88,3.91,3.91,0,0,0,2.55.76,7.77,7.77,0,0,0,1.29-.11,9.88,9.88,0,0,0,1.06-.22v8.85a11.57,11.57,0,0,1-2.83.73A25.25,25.25,0,0,1,112.17,45.36Z"/><path class="cls-2" d="M138.93,45.7A20.35,20.35,0,0,1,132,44.58a16.07,16.07,0,0,1-5.43-3.19,14.54,14.54,0,0,1-3.58-5,16,16,0,0,1-1.29-6.55,15.78,15.78,0,0,1,1.32-6.52,14.45,14.45,0,0,1,3.67-5,16.66,16.66,0,0,1,5.52-3.19A20.43,20.43,0,0,1,139.1,14a18.88,18.88,0,0,1,3.05.25,21.91,21.91,0,0,1,5.6,1.71,10,10,0,0,1,2,1.23l-6.44,9.3a4.32,4.32,0,0,0-1.76-1.16,6,6,0,0,0-2.1-.41,5.66,5.66,0,0,0-1.85.31,4.5,4.5,0,0,0-1.6,1,5.16,5.16,0,0,0-1.15,1.57,5.41,5.41,0,0,0,0,4.31A4.49,4.49,0,0,0,136,33.57a5,5,0,0,0,1.6.9,5.63,5.63,0,0,0,1.85.31,5.89,5.89,0,0,0,2.18-.42,4.63,4.63,0,0,0,1.74-1.15l6.5,9a16.21,16.21,0,0,1-4.79,2.45A19,19,0,0,1,138.93,45.7Z"/><path class="cls-2" d="M168,25.87a2.26,2.26,0,0,0-.92-2,4.18,4.18,0,0,0-2.44-.64,7.82,7.82,0,0,0-3.39.76,13.72,13.72,0,0,0-2.83,1.76L152,19.38a18.67,18.67,0,0,1,6.38-4A21.33,21.33,0,0,1,166,14a17.72,17.72,0,0,1,6.94,1.18,10.63,10.63,0,0,1,4.34,3.25,12.46,12.46,0,0,1,2.24,4.82,25.47,25.47,0,0,1,.64,5.82V44.58h-11.7V42.22h-.11a6.16,6.16,0,0,1-3.19,2.41,12.16,12.16,0,0,1-4,.73,13.26,13.26,0,0,1-3.56-.5,9.73,9.73,0,0,1-3.3-1.62,8.66,8.66,0,0,1-2.44-2.91,9.33,9.33,0,0,1-1-4.42,7.61,7.61,0,0,1,1.6-5,10.89,10.89,0,0,1,4.06-3A19.76,19.76,0,0,1,162,26.38a46.9,46.9,0,0,1,6-.39Zm.11,6.5a14,14,0,0,0-4.59.62,2.3,2.3,0,0,0-1.74,2.3,1.82,1.82,0,0,0,.28,1,2.37,2.37,0,0,0,.73.7,3.49,3.49,0,0,0,1,.42,3.85,3.85,0,0,0,1,.14,3.91,3.91,0,0,0,3-1.18,4.2,4.2,0,0,0,1.12-3v-1Z"/><path class="cls-2" d="M185.47,15.12H197.9v3.36H198a7.82,7.82,0,0,1,2.83-3,8.1,8.1,0,0,1,4.4-1.18,9,9,0,0,1,2.46.28l-1,11a9,9,0,0,0-1.37-.25,12.49,12.49,0,0,0-1.37-.08,5.57,5.57,0,0,0-4,1.46,4.78,4.78,0,0,0-1.51,3.58V44.58H185.47Z"/><path class="cls-3" d="M221.59,45.36a12,12,0,0,1-5.8-1.34,12.8,12.8,0,0,1-4.17-3.56,16.05,16.05,0,0,1-2.55-5,19.17,19.17,0,0,1-.87-5.71,18.45,18.45,0,0,1,.87-5.6,15.84,15.84,0,0,1,2.55-4.93,12.85,12.85,0,0,1,4.2-3.53,12.19,12.19,0,0,1,5.82-1.34,11.66,11.66,0,0,1,4.48,1,10.51,10.51,0,0,1,3.92,2.8h.11v-3h12.15V58H229.49V42.28h-.11a9,9,0,0,1-3.47,2.27A12,12,0,0,1,221.59,45.36Zm-1.4-15.62a5.25,5.25,0,0,0,1.23,3.56A4.48,4.48,0,0,0,225,34.72a4.8,4.8,0,0,0,3.67-1.46A5,5,0,0,0,230,29.74a4.83,4.83,0,0,0-5-4.87,4.43,4.43,0,0,0-3.58,1.46A5.12,5.12,0,0,0,220.19,29.74Z"/><path class="cls-3" d="M279.44,44.58h-12.6V41.33h-.11a9.38,9.38,0,0,1-3.33,2.83,10.44,10.44,0,0,1-5.07,1.2,10.75,10.75,0,0,1-5.15-1.09A9,9,0,0,1,250,41.41a11.1,11.1,0,0,1-1.68-4,20.84,20.84,0,0,1-.48-4.4V15.12h12.94V30.69a5.2,5.2,0,0,0,.71,3.14,2.53,2.53,0,0,0,2.12.9,2.58,2.58,0,0,0,2.12-1,4.74,4.74,0,0,0,.82-3V15.12h12.94Z"/><path class="cls-3" d="M317.8,29.74a16,16,0,0,1-1.37,6.78,14.92,14.92,0,0,1-3.7,5,16,16,0,0,1-5.38,3.11,19.69,19.69,0,0,1-12.77,0,15.72,15.72,0,0,1-5.35-3.11,15.08,15.08,0,0,1-3.67-5,16,16,0,0,1-1.37-6.78A15.65,15.65,0,0,1,285.57,23a14.85,14.85,0,0,1,3.67-5A15.61,15.61,0,0,1,294.58,15a20.19,20.19,0,0,1,12.77,0,15.94,15.94,0,0,1,5.38,3.05,14.69,14.69,0,0,1,3.7,5A15.65,15.65,0,0,1,317.8,29.74Zm-16.86-4.82a4.42,4.42,0,0,0-3.44,1.46,4.93,4.93,0,0,0-1.32,3.42,5,5,0,0,0,1.34,3.53,4.87,4.87,0,0,0,6.94,0,5,5,0,0,0,1.34-3.53,4.83,4.83,0,0,0-1.37-3.42A4.6,4.6,0,0,0,300.94,24.92Z"/><path class="cls-3" d="M335.38,45.36q-5.94,0-8.79-2.55t-2.86-7.92V24.36h-4.14V15.12h4.09V8.51h12.54v6.61h6.38v9.24h-6.38V32.2a3.6,3.6,0,0,0,.92,2.88,3.91,3.91,0,0,0,2.55.76,7.77,7.77,0,0,0,1.29-.11A9.88,9.88,0,0,0,342,35.5v8.85a11.57,11.57,0,0,1-2.83.73A25.25,25.25,0,0,1,335.38,45.36Z"/><path class="cls-3" d="M376.88,30.13q0,.73,0,1.48t-.08,1.26H356.94a2.52,2.52,0,0,0,.53,1.4,4.57,4.57,0,0,0,1.18,1.06,5.33,5.33,0,0,0,1.57.67,7,7,0,0,0,1.76.22,6.3,6.3,0,0,0,3-.64,5.67,5.67,0,0,0,1.82-1.43L376,38.81a13.53,13.53,0,0,1-5.68,5,19.23,19.23,0,0,1-8.65,1.85,19.52,19.52,0,0,1-6.22-1,15.84,15.84,0,0,1-5.35-3,14.62,14.62,0,0,1-3.72-5,16,16,0,0,1-1.4-6.89,16.22,16.22,0,0,1,1.29-6.58,14.73,14.73,0,0,1,3.5-5A15.67,15.67,0,0,1,355,15.12,18.17,18.17,0,0,1,361.36,14a16.14,16.14,0,0,1,6.33,1.2,14.37,14.37,0,0,1,4.9,3.36,15.12,15.12,0,0,1,3.16,5.12A18.11,18.11,0,0,1,376.88,30.13Zm-11.14-4.2a3.28,3.28,0,0,0-1.15-2.58,4.55,4.55,0,0,0-3.11-1,4.47,4.47,0,0,0-3.3,1.18,4.28,4.28,0,0,0-1.34,2.41Z"/></g></g></svg>