<?xml version="1.0" encoding="utf-8"?>
<!-- Generator: Adobe Illustrator 19.2.0, SVG Export Plug-In . SVG Version: 6.00 Build 0)  -->
<!DOCTYPE svg PUBLIC "-//W3C//DTD SVG 1.1//EN" "http://www.w3.org/Graphics/SVG/1.1/DTD/svg11.dtd">
<svg version="1.1" id="Layer_1" xmlns="http://www.w3.org/2000/svg" xmlns:xlink="http://www.w3.org/1999/xlink" x="0px" y="0px"
	 width="516px" height="203px" viewBox="0 0 516 203" style="enable-background:new 0 0 516 203;" xml:space="preserve">
<style type="text/css">
	.st0{fill:#41A5F5;}
	.st1{fill:#FFFFFF;}
	.st2{clip-path:url(#SVGID_2_);}
	.st3{clip-path:url(#SVGID_4_);}
	.st4{clip-path:url(#SVGID_6_);}
</style>
<g>
	<path class="st0" d="M514.7,66.2c5.9,18-11.3,27.8-11.3,27.8s16.9,7.6,10,24.6c-6.3,15.6-25.2,13.7-25.2,13.7s1.2,12.8-19.1,18.1
		c-22,5.7-27.6-5.3-27.6-5.3s-2.5,8-12.5,11c-11.8,3.5-20.8-2.4-20.8-2.4s-3.8,7.6-15.6,7.3c-10.9-0.2-15.1-8.8-15.1-8.8
		s-10.4,4.8-21.6-0.4c-13.2-6-13.7-17.5-13.7-17.5s-9.7,4.2-18.3-3.4c-9.6-8.6-6.8-20.4-6.8-20.4s-14.4-2-15.3-16
		c-1.1-17.3,13.3-21,13.3-21s-11.1-17.2,3.7-32.1c16-16,34.3-5.8,34.3-5.8s0.1-16.6,22.2-22.2c26.5-6.7,31.2,8.9,31.2,8.9
		c0,0.1,10.4-8.4,25.9-5c13.2,2.8,15.8,15,15.8,15s9.1-14.4,28.7-6.6c20.2,8,13.9,24.9,13.9,24.9S509.1,49.1,514.7,66.2z"/>
</g>
<g>
	<g>
		<path class="st0" d="M346.8,179.7c1.5-5.6,10.4-8.3,18.8-7.8s14.7,3.9,14.3,8.9c-0.4,4.9-7.5,8.5-15.9,8
			C355.6,188.2,345.2,185.7,346.8,179.7L346.8,179.7z"/>
	</g>
</g>
<g>
	<path class="st0" d="M241.8,93.5c3.8-18.6-13.7-25.6-13.7-25.6s18.6-9.7,9.6-28.4c-8.2-17.2-29.5-13.7-29.5-13.7
		s0.5-14.6-22.8-19.1c-25.2-4.9-30.8,7.9-30.8,7.9s-3.3-8.9-14.7-11.5c-13.6-3.1-23.3,4.2-23.3,4.2S111.7-1,98.4,0.1
		c-12.3,1-16.5,11-16.5,11s-12-4.7-24.4,1.9C43,20.7,43.2,33.7,43.2,33.7S32,29.6,22.8,38.9c-10.3,10.4-6.2,23.5-6.2,23.5
		S0.4,69.2,0.4,88c0,19.6,22,25.3,22,25.3s-3.9,13.1,11.7,24.4c17.4,12.7,33.3,5.2,33.3,5.2s4,13.9,22.8,16.9
		c33.1,5.3,31.2-10.1,31.2-10.1c0-0.1,14.7,14.8,32,10c14.7-4.1,16.8-18,16.8-18s11.9,8.9,33.4-1.3c19.1-9.1,15.8-26.5,15.8-26.5
		S238,112.2,241.8,93.5z"/>
</g>
<g>
	<g>
		<path class="st1" d="M369.9,88.6c0,1.3,0,4.1,0,5.3c0,3.1-1,3.5-5,3.5c-3.8,0-5.1-0.1-5.1-3.3c0-1.3,0-4.7,0-6
			c-0.2,0-2.2-0.4-2.2-1c0-3.8,0-7.6,0-11.4c0-5,3.9-6.7,3.9-6.7s2-7.9,3-11.8c0.8-3.1,1.9-5.6,8.5-6.6c6.9-0.8,16.7-0.8,23.4,0
			c5.9,0.8,7.6,3,8.4,6.3c1,4,3,12,3,12s4,2.1,4,6.9c0,3.7,0,7.5,0,11.2c0,0.7-2.2,1.1-2.3,1.1c0,0.1,0,0.2,0,0.4c0,1.1,0,2.3,0,3.4
			c0,5.1-1,5.5-4.8,5.5c-4.4,0-5.3-0.3-5.3-5.5c0-1.1,0-1.8,0-2.9c0-0.1,0-0.3,0-0.5C390.5,89.6,379.1,89.6,369.9,88.6z M368,68
			c9.5-1.1,24-1.2,33.7,0c0-0.1-1-6.1-2.5-11.2c-0.6-2.8-27.5-3.1-28.6,0.1C368.9,61.5,368,68,368,68z M407.8,78.7
			c0-2.6-2.1-4.7-4.7-4.7c-2.8,0-4.8,2.5-4.7,4.9c0.1,1.9,1.8,4.5,4.7,4.5C405.7,83.4,407.8,81.3,407.8,78.7z M370.6,78.7
			c0-2.5-2.1-4.6-4.7-4.7c-2.8,0-4.8,2.6-4.7,4.9c0.1,1.8,1.8,4.6,4.7,4.5C368.5,83.4,370.6,81.3,370.6,78.7z"/>
	</g>
</g>
<g>
	<g>
		<g>
			<g>
				<g>
					<path class="st1" d="M435.1,121.3c0,0.7,0,2.4,0,3.1c0,1.8-0.6,2-2.9,2c-2.2,0-2.9,0-2.9-1.9c0-0.7,0-2.7,0-3.4
						c-0.1,0-1.3-0.2-1.3-0.6c0-2.2,0-4.4,0-6.6c0-2.9,2.3-3.8,2.3-3.8s1.1-4.5,1.7-6.8c0.5-1.8,1.1-3.2,4.9-3.8
						c4-0.5,9.6-0.5,13.5,0c3.4,0.5,4.4,1.7,4.8,3.6c0.6,2.3,1.7,6.9,1.7,6.9s2.3,1.2,2.3,4c0,2.2,0,4.3,0,6.5
						c0,0.4-1.3,0.6-1.3,0.6c0,0.1,0,0.1,0,0.2c0,0.7,0,1.3,0,2c0,3-0.6,3.2-2.7,3.2c-2.6,0-3-0.2-3-3.2c0-0.6,0-1,0-1.7
						c0-0.1,0-0.2,0-0.3C447,121.9,440.4,121.9,435.1,121.3z M434,109.5c5.5-0.6,13.8-0.7,19.4,0c0,0-0.6-3.5-1.5-6.5
						c-0.4-1.6-15.8-1.8-16.5,0.1C434.5,105.7,434,109.5,434,109.5z M456.9,115.7c0-1.5-1.2-2.7-2.7-2.7c-1.6,0-2.8,1.5-2.7,2.8
						c0,1.1,1,2.6,2.7,2.6C455.7,118.4,456.9,117.2,456.9,115.7z M435.5,115.6c0-1.5-1.2-2.7-2.7-2.7c-1.6,0-2.8,1.5-2.7,2.8
						c0,1,1,2.6,2.7,2.6C434.3,118.4,435.5,117.2,435.5,115.6z"/>
				</g>
			</g>
		</g>
	</g>
	<g>
		<g>
			<g>
				<defs>
					<polygon id="SVGID_1_" points="443.8,102.1 421.9,80.4 465.5,80.4 					"/>
				</defs>
				<clipPath id="SVGID_2_">
					<use xlink:href="#SVGID_1_"  style="overflow:visible;"/>
				</clipPath>
				<g class="st2">
					<path class="st1" d="M443.6,112.3c-5.7,0-10.3-4.6-10.3-10.3c0-5.7,4.6-10.3,10.3-10.3c5.7,0,10.3,4.6,10.3,10.3
						C453.9,107.6,449.3,112.3,443.6,112.3z M443.6,94c-4.4,0-7.9,3.5-7.9,7.9s3.5,7.9,7.9,7.9s7.9-3.5,7.9-7.9
						C451.5,97.6,447.9,94,443.6,94z"/>
				</g>
			</g>
		</g>
		<g>
			<g>
				<defs>
					<polygon id="SVGID_3_" points="443.8,102.1 421.9,80.4 465.5,80.4 					"/>
				</defs>
				<clipPath id="SVGID_4_">
					<use xlink:href="#SVGID_3_"  style="overflow:visible;"/>
				</clipPath>
				<g class="st3">
					<path class="st1" d="M443.6,117.1c-8.4,0-15.2-6.8-15.2-15.2s6.8-15.2,15.2-15.2c8.4,0,15.2,6.8,15.2,15.2
						C458.8,110.3,452,117.1,443.6,117.1z M443.6,89.2c-7,0-12.7,5.7-12.7,12.7s5.7,12.7,12.7,12.7s12.7-5.7,12.7-12.7
						C456.3,94.9,450.6,89.2,443.6,89.2z"/>
				</g>
			</g>
		</g>
		<g>
			<g>
				<defs>
					<polygon id="SVGID_5_" points="443.8,102.1 421.9,80.4 465.5,80.4 					"/>
				</defs>
				<clipPath id="SVGID_6_">
					<use xlink:href="#SVGID_5_"  style="overflow:visible;"/>
				</clipPath>
				<g class="st4">
					<path class="st1" d="M443.6,121.8c-11,0-19.9-8.9-19.9-19.9S432.6,82,443.6,82s19.9,8.9,19.9,19.9S454.6,121.8,443.6,121.8z
						 M443.6,84.5c-9.6,0-17.5,7.8-17.5,17.5s7.8,17.5,17.5,17.5c9.6,0,17.5-7.8,17.5-17.5S453.2,84.5,443.6,84.5z"/>
				</g>
			</g>
		</g>
	</g>
</g>
<g>
	<g>
		<g>
			<g>
				<g>
					<path class="st1" d="M75.2,80.2l1-1.5c0-4.9,3-8,5.3-9.6c0.5-2,1.7-5.9,2.5-9c-4,0.1-7.7,0.3-11,0.7c0,0,0.9-6,2.4-10.3
						c0.6-1.8,10.5-2.4,18-2c1.1-0.3,2.3-0.6,3.6-0.8c2.6-0.3,5.5-0.5,8.6-0.6c-1.2-1.2-2.9-2-6-2.4c-6.2-0.7-15.3-0.7-21.8,0
						c-6.1,1-7.1,3.2-7.9,6.1c-0.9,3.7-2.7,11-2.7,11s-3.6,1.5-3.6,6.2c0,3.5,0,7.1,0,10.6c0,0.6,1.9,0.9,2,0.9c0,1.2,0,4.4,0,5.6
						c0,3-0.9,3.1,2.6,3.1c3.7,0,2.5-0.3,2.5-3.2c0-1.1,0-3.8,0-5C73.1,80.1,74.4,80.1,75.2,80.2z M71.3,75.2
						c-2.8,0-4.3-2.5-4.4-4.2c-0.1-2.1,1.8-4.5,4.4-4.5c2.4,0,4.3,2,4.3,4.3C75.6,73.3,73.7,75.2,71.3,75.2z"/>
				</g>
			</g>
		</g>
		<g>
			<g>
				<g>
					<path class="st1" d="M95.6,93.2l0.8-4.2c0-5.5,3.2-8.9,5.7-10.5c0.5-2,1.6-5.8,2.5-9.1c-4.6,0.1-8.9,0.4-12.6,0.8
						c0,0,1.1-7.1,2.8-12.3c0.7-2.1,11.4-2.8,20.2-2.4c1.2-0.4,2.6-0.7,4.2-1c3.4-0.4,7.3-0.6,11.4-0.7c-1.4-1.3-3.5-2.3-7-2.7
						c-7.4-0.9-18.2-0.9-25.8,0c-7.3,1.1-8.4,3.8-9.4,7.3c-1.1,4.3-3.3,13-3.3,13s-4.3,1.8-4.3,7.3c0,4.2,0,8.4,0,12.6
						c0,0.7,2.2,1.1,2.4,1.1c0,1.5,0,5.2,0,6.6c0,3.5-0.2,3.6,4,3.6c4.3,0,3.9-0.4,3.9-3.8c0-1.3,0-4.5,0-5.9
						C93.3,93,94.6,93.1,95.6,93.2z M89.8,87.3c-3.3,0-5.1-3-5.2-5c-0.1-2.5,2.1-5.4,5.2-5.3c2.8,0,5.1,2.3,5.1,5.1
						C94.9,85,92.6,87.2,89.8,87.3z"/>
				</g>
			</g>
			<path class="st1" d="M115.8,105c0,1.6,0,5.1,0,6.6c0,3.9-1.3,4.3-6.1,4.3c-4.8,0-6.3-0.1-6.3-4.1c0-1.6,0-5.8,0-7.4
				c-0.2,0-2.7-0.5-2.7-1.3c0-4.7,0-9.4,0-14.1c0-6.3,4.8-8.3,4.8-8.3s2.5-9.8,3.7-14.6c1-3.9,2.3-6.9,10.5-8.2c8.6-1,20.7-1,29,0
				c7.3,1,9.4,3.7,10.4,7.8c1.3,4.9,3.7,14.8,3.7,14.8s4.9,2.7,4.9,8.6c0,4.6,0,9.3,0,13.9c0,0.9-2.8,1.3-2.9,1.4c0,0.1,0,0.3,0,0.4
				c0,1.4,0,2.8,0,4.2c0,6.4-1.2,6.8-5.9,6.8c-5.5,0-6.6-0.4-6.6-6.8c0-1.4,0-2.2,0-3.6c0-0.2,0-0.3,0-0.6
				C141.4,106.3,127.2,106.3,115.8,105z M113.4,79.5c11.8-1.3,29.8-1.4,41.7,0c0-0.1-1.3-7.6-3.2-13.9c-0.8-3.4-34.1-3.8-35.4,0.1
				C114.6,71.5,113.4,79.5,113.4,79.5z M162.8,92.8c0-3.2-2.6-5.8-5.8-5.8c-3.5,0-6,3.1-5.8,6c0.1,2.4,2.2,5.6,5.8,5.6
				C160.2,98.6,162.7,96.1,162.8,92.8z M116.6,92.8c0-3.2-2.6-5.7-5.8-5.8c-3.5,0-6,3.2-5.9,6c0.1,2.2,2.2,5.6,5.8,5.6
				C114.1,98.6,116.6,96.1,116.6,92.8z"/>
		</g>
	</g>
</g>
<g>
	<g>
		<path class="st0" d="M116.2,158.9c2-12.4,20.6-20.4,38.8-21.2c18.3-0.8,32.8,5.2,33,16c0.3,10.8-14.3,20.2-32.6,21
			C137.2,175.4,114,172.4,116.2,158.9L116.2,158.9z"/>
	</g>
</g>
<g>
	<g>
		<path class="st0" d="M202.7,181.2c-1.2-4.3-8-6.5-14.5-6.1s-11.4,3-11.1,6.9c0.3,3.8,5.8,6.6,12.3,6.2
			C195.8,187.8,203.9,185.9,202.7,181.2L202.7,181.2z"/>
	</g>
	<g>
		<path class="st0" d="M229.8,196.5c-0.9-3.3-6.1-4.9-11-4.6c-4.9,0.3-8.7,2.3-8.4,5.2c0.2,2.9,4.4,5,9.3,4.7
			C224.6,201.5,230.7,200,229.8,196.5L229.8,196.5z"/>
	</g>
</g>
</svg>
