<?xml version="1.0" encoding="UTF-8" standalone="no"?>
<svg width="112px" height="100px" viewBox="0 0 112 100" version="1.1" xmlns="http://www.w3.org/2000/svg" xmlns:xlink="http://www.w3.org/1999/xlink">
    <!-- Generator: Sketch 3.7 (28169) - http://www.bohemiancoding.com/sketch -->
    <title>mob-step3-img</title>
    <desc>Created with Sketch.</desc>
    <defs>
        <rect id="path-1" x="0.0485470054" y="0" width="113.951453" height="145"></rect>
        <polygon id="path-3" points="0 0.0294456937 155.16129 0.0294456937 155.16129 72.1419495 0 72.1419495"></polygon>
        <rect id="path-5" x="67.3990299" y="45.8877951" width="6.29022325" height="6.28148925"></rect>
        <mask id="mask-6" maskContentUnits="userSpaceOnUse" maskUnits="objectBoundingBox" x="0" y="0" width="6.81375491" height="6.80581537" fill="white">
            <use xlink:href="#path-5"></use>
        </mask>
    </defs>
    <g id="Page-1" stroke="none" stroke-width="1" fill="none" fill-rule="evenodd">
        <g id="Artboard-2" transform="translate(-214.000000, -866.000000)">
            <g id="Group-12" transform="translate(212.000000, 818.000000)">
                <g id="Group-5">
                    <mask id="mask-2" fill="white">
                        <use xlink:href="#path-1"></use>
                    </mask>
                    <g id="Mask"></g>
                    <g mask="url(#mask-2)">
                        <g transform="translate(17.298387, 57.057762)">
                            <g id="Page-1-Copy-2" stroke="none" stroke-width="1" fill="none" fill-rule="evenodd" transform="translate(95.508065, 45.004288) scale(-1, 1) translate(-95.508065, -45.004288) translate(17.508065, 8.504288)">
                                <path d="M126.365276,45.3622689 C118.942655,45.3622689 112.925353,51.3574121 112.925353,58.7526981 C112.925353,66.1465118 118.942655,72.141655 126.365276,72.141655 C133.787896,72.141655 139.805199,66.1465118 139.805199,58.7526981 C139.805199,51.3574121 133.787896,45.3622689 126.365276,45.3622689" id="Fill-1" fill="#2350A0"></path>
                                <g id="Group-7" transform="translate(0.000000, 0.000000)">
                                    <mask id="mask-4" fill="white">
                                        <use xlink:href="#path-3"></use>
                                    </mask>
                                    <g id="Clip-6"></g>
                                    <path d="M147.51243,38.6206773 C138.67858,38.4631429 137.868786,32.9170465 138.097834,30.0784816 C138.162854,29.2819756 138.975603,28.9197936 139.73811,29.170082 C143.710239,30.4730539 146.981926,34.0021203 148.42862,36.7965166 C148.867505,37.6445526 148.469997,38.6383448 147.51243,38.6206773 L147.51243,38.6206773 Z M104.370202,23.641653 L57.450906,23.641653 L57.450906,5.97423679 L81.403376,5.97423679 C82.0742639,5.97423679 82.7377631,6.01987761 83.3805742,6.20980234 C87.1074006,7.30812671 98.4519075,11.839819 105.939548,19.7297926 C107.259158,21.1211016 106.291247,23.641653 104.370202,23.641653 L104.370202,23.641653 Z M53.0177263,23.641653 L24.0912286,23.641653 C21.635247,23.641653 19.8649306,20.9959574 20.6215266,18.666803 C21.808141,15.0184816 23.6124452,12.1210253 25.2911425,10.0907448 C27.4102025,7.52455256 30.579926,5.97423679 33.9151548,5.97423679 L53.0177263,5.97423679 L53.0177263,23.641653 Z M116.916101,22.4137676 C105.181474,9.35313013 86.5030104,1.78853143 86.5030104,1.78853143 C80.2389275,-1.04856115 29.9888353,0.180796559 23.7853392,1.10686362 C8.60022089,3.37712661 0.855455914,27.3576995 2.600651,42.6385422 C2.73364639,43.7972303 0.456469739,44.3243082 0.323474347,45.3622689 C-1.50004025,59.4328936 4.98717942,58.9249554 4.98717942,58.9249554 L9.97893978,59.2238292 C9.97450661,59.067767 9.96711797,58.9102326 9.96711797,58.7526981 C9.96711797,48.8663065 18.0399382,40.8232152 27.9613945,40.8232152 C37.8843284,40.8232152 45.9571487,48.8663065 45.9571487,58.7526981 C45.9571487,59.5977895 45.8936065,60.4281581 45.7798215,61.2438038 L108.530003,61.1068813 C108.42804,60.3354041 108.370408,59.5506764 108.370408,58.7526981 C108.370408,48.8663065 116.443229,40.8232152 126.364685,40.8232152 C136.287619,40.8232152 144.360439,48.8663065 144.360439,58.7526981 C144.360439,59.5241753 144.209707,60.5617253 144.209711,61.0288502 C144.209711,61.0288502 153.133384,61.0288515 154.03807,57.0227636 C160.438104,28.9639621 137.397391,24.9652369 137.397391,24.9652369 L116.916101,22.4137676 Z" id="Fill-5" fill="#2350A0" mask="url(#mask-4)"></path>
                                </g>
                            </g>
                            <use id="Rectangle-27-Copy-2" stroke="#41A5F5" mask="url(#mask-6)" stroke-width="2" stroke-dasharray="1" fill="none" transform="translate(70.544141, 49.028540) rotate(-1.000000) translate(-70.544141, -49.028540) " xlink:href="#path-5"></use>
                            <polygon id="Combined-Shape" stroke="#FFFFFF" stroke-width="2" stroke-linecap="round" stroke-linejoin="round" fill="#2350A0" fill-rule="evenodd" points="11.3786858 30.7588208 68.7420457 48.2518826 26.9345389 3.97905855"></polygon>
                            <ellipse id="Oval-30" stroke="#2350A0" stroke-width="2" stroke-linecap="round" stroke-linejoin="round" fill="#FFFFFF" fill-rule="evenodd" cx="14.829482" cy="14.8001749" rx="14.4869897" ry="14.4668744"></ellipse>
                        </g>
                    </g>
                    <rect id="Rectangle-27-Copy-2" fill="#40A4F4" mask="url(#mask-2)" transform="translate(31.973935, 71.712932) rotate(-1.000000) translate(-31.973935, -71.712932) " x="24.8459535" y="64.5948483" width="14.2559624" height="14.2361679"></rect>
                </g>
            </g>
        </g>
    </g>
</svg>