<?xml version="1.0" encoding="UTF-8" standalone="no"?>
<svg width="112px" height="80px" viewBox="0 0 112 80" version="1.1" xmlns="http://www.w3.org/2000/svg" xmlns:xlink="http://www.w3.org/1999/xlink">
    <!-- Generator: Sketch 3.7 (28169) - http://www.bohemiancoding.com/sketch -->
    <title>mob-step4-img</title>
    <desc>Created with Sketch.</desc>
    <defs>
        <polygon id="path-1" points="0 0.0198851995 105 0.0198851995 105 48.7187387 0 48.7187387"></polygon>
    </defs>
    <g id="Page-1" stroke="none" stroke-width="1" fill="none" fill-rule="evenodd">
        <g id="Artboard-2" transform="translate(-214.000000, -978.000000)">
            <text id="Once-the-box-is-fitt" font-family="Calibri" font-size="14" font-weight="normal" fill="#4F4F4F">
                <tspan x="61" y="1003">Once the box is fitted, </tspan>
                <tspan x="61" y="1020">you can continue to </tspan>
                <tspan x="61" y="1037">drive as normal.</tspan>
            </text>
            <g id="Group-18" transform="translate(217.000000, 989.000000)">
                <g id="Imported-Layers-Copy-2" transform="translate(71.212871, 0.000000)" fill="#41A5F5">
                    <g id="Group-6" transform="translate(0.259007, 0.000000)">
                        <g id="Fill-5-+-Clip-3">
                            <path d="M7.97203615,14.6396731 C10.1590484,12.4619073 13.1878609,11.1118087 16.5301575,11.1118087 C19.9790903,11.1118087 23.0942163,12.5494315 25.2950212,14.8506288 L23.2926184,16.8405264 C21.606172,15.0438982 19.1985669,13.9179708 16.5301575,13.9179708 C13.9764482,13.9179708 11.661604,14.9491838 9.98913023,16.612599 L7.97203615,14.6396731 Z M3.96485881,10.7202406 C7.17480676,7.5199248 11.6224492,5.53528342 16.5301575,5.53528342 C21.5287516,5.53528342 26.0498903,7.5936201 29.2723886,10.8981005 L27.2713457,12.8866466 C24.562724,10.0871841 20.7489519,8.34144547 16.5301575,8.34144547 C12.4098587,8.34144547 8.67618601,10.0066206 5.98106942,12.6923024 L3.96485881,10.7202406 Z M0.0270335433,6.86864156 C4.24209307,2.66361966 10.0839761,0.0557612309 16.5301575,0.0557612309 C23.0514369,0.0557612309 28.9540663,2.72425047 33.1798083,7.01508302 L31.1787733,9.00362136 C27.466718,5.21790113 22.2715199,2.86192328 16.5301575,2.86192328 C10.8714975,2.86192328 5.74367565,5.15051586 2.04346367,8.84091808 L0.0270335433,6.86864156 Z" id="Fill-5"></path>
                        </g>
                    </g>
                </g>
                <g id="Page-1" transform="translate(0.000000, 8.216216)">
                    <path d="M85.5133,30.6339452 C80.4903,30.6339452 76.4183,34.6825718 76.4183,39.6767397 C76.4183,44.6699133 80.4903,48.7185399 85.5133,48.7185399 C90.5363,48.7185399 94.6083,44.6699133 94.6083,39.6767397 C94.6083,34.6825718 90.5363,30.6339452 85.5133,30.6339452" id="Fill-1" fill="#2350A0"></path>
                    <path d="M18.9222,30.6339452 C13.8992,30.6339452 9.8272,34.6825718 9.8272,39.6767397 C9.8272,44.6699133 13.8992,48.7185399 18.9222,48.7185399 C23.9452,48.7185399 28.0172,44.6699133 28.0172,39.6767397 C28.0172,34.6825718 23.9452,30.6339452 18.9222,30.6339452" id="Fill-3" fill="#2350A0"></path>
                    <g id="Group-7">
                        <mask id="mask-2" fill="white">
                            <use xlink:href="#path-1"></use>
                        </mask>
                        <g id="Clip-6"></g>
                        <path d="M99.8239,26.0812288 C93.8459,25.974843 93.2979,22.2294657 93.4529,20.3125324 C93.4969,19.7746378 94.0469,19.5300498 94.5629,19.699074 C97.2509,20.5789941 99.4649,22.9622353 100.4439,24.8493407 C100.7409,25.4220344 100.4719,26.0931599 99.8239,26.0812288 L99.8239,26.0812288 Z M70.6289,15.9656278 L38.8779,15.9656278 L38.8779,4.03450812 L55.0869,4.03450812 C55.5409,4.03450812 55.9899,4.06533018 56.4249,4.19358972 C58.9469,4.93530766 66.6239,7.99563986 71.6909,13.3238791 C72.5839,14.2634547 71.9289,15.9656278 70.6289,15.9656278 L70.6289,15.9656278 Z M35.8779,15.9656278 L16.3029,15.9656278 C14.6409,15.9656278 13.4429,14.1789426 13.9549,12.6060234 C14.7579,10.1422471 15.9789,8.18554352 17.1149,6.81445901 C18.5489,5.08146388 20.6939,4.03450812 22.9509,4.03450812 L35.8779,4.03450812 L35.8779,15.9656278 Z M79.1189,15.136415 C71.1779,6.31633476 58.5379,1.20782702 58.5379,1.20782702 C54.2989,-0.708111954 20.2939,0.122095125 16.0959,0.747484649 C5.8199,2.28063353 0.5789,18.47514 1.7599,28.7945643 C1.8499,29.5770469 0.3089,29.9329919 0.2189,30.6339452 C-1.0151,40.1360878 3.3749,39.7930681 3.3749,39.7930681 L6.7529,39.9949029 C6.7499,39.8895113 6.7449,39.7831255 6.7449,39.6767397 C6.7449,33.000284 12.2079,27.5686417 18.9219,27.5686417 C25.6369,27.5686417 31.0999,33.000284 31.0999,39.6767397 C31.0999,40.2474449 31.0569,40.8082075 30.9799,41.3590276 L73.4439,41.2665614 C73.3749,40.7455692 73.3359,40.2156286 73.3359,39.6767397 C73.3359,33.000284 78.7989,27.5686417 85.5129,27.5686417 C92.2279,27.5686417 97.6909,33.000284 97.6909,39.6767397 C97.6909,40.1977319 97.5888973,40.8984079 97.5889,41.2138656 C97.5889,41.2138656 103.627685,41.2138665 104.2399,38.5084842 C108.5709,19.5598776 92.9789,16.8594675 92.9789,16.8594675 L79.1189,15.136415 Z" id="Fill-5" fill="#2350A0" mask="url(#mask-2)"></path>
                    </g>
                </g>
            </g>
        </g>
    </g>
</svg>