<?xml version="1.0" encoding="utf-8"?>
<!-- Generator: Adobe Illustrator 19.2.1, SVG Export Plug-In . SVG Version: 6.00 Build 0)  -->
<!DOCTYPE svg PUBLIC "-//W3C//DTD SVG 1.1//EN" "http://www.w3.org/Graphics/SVG/1.1/DTD/svg11.dtd">
<svg version="1.1" id="Layer_1" xmlns="http://www.w3.org/2000/svg" xmlns:xlink="http://www.w3.org/1999/xlink" x="0px" y="0px"
	 viewBox="0 0 112 100" style="enable-background:new 0 0 112 100;" xml:space="preserve">
<style type="text/css">
	.st0{fill:#FFFFFF;}
	.st1{fill:#2350A0;}
	.st2{fill:#FFFFFF;stroke:#2350A0;stroke-width:2.3191;}
	.st3{filter:url(#Adobe_OpacityMaskFilter);}
	.st4{mask:url(#mask-2);}
	.st5{fill:none;stroke:#FFFFFF;stroke-width:1.5461;stroke-linecap:round;}
</style>
<g>
	<rect id="path-3" x="-2" y="64" class="st0" width="114" height="145"/>
</g>
<title>mob-step1-img</title>
<desc>Created with Sketch.</desc>
<g id="Page-1">
	<g id="Artboard-2" transform="translate(-214.000000, -754.000000)">
		<g id="Group" transform="translate(227.000000, 759.000000)">
			<g id="Group-Copy-3" transform="translate(0.000000, 57.977737)">
				<g id="brother" transform="translate(0.000000, 0.371432)">
					<path id="shouders" class="st1" d="M34.3,0.7L44.8,11c0,0,6.4-4.8,10.9-10.5c0,0,32.3,13,32.3,32.2c-7.4,0-65.2,0-87.9,0
						C0.1,12.9,34.3,0.7,34.3,0.7z"/>
				</g>
			</g>
			<g id="Group-21-Copy-3" transform="translate(21.614035, 0.000000)">
				<path id="Combined-Shape" class="st2" d="M42.3,24.4C39.5,14.9,32,8.1,23.2,8.1C14.4,8.1,6.9,14.9,4,24.4
					c-1.8,0.1-3.2,3.1-3.2,6.8c0,3.1,1,5.8,2.4,6.6c2.2,11.6,11.8,21,20,21c8.1,0,17.7-9.2,19.9-20.8c1.6-0.4,2.9-3.3,2.9-6.8
					c0-3.8-1.5-6.8-3.3-6.8C42.6,24.4,42.5,24.4,42.3,24.4z"/>
				<path id="Combined-Shape_1_" class="st1" d="M4.2,25.1c-0.6,0-1.1,0.1-1.6,0.1C2.6,11.3,6.6,0,24.1,0s20.7,10.4,20.7,24.3
					c0,0.5-0.6,0.9-1.6,1.1c0,0.9,0,2.5,0,5.2c-18-6.8-28.5-2.9-39.7,0.1v-5.3C3.7,25.4,3.9,25.2,4.2,25.1z"/>
			</g>
			<g id="Group-34-Copy-9" transform="translate(51.117647, 65.584416)">
				<g id="Mask">
				</g>
				<defs>
					<filter id="Adobe_OpacityMaskFilter" filterUnits="userSpaceOnUse" x="0.7" y="4.1" width="16.1" height="21.4">
						<feColorMatrix  type="matrix" values="1 0 0 0 0  0 1 0 0 0  0 0 1 0 0  0 0 0 1 0"/>
					</filter>
				</defs>
				<mask maskUnits="userSpaceOnUse" x="0.7" y="4.1" width="16.1" height="21.4" id="mask-2">
					<g class="st3">
						<polygon id="path-1" class="st0" points="0,0 17.5,0 17.5,28.4 0,28.4 						"/>
					</g>
				</mask>
				<g id="Combined-Shape_2_" class="st4">
					
						<g transform="translate(8.506634, 34.120203) rotate(-270.000000) translate(-8.506634, -34.120203) translate(-21.581601, 25.678645)">
						<path class="st0" d="M21.5,4.7c0,0-2.2,0-2.2,0l-4.7,0c-1.3-2.7-4-4.6-7.2-4.6c-3.4,0-6.3,2.2-7.4,5.2h6.2c0.5,0,1,0.4,1,1
							v3.8c0,0.5-0.4,1-1,1H0.1c1.1,3,4,5.2,7.4,5.2c3.2,0,5.9-1.9,7.2-4.6h6.8c0,0,0,0,0,0"/>
					</g>
				</g>
			</g>
			<path id="Path-170" class="st5" d="M62.5,23c0,0-17.4-7.2-34.7,0.1"/>
		</g>
		<g id="Group-12" transform="translate(212.000000, 818.000000)">
			<g id="Group-5">
				<g id="Mask_1_">
				</g>
			</g>
		</g>
	</g>
</g>
</svg>
