<?xml version="1.0" encoding="UTF-8" standalone="no"?>
<svg width="112px" height="80px" viewBox="0 0 112 80" version="1.1" xmlns="http://www.w3.org/2000/svg" xmlns:xlink="http://www.w3.org/1999/xlink">
    <!-- Generator: Sketch 3.7 (28169) - http://www.bohemiancoding.com/sketch -->
    <title>mob-step6-img</title>
    <desc>Created with Sketch.</desc>
    <defs></defs>
    <g id="Page-1" stroke="none" stroke-width="1" fill="none" fill-rule="evenodd">
        <g id="Artboard-2" transform="translate(-210.000000, -1191.000000)">
            <g id="Group-20" transform="translate(219.000000, 1198.000000)">
                <g id="Group-2">
                    <rect id="Rectangle-22-Copy-5" fill="#2350A0" x="0" y="47.3571429" width="31.7445058" height="17.3156069"></rect>
                    <rect id="Rectangle-22-Copy-4" fill="#2350A0" x="31.5121951" y="26.4642857" width="31.7445058" height="38.1650112"></rect>
                    <ellipse id="Oval-76-Copy-5" fill="#EDC00F" cx="47.637841" cy="35.6559573" rx="5.46710934" ry="5.47738586"></ellipse>
                    <ellipse id="Oval-76-Copy-3" fill="#AA725B" cx="16.5890606" cy="56.0845287" rx="5.46710934" ry="5.47738586"></ellipse>
                    <path d="M39.8163891,20.4183182 C39.8163891,21.0833306 39.8173049,22.599154 39.8163891,23.2430111 C39.8163891,24.9050821 39.2770015,25.0816829 37.2027857,25.0816829 C35.1771057,25.0816829 34.5333204,25.0402921 34.5214154,23.3432688 C34.5159208,22.6653793 34.5204997,20.8754567 34.5204997,20.1754921 C34.4353332,20.1708932 33.3739575,19.9694579 33.3721259,19.6392512 C33.3565579,17.6248984 33.3748732,15.6105457 33.3748732,13.5961929 C33.3748732,10.9214267 35.4390155,10.068776 35.4390155,10.068776 C35.4390155,10.068776 36.4848232,5.89934173 36.995822,3.81140529 C37.4372225,2.1493343 37.9921782,0.871737954 41.4730144,0.319860482 C45.1269309,-0.106004968 50.2836235,-0.106004968 53.8258162,0.316181298 C56.9495027,0.740207156 57.8094094,1.87891434 58.258136,3.65504001 C58.792029,5.76597134 59.8332579,9.99335278 59.8332579,9.99335278 C59.8332579,9.99335278 61.9193786,11.1302204 61.9193786,13.6624182 C61.9404413,15.6418187 61.925789,17.622139 61.9248732,19.6024594 C61.9239574,19.982335 60.7481106,20.171813 60.7004907,20.1828505 L60.7004907,20.3714087 C60.7004907,20.9729551 60.7023222,21.5754213 60.7004907,22.1778876 C60.7004907,24.9050821 60.1702607,25.089961 58.1903691,25.089961 C55.8551593,25.089961 55.4000224,24.9050821 55.4000224,22.1843261 C55.4064327,21.5956568 55.4009381,21.2470542 55.4009381,20.6583849 L55.4009381,20.4183182 C50.6993825,20.9701957 44.6507313,20.9701957 39.8163891,20.4183182 L39.8163891,20.4183182 Z M38.7953072,9.49482346 C43.8100557,8.93006885 51.4594703,8.88039988 56.5456488,9.49482346 C56.5364911,9.44975347 56.0035138,6.24610474 55.2022164,3.54926349 C54.8652135,2.08586839 40.6891166,1.92306454 40.1277504,3.60169185 C39.2971484,6.08238109 38.7953072,9.49482346 38.7953072,9.49482346 L38.7953072,9.49482346 Z M59.7929641,15.2003167 C59.7947956,13.8353398 58.6793895,12.7288255 57.3194732,12.7223869 C55.8395913,12.7141087 54.7791313,14.0579304 54.8313301,15.307013 C54.8743712,16.316029 55.7864767,17.7003217 57.3112313,17.6911237 C58.6867157,17.6828456 59.7902167,16.5855292 59.7929641,15.2003167 L59.7929641,15.2003167 Z M40.16896,15.1938782 C40.1735389,13.8426982 39.0654589,12.7407828 37.7101215,12.7223869 C36.2128399,12.7012316 35.1606219,14.086444 35.2091576,15.2932161 C35.2467041,16.2534829 36.1331681,17.7058405 37.696385,17.6911237 C39.0672905,17.6791664 40.1643812,16.5836896 40.16896,15.1938782 L40.16896,15.1938782 Z" id="Fill-1-Copy" fill="#2350A0"></path>
                    <rect id="Rectangle-22-Copy-3" fill="#2350A0" x="63.0243902" y="40.8571429" width="31.7445058" height="23.6764421"></rect>
                    <ellipse id="Oval-76-Copy-4" fill="#C2C2C2" cx="78.6866215" cy="50.0488144" rx="5.46710934" ry="5.47738586"></ellipse>
                </g>
            </g>
        </g>
    </g>
</svg>