<?xml version="1.0" encoding="utf-8"?>
<!-- Generator: Adobe Illustrator 19.1.0, SVG Export Plug-In . SVG Version: 6.00 Build 0)  -->
<!DOCTYPE svg PUBLIC "-//W3C//DTD SVG 1.1//EN" "http://www.w3.org/Graphics/SVG/1.1/DTD/svg11.dtd">
<svg version="1.1" id="Layer_1" xmlns="http://www.w3.org/2000/svg" xmlns:xlink="http://www.w3.org/1999/xlink" x="0px" y="0px"
	 width="140px" height="64px" viewBox="0 0 140 64" style="enable-background:new 0 0 140 64;" xml:space="preserve">
<style type="text/css">
	.st0{fill:url(#SVGID_1_);}
	.st1{fill:#1E1C1F;}
	.st2{fill:#FFFFFF;}
	.st3{fill:#1D1D1B;}
</style>
<g id="PFA_LOGO">
	<linearGradient id="SVGID_1_" gradientUnits="userSpaceOnUse" x1="0" y1="31.9178" x2="139.9185" y2="31.9178">
		<stop  offset="0" style="stop-color:#D00C12"/>
		<stop  offset="0.4231" style="stop-color:#E00621"/>
		<stop  offset="0.6703" style="stop-color:#DC0722"/>
		<stop  offset="1" style="stop-color:#CF0C1F"/>
	</linearGradient>
	<path class="st0" d="M139.9,57.7c0,3.4-2.7,6.1-6.1,6.1H6.1c-3.4,0-6.1-2.7-6.1-6.1V6.1C0,2.7,2.7,0,6.1,0h127.7
		c3.4,0,6.1,2.7,6.1,6.1V57.7z"/>
	<g>
		<g>
			<path class="st1" d="M26.9,7c1.1-0.2,2.8-0.3,5.2-0.3c2.3,0,3.9,0.4,5,1.2c1.1,0.8,1.8,2.2,1.8,3.8c0,1.6-0.5,3-1.5,3.9
				c-1.3,1.1-3.1,1.6-5.2,1.6c-0.4,0-0.8,0-1,0v5.3h-4.2V7z M31.1,13.9c0.2,0,0.5,0,1,0c1.7,0,2.7-0.8,2.7-2.2c0-1.2-0.8-2-2.4-2
				c-0.6,0-1,0-1.3,0.1V13.9z"/>
			<path class="st1" d="M43.1,18.2c0.1,0.9,1.5,1.4,2.9,1.4c1.1,0,2.1-0.1,3.1-0.4l0.5,2.8c-1.4,0.6-2.9,0.7-4.3,0.7
				c-4,0-6.3-2.2-6.3-5.9c0-2.7,1.7-6.1,5.9-6.1c3.7,0,5.3,2.7,5.3,5.9c0,0.7-0.1,1.3-0.2,1.6H43.1z M46.5,15.3
				c0-0.7-0.3-1.9-1.6-1.9c-1.2,0-1.7,1.1-1.8,1.9H46.5z"/>
			<path class="st1" d="M51.8,14.8c0-1.8,0-2.9-0.1-3.9h3.6l0.1,2.1h0.1c0.6-1.7,2.1-2.3,3-2.3c0.4,0,0.5,0,0.8,0.1v3.9
				c-0.3-0.1-0.6-0.1-1.1-0.1c-1.2,0-2.1,0.5-2.3,1.4c0,0.2-0.1,0.4-0.1,0.7v5.7h-4.2V14.8z"/>
			<path class="st1" d="M60.8,18.9c0.7,0.4,2.1,0.9,3.2,0.9c0.9,0,1.2-0.2,1.2-0.6c0-0.4-0.3-0.6-1.5-1c-2.5-0.8-3.4-2.2-3.3-3.5
				c0-2.3,1.9-3.9,4.9-3.9c1.4,0,2.7,0.3,3.4,0.7l-0.7,2.8c-0.5-0.3-1.6-0.6-2.5-0.6c-0.7,0-1.1,0.2-1.1,0.7c0,0.4,0.4,0.6,1.7,1
				c2.3,0.7,3.1,1.9,3.1,3.6c0,2.2-1.7,3.8-5.2,3.8c-1.6,0-3-0.3-3.9-0.8L60.8,18.9z"/>
			<path class="st1" d="M82.4,16.6c0,4.2-3,6.1-6.2,6.1c-3.4,0-6.1-2.2-6.1-5.9c0-3.6,2.4-6,6.3-6C80,10.7,82.4,13.1,82.4,16.6z
				 M74.5,16.7c0,1.7,0.6,3,1.9,3c1.1,0,1.7-1.2,1.7-3c0-1.6-0.5-3-1.8-3C74.9,13.7,74.5,15.2,74.5,16.7z"/>
			<path class="st1" d="M84,14.9c0-1.5,0-2.8-0.1-3.9h3.6l0.2,1.5h0.1c0.4-0.6,1.5-1.7,3.4-1.7c2.7,0,4.1,1.8,4.1,5v6.7h-4.2v-6.2
				c0-1.3-0.5-2.1-1.5-2.1c-0.8,0-1.2,0.6-1.4,1c-0.1,0.2-0.1,0.5-0.1,0.8v6.5H84V14.9z"/>
			<path class="st1" d="M107.6,19.6c0,1.1,0,2.2,0.2,2.8H104l-0.2-1h-0.1c-0.8,0.9-2,1.3-3.2,1.3c-2.3,0-3.8-1.7-3.8-3.6
				c0-3.1,2.7-4.4,6.6-4.4v-0.1c0-0.5-0.3-1-1.9-1c-1.2,0-2.5,0.4-3.2,0.9l-0.7-2.7c0.7-0.4,2.4-1,4.7-1c3.9,0,5.3,2.2,5.3,5V19.6z
				 M103.5,17.2c-1.7,0-2.7,0.5-2.7,1.5c0,0.7,0.5,1.1,1.2,1.1c0.6,0,1.3-0.4,1.4-1c0-0.2,0-0.4,0-0.6V17.2z"/>
			<path class="st1" d="M109.7,5.9h4.2v16.5h-4.2V5.9z"/>
		</g>
		<g>
			<g>
				<path class="st2" d="M26.1,6.2c1.1-0.2,2.8-0.3,5.2-0.3c2.3,0,3.9,0.4,5,1.2c1.1,0.8,1.8,2.2,1.8,3.8c0,1.6-0.5,3-1.5,3.9
					c-1.3,1.1-3.1,1.6-5.2,1.6c-0.4,0-0.8,0-1,0v5.3h-4.2V6.2z M30.3,13.1c0.2,0,0.5,0,1,0c1.7,0,2.7-0.8,2.7-2.2c0-1.2-0.8-2-2.4-2
					c-0.6,0-1,0-1.3,0.1V13.1z"/>
				<path class="st2" d="M42.4,17.4c0.1,0.9,1.5,1.4,2.9,1.4c1.1,0,2.1-0.1,3.1-0.4l0.5,2.8c-1.4,0.6-2.9,0.7-4.3,0.7
					c-4,0-6.3-2.2-6.3-5.9c0-2.7,1.7-6.1,5.9-6.1c3.7,0,5.3,2.7,5.3,5.9c0,0.7-0.1,1.3-0.2,1.6H42.4z M45.8,14.6
					c0-0.7-0.3-1.9-1.6-1.9c-1.2,0-1.7,1.1-1.8,1.9H45.8z"/>
				<path class="st2" d="M51.1,14.1c0-1.8,0-2.9-0.1-3.9h3.6l0.1,2.1h0.1c0.6-1.7,2.1-2.3,3-2.3c0.4,0,0.5,0,0.8,0.1V14
					c-0.3-0.1-0.6-0.1-1.1-0.1c-1.2,0-2.1,0.5-2.3,1.4c0,0.2-0.1,0.4-0.1,0.7v5.7h-4.2V14.1z"/>
				<path class="st2" d="M60.1,18.2c0.7,0.4,2.1,0.9,3.2,0.9c0.9,0,1.2-0.2,1.2-0.6c0-0.4-0.3-0.6-1.5-1c-2.5-0.8-3.4-2.2-3.3-3.5
					c0-2.3,1.9-3.9,4.9-3.9c1.4,0,2.7,0.3,3.4,0.7l-0.7,2.8c-0.5-0.3-1.6-0.6-2.5-0.6c-0.7,0-1.1,0.2-1.1,0.7c0,0.4,0.4,0.6,1.7,1
					c2.3,0.7,3.1,1.9,3.1,3.6c0,2.2-1.7,3.8-5.2,3.8c-1.6,0-3-0.3-3.9-0.8L60.1,18.2z"/>
				<path class="st2" d="M81.7,15.8c0,4.2-3,6.1-6.2,6.1c-3.4,0-6.1-2.2-6.1-5.9c0-3.6,2.4-6,6.3-6C79.3,10,81.7,12.4,81.7,15.8z
					 M73.7,15.9c0,1.7,0.6,3,1.9,3c1.1,0,1.7-1.2,1.7-3c0-1.6-0.5-3-1.8-3C74.2,12.9,73.7,14.4,73.7,15.9z"/>
				<path class="st2" d="M83.2,14.1c0-1.5,0-2.8-0.1-3.9h3.6l0.2,1.5H87c0.4-0.6,1.5-1.7,3.4-1.7c2.7,0,4.1,1.8,4.1,5v6.7h-4.2v-6.2
					c0-1.3-0.5-2.1-1.5-2.1c-0.8,0-1.2,0.6-1.4,1c-0.1,0.2-0.1,0.5-0.1,0.8v6.5h-4.2V14.1z"/>
				<path class="st2" d="M106.9,18.9c0,1.1,0,2.2,0.2,2.8h-3.8l-0.2-1H103c-0.8,0.9-2,1.3-3.2,1.3c-2.3,0-3.8-1.7-3.8-3.6
					c0-3.1,2.7-4.4,6.6-4.4v-0.1c0-0.5-0.3-1-1.9-1c-1.2,0-2.5,0.4-3.2,0.9L96.8,11c0.7-0.4,2.4-1,4.7-1c3.9,0,5.3,2.2,5.3,5V18.9z
					 M102.8,16.4c-1.7,0-2.7,0.5-2.7,1.5c0,0.7,0.5,1.1,1.2,1.1c0.6,0,1.3-0.4,1.4-1c0-0.2,0-0.4,0-0.6V16.4z"/>
				<path class="st2" d="M109,5.2h4.2v16.5H109V5.2z"/>
			</g>
		</g>
	</g>
	<g>
		<g>
			<path class="st1" d="M7.9,17.9h16.9v5.7H15v4.9h9.2v5.7H15v10h-7V17.9z"/>
			<path class="st1" d="M26.7,44.1V25h7v19.1H26.7z"/>
			<path class="st1" d="M35.7,31.5c0-2.5-0.1-4.7-0.2-6.5h6l0.3,2.5h0.2c0.7-1,2.5-2.9,5.7-2.9c4.5,0,6.9,3,6.9,8.3v11.3h-7V33.7
				c0-2.2-0.8-3.5-2.5-3.5c-1.4,0-2,0.9-2.3,1.7c-0.2,0.4-0.2,0.9-0.2,1.4v10.9h-7V31.5z"/>
			<path class="st1" d="M74.5,39.5c0,1.9,0.1,3.7,0.3,4.7h-6.3l-0.4-1.7H68c-1.4,1.5-3.3,2.1-5.3,2.1c-3.9,0-6.3-2.8-6.3-6
				c0-5.1,4.6-7.4,11.1-7.4V31c0-0.8-0.6-1.6-3.1-1.6c-2,0-4.2,0.7-5.4,1.4l-1.2-4.5c1.2-0.6,4-1.7,7.9-1.7c6.6,0,8.9,3.7,8.9,8.4
				V39.5z M67.7,35.4c-2.8,0-4.5,0.8-4.5,2.5c0,1.2,0.8,1.8,2,1.8c1,0,2.1-0.7,2.4-1.8c0.1-0.3,0.1-0.7,0.1-1V35.4z"/>
			<path class="st1" d="M77.3,31.5c0-2.5-0.1-4.7-0.2-6.5h6l0.3,2.5h0.2c0.7-1,2.5-2.9,5.7-2.9c4.5,0,6.9,3,6.9,8.3v11.3h-7V33.7
				c0-2.2-0.8-3.5-2.5-3.5c-1.4,0-2,0.9-2.3,1.7c-0.2,0.4-0.2,0.9-0.2,1.4v10.9h-7V31.5z"/>
			<path class="st1" d="M113.7,43.8c-1.2,0.5-3.2,0.8-5.3,0.8c-6.3,0-10.4-3.7-10.4-9.8c0-5.4,3.7-10.2,11.2-10.2
				c1.4,0,3.1,0.2,4.4,0.7l-1,5.2c-0.7-0.3-1.6-0.5-3-0.5c-2.6,0-4.5,1.8-4.5,4.6c0,3.1,2.2,4.6,4.6,4.6c1.2,0,2.2-0.1,3.1-0.5
				L113.7,43.8z"/>
			<path class="st1" d="M121,37c0.2,1.5,2.5,2.4,4.9,2.4c1.8,0,3.5-0.2,5.3-0.7l0.9,4.7c-2.3,0.9-4.8,1.2-7.2,1.2
				c-6.7,0-10.5-3.7-10.5-9.8c0-4.5,2.9-10.2,9.9-10.2c6.2,0,8.8,4.6,8.8,9.8c0,1.2-0.2,2.2-0.3,2.6H121z M126.6,32.3
				c0-1.1-0.5-3.1-2.7-3.1c-2.1,0-2.9,1.9-3,3.1H126.6z"/>
		</g>
		<g>
			<g>
				<path class="st2" d="M7.2,17.2H24v5.7h-9.8v4.9h9.2v5.7h-9.2v10h-7V17.2z"/>
				<path class="st2" d="M26,43.4V24.2h7v19.1H26z"/>
				<path class="st2" d="M35,30.7c0-2.5-0.1-4.7-0.2-6.5h6l0.3,2.5h0.2c0.7-1,2.5-2.9,5.7-2.9c4.5,0,6.9,3,6.9,8.3v11.3h-7V33
					c0-2.2-0.8-3.5-2.5-3.5c-1.4,0-2,0.9-2.3,1.7C42,31.5,42,32,42,32.5v10.9h-7V30.7z"/>
				<path class="st2" d="M73.8,38.7c0,1.9,0.1,3.7,0.3,4.7h-6.3l-0.4-1.7h-0.1c-1.4,1.5-3.3,2.1-5.3,2.1c-3.9,0-6.3-2.8-6.3-6
					c0-5.1,4.6-7.4,11.1-7.4v-0.2c0-0.8-0.6-1.6-3.1-1.6c-2,0-4.2,0.7-5.4,1.4l-1.2-4.5c1.2-0.6,4-1.7,7.9-1.7
					c6.6,0,8.9,3.7,8.9,8.4V38.7z M66.9,34.6c-2.8,0-4.5,0.8-4.5,2.5c0,1.2,0.8,1.8,2,1.8c1,0,2.1-0.7,2.4-1.8
					c0.1-0.3,0.1-0.7,0.1-1V34.6z"/>
				<path class="st2" d="M76.5,30.7c0-2.5-0.1-4.7-0.2-6.5h6l0.3,2.5h0.2c0.7-1,2.5-2.9,5.7-2.9c4.5,0,6.9,3,6.9,8.3v11.3h-7V33
					c0-2.2-0.8-3.5-2.5-3.5c-1.4,0-2,0.9-2.3,1.7c-0.2,0.4-0.2,0.9-0.2,1.4v10.9h-7V30.7z"/>
				<path class="st2" d="M112.9,43c-1.2,0.5-3.2,0.8-5.3,0.8c-6.3,0-10.4-3.7-10.4-9.8c0-5.4,3.7-10.2,11.2-10.2
					c1.4,0,3.1,0.2,4.4,0.7l-1,5.2c-0.7-0.3-1.6-0.5-3-0.5c-2.6,0-4.5,1.8-4.5,4.6c0,3.1,2.2,4.6,4.6,4.6c1.2,0,2.2-0.1,3.1-0.5
					L112.9,43z"/>
				<path class="st2" d="M120.2,36.3c0.2,1.5,2.5,2.4,4.9,2.4c1.8,0,3.5-0.2,5.3-0.7l0.9,4.7c-2.3,0.9-4.8,1.2-7.2,1.2
					c-6.7,0-10.5-3.7-10.5-9.8c0-4.5,2.9-10.2,9.9-10.2c6.2,0,8.8,4.6,8.8,9.8c0,1.2-0.2,2.2-0.3,2.6H120.2z M125.9,31.5
					c0-1.1-0.5-3.1-2.7-3.1c-2.1,0-2.9,1.9-3,3.1H125.9z"/>
			</g>
		</g>
	</g>
	<g>
		<g>
			<g>
				<path class="st1" d="M9.5,10.6H7.7V9h5.6v1.6h-1.9v5.6H9.5V10.6z"/>
				<path class="st1" d="M14.2,8.6h1.9v2.9h0c0.2-0.2,0.4-0.4,0.6-0.5c0.2-0.1,0.5-0.2,0.8-0.2c1.2,0,1.8,0.8,1.8,2.3v3h-1.9v-2.8
					c0-0.6-0.2-1-0.7-1c-0.4,0-0.5,0.2-0.6,0.4c0,0.1-0.1,0.2-0.1,0.3v3.1h-1.9V8.6z"/>
				<path class="st1" d="M21.9,14.2c0.1,0.4,0.7,0.6,1.3,0.6c0.5,0,1-0.1,1.4-0.2l0.2,1.3c-0.6,0.3-1.3,0.3-2,0.3
					c-1.8,0-2.9-1-2.9-2.7c0-1.2,0.8-2.8,2.7-2.8c1.7,0,2.4,1.2,2.4,2.7c0,0.3,0,0.6-0.1,0.7H21.9z M23.5,13c0-0.3-0.1-0.8-0.7-0.8
					c-0.6,0-0.8,0.5-0.8,0.8H23.5z"/>
			</g>
		</g>
		<g>
			<path class="st2" d="M8.7,9.8H6.9V8.2h5.6v1.6h-1.9v5.6H8.7V9.8z"/>
			<path class="st2" d="M13.4,7.8h1.9v2.9h0c0.2-0.2,0.4-0.4,0.6-0.5c0.2-0.1,0.5-0.2,0.8-0.2c1.2,0,1.8,0.8,1.8,2.3v3h-1.9v-2.8
				c0-0.6-0.2-1-0.7-1c-0.4,0-0.5,0.2-0.6,0.4c0,0.1-0.1,0.2-0.1,0.3v3.1h-1.9V7.8z"/>
			<path class="st2" d="M21.1,13.4c0.1,0.4,0.7,0.6,1.3,0.6c0.5,0,1-0.1,1.4-0.2l0.2,1.3c-0.6,0.3-1.3,0.3-2,0.3
				c-1.8,0-2.9-1-2.9-2.7c0-1.2,0.8-2.8,2.7-2.8c1.7,0,2.4,1.2,2.4,2.7c0,0.3,0,0.6-0.1,0.7H21.1z M22.7,12.2c0-0.3-0.1-0.8-0.7-0.8
				c-0.6,0-0.8,0.5-0.8,0.8H22.7z"/>
		</g>
	</g>
	<g>
		<g>
			<path class="st3" d="M21.4,55.7l-0.9,3h-2L21.9,48h2.5l3.5,10.7h-2.1l-1-3H21.4z M24.5,54.3l-0.8-2.6c-0.2-0.7-0.4-1.4-0.5-2h0
				c-0.2,0.6-0.3,1.4-0.5,2l-0.8,2.6H24.5z"/>
			<path class="st3" d="M29.2,51l0.8,3.5c0.2,0.8,0.4,1.7,0.5,2.5h0c0.2-0.8,0.4-1.7,0.6-2.5l1-3.5h1.6l1,3.4
				c0.2,0.9,0.4,1.8,0.6,2.6h0c0.1-0.8,0.3-1.7,0.5-2.6l0.9-3.4h1.9l-2.4,7.8h-1.8l-0.9-3.2c-0.2-0.8-0.4-1.5-0.6-2.5h0
				c-0.2,1-0.4,1.7-0.6,2.5l-1,3.2h-1.8L27.2,51H29.2z"/>
			<path class="st3" d="M43.3,58.8l-0.1-0.9h0c-0.5,0.6-1.3,1-2.3,1c-1.6,0-2.4-1.1-2.4-2.3c0-2,1.7-2.9,4.6-2.9v-0.1
				c0-0.5-0.2-1.4-1.6-1.4c-0.8,0-1.6,0.2-2.1,0.6L39,51.5c0.6-0.4,1.6-0.7,2.8-0.7c2.5,0,3.2,1.6,3.2,3.3v2.8c0,0.7,0,1.4,0.1,1.9
				H43.3z M43.1,55c-1.4,0-2.7,0.3-2.7,1.4c0,0.8,0.5,1.1,1.1,1.1c0.8,0,1.4-0.5,1.5-1.1c0-0.1,0.1-0.3,0.1-0.4V55z"/>
			<path class="st3" d="M47.3,53.5c0-1.1,0-1.8-0.1-2.5H49l0.1,1.5h0.1c0.4-1.1,1.3-1.7,2.1-1.7c0.2,0,0.3,0,0.5,0v1.8
				c-0.2,0-0.3-0.1-0.6-0.1c-0.9,0-1.6,0.6-1.8,1.5c0,0.2-0.1,0.4-0.1,0.6v4h-2V53.5z"/>
			<path class="st3" d="M59.6,47.5v9.1c0,0.8,0,1.7,0.1,2.2h-1.8l-0.1-1.2h0c-0.5,0.9-1.4,1.4-2.5,1.4c-1.8,0-3.3-1.6-3.3-4
				c0-2.6,1.6-4.1,3.5-4.1c1.1,0,1.8,0.4,2.2,1h0v-4.4H59.6z M57.6,54.3c0-0.2,0-0.4,0-0.5c-0.2-0.8-0.8-1.4-1.7-1.4
				c-1.3,0-2,1.1-2,2.6c0,1.4,0.7,2.5,1.9,2.5c0.8,0,1.5-0.5,1.7-1.4c0-0.2,0.1-0.4,0.1-0.6V54.3z"/>
			<path class="st3" d="M61.2,57c0.4,0.3,1.3,0.6,2,0.6c0.9,0,1.2-0.4,1.2-0.9c0-0.5-0.3-0.8-1.3-1.1C61.6,55,61,54.2,61,53.3
				c0-1.4,1.1-2.4,2.9-2.4c0.9,0,1.6,0.2,2.1,0.5l-0.4,1.4c-0.3-0.2-1-0.4-1.6-0.4c-0.7,0-1.1,0.3-1.1,0.8c0,0.5,0.4,0.7,1.4,1.1
				c1.4,0.5,2.1,1.2,2.1,2.4c0,1.4-1.1,2.4-3.2,2.4c-0.9,0-1.8-0.2-2.4-0.5L61.2,57z"/>
			<path class="st3" d="M71.3,58.8l0.3-1.5l2.2-1.7c2.1-1.7,3.4-2.9,3.4-4.1c0-0.7-0.5-1.3-1.4-1.3s-1.6,0.3-2.2,0.6l-0.5-1.6
				c0.8-0.5,2-0.9,3.2-0.9c2.1,0,3.2,1.2,3.2,2.8c0,2.1-1.7,3.6-3.5,5l-1,0.7v0h3.7l-0.4,2H71.3z"/>
			<path class="st3" d="M87.3,51.8c0,3.2-1.6,7.2-4.8,7.2c-2.2,0-3-1.7-3-3.7c0-3.3,1.7-7,4.8-7C86.6,48.2,87.3,50,87.3,51.8z
				 M81.7,55.3c0,0.8,0.1,1.8,1,1.8c1.6,0,2.3-4,2.3-5.3c0-0.7-0.1-1.8-1-1.8C82.5,50.1,81.7,53.8,81.7,55.3z"/>
			<path class="st3" d="M90.8,50.6L90.8,50.6l-2.1,0.9l-0.1-1.8l2.9-1.3h1.9l-1.9,10.4h-2.2L90.8,50.6z"/>
			<path class="st3" d="M101.9,50.4h-3.6L97.8,52c0.2,0,0.3,0,0.4,0c0.7,0,1.5,0.2,2.2,0.6c0.7,0.5,1.1,1.3,1.1,2.3
				c0,2.6-2.2,4-4.8,4c-1.3,0-2.3-0.3-2.7-0.6l0.6-1.8c0.4,0.3,1.3,0.5,2.1,0.5c1.1,0,2.4-0.6,2.4-1.7c0-0.9-0.6-1.6-2.6-1.6
				c-0.5,0-0.8,0-1.3,0.1l1.5-5.4h5.5L101.9,50.4z"/>
			<path class="st3" d="M100.5,59.4l5.5-11.5h1.6l-5.5,11.5H100.5z"/>
			<path class="st3" d="M109.4,50.6L109.4,50.6l-2.1,0.9l-0.1-1.8l2.9-1.3h1.9l-1.9,10.4h-2.2L109.4,50.6z"/>
			<path class="st3" d="M120.3,50.2c-0.3,0-0.5,0-0.9,0c-1.9,0.2-3.1,1.2-3.6,2.4l0,0c0.6-0.5,1.3-0.8,2.1-0.8
				c1.5,0,2.6,1.2,2.6,2.9c0,2.2-1.7,4.2-4.1,4.2c-2.3,0-3.5-1.6-3.5-3.6c0-2.4,1.1-4.4,2.6-5.5c1.2-0.9,2.7-1.4,4.2-1.5
				c0.4,0,0.6,0,0.9,0L120.3,50.2z M118.2,55c0-0.9-0.5-1.4-1.3-1.4c-0.6,0-1.2,0.4-1.5,1c-0.1,0.2-0.2,0.4-0.2,0.5
				c0,0.2,0,0.4,0,0.6c0,0.9,0.5,1.6,1.3,1.6C117.6,57.2,118.2,55.9,118.2,55z"/>
		</g>
		<g>
			<g>
				<g>
					<path class="st2" d="M20.6,55l-0.9,3h-2l3.4-10.7h2.5L27.1,58H25l-1-3H20.6z M23.7,53.5l-0.8-2.6c-0.2-0.7-0.4-1.4-0.5-2h0
						c-0.2,0.6-0.3,1.4-0.5,2L21,53.5H23.7z"/>
					<path class="st2" d="M28.4,50.3l0.8,3.5c0.2,0.8,0.4,1.7,0.5,2.5h0c0.2-0.8,0.4-1.7,0.6-2.5l1-3.5H33l1,3.4
						c0.2,0.9,0.4,1.8,0.6,2.6h0c0.1-0.8,0.3-1.7,0.5-2.6l0.9-3.4h1.9L35.5,58h-1.8l-0.9-3.2c-0.2-0.8-0.4-1.5-0.6-2.5h0
						c-0.2,1-0.4,1.7-0.6,2.5l-1,3.2h-1.8l-2.3-7.8H28.4z"/>
					<path class="st2" d="M42.6,58l-0.1-0.9h0c-0.5,0.6-1.3,1-2.3,1c-1.6,0-2.4-1.1-2.4-2.3c0-2,1.7-2.9,4.6-2.9v-0.1
						c0-0.5-0.2-1.4-1.6-1.4c-0.8,0-1.6,0.2-2.1,0.6l-0.4-1.3c0.6-0.4,1.6-0.7,2.8-0.7c2.5,0,3.2,1.6,3.2,3.3v2.8
						c0,0.7,0,1.4,0.1,1.9H42.6z M42.3,54.2c-1.4,0-2.7,0.3-2.7,1.4c0,0.8,0.5,1.1,1.1,1.1c0.8,0,1.4-0.5,1.5-1.1
						c0-0.1,0.1-0.3,0.1-0.4V54.2z"/>
					<path class="st2" d="M46.6,52.8c0-1.1,0-1.8-0.1-2.5h1.7l0.1,1.5h0.1c0.4-1.1,1.3-1.7,2.1-1.7c0.2,0,0.3,0,0.5,0V52
						c-0.2,0-0.3-0.1-0.6-0.1c-0.9,0-1.6,0.6-1.8,1.5c0,0.2-0.1,0.4-0.1,0.6v4h-2V52.8z"/>
					<path class="st2" d="M58.8,46.7v9.1c0,0.8,0,1.7,0.1,2.2h-1.8l-0.1-1.2h0c-0.5,0.9-1.4,1.4-2.5,1.4c-1.8,0-3.3-1.6-3.3-4
						c0-2.6,1.6-4.1,3.5-4.1c1.1,0,1.8,0.4,2.2,1h0v-4.4H58.8z M56.9,53.5c0-0.2,0-0.4,0-0.5c-0.2-0.8-0.8-1.4-1.7-1.4
						c-1.3,0-2,1.1-2,2.6c0,1.4,0.7,2.5,1.9,2.5c0.8,0,1.5-0.5,1.7-1.4c0-0.2,0.1-0.4,0.1-0.6V53.5z"/>
					<path class="st2" d="M60.4,56.2c0.4,0.3,1.3,0.6,2,0.6c0.9,0,1.2-0.4,1.2-0.9c0-0.5-0.3-0.8-1.3-1.1c-1.5-0.5-2.2-1.4-2.1-2.3
						c0-1.4,1.1-2.4,2.9-2.4c0.9,0,1.6,0.2,2.1,0.5l-0.4,1.4c-0.3-0.2-1-0.4-1.6-0.4c-0.7,0-1.1,0.3-1.1,0.8c0,0.5,0.4,0.7,1.4,1.1
						c1.4,0.5,2.1,1.2,2.1,2.4c0,1.4-1.1,2.4-3.2,2.4c-0.9,0-1.8-0.2-2.4-0.5L60.4,56.2z"/>
					<path class="st2" d="M70.6,58l0.3-1.5l2.2-1.7c2.1-1.7,3.4-2.9,3.4-4.1c0-0.7-0.5-1.3-1.4-1.3s-1.6,0.3-2.2,0.6l-0.5-1.6
						c0.8-0.5,2-0.9,3.2-0.9c2.1,0,3.2,1.2,3.2,2.8c0,2.1-1.7,3.6-3.5,5l-1,0.7v0H78l-0.4,2H70.6z"/>
					<path class="st2" d="M86.6,51.1c0,3.2-1.6,7.2-4.8,7.2c-2.2,0-3-1.7-3-3.7c0-3.3,1.7-7,4.8-7C85.8,47.5,86.6,49.2,86.6,51.1z
						 M81,54.6c0,0.8,0.1,1.8,1,1.8c1.6,0,2.3-4,2.3-5.3c0-0.7-0.1-1.8-1-1.8C81.8,49.3,81,53,81,54.6z"/>
					<path class="st2" d="M90.1,49.8L90.1,49.8L88,50.7l-0.1-1.8l2.9-1.3h1.9L90.7,58h-2.2L90.1,49.8z"/>
					<path class="st2" d="M101.2,49.6h-3.6L97,51.2c0.2,0,0.3,0,0.4,0c0.7,0,1.5,0.2,2.2,0.6c0.7,0.5,1.1,1.3,1.1,2.3
						c0,2.6-2.2,4-4.8,4c-1.3,0-2.3-0.3-2.7-0.6l0.6-1.8c0.4,0.3,1.3,0.5,2.1,0.5c1.1,0,2.4-0.6,2.4-1.7c0-0.9-0.6-1.6-2.6-1.6
						c-0.5,0-0.8,0-1.3,0.1l1.5-5.4h5.5L101.2,49.6z"/>
					<path class="st2" d="M99.7,58.7l5.5-11.5h1.6l-5.5,11.5H99.7z"/>
					<path class="st2" d="M108.7,49.8L108.7,49.8l-2.1,0.9l-0.1-1.8l2.9-1.3h1.9L109.4,58h-2.2L108.7,49.8z"/>
					<path class="st2" d="M119.5,49.4c-0.3,0-0.5,0-0.9,0c-1.9,0.2-3.1,1.2-3.6,2.4l0,0c0.6-0.5,1.3-0.8,2.1-0.8
						c1.5,0,2.6,1.2,2.6,2.9c0,2.2-1.7,4.2-4.1,4.2c-2.3,0-3.5-1.6-3.5-3.6c0-2.4,1.1-4.4,2.6-5.5c1.2-0.9,2.7-1.4,4.2-1.5
						c0.4,0,0.6,0,0.9,0L119.5,49.4z M117.4,54.2c0-0.9-0.5-1.4-1.3-1.4c-0.6,0-1.2,0.4-1.5,1c-0.1,0.2-0.2,0.4-0.2,0.5
						c0,0.2,0,0.4,0,0.6c0,0.9,0.5,1.6,1.3,1.6C116.9,56.4,117.4,55.2,117.4,54.2z"/>
				</g>
			</g>
		</g>
	</g>
</g>
</svg>
