<?xml version="1.0" encoding="UTF-8" standalone="no"?>
<svg width="298px" height="83px" viewBox="0 0 298 83" version="1.1" xmlns="http://www.w3.org/2000/svg" xmlns:xlink="http://www.w3.org/1999/xlink" xmlns:sketch="http://www.bohemiancoding.com/sketch/ns">
    <!-- Generator: Sketch 3.2.2 (9983) - http://www.bohemiancoding.com/sketch -->
    <title>product-table-4-mobile</title>
    <desc>Created with Sketch.</desc>
    <defs></defs>
    <g id="Page-1" stroke="none" stroke-width="1" fill="none" fill-rule="evenodd" sketch:type="MSPage">
        <g id="product-table-4-mobile" sketch:type="MSLayerGroup" transform="translate(0.000000, -1.000000)">
            <path d="M0,69.1156295 L0,1 L74.5,1 L74.5,69.1136292 L36.8725333,83 L0,69.1156295 Z M74.5,69.1156295 L74.5,1 L149,1 L149,69.1136292 L111.372533,83 L74.5,69.1156295 Z M149,69.1156295 L149,1 L223.5,1 L223.5,69.1136292 L185.872533,83 L149,69.1156295 Z M223.5,69.1156295 L223.5,1 L298,1 L298,69.1136292 L260.372533,83 L223.5,69.1156295 Z" id="Fill-6" fill="#2350A0" sketch:type="MSShapeGroup"></path>
            <rect id="Rectangle" fill="#FFFFFF" sketch:type="MSShapeGroup" x="74" y="0.998779297" width="1" height="69.0121231"></rect>
            <rect id="Rectangle-4" fill="#FFFFFF" sketch:type="MSShapeGroup" x="148" y="0.998779297" width="1" height="69.0121231"></rect>
            <rect id="Rectangle-5" fill="#FFFFFF" sketch:type="MSShapeGroup" x="223" y="0.998779297" width="1" height="69.0121231"></rect>
        </g>
    </g>
</svg>