<?xml version="1.0" encoding="UTF-8" standalone="no"?>
<svg width="288px" height="83px" viewBox="0 0 288 83" version="1.1" xmlns="http://www.w3.org/2000/svg" xmlns:xlink="http://www.w3.org/1999/xlink" xmlns:sketch="http://www.bohemiancoding.com/sketch/ns">
    <!-- Generator: Sketch 3.2.2 (9983) - http://www.bohemiancoding.com/sketch -->
    <title>product-table-4-mobile</title>
    <desc>Created with Sketch.</desc>
    <defs></defs>
    <g id="Page-1" stroke="none" stroke-width="1" fill="none" fill-rule="evenodd" sketch:type="MSPage">
        <g id="product-table-4-mobile" sketch:type="MSLayerGroup" transform="translate(0.000000, -1.000000)">
            <path d="M0,69.1156295 L0,1 L72,1 L72,69.1136292 L35.6352,83 L0,69.1156295 Z M72,69.1156295 L72,1 L144,1 L144,69.1136292 L107.6352,83 L72,69.1156295 Z M144,69.1156295 L144,1 L216,1 L216,69.1136292 L179.6352,83 L144,69.1156295 Z M216,69.1156295 L216,1 L288,1 L288,69.1136292 L251.6352,83 L216,69.1156295 Z" id="Fill-6" fill="#2350A0" sketch:type="MSShapeGroup"></path>
            <rect id="Rectangle" fill="#FFFFFF" sketch:type="MSShapeGroup" x="71" y="0.998779297" width="1" height="71.012124"></rect>
            <rect id="Rectangle-4" fill="#FFFFFF" sketch:type="MSShapeGroup" x="143" y="0.998779297" width="1" height="71.012124"></rect>
            <rect id="Rectangle-5" fill="#FFFFFF" sketch:type="MSShapeGroup" x="215" y="0.998779297" width="1" height="71.012124"></rect>
        </g>
    </g>
</svg>