<?xml version="1.0" encoding="UTF-8" standalone="no"?>
<svg width="43px" height="41px" viewBox="0 0 43 41" version="1.1" xmlns="http://www.w3.org/2000/svg" xmlns:xlink="http://www.w3.org/1999/xlink" xmlns:sketch="http://www.bohemiancoding.com/sketch/ns">
    <!-- Generator: Sketch 3.3.3 (12072) - http://www.bohemiancoding.com/sketch -->
    <title>reviews-quotation</title>
    <desc>Created with Sketch.</desc>
    <defs></defs>
    <g id="Page-1" stroke="none" stroke-width="1" fill="none" fill-rule="evenodd" sketch:type="MSPage">
        <g id="reviews-quotation" sketch:type="MSArtboardGroup" fill="#DCDCDC">
            <path d="M16.64,0 C11.692,0.625 7.681,3.021 4.609,7.187 C1.535,11.355 0,17.293 0,25 L0,40.703 L16.64,40.703 L16.64,23.672 L8.125,23.672 C8.072,23.047 8.033,22.644 8.008,22.461 C7.981,22.279 7.969,22.058 7.969,21.797 C7.969,19.609 8.332,17.396 9.062,15.156 C10.52,10.625 13.047,8.021 16.64,7.344 L16.64,0 M42.968,0 C37.031,0.73 32.76,3.529 30.156,8.398 C27.551,13.269 26.25,18.802 26.25,25 L26.25,40.703 L42.968,40.703 L42.968,23.672 L34.453,23.672 C34.348,23.308 34.283,22.968 34.258,22.656 C34.231,22.343 34.219,22.031 34.219,21.719 C34.219,18.125 34.961,14.949 36.445,12.187 C37.929,9.428 40.103,7.812 42.968,7.344 L42.968,0" id="Imported-Layers" sketch:type="MSShapeGroup"></path>
        </g>
    </g>
</svg>