<?xml version="1.0" encoding="utf-8"?>
<!-- Generator: Adobe Illustrator 16.0.0, SVG Export Plug-In . SVG Version: 6.00 Build 0)  -->
<!DOCTYPE svg PUBLIC "-//W3C//DTD SVG 1.1//EN" "http://www.w3.org/Graphics/SVG/1.1/DTD/svg11.dtd">
<svg version="1.1" id="Layer_1" xmlns="http://www.w3.org/2000/svg" xmlns:xlink="http://www.w3.org/1999/xlink" x="0px" y="0px"
	 width="30.002px" height="30px" viewBox="0 0 30.002 30" enable-background="new 0 0 30.002 30" xml:space="preserve">
<g>
	<g id="Policy_Number_7_">
		<g id="Question_7_">
			<g>
				<path fill="#B7B7CB" d="M15.034,1c3.725,0,7.24,1.456,9.874,4.099c2.631,2.643,4.086,6.153,4.081,9.886
					c-0.006,7.721-6.287,14.007-14.02,14.013C7.232,28.997,1.097,22.85,0.999,15C0.953,11.333,2.36,7.859,4.958,5.219
					C7.623,2.512,11.196,1.013,15.016,1h-0.014 M15.066,0c-0.018,0-0.036,0-0.054,0C6.667,0.029-0.102,6.769,0.001,15.014
					C0.104,23.291,6.696,30,14.974,30c0.004,0,0.008,0,0.013,0c8.284,0,15.005-6.729,15.012-15.013
					C30.006,6.722,23.324,0.001,15.066,0L15.066,0z"/>
			</g>
		</g>
	</g>
	<g>
		<line fill="none" stroke="#B7B7CB" stroke-width="2" stroke-miterlimit="10" x1="22.349" y1="7.633" x2="7.661" y2="22.318"/>
		<line fill="none" stroke="#B7B7CB" stroke-width="2" stroke-miterlimit="10" x1="22.349" y1="22.318" x2="7.661" y2="7.633"/>
	</g>
</g>
</svg>
