<?xml version="1.0" encoding="utf-8"?>
<!-- Generator: Adobe Illustrator 14.0.0, SVG Export Plug-In . SVG Version: 6.00 Build 43363)  -->
<!DOCTYPE svg PUBLIC "-//W3C//DTD SVG 1.1//EN" "http://www.w3.org/Graphics/SVG/1.1/DTD/svg11.dtd">
<svg version="1.1" id="Layer_1" xmlns="http://www.w3.org/2000/svg" xmlns:xlink="http://www.w3.org/1999/xlink" x="0px" y="0px"
	 width="262.435px" height="34.03px" viewBox="0 0 262.435 34.03" enable-background="new 0 0 262.435 34.03" xml:space="preserve">
<g>
	<path fill="#FFFFFF" d="M184.376,12.959c-0.828-0.441-1.948-0.752-3.286-0.752c-3.147,0-5.037,1.478-5.808,2.074l1.132-6.688
		h-4.451l-3.099,18.3h4.451l1.691-9.979c1.114-0.857,2.478-1.581,3.949-1.581c0.77,0,1.433,0.232,1.868,0.622
		c0.816,0.725,0.664,1.814,0.453,3.058l-1.334,7.881h4.452l1.487-8.788C186.08,15.939,186.393,14.1,184.376,12.959z M196.17,12.051
		c-5.088,0-6.814,2.282-7.765,3.552l1.063,0.44c0.787-0.699,2.207-1.97,5.053-1.97c1.271,0,3.122,0.337,3.688,1.736
		c0.223,0.554,0.217,1.145,0.16,1.727h0.096l-0.699,4.121h-0.076l-0.262,1.54c-0.945,0.44-2.104,0.96-3.678,0.96
		c-2.241,0-2.874-1.219-2.681-2.359c0.287-1.686,2.163-2.488,4.137-2.488c0.607,0,1.127,0.066,1.604,0.168l0.326-1.925
		c-0.817-0.172-1.646-0.29-2.755-0.29c-3.982,0-7.518,1.71-8.037,4.768c-0.404,2.385,1.489,4.252,4.971,4.252
		c3.18,0,5.072-1.297,5.909-1.893l-0.254,1.504h4.316l1.357-8.011c0.207-1.218,0.471-2.98-0.979-4.303
		C200.828,12.803,199.08,12.051,196.17,12.051z M235.21,24.751c-0.334,0-1.673,0-2.278-1.165c-0.26-0.439-0.369-0.984-0.18-2.1
		l1.022-6.047h4.863l0.479-2.817h-4.863l0.609-3.603h-4.451l-0.611,3.603h-4.684l-4.064,6.61l-0.713,1.244
		c-0.25-0.701-0.264-0.83-0.492-1.451l-2.329-6.403h-1.472l-5.778,7.829c-0.123-0.648-0.164-0.805-0.297-1.4l-1.725-6.428h-4.652
		l4.097,13.375h1.638l5.827-7.723l3.212,7.723h1.604l6.888-10.557h2.462l-1.112,6.591c-0.199,1.167-0.23,2.334,0.851,3.267
		c1.135,1.011,2.896,1.089,3.698,1.089c2.21,0,3.516-0.597,4.6-1.063l-0.396-0.829C236.404,24.624,235.912,24.751,235.21,24.751z
		 M244.409,17.573c-0.061,0.089-0.188,0.368-0.336,1.236c-0.059,0.34-0.088,0.593-0.104,0.786h11.878
		c0.213-1.452,0.596-3.915-1.465-5.78c-1.804-1.607-4.451-1.789-5.923-1.789c-6.058,0-9.807,3.163-10.464,7.051
		c-0.689,4.07,2.001,7.36,8.158,7.36c5.891,0,7.724-2.721,8.705-4.172l-1.034-0.416c-1.369,1.166-2.813,2.385-5.926,2.385
		c-4.537,0-5.144-2.689-5.226-4.075c-0.021-0.054-0.098-0.329,0.053-1.25c0.154-0.939,0.351-1.299,0.39-1.366
		c0.723-1.523,1.688-3.34,4.875-3.34c3.347,0,3.347,2.178,3.345,3.371H244.409z M165.183,9.019h-4.451l-2.204,13.012
		c-0.197,1.167-0.229,2.334,0.853,3.267c1.135,1.011,2.894,1.089,3.698,1.089c2.208,0,3.514-0.597,4.598-1.063l-0.395-0.829
		c-0.559,0.131-1.049,0.258-1.751,0.258c-0.334,0-1.673,0-2.278-1.165c-0.26-0.439-0.369-0.984-0.182-2.1l1.024-6.048h3.603
		l0.475-2.798h-3.603L165.183,9.019z"/>
	<path fill="#ED174C" d="M136.153,0c-9.397,0-17.016,7.619-17.016,17.015c0,9.398,7.618,17.015,17.016,17.015
		c9.398,0,17.017-7.617,17.017-17.015C153.17,7.619,145.552,0,136.153,0z M136.153,30.648c-7.531,0-13.635-6.104-13.635-13.633
		c0-7.53,6.104-13.634,13.635-13.634c7.532,0,13.636,6.104,13.636,13.634C149.789,24.544,143.686,30.648,136.153,30.648z
		 M137.802,8.713h-4.453l-2.202,13.013c-0.197,1.167-0.229,2.332,0.851,3.266c1.135,1.013,2.896,1.089,3.7,1.089
		c2.208,0,3.514-0.596,4.598-1.063l-0.396-0.829c-0.557,0.129-1.047,0.26-1.75,0.26c-0.335,0-1.675,0-2.279-1.167
		c-0.26-0.441-0.369-0.985-0.18-2.1l1.022-6.048h3.604l0.472-2.799h-3.602L137.802,8.713z"/>
	<path fill="#FFFFFF" d="M258.126,10.261h-1.117v2.885h-0.927v-2.885h-1.117V9.566h3.161V10.261z M262.435,13.146h-0.926v-2.398
		l-0.659,1.556h-0.635l-0.662-1.556v2.398h-0.87v-3.58h1.073l0.803,1.798l0.799-1.798h1.077V13.146z"/>
	<g>
		<path fill="#FFFFFF" d="M10.285,12.677c-0.863-0.695-2.157-0.959-3.093-0.959c-1.413,0-2.325,0.599-2.325,2.015
			c0,0.935,0.432,1.367,2.134,2.373c1.966,1.176,3.429,2.302,3.429,4.748c0,3.429-2.901,5.274-6.043,5.274
			c-1.581,0-3.332-0.479-4.387-1.51l1.462-2.254c0.912,0.839,2.397,1.246,3.501,1.246c1.366,0,2.446-0.623,2.446-2.157
			c0-1.079-0.529-1.534-2.519-2.758c-1.485-0.935-3.046-1.966-3.046-4.508c0-3.428,2.854-5.011,5.756-5.011
			c1.485,0,3.115,0.407,4.1,1.342L10.285,12.677z"/>
		<path fill="#FFFFFF" d="M21.56,23.923c-1.318,1.462-3.188,2.324-5.059,2.324c-2.685,0-4.1-1.773-4.1-4.482
			c0-1.775,0.575-3.813,1.534-5.347c0.984-1.583,2.542-2.878,4.795-2.878c1.87,0,3.645,0.888,3.645,3.117
			c0,3.045-3.381,4.1-7.097,4.484c-0.024,0.239-0.048,0.527-0.048,0.695c0,1.558,0.358,1.989,1.462,1.989
			c1.103,0,2.255-0.479,3.332-1.583L21.56,23.923z M15.638,18.959c2.589-0.287,4.005-1.104,4.005-2.205
			c0-0.552-0.336-0.888-1.152-0.888c-0.959,0-1.63,0.455-2.108,1.199C16.069,17.569,15.829,18.239,15.638,18.959z"/>
		<path fill="#FFFFFF" d="M32.164,24.019c-1.294,1.51-2.901,2.229-4.604,2.229c-2.733,0-3.764-1.82-3.764-4.41
			c0-1.75,0.48-3.957,1.583-5.587c1.15-1.75,2.733-2.686,4.867-2.686c1.341,0,2.589,0.384,3.308,1.126l-1.678,2.134
			c-0.552-0.455-1.198-0.695-1.894-0.695c-0.96,0-1.56,0.479-1.991,1.199c-0.695,1.151-1.176,3.428-1.176,4.723
			c0,1.031,0.289,1.655,1.176,1.655c0.721,0,1.63-0.432,2.565-1.415L32.164,24.019z"/>
		<path fill="#FFFFFF" d="M40.538,25.937l0.503-2.277c-0.958,1.558-2.374,2.564-3.955,2.564c-1.583,0-2.423-0.982-2.423-2.829
			c0-0.814,0.193-2.181,0.408-3.213l1.271-6.33h2.974l-1.294,6.474c-0.145,0.696-0.385,1.943-0.385,2.422
			c0,0.456,0.191,0.72,0.553,0.72c1.054,0,3.141-2.086,3.883-5.73l0.768-3.885h2.973l-2.421,12.085H40.538z"/>
		<path fill="#FFFFFF" d="M55.1,16.538c-0.289-0.168-0.624-0.217-0.935-0.217c-2.015,0-3.093,2.11-3.765,5.443l-0.839,4.172h-2.997
			l2.421-12.085h2.854l-0.385,1.942c0.816-1.606,1.919-2.206,3.236-2.206c0.527,0,1.127,0.097,1.607,0.48L55.1,16.538z"/>
		<path fill="#FFFFFF" d="M64.404,23.923c-1.317,1.462-3.188,2.324-5.059,2.324c-2.684,0-4.1-1.773-4.1-4.482
			c0-1.775,0.576-3.813,1.535-5.347c0.983-1.583,2.541-2.878,4.795-2.878c1.87,0,3.645,0.888,3.645,3.117
			c0,3.045-3.382,4.1-7.097,4.484c-0.025,0.239-0.049,0.527-0.049,0.695c0,1.558,0.359,1.989,1.462,1.989
			c1.104,0,2.255-0.479,3.333-1.583L64.404,23.923z M58.483,18.959c2.589-0.287,4.004-1.104,4.004-2.205
			c0-0.552-0.336-0.888-1.151-0.888c-0.959,0-1.631,0.455-2.109,1.199C58.915,17.569,58.675,18.239,58.483,18.959z"/>
		<path fill="#FFFFFF" d="M79.469,7.595L75.8,25.937h-2.875l0.599-2.47c-1.128,1.75-2.564,2.757-4.125,2.757
			c-2.134,0-2.948-1.797-2.948-4.076c0-1.846,0.551-4.124,1.775-5.897c1.149-1.655,2.685-2.637,4.555-2.637
			c1.007,0,1.702,0.287,2.325,0.887l1.392-6.905H79.469z M74.555,17.688c0-0.911-0.648-1.583-1.751-1.583
			c-0.936,0-1.582,0.504-2.062,1.295c-0.791,1.294-1.318,3.908-1.318,4.94c0,0.718,0.238,1.318,0.887,1.318
			C71.989,23.659,74.555,19.462,74.555,17.688z"/>
		<path fill="#FFFFFF" d="M90.269,7.595l-1.632,8.104c0.984-1.438,2.351-2.158,3.766-2.158c2.157,0,2.997,1.607,2.997,4.148
			c0,2.494-0.84,5.179-2.687,6.858c-1.054,0.959-2.493,1.631-4.1,1.631c-2.421,0-4.004-1.463-4.004-4.076
			c0-1.104,0.264-2.543,0.599-4.173L87.27,7.595H90.269z M91.491,16.179c-1.703,0-4.101,3.309-4.101,5.85
			c0,1.127,0.455,1.631,1.463,1.631c0.839,0,1.485-0.36,1.894-0.816c1.126-1.27,1.63-4.075,1.63-5.322
			C92.377,16.586,92.113,16.179,91.491,16.179z"/>
		<path fill="#FFFFFF" d="M107.922,13.852c-2.685,8.536-6.906,17.647-12.995,17.647c-1.126,0-2.159-0.313-2.638-0.742l1.463-2.255
			c0.313,0.239,0.935,0.456,1.583,0.456c1.366,0,2.685-0.936,3.906-2.471l-2.204-12.636h3.093l1.245,9.184
			c1.32-2.661,2.47-5.922,3.31-9.184H107.922z"/>
	</g>
</g>
</svg>
