<?xml version="1.0" encoding="utf-8"?>
<!DOCTYPE svg PUBLIC "-//W3C//DTD SVG 1.1//EN" "http://www.w3.org/Graphics/SVG/1.1/DTD/svg11.dtd">

<svg version="1.1" xmlns="http://www.w3.org/2000/svg" xmlns:xlink="http://www.w3.org/1999/xlink" width="128" height="512" viewBox="0 0 128 512">
<defs>

<linearGradient x1="50%" y1="0%" x2="50%" y2="50%" id="linearGradient-1">
	<stop stop-color="#FFFFFF" stop-opacity="0.4" offset="0%"></stop>
	<stop stop-color="#FFFFFF" stop-opacity="0" offset="100%"></stop>
</linearGradient>

<g id="main-circle">
	<path d="M69.226,4.64 L75.161,0.937 L79.493,6.623 L86.064,3.854 L89.623,10.354 L95.879,9.119 L97.695,15.52 L105.415,14.936 L106.38,22.738 L113.063,23.348 L112.556,29.97 L119.303,32.121 L117.954,39.103 L123.984,42.403 L121.521,48.38 L127.174,52.838 L123.263,59.18 L128,64.339 L123.429,69.154 L127.174,75.001 L121.424,79.607 L124.145,86.064 L118.125,89.361 L119.475,95.88 L112.505,98.021 L113.063,105.416 L106.277,106.254 L105.415,112.904 L98.02,112.586 L95.879,119.303 L89.467,118.064 L86.064,124.146 L79.738,121.371 L75.161,127.173 L69.066,123.415 L64.184,128 L59.107,123.261 L52.998,127.173 L48.378,121.408 L42.402,123.985 L39.074,118.035 L32.119,119.476 L30.008,112.601 L22.718,112.904 L21.656,106.267 L15.096,105.416 L15.407,98.13 L8.498,95.88 L9.91,89.453 L3.854,86.064 L6.661,79.666 L0.825,75.001 L4.676,69.164 L0,64.185 L4.817,59.022 L0.968,52.838 L6.652,48.521 L4.015,42.403 L10.524,38.762 L9.246,32.121 L15.413,30.388 L15.096,22.718 L22.942,21.463 L23.475,14.936 L29.862,15.431 L32.119,8.498 L39.11,10.031 L42.402,4.015 L48.452,6.508 L52.998,0.818 L59.083,4.826 L64.339,0 L69.226,4.64 Z"></path>
</g>
<path id="path-200" d="M8.26929168,50.4115047 C8.26929168,50.4115047 26.8638411,44.1626682 55.1361994,44.1626684 C83.4085578,44.1626686 106.629754,51.3518728 106.629754,51.3518728 L110.127227,31.4738796 L89.9684716,6.37204177 L55.9450738,0.62048811 L20.9971116,4.84976745 L1.69886062,23.5439808 L0.423401503,45.0079538 L8.26929168,50.4115047 Z"></path>




<g id="badge-great-value">
	<use xlink:href="#main-circle" fill="#50890F"/>
	<circle id="Oval-1" fill="url(#linearGradient-1)" cx="64" cy="64" r="54"></circle>
	<path d="M36.74,48.168 L36.74,50.136 L40.34,50.136 L40.34,54.96 C39.476,55.224 38.204,55.368 37.124,55.368 C35.348,55.368 34.364,54.984 33.716,54.36 C32.948,53.592 32.492,52.392 32.492,48.744 C32.492,45.408 32.876,44.112 33.644,43.296 C34.244,42.624 35.156,42.144 36.908,42.144 C38.612,42.144 39.956,42.6 40.988,43.536 L42.26,41.904 C41.06,40.728 39.308,40.2 37.172,40.2 C34.7,40.2 33.068,40.896 32.036,41.976 C30.548,43.488 30.14,45.984 30.14,48.96 C30.14,51.744 30.476,54.024 32.012,55.56 C33.14,56.688 34.772,57.24 37.244,57.24 C39.284,57.24 41.18,56.856 42.476,56.328 L42.476,48.168 L36.74,48.168 Z M46.316,40.44 L46.316,57 L48.548,57 L48.548,50.256 L51.212,50.256 C53.396,50.256 53.876,51.984 54.908,57 L57.284,57 C56.396,52.32 55.796,49.848 53.612,49.296 C55.964,48.792 57.068,47.112 57.068,44.76 C57.068,42.96 56.42,41.88 55.46,41.256 C54.596,40.704 53.3,40.44 51.932,40.44 L46.316,40.44 Z M48.548,42.384 L51.908,42.384 C52.964,42.384 53.66,42.528 54.068,42.912 C54.476,43.296 54.716,44.04 54.716,45.048 C54.716,47.664 53.18,48.312 50.684,48.312 L48.548,48.312 L48.548,42.384 Z M60.476,40.44 L60.476,57 L69.596,57 L69.596,55.032 L62.708,55.032 L62.708,49.536 L68.924,49.536 L68.924,47.568 L62.708,47.568 L62.708,42.408 L69.5,42.408 L69.5,40.44 L60.476,40.44 Z M85.076,57 L79.508,40.44 L76.7,40.44 L71.06,57 L73.436,57 L74.828,52.872 L81.26,52.872 L82.604,57 L85.076,57 Z M80.732,50.976 L75.38,50.976 L78.068,42.768 L80.732,50.976 Z M85.532,40.44 L85.532,42.432 L90.62,42.432 L90.62,57 L92.852,57 L92.852,42.432 L97.916,42.432 L97.916,40.44 L85.532,40.44 Z" id="GREAT" fill="#FFFFFF"></path>
	<path d="M20.5,67.3 L27.22,88 L31.57,88 L38.35,67.3 L34.33,67.3 L29.47,83.71 L24.64,67.3 L20.5,67.3 Z M56.8,88 L50.08,67.3 L45.4,67.3 L38.62,88 L42.61,88 L44.02,83.47 L51.31,83.47 L52.69,88 L56.8,88 Z M50.47,80.32 L44.89,80.32 L47.68,71.23 L50.47,80.32 Z M59.14,67.3 L59.14,88 L70.84,88 L70.84,84.58 L62.95,84.58 L62.95,67.3 L59.14,67.3 Z M73.9,67.3 L73.9,80.71 C73.9,82.66 74.14,84.61 75.34,86.05 C76.42,87.37 78.37,88.36 81.58,88.36 C84.82,88.36 86.95,87.34 88.15,85.84 C89.26,84.46 89.56,82.63 89.56,80.56 L89.56,67.3 L85.72,67.3 L85.72,80.65 C85.72,83.53 85.36,85.03 81.73,85.03 C77.95,85.03 77.74,83.41 77.74,80.68 L77.74,67.3 L73.9,67.3 Z M94.15,67.3 L94.15,88 L106.12,88 L106.12,84.73 L97.93,84.73 L97.93,79.12 L105.28,79.12 L105.28,75.85 L97.93,75.85 L97.93,70.57 L106,70.57 L106,67.3 L94.15,67.3 Z" id="VALUE" fill="#FFFFFF"></path>
</g>

<g id="badge-24-hour">
	<use xlink:href="#main-circle" fill="#C42236"/>
	<circle id="Oval-1" fill="url(#linearGradient-1)" cx="64" cy="64" r="54"></circle>
	<g id="24Hr" transform="translate(30.000000, 26.000000)" fill="#FFFFFF">
		<g id="Oval-1-+-Path">
			<path d="M17.6323612,67.91363 C33.4994591,76.1862719 53.0171875,69.5279485 61.2264278,53.0418484 C61.9555513,51.5775956 62.5709445,50.0850638 63.0759412,48.575031 L58.8642097,48.575031 L57.8617442,54.0478951 L52.6042659,54.0143365 L49.1899816,53.9803752 C42.2458866,61.8397528 31.0776291,64.3082518 21.8288017,59.486183 C19.1577464,58.0935726 16.8733549,56.211021 15.0262289,53.9891668 L3.88888784,54.0219783 C6.86351305,59.8129073 11.5346833,64.7344786 17.6323612,67.91363 Z M0.42950999,42.8815581 C0.151401859,40.7435563 0.0731733414,38.5682249 0.204351774,36.3863671 L9.67404941,36.505442 C9.66162403,36.6479175 9.65044252,36.7903557 9.64049939,36.9327402 C6.14821781,38.2016142 2.97995196,40.0391201 0.42950999,42.8815581 L0.42950999,42.8815581 L0.42950999,42.8815581 Z M0.9558244,31.017828 C1.55268685,28.3247919 2.48355165,25.6605937 3.76658341,23.0839618 C10.8265372,8.9059013 26.250266,1.99647924 40.5229033,5.60161936 L43.1851967,0.255103375 L57.6763931,20.6021886 L33.0715356,20.5657318 L36.1492043,14.3850436 C28.9810047,13.3749638 21.592415,15.9999967 16.3888157,21.5061921 C9.33682697,22.094033 3.99300698,25.3848828 0.9558244,31.017828 L0.9558244,31.017828 L0.9558244,31.017828 Z M10.5828501,45.6174631 C10.907429,46.7164814 11.3087002,47.7885164 11.7835588,48.8243251 C10.1839401,48.604154 9.22042945,48.0668595 9.43361061,47.0386446 C9.54794987,46.4871637 9.95466393,46.0263509 10.5828501,45.6174631 L10.5828501,45.6174631 L10.5828501,45.6174631 Z M64.8333792,38.764733 C64.9686901,34.4905512 64.3039139,30.2591303 62.9109329,26.3028742 L60.5447502,38.764733 L64.8333792,38.764733 L64.8333792,38.764733 L64.8333792,38.764733 Z M46.6176263,50.453279 L53.201991,50.453279 L53.9900874,46.1587101 L58.081343,46.1587101 L59.0868453,40.6794326 L54.9955896,40.6794326 L57.9033935,24.8339544 L48.6980682,24.8339544 L33.3151453,40.3832554 L32.2552915,46.1587101 L47.4057227,46.1587101 L46.6176263,50.453279 L46.6176263,50.453279 Z M48.411225,40.6794326 L40.2287136,40.6794326 L50.272763,30.5353648 L48.411225,40.6794326 L48.411225,40.6794326 Z" id="Oval-1"></path>
			<path d="M29.3171722,44.7518686 L11.9612984,44.7518686 C15.9564957,40.0500561 30.0056807,42.567562 31.7856915,32.8677599 C32.8455453,27.0923052 28.6701267,24.2416 21.2866887,24.2416 C14.1269913,24.2416 8.39312622,26.5739952 6.55968252,34.1265129 L14.4225645,34.1265129 C15.1898198,31.1647412 17.4916104,29.9430104 20.2084599,29.9430104 C23.0783301,29.9800326 24.2421244,31.1277191 23.9431913,32.7566935 C23.7121975,34.0154464 22.5195352,34.9410001 21.1662846,35.3482437 L15.5091595,37.0882845 C9.55078014,38.9023696 4.64671836,41.9381855 2.79644705,50.453279 L28.2709063,50.453279" id="Path"></path>
		</g>
	</g>
</g>

<g id="badge-easy-options">
	<use xlink:href="#main-circle" fill="#2B86CF"/>
	<circle id="Oval-1" fill="url(#linearGradient-1)" cx="64" cy="64" r="54"></circle>
	<path d="M28.946,42.54 L28.946,66 L42.512,66 L42.512,62.294 L33.23,62.294 L33.23,55.936 L41.56,55.936 L41.56,52.23 L33.23,52.23 L33.23,46.246 L42.376,46.246 L42.376,42.54 L28.946,42.54 Z M64.986,66 L57.37,42.54 L52.066,42.54 L44.382,66 L48.904,66 L50.502,60.866 L58.764,60.866 L60.328,66 L64.986,66 Z M57.812,57.296 L51.488,57.296 L54.65,46.994 L57.812,57.296 Z M81.17,44.138 C79.436,42.71 76.58,42.132 74.472,42.132 C72.262,42.132 70.29,42.71 68.658,43.934 C67.23,45.022 66.244,46.518 66.244,48.83 C66.244,56.99 77.328,54.746 77.328,59.574 C77.328,62.158 75.696,62.668 73.758,62.668 C71.786,62.668 69.644,62.158 68.046,60.866 L65.87,64.062 C67.638,65.762 70.834,66.408 73.248,66.408 C75.458,66.408 77.43,65.864 78.994,64.81 C80.592,63.722 81.714,61.954 81.714,59.404 C81.714,51.04 70.63,53.08 70.63,48.694 C70.63,46.45 71.99,45.872 73.996,45.872 C75.526,45.872 77.566,46.212 79.096,47.266 L81.17,44.138 Z M82.836,42.54 L90.044,57.024 L90.044,66 L94.396,66 L94.396,57.024 L101.808,42.54 L96.844,42.54 L92.288,52.604 L87.834,42.54 L82.836,42.54 Z" id="EASY" fill="#FFFFFF"></path>
	<path d="M36.4,80.96 C36.4,78.5 36.02,76.66 34.94,75.44 C34.1,74.52 32.82,73.92 30.84,73.92 C28.82,73.92 27.52,74.56 26.66,75.5 C25.44,76.84 25.08,78.82 25.08,81.26 C25.08,83.7 25.44,85.56 26.54,86.76 C27.38,87.68 28.7,88.28 30.64,88.28 C32.64,88.28 33.94,87.64 34.8,86.7 C36.04,85.34 36.4,83.42 36.4,80.96 L36.4,80.96 Z M34.4,81.02 C34.4,83.58 34.12,84.88 33.36,85.72 C32.78,86.34 31.92,86.68 30.64,86.68 C29.4,86.68 28.58,86.36 28.06,85.8 C27.32,85.02 27.08,83.46 27.08,81.22 C27.08,78.74 27.38,77.3 28.1,76.5 C28.66,75.86 29.58,75.52 30.8,75.52 C32.06,75.52 32.9,75.88 33.4,76.42 C34.16,77.24 34.4,78.68 34.4,81.02 L34.4,81.02 Z M39.24,74.2 L39.24,88 L41.1,88 L41.1,82.84 L43.86,82.84 C44.96,82.84 46.06,82.6 46.78,82.06 C47.64,81.44 48.16,80.3 48.16,78.46 C48.16,76.56 47.62,75.56 46.8,74.96 C46.02,74.38 44.94,74.2 43.88,74.2 L39.24,74.2 Z M41.1,75.84 L43.78,75.84 C44.74,75.84 45.2,75.94 45.6,76.3 C46,76.68 46.22,77.2 46.22,78.5 C46.22,79.58 46.06,80.28 45.66,80.68 C45.32,81.02 44.78,81.2 43.9,81.2 L41.1,81.2 L41.1,75.84 Z M49.26,74.2 L49.26,75.86 L53.5,75.86 L53.5,88 L55.36,88 L55.36,75.86 L59.58,75.86 L59.58,74.2 L49.26,74.2 Z M61.54,74.2 L61.54,88 L63.4,88 L63.4,74.2 L61.54,74.2 Z M77.56,80.96 C77.56,78.5 77.18,76.66 76.1,75.44 C75.26,74.52 73.98,73.92 72,73.92 C69.98,73.92 68.68,74.56 67.82,75.5 C66.6,76.84 66.24,78.82 66.24,81.26 C66.24,83.7 66.6,85.56 67.7,86.76 C68.54,87.68 69.86,88.28 71.8,88.28 C73.8,88.28 75.1,87.64 75.96,86.7 C77.2,85.34 77.56,83.42 77.56,80.96 L77.56,80.96 Z M75.56,81.02 C75.56,83.58 75.28,84.88 74.52,85.72 C73.94,86.34 73.08,86.68 71.8,86.68 C70.56,86.68 69.74,86.36 69.22,85.8 C68.48,85.02 68.24,83.46 68.24,81.22 C68.24,78.74 68.54,77.3 69.26,76.5 C69.82,75.86 70.74,75.52 71.96,75.52 C73.22,75.52 74.06,75.88 74.56,76.42 C75.32,77.24 75.56,78.68 75.56,81.02 L75.56,81.02 Z M80.4,74.2 L80.4,88 L82.22,88 L82.18,76.7 L88.54,88 L91.02,88 L91.02,74.2 L89.18,74.2 L89.24,85.52 L82.88,74.2 L80.4,74.2 Z M101.8,75.1 C100.82,74.3 99.3,73.98 98.12,73.98 C96.9,73.98 95.8,74.3 94.9,74.98 C94.12,75.58 93.6,76.4 93.6,77.66 C93.6,82.36 100.3,81.08 100.3,84.4 C100.3,86.2 99.12,86.6 97.76,86.6 C96.58,86.6 95.32,86.3 94.36,85.5 L93.4,86.86 C94.38,87.84 96.14,88.22 97.48,88.22 C98.68,88.22 99.86,87.92 100.68,87.36 C101.56,86.76 102.2,85.72 102.2,84.32 C102.2,79.5 95.48,80.66 95.48,77.62 C95.48,76.04 96.48,75.58 97.84,75.58 C98.78,75.58 99.96,75.8 100.9,76.46 L101.8,75.1 Z" id="OPTIONS" fill="#FFFFFF"></path>
</g>

<g id="badge-unlimited-buildings-cover">
	<use xlink:href="#main-circle" fill="#FF5501"/>
	<circle id="Oval-1" fill="url(#linearGradient-1)" cx="64" cy="64" r="54"></circle>
	<path d="M44.4437457,40.1353221 L48.0557722,45.9268517 L55.5183835,44.1890928 L55.2663642,52.6086358 L64.9934096,48.1093628 L62.8762984,56.379655 L75.0764227,57.8646626 L66.1779748,53.7516416 L69.4355291,43.060337 L59.2343586,47.2183583 L60.5819511,38.7695652 L52.6018403,40.4030735 L51.5503892,34.4630432 L60.8332225,27.0387553 C62.091823,26.0292501 63.6465649,26.0292501 64.9051654,27.0095052 L75.0465094,35.3247976 L75.0465094,27.9297598 C75.0465094,26.5197527 76.2901533,26 77.1194985,26 L82.1239875,26 C82.9525848,26 83.9300007,26.9052546 83.9300007,27.7370089 L83.9300007,42.7190853 L93.3167826,49.6536207 C93.9681439,50.1733733 94.2493286,51.1236282 93.7310813,51.7768815 L91.9549813,54.2563942 C91.4367341,54.9096475 90.1482203,55.0288981 89.496859,54.5091455 L83.9300007,50.6331257 L83.9300007,71.9557345 C83.9300007,73.8712442 82.7454355,75 80.8212648,75 L67.6437247,75 L67.6437247,63.1214394 L58.7609812,63.1214394 L58.7609812,75 L45.4951969,75 C43.5702784,75 42.4747051,73.8712442 42.4747051,71.9557345 L42.4747051,50.7673764 L37.1000396,54.5091455 C36.4337217,55.0288981 34.8348578,54.9096475 34.3166105,54.2563942 L32.34757,51.7768815 C31.8293227,51.1236282 31.8884014,50.1733733 32.5397627,49.6536207 L44.4437457,40.1353221" id="Fill-2" fill="#FFFFFF"></path>
	<path d="M25.58,84.96 L25.58,92.112 C25.58,93.152 25.708,94.192 26.348,94.96 C26.924,95.664 27.964,96.192 29.676,96.192 C31.404,96.192 32.54,95.648 33.18,94.848 C33.772,94.112 33.932,93.136 33.932,92.032 L33.932,84.96 L31.884,84.96 L31.884,92.08 C31.884,93.616 31.692,94.416 29.756,94.416 C27.74,94.416 27.628,93.552 27.628,92.096 L27.628,84.96 L25.58,84.96 Z M36.38,84.96 L36.38,96 L38.348,96 L38.284,87.728 L42.588,96 L45.228,96 L45.228,84.96 L43.244,84.96 L43.308,93.248 L39.02,84.96 L36.38,84.96 Z M47.676,84.96 L47.676,96 L53.916,96 L53.916,94.176 L49.708,94.176 L49.708,84.96 L47.676,84.96 Z M55.548,84.96 L55.548,96 L57.58,96 L57.58,84.96 L55.548,84.96 Z M60.38,84.96 L59.74,96 L61.756,96 L62.108,87.264 L64.716,95.456 L66.62,95.456 L69.244,87.264 L69.58,96 L71.628,96 L71.004,84.96 L68.236,84.96 L65.692,92.64 L63.18,84.96 L60.38,84.96 Z M73.788,84.96 L73.788,96 L75.82,96 L75.82,84.96 L73.788,84.96 Z M77.228,84.96 L77.228,86.784 L80.332,86.784 L80.332,96 L82.38,96 L82.38,86.784 L85.484,86.784 L85.484,84.96 L77.228,84.96 Z M86.876,84.96 L86.876,96 L93.26,96 L93.26,94.256 L88.892,94.256 L88.892,91.264 L92.812,91.264 L92.812,89.52 L88.892,89.52 L88.892,86.704 L93.196,86.704 L93.196,84.96 L86.876,84.96 Z M95.356,84.96 L95.356,96 L99.452,96 C100.844,96 101.852,95.616 102.54,94.976 C103.66,93.936 103.868,92.224 103.868,90.4 C103.868,88.368 103.612,86.912 102.636,85.984 C101.948,85.328 100.924,84.96 99.388,84.96 L95.356,84.96 Z M97.404,86.752 L99.308,86.752 C100.156,86.752 100.716,86.944 101.084,87.328 C101.548,87.824 101.724,88.8 101.724,90.48 C101.724,92.16 101.548,93.072 101.084,93.584 C100.7,94 100.124,94.208 99.308,94.208 L97.404,94.208 L97.404,86.752 Z" id="UNLIMITED" fill="#FFFFFF"></path>
</g>


</defs>

<g>
	<use xlink:href="#badge-great-value" transform="translate(0 0)"></use>
	<use xlink:href="#badge-24-hour" transform="translate(0 128)"></use>
	<use xlink:href="#badge-easy-options" transform="translate(0 256)"></use>
	<use xlink:href="#badge-unlimited-buildings-cover" transform="translate(0 384)"></use>
</g>

</svg>
