<?xml version="1.0" encoding="utf-8"?>
<!DOCTYPE svg PUBLIC "-//W3C//DTD SVG 1.1//EN" "http://www.w3.org/Graphics/SVG/1.1/DTD/svg11.dtd">

<svg version="1.1" xmlns="http://www.w3.org/2000/svg" xmlns:xlink="http://www.w3.org/1999/xlink" width="128" height="512" viewBox="0 0 128 512">
<defs>

<linearGradient x1="50%" y1="0%" x2="50%" y2="50%" id="linearGradient-1">
	<stop stop-color="#FFFFFF" stop-opacity="0.4" offset="0%"></stop>
	<stop stop-color="#FFFFFF" stop-opacity="0" offset="100%"></stop>
</linearGradient>

<g id="main-circle">
	<path d="M69.226,4.64 L75.161,0.937 L79.493,6.623 L86.064,3.854 L89.623,10.354 L95.879,9.119 L97.695,15.52 L105.415,14.936 L106.38,22.738 L113.063,23.348 L112.556,29.97 L119.303,32.121 L117.954,39.103 L123.984,42.403 L121.521,48.38 L127.174,52.838 L123.263,59.18 L128,64.339 L123.429,69.154 L127.174,75.001 L121.424,79.607 L124.145,86.064 L118.125,89.361 L119.475,95.88 L112.505,98.021 L113.063,105.416 L106.277,106.254 L105.415,112.904 L98.02,112.586 L95.879,119.303 L89.467,118.064 L86.064,124.146 L79.738,121.371 L75.161,127.173 L69.066,123.415 L64.184,128 L59.107,123.261 L52.998,127.173 L48.378,121.408 L42.402,123.985 L39.074,118.035 L32.119,119.476 L30.008,112.601 L22.718,112.904 L21.656,106.267 L15.096,105.416 L15.407,98.13 L8.498,95.88 L9.91,89.453 L3.854,86.064 L6.661,79.666 L0.825,75.001 L4.676,69.164 L0,64.185 L4.817,59.022 L0.968,52.838 L6.652,48.521 L4.015,42.403 L10.524,38.762 L9.246,32.121 L15.413,30.388 L15.096,22.718 L22.942,21.463 L23.475,14.936 L29.862,15.431 L32.119,8.498 L39.11,10.031 L42.402,4.015 L48.452,6.508 L52.998,0.818 L59.083,4.826 L64.339,0 L69.226,4.64 Z"></path>
</g>
<path id="path-200" d="M8.26929168,50.4115047 C8.26929168,50.4115047 26.8638411,44.1626682 55.1361994,44.1626684 C83.4085578,44.1626686 106.629754,51.3518728 106.629754,51.3518728 L110.127227,31.4738796 L89.9684716,6.37204177 L55.9450738,0.62048811 L20.9971116,4.84976745 L1.69886062,23.5439808 L0.423401503,45.0079538 L8.26929168,50.4115047 Z"></path>



<g id="badge-thumbs-up-90">
	<use xlink:href="#main-circle" fill="#C42236"/>
	<circle id="Oval-1" fill="url(#linearGradient-1)" cx="64" cy="64" r="54"></circle>
	<g id="LIGHT-+-HEAVY" transform="translate(32.000000, 69.000000)" fill="#FFFFFF">
		<path d="M1.152,22.368 C2.72,23.968 5.44,24.416 7.488,24.416 C10.464,24.416 12.448,23.488 13.696,22.016 C15.488,19.904 15.808,16.672 15.808,12.608 C15.808,9.472 15.616,6.272 14.112,4.16 C13.024,2.656 11.232,1.536 8.192,1.536 C5.792,1.536 4.096,2.208 2.88,3.296 C1.44,4.608 0.832,6.368 0.832,8.768 C0.832,11.264 1.504,12.96 2.752,14.08 C3.84,15.104 5.408,15.616 7.2,15.616 C9.248,15.616 10.88,14.944 11.808,13.44 C11.744,18.976 11.488,21.024 7.712,21.024 C6.336,21.024 4.448,20.736 3.2,19.616 L1.152,22.368 Z M7.872,12.608 C5.632,12.608 4.8,11.52 4.8,8.736 C4.8,6.144 5.536,4.8 8.16,4.8 C10.624,4.8 11.616,6.048 11.616,8.512 C11.616,11.264 10.368,12.608 7.872,12.608 L7.872,12.608 Z M34.112,12.704 C34.112,9.088 33.664,5.728 32,3.712 C30.88,2.336 29.152,1.472 26.592,1.472 C24.064,1.472 22.368,2.304 21.184,3.712 C19.296,5.92 18.848,9.408 18.848,13.216 C18.848,16.896 19.264,20.192 20.96,22.24 C22.08,23.584 23.776,24.448 26.304,24.448 C28.832,24.448 30.624,23.584 31.776,22.208 C33.632,20 34.112,16.512 34.112,12.704 L34.112,12.704 Z M29.92,12.704 C29.92,18.4 29.184,20.928 26.4,20.928 C23.68,20.928 23.04,18.528 23.04,13.248 C23.04,7.488 23.808,4.992 26.56,4.992 C29.28,4.992 29.92,7.36 29.92,12.704 L29.92,12.704 Z M61.216,2.336 L58.88,0.384 L39.296,23.584 L41.6,25.536 L61.216,2.336 Z M63.04,17.856 C63.04,15.904 62.752,13.984 61.632,12.832 C60.928,12.128 59.904,11.648 58.304,11.648 C56.64,11.648 55.52,12.192 54.816,13.024 C53.728,14.24 53.504,16.064 53.504,18.048 C53.504,20.192 53.792,21.92 54.88,23.04 C55.616,23.808 56.672,24.224 58.208,24.224 C59.776,24.224 60.864,23.744 61.6,22.976 C62.752,21.76 63.04,19.84 63.04,17.856 L63.04,17.856 Z M60.064,17.888 C60.064,20.576 59.808,21.76 58.24,21.76 C56.736,21.76 56.48,20.736 56.48,18.08 C56.48,15.36 56.704,14.144 58.304,14.144 C59.808,14.144 60.064,15.168 60.064,17.888 L60.064,17.888 Z M46.656,7.872 C46.656,5.92 46.4,4.032 45.248,2.88 C44.544,2.144 43.52,1.696 41.952,1.696 C40.256,1.696 39.168,2.208 38.432,3.072 C37.376,4.288 37.12,6.112 37.12,8.064 C37.12,10.24 37.44,11.968 38.496,13.056 C39.232,13.824 40.288,14.272 41.824,14.272 C43.392,14.272 44.48,13.792 45.216,13.024 C46.368,11.776 46.656,9.856 46.656,7.872 L46.656,7.872 Z M43.68,7.904 C43.68,10.592 43.424,11.808 41.856,11.808 C40.384,11.808 40.096,10.784 40.096,8.096 C40.096,5.408 40.352,4.16 41.952,4.16 C43.424,4.16 43.68,5.184 43.68,7.904 L43.68,7.904 Z" id="90%"></path>
	</g>
	<path d="M71.0804765,36.99807 C71.0804765,36.99807 79.5749808,36.9980701 81.6231749,36.99807 C83.6713691,36.9980698 85.0672949,37.9883796 85.0921972,40.3441736 C85.1170995,42.6999677 82.796204,43.5199465 82.796204,43.5199465 C82.796204,43.5199465 84.3819864,44.0335882 83.8907969,46.6042521 C83.3996074,49.174916 81.1441188,49.3521862 81.1441188,49.3521862 C81.1441188,49.3521862 82.5532759,50.5896405 82.1883615,52.613271 C81.8234471,54.6369016 79.8822222,55.2345134 79.8822222,55.2345134 C79.8822222,55.2345134 82.0173702,59.3667267 75.8581934,60.3331195 C69.6990166,61.2995124 56.0685592,61.0483377 56.0685592,61.0483377 L56,39.9172511 C56,39.9172511 62.7083731,35.5817935 64.3644325,31.823386 C66.0204918,28.0649785 63.914226,24.5240416 65.7422876,23.3145774 C67.5703492,22.1051131 72.0488124,24.4195203 72.0488122,29.4375938 C72.048812,34.4556673 71.0804765,36.99807 71.0804765,36.99807 Z M46,40.0091135 L53,40.0091135 L53,62.9989682 L46,62.9989682 L46,40.0091135 Z" id="Path-63" opacity="0.9" fill="#FFFFFF"></path>
</g>

<g id="badge-11-million">
	<use xlink:href="#main-circle" fill="#FF5501"/>
	<circle id="Oval-1" fill="url(#linearGradient-1)" cx="64" cy="64" r="54"></circle>
	<g id="11" transform="translate(37.761194, 33.000000)" fill="#FFFFFF">
		<path d="M2.69014925,33.3258751 L23.5221493,33.3258751 L23.5221493,27.9498751 L17.0421493,27.9498751 L17.0421493,0.205875116 L10.3221493,0.205875116 L0.674149254,7.06987512 L4.03414925,11.4378751 L10.9461493,6.34987512 L10.9461493,27.9498751 L2.69014925,27.9498751 L2.69014925,33.3258751 Z M29.8101493,33.3258751 L50.6421493,33.3258751 L50.6421493,27.9498751 L44.1621493,27.9498751 L44.1621493,0.205875116 L37.4421493,0.205875116 L27.7941493,7.06987512 L31.1541493,11.4378751 L38.0661493,6.34987512 L38.0661493,27.9498751 L29.8101493,27.9498751 L29.8101493,33.3258751 Z"></path>
	</g>
	<path d="M29.6357419,76.5849611 L28.8658065,90.2068966 L30.7018065,90.2068966 L31.2348387,78.6973482 L35.0647742,89.4764449 L36.8415484,89.4764449 L40.6912258,78.6973482 L41.2045161,90.2068966 L43.0602581,90.2068966 L42.3100645,76.5849611 L39.7633548,76.5849611 L35.9729032,86.9692191 L32.2219355,76.5849611 L29.6357419,76.5849611 Z M46.0215484,76.5849611 L46.0215484,90.2068966 L47.8575484,90.2068966 L47.8575484,76.5849611 L46.0215484,76.5849611 Z M51.1741935,76.5849611 L51.1741935,90.2068966 L58.7156129,90.2068966 L58.7156129,88.5683159 L53.0101935,88.5683159 L53.0101935,76.5849611 L51.1741935,76.5849611 Z M60.9267097,76.5849611 L60.9267097,90.2068966 L68.468129,90.2068966 L68.468129,88.5683159 L62.7627097,88.5683159 L62.7627097,76.5849611 L60.9267097,76.5849611 Z M70.6792258,76.5849611 L70.6792258,90.2068966 L72.5152258,90.2068966 L72.5152258,76.5849611 L70.6792258,76.5849611 Z M86.4925161,83.2577353 C86.4925161,80.8294772 86.1174194,79.0132191 85.0513548,77.8089611 C84.2221935,76.900832 82.9587097,76.308574 81.0042581,76.308574 C79.0103226,76.308574 77.7270968,76.9403159 76.8781935,77.8681869 C75.6739355,79.1908966 75.3185806,81.1453482 75.3185806,83.5538643 C75.3185806,85.9623804 75.6739355,87.7983804 76.7597419,88.9828966 C77.5889032,89.8910256 78.891871,90.4832836 80.8068387,90.4832836 C82.7810323,90.4832836 84.0642581,89.8515417 84.9131613,88.9236707 C86.1371613,87.5812191 86.4925161,85.6859933 86.4925161,83.2577353 L86.4925161,83.2577353 Z M84.5183226,83.3169611 C84.5183226,85.8439288 84.2419355,87.1271546 83.4917419,87.9563159 C82.9192258,88.5683159 82.0703226,88.9039288 80.8068387,88.9039288 C79.5828387,88.9039288 78.7734194,88.5880578 78.260129,88.0352836 C77.5296774,87.2653482 77.2927742,85.7254772 77.2927742,83.5143804 C77.2927742,81.0663804 77.5889032,79.6449611 78.2996129,78.8552836 C78.8523871,78.2235417 79.7605161,77.8879288 80.9647742,77.8879288 C82.2085161,77.8879288 83.0376774,78.2432836 83.5312258,78.7763159 C84.2814194,79.5857353 84.5183226,81.0071546 84.5183226,83.3169611 L84.5183226,83.3169611 Z M89.295871,76.5849611 L89.295871,90.2068966 L91.0923871,90.2068966 L91.0529032,79.052703 L97.3308387,90.2068966 L99.7788387,90.2068966 L99.7788387,76.5849611 L97.9625806,76.5849611 L98.0218065,87.7588966 L91.743871,76.5849611 L89.295871,76.5849611 Z" id="MILLION" fill="#FFFFFF"></path>
</g>

<g id="badge-reevoo">
	<use xlink:href="#main-circle" fill="#2B86CF"/>
	<circle id="Oval-1" fill="url(#linearGradient-1)" cx="64" cy="64" r="54"></circle>
	<g id="Imported-Layers" transform="translate(24.000000, 31.000000)" fill="#FFFFFF">
		<path d="M48.9242453,11.6322575 C44.5883249,11.6322575 41.194527,15.355359 41.194527,19.4419545 C41.194527,20.2290975 41.3388355,24.0421357 45.6198559,26.6063166 C47.2050922,27.5555822 47.5121399,30.1006318 46.0710159,31.3301606 C45.8267111,31.538435 45.8280836,32.0591209 46.2266965,32.0593181 C46.626878,32.0595153 47.8593821,31.7794494 49.6710808,30.943788 C53.6266229,29.119415 56.7557245,24.5381679 56.7223924,19.5314967 C56.6931778,15.1701605 53.2599696,11.6322575 48.9242453,11.6322575" id="Fill-1"></path>
		<path d="M32.2623035,0.542830978 C36.5982239,0.542830978 39.9920218,4.26593248 39.9920218,8.35252797 C39.9920218,9.13967095 39.8477133,12.9527091 35.5666929,15.51689 C33.9814565,16.4663529 33.6744089,19.0114025 35.1155329,20.240734 C35.3598377,20.4490084 35.3584652,20.9696943 34.9598523,20.9698916 C34.5596708,20.9700888 33.3271667,20.6900229 31.515468,19.8545587 C27.5599259,18.0299884 24.4308242,13.4487413 24.4641564,8.44207017 C24.493371,4.08073397 27.9265792,0.542830978 32.2623035,0.542830978" id="Fill-2"></path>
		<path d="M16.6552903,41.9471111 C12.0758026,41.9471111 10.725556,44.5162563 10.725556,47.5576539 L10.725556,51.3660252 C10.725556,54.8211406 12.2813868,56.9175515 16.7726301,56.9175515 C18.4750161,56.9175515 20.4126805,56.6223485 22.0268221,56.0023139 L21.4694577,53.2857479 C19.9135071,53.7581209 18.4750161,53.9654013 17.095674,53.9654013 C14.9233299,53.9654013 14.3068166,53.2857479 14.3068166,51.5440383 L14.3068166,50.8054889 L22.2616215,50.8054889 L22.2616215,47.7343421 C22.2616215,44.6342893 21.234778,41.9471111 16.6552903,41.9471111 M18.8567299,47.9118734 L14.3068166,47.9118734 L14.3068166,47.2034344 C14.3068166,45.8450912 14.9233299,44.9001044 16.6843858,44.9001044 C18.4454417,44.9001044 18.8567299,45.8450912 18.8567299,47.2034344 L18.8567299,47.9118734" id="Fill-3"></path>
		<path d="M31.0872559,41.9471111 C26.5077682,41.9471111 25.1575216,44.5162563 25.1575216,47.5576539 L25.1575216,51.3660252 C25.1575216,54.8211406 26.7129932,56.9175515 31.2045957,56.9175515 C32.9069817,56.9175515 34.8450053,56.6223485 36.4596258,56.0023139 L35.9019022,53.2857479 C34.3455924,53.7581209 32.9069817,53.9654013 31.5276396,53.9654013 C29.3552955,53.9654013 28.738423,53.2857479 28.738423,51.5440383 L28.738423,50.8054889 L36.6944253,50.8054889 L36.6944253,47.7343421 C36.6944253,44.6342893 35.6671028,41.9471111 31.0872559,41.9471111 M33.2886955,47.9118734 L28.738423,47.9118734 L28.738423,47.2034344 C28.738423,45.8450912 29.3552955,44.9001044 31.1163514,44.9001044 C32.8774073,44.9001044 33.2886955,45.8450912 33.2886955,47.2034344 L33.2886955,47.9118734" id="Fill-4"></path>
		<path d="M45.3436906,53.167474 L42.0853541,42.2424345 L38.416328,42.2424345 L42.9956959,56.6221077 L47.7217387,56.6221077 L52.3011066,42.2424345 L48.6316016,42.2424345 L45.3436906,53.167474" id="Fill-5"></path>
		<path d="M60.2460933,41.9472316 C55.3436815,41.9472316 54.0225304,44.6636771 54.0225304,47.6164295 L54.0225304,51.2485944 C54.0225304,54.2012264 55.3436815,56.917672 60.2460933,56.917672 C65.147667,56.917672 66.4688181,54.2012264 66.4688181,51.2485944 L66.4688181,47.6164295 C66.4688181,44.6636771 65.147667,41.9472316 60.2460933,41.9472316 M62.8875574,51.3662661 C62.8875574,52.9903041 62.1537043,53.847007 60.2460933,53.847007 C58.3376442,53.847007 57.6037911,52.9903041 57.6037911,51.3662661 L57.6037911,47.4987578 C57.6037911,45.8745995 58.3376442,45.0178966 60.2460933,45.0178966 C62.1537043,45.0178966 62.8875574,45.8745995 62.8875574,47.4987578 L62.8875574,51.3662661" id="Fill-6"></path>
		<path d="M75.7338783,41.9472316 C70.8313467,41.9472316 69.5106745,44.6636771 69.5106745,47.6164295 L69.5106745,51.2485944 C69.5106745,54.2012264 70.8313467,56.917672 75.7338783,56.917672 C80.6376071,56.917672 81.9582793,54.2012264 81.9582793,51.2485944 L81.9582793,47.6164295 C81.9582793,44.6636771 80.6376071,41.9472316 75.7338783,41.9472316 M78.3765397,51.3662661 C78.3765397,52.9903041 77.6418485,53.847007 75.7338783,53.847007 C73.8257883,53.847007 73.091576,52.9903041 73.091576,51.3662661 L73.091576,47.4987578 C73.091576,45.8745995 73.8257883,45.0178966 75.7338783,45.0178966 C77.6418485,45.0178966 78.3765397,45.8745995 78.3765397,47.4987578 L78.3765397,51.3662661" id="Fill-7"></path>
		<path d="M3.26549427,43.8369642 L3.0306948,42.242555 L0.00715771812,42.242555 L0.00715771812,56.6223485 L3.58853811,56.6223485 L3.58805918,47.2576332 C3.58805918,47.2576332 4.48858279,46.4475413 5.65288165,45.8644823 C6.81730023,45.2819051 8.38211118,45.477864 8.38211118,45.477864 L8.57787719,42.3881692 C8.57787719,42.3881692 6.83011183,42.1460811 5.59289463,42.558474 C4.30562839,42.98809 3.26549427,43.8369642 3.26549427,43.8369642" id="Fill-8"></path>
	</g>
</g>

<g id="badge-voted-best-green">
	<use xlink:href="#main-circle" fill="#50890F"/>
	<circle id="Oval-1" fill="url(#linearGradient-1)" cx="64" cy="64" r="54"></circle>
	<g id="LIGHT-+-HEAVY-Copy" transform="translate(27.000000, 41.000000)" fill="#FFFFFF">
		<path d="M0.8,0.44 L6.368,17 L8.96,17 L14.6,0.44 L12.248,0.44 L7.712,14.552 L3.248,0.44 L0.8,0.44 Z M29.912,8.552 C29.912,5.6 29.456,3.392 28.16,1.928 C27.152,0.824 25.616,0.104 23.24,0.104 C20.816,0.104 19.256,0.872 18.224,2 C16.76,3.608 16.328,5.984 16.328,8.912 C16.328,11.84 16.76,14.072 18.08,15.512 C19.088,16.616 20.672,17.336 23,17.336 C25.4,17.336 26.96,16.568 27.992,15.44 C29.48,13.808 29.912,11.504 29.912,8.552 L29.912,8.552 Z M27.512,8.624 C27.512,11.696 27.176,13.256 26.264,14.264 C25.568,15.008 24.536,15.416 23,15.416 C21.512,15.416 20.528,15.032 19.904,14.36 C19.016,13.424 18.728,11.552 18.728,8.864 C18.728,5.888 19.088,4.16 19.952,3.2 C20.624,2.432 21.728,2.024 23.192,2.024 C24.704,2.024 25.712,2.456 26.312,3.104 C27.224,4.088 27.512,5.816 27.512,8.624 L27.512,8.624 Z M31.64,0.44 L31.64,2.432 L36.728,2.432 L36.728,17 L38.96,17 L38.96,2.432 L44.024,2.432 L44.024,0.44 L31.64,0.44 Z M46.376,0.44 L46.376,17 L55.496,17 L55.496,15.032 L48.608,15.032 L48.608,9.536 L54.824,9.536 L54.824,7.568 L48.608,7.568 L48.608,2.408 L55.4,2.408 L55.4,0.44 L46.376,0.44 Z M58.856,0.44 L58.856,17 L64.544,17 C66.704,17 68.192,16.424 69.224,15.416 C70.856,13.832 71.144,11.336 71.144,8.648 C71.144,5.504 70.76,3.32 69.296,1.952 C68.264,0.968 66.728,0.44 64.472,0.44 L58.856,0.44 Z M61.112,2.408 L64.424,2.408 C65.936,2.408 66.944,2.744 67.616,3.44 C68.456,4.352 68.792,5.936 68.792,8.768 C68.792,11.504 68.48,13.016 67.616,13.928 C66.92,14.672 65.888,15.032 64.424,15.032 L61.112,15.032 L61.112,2.408 Z" id="VOTED"></path>
		<path d="M4.312,26.92 L4.312,49 L12.184,49 C14.296,49 16.12,48.584 17.496,47.464 C18.744,46.472 19.608,44.936 19.608,42.568 C19.608,39.72 18.392,37.832 15.448,37.384 C18.04,36.712 19.192,34.696 19.192,32.168 C19.192,30.312 18.584,29.064 17.528,28.232 C16.376,27.336 14.776,26.92 12.824,26.92 L4.312,26.92 Z M8.312,39.368 L12.024,39.368 C14.168,39.368 15.32,39.944 15.32,42.344 C15.32,43.592 15,44.456 14.488,44.936 C13.912,45.448 13.016,45.64 11.896,45.64 L8.312,45.64 L8.312,39.368 Z M8.312,30.28 L12.184,30.28 C13.08,30.28 13.784,30.408 14.2,30.76 C14.616,31.112 14.872,31.784 14.872,32.84 C14.872,35.496 13.272,36.2 11.064,36.2 L8.312,36.2 L8.312,30.28 Z M23.608,26.92 L23.608,49 L36.376,49 L36.376,45.512 L27.64,45.512 L27.64,39.528 L35.48,39.528 L35.48,36.04 L27.64,36.04 L27.64,30.408 L36.248,30.408 L36.248,26.92 L23.608,26.92 Z M53.304,28.424 C51.672,27.08 48.984,26.536 47,26.536 C44.92,26.536 43.064,27.08 41.528,28.232 C40.184,29.256 39.256,30.664 39.256,32.84 C39.256,40.52 49.688,38.408 49.688,42.952 C49.688,45.384 48.152,45.864 46.328,45.864 C44.472,45.864 42.456,45.384 40.952,44.168 L38.904,47.176 C40.568,48.776 43.576,49.384 45.848,49.384 C47.928,49.384 49.784,48.872 51.256,47.88 C52.76,46.856 53.816,45.192 53.816,42.792 C53.816,34.92 43.384,36.84 43.384,32.712 C43.384,30.6 44.664,30.056 46.552,30.056 C47.992,30.056 49.912,30.376 51.352,31.368 L53.304,28.424 Z M55.32,26.92 L55.32,30.568 L61.528,30.568 L61.528,49 L65.624,49 L65.624,30.568 L71.832,30.568 L71.832,26.92 L55.32,26.92 Z" id="BEST"></path>
	</g>
</g>



</defs>

<g>
	<use xlink:href="#badge-thumbs-up-90" transform="translate(0 0)"></use>
	<use xlink:href="#badge-11-million" transform="translate(0 128)"></use>
	<use xlink:href="#badge-reevoo" transform="translate(0 256)"></use>
	<use xlink:href="#badge-voted-best-green" transform="translate(0 384)"></use>
</g>

</svg>
