<?xml version="1.0" encoding="utf-8"?>
<!DOCTYPE svg PUBLIC "-//W3C//DTD SVG 1.1//EN" "http://www.w3.org/Graphics/SVG/1.1/DTD/svg11.dtd">

<svg version="1.1" xmlns="http://www.w3.org/2000/svg" xmlns:xlink="http://www.w3.org/1999/xlink" width="128" height="1024" viewBox="0 0 128 1024">
<defs>

<linearGradient x1="50%" y1="0%" x2="50%" y2="50%" id="linearGradient-1">
	<stop stop-color="#FFFFFF" stop-opacity="0.4" offset="0%"></stop>
	<stop stop-color="#FFFFFF" stop-opacity="0" offset="100%"></stop>
</linearGradient>

<g id="main-circle">
	<path d="M69.226,4.64 L75.161,0.937 L79.493,6.623 L86.064,3.854 L89.623,10.354 L95.879,9.119 L97.695,15.52 L105.415,14.936 L106.38,22.738 L113.063,23.348 L112.556,29.97 L119.303,32.121 L117.954,39.103 L123.984,42.403 L121.521,48.38 L127.174,52.838 L123.263,59.18 L128,64.339 L123.429,69.154 L127.174,75.001 L121.424,79.607 L124.145,86.064 L118.125,89.361 L119.475,95.88 L112.505,98.021 L113.063,105.416 L106.277,106.254 L105.415,112.904 L98.02,112.586 L95.879,119.303 L89.467,118.064 L86.064,124.146 L79.738,121.371 L75.161,127.173 L69.066,123.415 L64.184,128 L59.107,123.261 L52.998,127.173 L48.378,121.408 L42.402,123.985 L39.074,118.035 L32.119,119.476 L30.008,112.601 L22.718,112.904 L21.656,106.267 L15.096,105.416 L15.407,98.13 L8.498,95.88 L9.91,89.453 L3.854,86.064 L6.661,79.666 L0.825,75.001 L4.676,69.164 L0,64.185 L4.817,59.022 L0.968,52.838 L6.652,48.521 L4.015,42.403 L10.524,38.762 L9.246,32.121 L15.413,30.388 L15.096,22.718 L22.942,21.463 L23.475,14.936 L29.862,15.431 L32.119,8.498 L39.11,10.031 L42.402,4.015 L48.452,6.508 L52.998,0.818 L59.083,4.826 L64.339,0 L69.226,4.64 Z"></path>
</g>
<path id="path-200" d="M8.26929168,50.4115047 C8.26929168,50.4115047 26.8638411,44.1626682 55.1361994,44.1626684 C83.4085578,44.1626686 106.629754,51.3518728 106.629754,51.3518728 L110.127227,31.4738796 L89.9684716,6.37204177 L55.9450738,0.62048811 L20.9971116,4.84976745 L1.69886062,23.5439808 L0.423401503,45.0079538 L8.26929168,50.4115047 Z"></path>




<g id="badge-thumbs-up-94">
	<use xlink:href="#main-circle" fill="#C42236"/>
	<circle id="Oval-1" fill="url(#linearGradient-1)" cx="64" cy="64" r="54"></circle>
	<g id="LIGHT-+-HEAVY" transform="translate(32.000000, 69.000000)" fill="#FFFFFF">
		<path d="M1.152,22.368 C2.72,23.968 5.44,24.416 7.488,24.416 C10.464,24.416 12.448,23.488 13.696,22.016 C15.488,19.904 15.808,16.672 15.808,12.608 C15.808,9.472 15.616,6.272 14.112,4.16 C13.024,2.656 11.232,1.536 8.192,1.536 C5.792,1.536 4.096,2.208 2.88,3.296 C1.44,4.608 0.832,6.368 0.832,8.768 C0.832,11.264 1.504,12.96 2.752,14.08 C3.84,15.104 5.408,15.616 7.2,15.616 C9.248,15.616 10.88,14.944 11.808,13.44 C11.744,18.976 11.488,21.024 7.712,21.024 C6.336,21.024 4.448,20.736 3.2,19.616 L1.152,22.368 Z M7.872,12.608 C5.632,12.608 4.8,11.52 4.8,8.736 C4.8,6.144 5.536,4.8 8.16,4.8 C10.624,4.8 11.616,6.048 11.616,8.512 C11.616,11.264 10.368,12.608 7.872,12.608 L7.872,12.608 Z M34.336,19.744 L34.336,16.064 L30.944,16.064 L30.944,7.872 L27.2,7.872 L27.2,16.096 L22.624,16.096 L27.776,1.92 L23.808,1.92 L18.656,16.16 L18.656,19.744 L27.136,19.744 L27.136,24 L30.944,24 L30.944,19.744 L34.336,19.744 Z M61.216,2.336 L58.88,0.384 L39.296,23.584 L41.6,25.536 L61.216,2.336 Z M63.04,17.856 C63.04,15.904 62.752,13.984 61.632,12.832 C60.928,12.128 59.904,11.648 58.304,11.648 C56.64,11.648 55.52,12.192 54.816,13.024 C53.728,14.24 53.504,16.064 53.504,18.048 C53.504,20.192 53.792,21.92 54.88,23.04 C55.616,23.808 56.672,24.224 58.208,24.224 C59.776,24.224 60.864,23.744 61.6,22.976 C62.752,21.76 63.04,19.84 63.04,17.856 L63.04,17.856 Z M60.064,17.888 C60.064,20.576 59.808,21.76 58.24,21.76 C56.736,21.76 56.48,20.736 56.48,18.08 C56.48,15.36 56.704,14.144 58.304,14.144 C59.808,14.144 60.064,15.168 60.064,17.888 L60.064,17.888 Z M46.656,7.872 C46.656,5.92 46.4,4.032 45.248,2.88 C44.544,2.144 43.52,1.696 41.952,1.696 C40.256,1.696 39.168,2.208 38.432,3.072 C37.376,4.288 37.12,6.112 37.12,8.064 C37.12,10.24 37.44,11.968 38.496,13.056 C39.232,13.824 40.288,14.272 41.824,14.272 C43.392,14.272 44.48,13.792 45.216,13.024 C46.368,11.776 46.656,9.856 46.656,7.872 L46.656,7.872 Z M43.68,7.904 C43.68,10.592 43.424,11.808 41.856,11.808 C40.384,11.808 40.096,10.784 40.096,8.096 C40.096,5.408 40.352,4.16 41.952,4.16 C43.424,4.16 43.68,5.184 43.68,7.904 L43.68,7.904 Z" id="94%"></path>
	</g>
	<path d="M71.0804765,36.9991018 C71.0804765,36.9991018 79.5749808,36.9991019 81.6231749,36.9991018 C83.6713691,36.9991016 85.0672949,37.9894114 85.0921972,40.3452054 C85.1170995,42.7009994 82.796204,43.5209783 82.796204,43.5209783 C82.796204,43.5209783 84.3819864,44.03462 83.8907969,46.6052839 C83.3996074,49.1759478 81.1441188,49.353218 81.1441188,49.353218 C81.1441188,49.353218 82.5532759,50.5906723 82.1883615,52.6143028 C81.8234471,54.6379333 79.8822222,55.2355452 79.8822222,55.2355452 C79.8822222,55.2355452 82.0173702,59.3677585 75.8581934,60.3341513 C69.6990166,61.3005442 56.0685592,61.0493695 56.0685592,61.0493695 L56,39.9182829 C56,39.9182829 62.7083731,35.5828253 64.3644325,31.8244178 C66.0204918,28.0660103 63.914226,24.5250734 65.7422876,23.3156092 C67.5703492,22.1061449 72.0488124,24.4205521 72.0488122,29.4386256 C72.048812,34.4566991 71.0804765,36.9991018 71.0804765,36.9991018 Z M46,40.0101453 L53,40.0101453 L53,63 L46,63 L46,40.0101453 Z" id="Path-64" opacity="0.9" fill="#FFFFFF"></path>
</g>

<g id="badge-great-value">
	<use xlink:href="#main-circle" fill="#50890F"/>
	<circle id="Oval-1" fill="url(#linearGradient-1)" cx="64" cy="64" r="54"></circle>
	<path d="M36.74,48.168 L36.74,50.136 L40.34,50.136 L40.34,54.96 C39.476,55.224 38.204,55.368 37.124,55.368 C35.348,55.368 34.364,54.984 33.716,54.36 C32.948,53.592 32.492,52.392 32.492,48.744 C32.492,45.408 32.876,44.112 33.644,43.296 C34.244,42.624 35.156,42.144 36.908,42.144 C38.612,42.144 39.956,42.6 40.988,43.536 L42.26,41.904 C41.06,40.728 39.308,40.2 37.172,40.2 C34.7,40.2 33.068,40.896 32.036,41.976 C30.548,43.488 30.14,45.984 30.14,48.96 C30.14,51.744 30.476,54.024 32.012,55.56 C33.14,56.688 34.772,57.24 37.244,57.24 C39.284,57.24 41.18,56.856 42.476,56.328 L42.476,48.168 L36.74,48.168 Z M46.316,40.44 L46.316,57 L48.548,57 L48.548,50.256 L51.212,50.256 C53.396,50.256 53.876,51.984 54.908,57 L57.284,57 C56.396,52.32 55.796,49.848 53.612,49.296 C55.964,48.792 57.068,47.112 57.068,44.76 C57.068,42.96 56.42,41.88 55.46,41.256 C54.596,40.704 53.3,40.44 51.932,40.44 L46.316,40.44 Z M48.548,42.384 L51.908,42.384 C52.964,42.384 53.66,42.528 54.068,42.912 C54.476,43.296 54.716,44.04 54.716,45.048 C54.716,47.664 53.18,48.312 50.684,48.312 L48.548,48.312 L48.548,42.384 Z M60.476,40.44 L60.476,57 L69.596,57 L69.596,55.032 L62.708,55.032 L62.708,49.536 L68.924,49.536 L68.924,47.568 L62.708,47.568 L62.708,42.408 L69.5,42.408 L69.5,40.44 L60.476,40.44 Z M85.076,57 L79.508,40.44 L76.7,40.44 L71.06,57 L73.436,57 L74.828,52.872 L81.26,52.872 L82.604,57 L85.076,57 Z M80.732,50.976 L75.38,50.976 L78.068,42.768 L80.732,50.976 Z M85.532,40.44 L85.532,42.432 L90.62,42.432 L90.62,57 L92.852,57 L92.852,42.432 L97.916,42.432 L97.916,40.44 L85.532,40.44 Z" id="GREAT" fill="#FFFFFF"></path>
	<path d="M20.5,67.3 L27.22,88 L31.57,88 L38.35,67.3 L34.33,67.3 L29.47,83.71 L24.64,67.3 L20.5,67.3 Z M56.8,88 L50.08,67.3 L45.4,67.3 L38.62,88 L42.61,88 L44.02,83.47 L51.31,83.47 L52.69,88 L56.8,88 Z M50.47,80.32 L44.89,80.32 L47.68,71.23 L50.47,80.32 Z M59.14,67.3 L59.14,88 L70.84,88 L70.84,84.58 L62.95,84.58 L62.95,67.3 L59.14,67.3 Z M73.9,67.3 L73.9,80.71 C73.9,82.66 74.14,84.61 75.34,86.05 C76.42,87.37 78.37,88.36 81.58,88.36 C84.82,88.36 86.95,87.34 88.15,85.84 C89.26,84.46 89.56,82.63 89.56,80.56 L89.56,67.3 L85.72,67.3 L85.72,80.65 C85.72,83.53 85.36,85.03 81.73,85.03 C77.95,85.03 77.74,83.41 77.74,80.68 L77.74,67.3 L73.9,67.3 Z M94.15,67.3 L94.15,88 L106.12,88 L106.12,84.73 L97.93,84.73 L97.93,79.12 L105.28,79.12 L105.28,75.85 L97.93,75.85 L97.93,70.57 L106,70.57 L106,67.3 L94.15,67.3 Z" id="VALUE" fill="#FFFFFF"></path>
</g>

<g id="badge-voted-best">
	<use xlink:href="#main-circle" fill="#2B86CF"/>
	<circle id="Oval-1" fill="url(#linearGradient-1)" cx="64" cy="64" r="54"></circle>
	<g id="LIGHT-+-HEAVY" transform="translate(27.000000, 40.000000)" fill="#FFFFFF">
		<path d="M0.8,0.44 L6.368,17 L8.96,17 L14.6,0.44 L12.248,0.44 L7.712,14.552 L3.248,0.44 L0.8,0.44 Z M29.912,8.552 C29.912,5.6 29.456,3.392 28.16,1.928 C27.152,0.824 25.616,0.104 23.24,0.104 C20.816,0.104 19.256,0.872 18.224,2 C16.76,3.608 16.328,5.984 16.328,8.912 C16.328,11.84 16.76,14.072 18.08,15.512 C19.088,16.616 20.672,17.336 23,17.336 C25.4,17.336 26.96,16.568 27.992,15.44 C29.48,13.808 29.912,11.504 29.912,8.552 L29.912,8.552 Z M27.512,8.624 C27.512,11.696 27.176,13.256 26.264,14.264 C25.568,15.008 24.536,15.416 23,15.416 C21.512,15.416 20.528,15.032 19.904,14.36 C19.016,13.424 18.728,11.552 18.728,8.864 C18.728,5.888 19.088,4.16 19.952,3.2 C20.624,2.432 21.728,2.024 23.192,2.024 C24.704,2.024 25.712,2.456 26.312,3.104 C27.224,4.088 27.512,5.816 27.512,8.624 L27.512,8.624 Z M31.64,0.44 L31.64,2.432 L36.728,2.432 L36.728,17 L38.96,17 L38.96,2.432 L44.024,2.432 L44.024,0.44 L31.64,0.44 Z M46.376,0.44 L46.376,17 L55.496,17 L55.496,15.032 L48.608,15.032 L48.608,9.536 L54.824,9.536 L54.824,7.568 L48.608,7.568 L48.608,2.408 L55.4,2.408 L55.4,0.44 L46.376,0.44 Z M58.856,0.44 L58.856,17 L64.544,17 C66.704,17 68.192,16.424 69.224,15.416 C70.856,13.832 71.144,11.336 71.144,8.648 C71.144,5.504 70.76,3.32 69.296,1.952 C68.264,0.968 66.728,0.44 64.472,0.44 L58.856,0.44 Z M61.112,2.408 L64.424,2.408 C65.936,2.408 66.944,2.744 67.616,3.44 C68.456,4.352 68.792,5.936 68.792,8.768 C68.792,11.504 68.48,13.016 67.616,13.928 C66.92,14.672 65.888,15.032 64.424,15.032 L61.112,15.032 L61.112,2.408 Z" id="VOTED"></path>
		<path d="M2.228,26.2385024 L2.228,49.6814976 L10.5859374,49.6814976 C12.8283109,49.6814976 14.7649062,49.239818 16.2258464,48.0506806 C17.5508853,46.9974445 18.4682199,45.3666275 18.4682199,42.8524512 C18.4682199,39.8286445 17.1771564,37.8240986 14.0514237,37.3484436 C16.8034275,36.6349611 18.0265403,34.4945137 18.0265403,31.8104607 C18.0265403,29.83989 17.3810085,28.5148512 16.2598218,27.6314919 C15.036709,26.680182 13.3379412,26.2385024 11.2654445,26.2385024 L2.228,26.2385024 Z M6.47491943,39.4549156 L10.4160607,39.4549156 C12.6924095,39.4549156 13.9155223,40.066472 13.9155223,42.6146237 C13.9155223,43.9396626 13.5757687,44.8569972 13.032163,45.3666275 C12.4206066,45.9102332 11.4692967,46.1140853 10.2801592,46.1140853 L6.47491943,46.1140853 L6.47491943,39.4549156 Z M6.47491943,29.8059147 L10.5859374,29.8059147 C11.5372474,29.8059147 12.2847052,29.9418161 12.7263848,30.315545 C13.1680645,30.6892739 13.4398673,31.4027564 13.4398673,32.5239431 C13.4398673,35.3438976 11.7410995,36.0913555 9.3968,36.0913555 L6.47491943,36.0913555 L6.47491943,29.8059147 Z M22.7151393,26.2385024 L22.7151393,49.6814976 L36.2713062,49.6814976 L36.2713062,45.9781839 L26.9960341,45.9781839 L26.9960341,39.6247924 L35.3199962,39.6247924 L35.3199962,35.9214787 L26.9960341,35.9214787 L26.9960341,29.9418161 L36.1354047,29.9418161 L36.1354047,26.2385024 L22.7151393,26.2385024 Z M54.2442692,27.8353441 C52.5115261,26.4083791 49.6575962,25.8307981 47.5511242,25.8307981 C45.3427261,25.8307981 43.3721555,26.4083791 41.7413384,27.6314919 C40.3143735,28.7187033 39.3290882,30.213619 39.3290882,32.5239431 C39.3290882,40.6780284 50.405054,38.435655 50.405054,43.2601555 C50.405054,45.8422825 48.774237,46.3519128 46.8376417,46.3519128 C44.8670711,46.3519128 42.7266237,45.8422825 41.129782,44.551219 L38.9553592,47.7449024 C40.7220777,49.4436701 43.9157611,50.0892019 46.3280114,50.0892019 C48.5364095,50.0892019 50.5069801,49.5455962 52.0698464,48.4923602 C53.6666882,47.4051488 54.7878749,45.6384303 54.7878749,43.0902787 C54.7878749,34.7323412 43.711909,36.7708626 43.711909,32.3880417 C43.711909,30.1456682 45.0709232,29.5680872 47.0754692,29.5680872 C48.6043602,29.5680872 50.6428815,29.9078408 52.1717725,30.9610768 L54.2442692,27.8353441 Z M56.3847166,26.2385024 L56.3847166,30.1116929 L62.9759355,30.1116929 L62.9759355,49.6814976 L67.324781,49.6814976 L67.324781,30.1116929 L73.916,30.1116929 L73.916,26.2385024 L56.3847166,26.2385024 Z" id="BEST"></path>
	</g>
</g>

<g id="badge-3-million">
	<use xlink:href="#main-circle" fill="#FF5501"/>
	<circle id="Oval-1" fill="url(#linearGradient-1)" cx="64" cy="64" r="54"></circle>
	<path d="M55.4812831,53.5210751 L60.8271293,53.5210751 C66.8647908,53.5210751 69.6320524,54.7789213 69.6320524,59.8731982 C69.6320524,65.0303674 66.8018985,66.4139982 62.399437,66.4139982 C58.7516831,66.4139982 55.2297139,65.4706136 52.9655908,63.1435982 L48.8775908,68.6781213 C51.770637,71.8227367 57.1164831,73.0805828 62.1478677,73.0805828 C66.1729754,73.0805828 70.0094062,72.2629828 72.7766677,70.4391059 C75.7326062,68.4894443 77.8080524,65.4077213 77.8080524,60.5021213 C77.8080524,54.9047059 75.1036831,51.0053828 69.8836216,49.7475367 C74.7892216,48.2381213 77.1791293,44.3387982 77.1791293,39.4331982 C77.1791293,35.0307367 75.29236,32.3263674 72.4622062,30.5653828 C69.6949447,28.8043982 66.1100831,28.1125828 62.5252216,28.1125828 C58.0598677,28.1125828 52.3366677,29.181752 49.0033754,32.7037213 L53.0284831,38.0495674 C55.6070677,35.5967674 59.2548216,34.904952 62.3365447,34.904952 C66.487437,34.904952 69.0031293,36.0999059 69.0031293,40.3765828 C69.0031293,45.1563982 65.8585139,46.8544905 60.57556,46.8544905 L55.4812831,46.8544905 L55.4812831,53.5210751 Z" id="3" fill="#FFFFFF"></path>
	<path d="M29.6357419,81.5849611 L28.8658065,95.2068966 L30.7018065,95.2068966 L31.2348387,83.6973482 L35.0647742,94.4764449 L36.8415484,94.4764449 L40.6912258,83.6973482 L41.2045161,95.2068966 L43.0602581,95.2068966 L42.3100645,81.5849611 L39.7633548,81.5849611 L35.9729032,91.9692191 L32.2219355,81.5849611 L29.6357419,81.5849611 Z M46.0215484,81.5849611 L46.0215484,95.2068966 L47.8575484,95.2068966 L47.8575484,81.5849611 L46.0215484,81.5849611 Z M51.1741935,81.5849611 L51.1741935,95.2068966 L58.7156129,95.2068966 L58.7156129,93.5683159 L53.0101935,93.5683159 L53.0101935,81.5849611 L51.1741935,81.5849611 Z M60.9267097,81.5849611 L60.9267097,95.2068966 L68.468129,95.2068966 L68.468129,93.5683159 L62.7627097,93.5683159 L62.7627097,81.5849611 L60.9267097,81.5849611 Z M70.6792258,81.5849611 L70.6792258,95.2068966 L72.5152258,95.2068966 L72.5152258,81.5849611 L70.6792258,81.5849611 Z M86.4925161,88.2577353 C86.4925161,85.8294772 86.1174194,84.0132191 85.0513548,82.8089611 C84.2221935,81.900832 82.9587097,81.308574 81.0042581,81.308574 C79.0103226,81.308574 77.7270968,81.9403159 76.8781935,82.8681869 C75.6739355,84.1908966 75.3185806,86.1453482 75.3185806,88.5538643 C75.3185806,90.9623804 75.6739355,92.7983804 76.7597419,93.9828966 C77.5889032,94.8910256 78.891871,95.4832836 80.8068387,95.4832836 C82.7810323,95.4832836 84.0642581,94.8515417 84.9131613,93.9236707 C86.1371613,92.5812191 86.4925161,90.6859933 86.4925161,88.2577353 L86.4925161,88.2577353 Z M84.5183226,88.3169611 C84.5183226,90.8439288 84.2419355,92.1271546 83.4917419,92.9563159 C82.9192258,93.5683159 82.0703226,93.9039288 80.8068387,93.9039288 C79.5828387,93.9039288 78.7734194,93.5880578 78.260129,93.0352836 C77.5296774,92.2653482 77.2927742,90.7254772 77.2927742,88.5143804 C77.2927742,86.0663804 77.5889032,84.6449611 78.2996129,83.8552836 C78.8523871,83.2235417 79.7605161,82.8879288 80.9647742,82.8879288 C82.2085161,82.8879288 83.0376774,83.2432836 83.5312258,83.7763159 C84.2814194,84.5857353 84.5183226,86.0071546 84.5183226,88.3169611 L84.5183226,88.3169611 Z M89.295871,81.5849611 L89.295871,95.2068966 L91.0923871,95.2068966 L91.0529032,84.052703 L97.3308387,95.2068966 L99.7788387,95.2068966 L99.7788387,81.5849611 L97.9625806,81.5849611 L98.0218065,92.7588966 L91.743871,81.5849611 L89.295871,81.5849611 Z" id="MILLION" fill="#FFFFFF"></path>
</g>

<g id="badge-24-hour">
	<use xlink:href="#main-circle" fill="#C42236"/>
	<circle id="Oval-1" fill="url(#linearGradient-1)" cx="64" cy="64" r="54"></circle>
	<g id="24Hr" transform="translate(30.000000, 26.000000)" fill="#FFFFFF">
		<g id="Oval-1-+-Path">
			<path d="M17.6323612,67.91363 C33.4994591,76.1862719 53.0171875,69.5279485 61.2264278,53.0418484 C61.9555513,51.5775956 62.5709445,50.0850638 63.0759412,48.575031 L58.8642097,48.575031 L57.8617442,54.0478951 L52.6042659,54.0143365 L49.1899816,53.9803752 C42.2458866,61.8397528 31.0776291,64.3082518 21.8288017,59.486183 C19.1577464,58.0935726 16.8733549,56.211021 15.0262289,53.9891668 L3.88888784,54.0219783 C6.86351305,59.8129073 11.5346833,64.7344786 17.6323612,67.91363 Z M0.42950999,42.8815581 C0.151401859,40.7435563 0.0731733414,38.5682249 0.204351774,36.3863671 L9.67404941,36.505442 C9.66162403,36.6479175 9.65044252,36.7903557 9.64049939,36.9327402 C6.14821781,38.2016142 2.97995196,40.0391201 0.42950999,42.8815581 L0.42950999,42.8815581 L0.42950999,42.8815581 Z M0.9558244,31.017828 C1.55268685,28.3247919 2.48355165,25.6605937 3.76658341,23.0839618 C10.8265372,8.9059013 26.250266,1.99647924 40.5229033,5.60161936 L43.1851967,0.255103375 L57.6763931,20.6021886 L33.0715356,20.5657318 L36.1492043,14.3850436 C28.9810047,13.3749638 21.592415,15.9999967 16.3888157,21.5061921 C9.33682697,22.094033 3.99300698,25.3848828 0.9558244,31.017828 L0.9558244,31.017828 L0.9558244,31.017828 Z M10.5828501,45.6174631 C10.907429,46.7164814 11.3087002,47.7885164 11.7835588,48.8243251 C10.1839401,48.604154 9.22042945,48.0668595 9.43361061,47.0386446 C9.54794987,46.4871637 9.95466393,46.0263509 10.5828501,45.6174631 L10.5828501,45.6174631 L10.5828501,45.6174631 Z M64.8333792,38.764733 C64.9686901,34.4905512 64.3039139,30.2591303 62.9109329,26.3028742 L60.5447502,38.764733 L64.8333792,38.764733 L64.8333792,38.764733 L64.8333792,38.764733 Z M46.6176263,50.453279 L53.201991,50.453279 L53.9900874,46.1587101 L58.081343,46.1587101 L59.0868453,40.6794326 L54.9955896,40.6794326 L57.9033935,24.8339544 L48.6980682,24.8339544 L33.3151453,40.3832554 L32.2552915,46.1587101 L47.4057227,46.1587101 L46.6176263,50.453279 L46.6176263,50.453279 Z M48.411225,40.6794326 L40.2287136,40.6794326 L50.272763,30.5353648 L48.411225,40.6794326 L48.411225,40.6794326 Z" id="Oval-1"></path>
			<path d="M29.3171722,44.7518686 L11.9612984,44.7518686 C15.9564957,40.0500561 30.0056807,42.567562 31.7856915,32.8677599 C32.8455453,27.0923052 28.6701267,24.2416 21.2866887,24.2416 C14.1269913,24.2416 8.39312622,26.5739952 6.55968252,34.1265129 L14.4225645,34.1265129 C15.1898198,31.1647412 17.4916104,29.9430104 20.2084599,29.9430104 C23.0783301,29.9800326 24.2421244,31.1277191 23.9431913,32.7566935 C23.7121975,34.0154464 22.5195352,34.9410001 21.1662846,35.3482437 L15.5091595,37.0882845 C9.55078014,38.9023696 4.64671836,41.9381855 2.79644705,50.453279 L28.2709063,50.453279" id="Path"></path>
		</g>
	</g>
</g>

<g id="badge-easy-options">
	<use xlink:href="#main-circle" fill="#2B86CF"/>
	<circle id="Oval-1" fill="url(#linearGradient-1)" cx="64" cy="64" r="54"></circle>	
	<path d="M28.946,42.54 L28.946,66 L42.512,66 L42.512,62.294 L33.23,62.294 L33.23,55.936 L41.56,55.936 L41.56,52.23 L33.23,52.23 L33.23,46.246 L42.376,46.246 L42.376,42.54 L28.946,42.54 Z M64.986,66 L57.37,42.54 L52.066,42.54 L44.382,66 L48.904,66 L50.502,60.866 L58.764,60.866 L60.328,66 L64.986,66 Z M57.812,57.296 L51.488,57.296 L54.65,46.994 L57.812,57.296 Z M81.17,44.138 C79.436,42.71 76.58,42.132 74.472,42.132 C72.262,42.132 70.29,42.71 68.658,43.934 C67.23,45.022 66.244,46.518 66.244,48.83 C66.244,56.99 77.328,54.746 77.328,59.574 C77.328,62.158 75.696,62.668 73.758,62.668 C71.786,62.668 69.644,62.158 68.046,60.866 L65.87,64.062 C67.638,65.762 70.834,66.408 73.248,66.408 C75.458,66.408 77.43,65.864 78.994,64.81 C80.592,63.722 81.714,61.954 81.714,59.404 C81.714,51.04 70.63,53.08 70.63,48.694 C70.63,46.45 71.99,45.872 73.996,45.872 C75.526,45.872 77.566,46.212 79.096,47.266 L81.17,44.138 Z M82.836,42.54 L90.044,57.024 L90.044,66 L94.396,66 L94.396,57.024 L101.808,42.54 L96.844,42.54 L92.288,52.604 L87.834,42.54 L82.836,42.54 Z" id="EASY" fill="#FFFFFF"></path>
	<path d="M36.4,80.96 C36.4,78.5 36.02,76.66 34.94,75.44 C34.1,74.52 32.82,73.92 30.84,73.92 C28.82,73.92 27.52,74.56 26.66,75.5 C25.44,76.84 25.08,78.82 25.08,81.26 C25.08,83.7 25.44,85.56 26.54,86.76 C27.38,87.68 28.7,88.28 30.64,88.28 C32.64,88.28 33.94,87.64 34.8,86.7 C36.04,85.34 36.4,83.42 36.4,80.96 L36.4,80.96 Z M34.4,81.02 C34.4,83.58 34.12,84.88 33.36,85.72 C32.78,86.34 31.92,86.68 30.64,86.68 C29.4,86.68 28.58,86.36 28.06,85.8 C27.32,85.02 27.08,83.46 27.08,81.22 C27.08,78.74 27.38,77.3 28.1,76.5 C28.66,75.86 29.58,75.52 30.8,75.52 C32.06,75.52 32.9,75.88 33.4,76.42 C34.16,77.24 34.4,78.68 34.4,81.02 L34.4,81.02 Z M39.24,74.2 L39.24,88 L41.1,88 L41.1,82.84 L43.86,82.84 C44.96,82.84 46.06,82.6 46.78,82.06 C47.64,81.44 48.16,80.3 48.16,78.46 C48.16,76.56 47.62,75.56 46.8,74.96 C46.02,74.38 44.94,74.2 43.88,74.2 L39.24,74.2 Z M41.1,75.84 L43.78,75.84 C44.74,75.84 45.2,75.94 45.6,76.3 C46,76.68 46.22,77.2 46.22,78.5 C46.22,79.58 46.06,80.28 45.66,80.68 C45.32,81.02 44.78,81.2 43.9,81.2 L41.1,81.2 L41.1,75.84 Z M49.26,74.2 L49.26,75.86 L53.5,75.86 L53.5,88 L55.36,88 L55.36,75.86 L59.58,75.86 L59.58,74.2 L49.26,74.2 Z M61.54,74.2 L61.54,88 L63.4,88 L63.4,74.2 L61.54,74.2 Z M77.56,80.96 C77.56,78.5 77.18,76.66 76.1,75.44 C75.26,74.52 73.98,73.92 72,73.92 C69.98,73.92 68.68,74.56 67.82,75.5 C66.6,76.84 66.24,78.82 66.24,81.26 C66.24,83.7 66.6,85.56 67.7,86.76 C68.54,87.68 69.86,88.28 71.8,88.28 C73.8,88.28 75.1,87.64 75.96,86.7 C77.2,85.34 77.56,83.42 77.56,80.96 L77.56,80.96 Z M75.56,81.02 C75.56,83.58 75.28,84.88 74.52,85.72 C73.94,86.34 73.08,86.68 71.8,86.68 C70.56,86.68 69.74,86.36 69.22,85.8 C68.48,85.02 68.24,83.46 68.24,81.22 C68.24,78.74 68.54,77.3 69.26,76.5 C69.82,75.86 70.74,75.52 71.96,75.52 C73.22,75.52 74.06,75.88 74.56,76.42 C75.32,77.24 75.56,78.68 75.56,81.02 L75.56,81.02 Z M80.4,74.2 L80.4,88 L82.22,88 L82.18,76.7 L88.54,88 L91.02,88 L91.02,74.2 L89.18,74.2 L89.24,85.52 L82.88,74.2 L80.4,74.2 Z M101.8,75.1 C100.82,74.3 99.3,73.98 98.12,73.98 C96.9,73.98 95.8,74.3 94.9,74.98 C94.12,75.58 93.6,76.4 93.6,77.66 C93.6,82.36 100.3,81.08 100.3,84.4 C100.3,86.2 99.12,86.6 97.76,86.6 C96.58,86.6 95.32,86.3 94.36,85.5 L93.4,86.86 C94.38,87.84 96.14,88.22 97.48,88.22 C98.68,88.22 99.86,87.92 100.68,87.36 C101.56,86.76 102.2,85.72 102.2,84.32 C102.2,79.5 95.48,80.66 95.48,77.62 C95.48,76.04 96.48,75.58 97.84,75.58 C98.78,75.58 99.96,75.8 100.9,76.46 L101.8,75.1 Z" id="OPTIONS" fill="#FFFFFF"></path>
</g>

<g id="badge-unlimited-buildings-cover">
	<use xlink:href="#main-circle" fill="#FF5501"/>
	<circle id="Oval-1" fill="url(#linearGradient-1)" cx="64" cy="64" r="54"></circle>	
	<path d="M44.4437457,40.1353221 L48.0557722,45.9268517 L55.5183835,44.1890928 L55.2663642,52.6086358 L64.9934096,48.1093628 L62.8762984,56.379655 L75.0764227,57.8646626 L66.1779748,53.7516416 L69.4355291,43.060337 L59.2343586,47.2183583 L60.5819511,38.7695652 L52.6018403,40.4030735 L51.5503892,34.4630432 L60.8332225,27.0387553 C62.091823,26.0292501 63.6465649,26.0292501 64.9051654,27.0095052 L75.0465094,35.3247976 L75.0465094,27.9297598 C75.0465094,26.5197527 76.2901533,26 77.1194985,26 L82.1239875,26 C82.9525848,26 83.9300007,26.9052546 83.9300007,27.7370089 L83.9300007,42.7190853 L93.3167826,49.6536207 C93.9681439,50.1733733 94.2493286,51.1236282 93.7310813,51.7768815 L91.9549813,54.2563942 C91.4367341,54.9096475 90.1482203,55.0288981 89.496859,54.5091455 L83.9300007,50.6331257 L83.9300007,71.9557345 C83.9300007,73.8712442 82.7454355,75 80.8212648,75 L67.6437247,75 L67.6437247,63.1214394 L58.7609812,63.1214394 L58.7609812,75 L45.4951969,75 C43.5702784,75 42.4747051,73.8712442 42.4747051,71.9557345 L42.4747051,50.7673764 L37.1000396,54.5091455 C36.4337217,55.0288981 34.8348578,54.9096475 34.3166105,54.2563942 L32.34757,51.7768815 C31.8293227,51.1236282 31.8884014,50.1733733 32.5397627,49.6536207 L44.4437457,40.1353221" id="Fill-2" fill="#FFFFFF"></path>
	<path d="M25.58,84.96 L25.58,92.112 C25.58,93.152 25.708,94.192 26.348,94.96 C26.924,95.664 27.964,96.192 29.676,96.192 C31.404,96.192 32.54,95.648 33.18,94.848 C33.772,94.112 33.932,93.136 33.932,92.032 L33.932,84.96 L31.884,84.96 L31.884,92.08 C31.884,93.616 31.692,94.416 29.756,94.416 C27.74,94.416 27.628,93.552 27.628,92.096 L27.628,84.96 L25.58,84.96 Z M36.38,84.96 L36.38,96 L38.348,96 L38.284,87.728 L42.588,96 L45.228,96 L45.228,84.96 L43.244,84.96 L43.308,93.248 L39.02,84.96 L36.38,84.96 Z M47.676,84.96 L47.676,96 L53.916,96 L53.916,94.176 L49.708,94.176 L49.708,84.96 L47.676,84.96 Z M55.548,84.96 L55.548,96 L57.58,96 L57.58,84.96 L55.548,84.96 Z M60.38,84.96 L59.74,96 L61.756,96 L62.108,87.264 L64.716,95.456 L66.62,95.456 L69.244,87.264 L69.58,96 L71.628,96 L71.004,84.96 L68.236,84.96 L65.692,92.64 L63.18,84.96 L60.38,84.96 Z M73.788,84.96 L73.788,96 L75.82,96 L75.82,84.96 L73.788,84.96 Z M77.228,84.96 L77.228,86.784 L80.332,86.784 L80.332,96 L82.38,96 L82.38,86.784 L85.484,86.784 L85.484,84.96 L77.228,84.96 Z M86.876,84.96 L86.876,96 L93.26,96 L93.26,94.256 L88.892,94.256 L88.892,91.264 L92.812,91.264 L92.812,89.52 L88.892,89.52 L88.892,86.704 L93.196,86.704 L93.196,84.96 L86.876,84.96 Z M95.356,84.96 L95.356,96 L99.452,96 C100.844,96 101.852,95.616 102.54,94.976 C103.66,93.936 103.868,92.224 103.868,90.4 C103.868,88.368 103.612,86.912 102.636,85.984 C101.948,85.328 100.924,84.96 99.388,84.96 L95.356,84.96 Z M97.404,86.752 L99.308,86.752 C100.156,86.752 100.716,86.944 101.084,87.328 C101.548,87.824 101.724,88.8 101.724,90.48 C101.724,92.16 101.548,93.072 101.084,93.584 C100.7,94 100.124,94.208 99.308,94.208 L97.404,94.208 L97.404,86.752 Z" id="UNLIMITED" fill="#FFFFFF"></path>
</g>

<g id="badge-save-now">
	<use xlink:href="#main-circle" fill="#50890F"/>
	<circle id="Oval-1" fill="url(#linearGradient-1)" cx="64" cy="64" r="54"></circle>
	<path d="M33.946,72.68 L33.946,92 L36.494,92 L36.438,76.18 L45.342,92 L48.814,92 L48.814,72.68 L46.238,72.68 L46.322,88.528 L37.418,72.68 L33.946,72.68 Z M68.638,82.144 C68.638,78.7 68.106,76.124 66.594,74.416 C65.418,73.128 63.626,72.288 60.854,72.288 C58.026,72.288 56.206,73.184 55.002,74.5 C53.294,76.376 52.79,79.148 52.79,82.564 C52.79,85.98 53.294,88.584 54.834,90.264 C56.01,91.552 57.858,92.392 60.574,92.392 C63.374,92.392 65.194,91.496 66.398,90.18 C68.134,88.276 68.638,85.588 68.638,82.144 L68.638,82.144 Z M65.838,82.228 C65.838,85.812 65.446,87.632 64.382,88.808 C63.57,89.676 62.366,90.152 60.574,90.152 C58.838,90.152 57.69,89.704 56.962,88.92 C55.926,87.828 55.59,85.644 55.59,82.508 C55.59,79.036 56.01,77.02 57.018,75.9 C57.802,75.004 59.09,74.528 60.798,74.528 C62.562,74.528 63.738,75.032 64.438,75.788 C65.502,76.936 65.838,78.952 65.838,82.228 L65.838,82.228 Z M70.878,72.68 L75.526,92 L78.634,92 L82.806,76.348 L86.95,92 L90.058,92 L94.818,72.68 L92.186,72.68 L88.49,88.976 L84.346,73.24 L81.378,73.24 L77.262,88.976 L73.538,72.68 L70.878,72.68 Z" id="NOW" fill="#FFFFFF"></path>
	<path d="M42.784,42.424 C41.152,41.08 38.464,40.536 36.48,40.536 C34.4,40.536 32.544,41.08 31.008,42.232 C29.664,43.256 28.736,44.664 28.736,46.84 C28.736,54.52 39.168,52.408 39.168,56.952 C39.168,59.384 37.632,59.864 35.808,59.864 C33.952,59.864 31.936,59.384 30.432,58.168 L28.384,61.176 C30.048,62.776 33.056,63.384 35.328,63.384 C37.408,63.384 39.264,62.872 40.736,61.88 C42.24,60.856 43.296,59.192 43.296,56.792 C43.296,48.92 32.864,50.84 32.864,46.712 C32.864,44.6 34.144,44.056 36.032,44.056 C37.472,44.056 39.392,44.376 40.832,45.368 L42.784,42.424 Z M63.872,63 L56.704,40.92 L51.712,40.92 L44.48,63 L48.736,63 L50.24,58.168 L58.016,58.168 L59.488,63 L63.872,63 Z M57.12,54.808 L51.168,54.808 L54.144,45.112 L57.12,54.808 Z M64.16,40.92 L71.328,63 L75.968,63 L83.2,40.92 L78.912,40.92 L73.728,58.424 L68.576,40.92 L64.16,40.92 Z M85.92,40.92 L85.92,63 L98.688,63 L98.688,59.512 L89.952,59.512 L89.952,53.528 L97.792,53.528 L97.792,50.04 L89.952,50.04 L89.952,44.408 L98.56,44.408 L98.56,40.92 L85.92,40.92 Z" id="SAVE" fill="#FFFFFF"></path>
</g>


<g id="badge-windscreen-repair" stroke="none" stroke-width="1" fill="none" fill-rule="evenodd">
        <g id="Windscreen-Repair">
            <g id="Path-+-Oval-1-+-Imported-Layers">
                <path d="M69.226,4.64 L75.161,0.937 L79.493,6.623 L86.064,3.854 L89.623,10.354 L95.879,9.119 L97.695,15.52 L105.415,14.936 L106.38,22.738 L113.063,23.348 L112.556,29.97 L119.303,32.121 L117.954,39.103 L123.984,42.403 L121.521,48.38 L127.174,52.838 L123.263,59.18 L128,64.339 L123.429,69.154 L127.174,75.001 L121.424,79.607 L124.145,86.064 L118.125,89.361 L119.475,95.88 L112.505,98.021 L113.063,105.416 L106.277,106.254 L105.415,112.904 L98.02,112.586 L95.879,119.303 L89.467,118.064 L86.064,124.146 L79.738,121.371 L75.161,127.173 L69.066,123.415 L64.184,128 L59.107,123.261 L52.998,127.173 L48.378,121.408 L42.402,123.985 L39.074,118.035 L32.119,119.476 L30.008,112.601 L22.718,112.904 L21.656,106.267 L15.096,105.416 L15.407,98.13 L8.498,95.88 L9.91,89.453 L3.854,86.064 L6.661,79.666 L0.825,75.001 L4.676,69.164 L0,64.185 L4.817,59.022 L0.968,52.838 L6.652,48.521 L4.015,42.403 L10.524,38.762 L9.246,32.121 L15.413,30.388 L15.096,22.718 L22.942,21.463 L23.475,14.936 L29.862,15.431 L32.119,8.498 L39.11,10.031 L42.402,4.015 L48.452,6.508 L52.998,0.818 L59.083,4.826 L64.339,0 L69.226,4.64 Z" id="Path" fill="#40A4F4"></path>
                <circle id="Oval-1" fill="url(#linearGradient-1)" cx="64" cy="64" r="54"></circle>
            </g>
            <g id="Imported-Layers" transform="translate(9.000000, 30.000000)">
                <mask id="mask-300" fill="white">
                    <use xlink:href="#path-200"></use>
                </mask>
                <use id="Mask" xlink:href="#path-200"></use>
                <g mask="url(#mask-300)">
                    <g transform="translate(10.385773, 8.343860)">
                        <path d="M75.545988,33.2190982 L72.2083375,19.2646505 L61.4597093,17.1329777 L56.8133282,29.4547858 L58.3404388,15.2785456 L57.0379033,14.2327322 L50.5484577,19.2661908 L44.4229786,18.6732038 L39.7765975,20.2134298 L43.0569426,16.1903594 L50.6181534,15.5927517 L54.7131639,12.3675185 L45.9717723,7.8916217 L56.8133282,9.43184771 L57.1540628,5.91551173 C52.9366976,5.3209845 48.5861361,5.00523816 44.1333542,5.00523816 C35.4322312,5.00523816 27.1105626,6.19429264 19.4471314,8.35831018 C18.4760378,8.63247041 18.376915,9.35945709 18.129108,10.6070402 L14.4042591,33.2190982 C14.2834532,34.0461995 15.6014767,34.8409562 16.6035462,34.656129 C19.7661829,34.0754638 35.8287224,32.9849838 44.1333542,32.9849838 C52.437986,32.9849838 70.1840642,34.0754638 73.3467009,34.656129 C74.3487704,34.8409562 75.8696858,34.6884738 75.545988,33.2190982" id="Fill-1" stroke="none" fill="#FFFFFF" fill-rule="evenodd"></path>
                        <path d="M69.7705363,8.99596375 C69.5335708,8.70024036 69.2114217,8.46920645 68.8211257,8.35831018 C65.8412467,7.51734678 62.7591472,6.82732553 59.5965105,6.29440733 L61.9398353,11.1738433 L69.7705363,8.99596375" id="Fill-2" stroke="none" fill="#FFFFFF" fill-rule="evenodd"></path>
                        <path d="M66.1060904,14.0525257 L71.9543354,18.2018946 L70.1376004,10.6070402 C70.1530883,10.5408104 70.1561859,10.4745807 70.1654787,10.4068108 L66.1060904,14.0525257" id="Fill-3" stroke="none" fill="#FFFFFF" fill-rule="evenodd"></path>
                        <path d="M0.0204381393,42.7113535 L7.38979733,36.1391105 C7.8468715,35.7544949 8.32046045,34.9784023 8.45318365,34.4009505 L12.9988859,8.18355753 C13.4265203,6.32300683 15.3198002,4.57497901 17.2236642,4.29654782 C17.2236642,4.29654782 27.9508036,0.456140351 44.2560555,0.456140351 C57.5577084,0.456140351 70.4963533,3.3965217 70.4963533,3.3965217 C72.4002173,3.6749529 74.2934972,5.42298071 74.7211315,7.28353141 L81.7752697,34.4009505 C81.9079929,34.9784023 82.3815819,35.7544949 82.838656,36.1391105 L91.5867357,42.7113535 L2.60121424,42.7113535" id="Path-58" stroke="#FFFFFF" stroke-width="3" fill="none"></path>
                        <path d="M8.82529165,30.1825895 L6.69749097,27.7826432 C6.33249818,27.3709679 5.58442214,27.0372391 5.04316414,27.0372391 L3.02852561,27.0372391 C1.36720477,27.0372391 0.0204381393,28.3772604 0.0204381393,30.0367554 L0.0204381393,32.6138592 C0.0204381393,34.2704463 1.35595593,35.6133756 3.01927524,35.6133756 L6.89616621,35.6133756 C7.44684878,35.6133756 7.96953684,35.1689515 8.06204816,34.6299012 L8.82529165,30.1825895 Z" id="Path-59" stroke="#FFFFFF" stroke-width="3" fill="none"></path>
                        <path d="M90.6222073,30.1825895 L88.4944066,27.7826432 C88.1294138,27.3709679 87.3813377,27.0372391 86.8400797,27.0372391 L84.8254412,27.0372391 C83.1641204,27.0372391 81.8173537,28.3772604 81.8173537,30.0367554 L81.8173537,32.6138592 C81.8173537,34.2704463 83.1528715,35.6133756 84.8161908,35.6133756 L88.6930818,35.6133756 C89.2437644,35.6133756 89.7664524,35.1689515 89.8589638,34.6299012 L90.6222073,30.1825895 Z" id="Path-60" stroke="#FFFFFF" stroke-width="3" fill="none" transform="translate(86.219780, 31.325307) scale(-1, 1) translate(-86.219780, -31.325307) "></path>
                    </g>
                </g>
            </g>
        </g>
    </g>

<g id="badge-courtesy-car">
	<use xlink:href="#main-circle" fill="#40A4F4"/>
	<circle id="Oval-1" fill="url(#linearGradient-1)" cx="64" cy="64" r="54"></circle>
	<g id="Imported-Layers" transform="translate(30.000000, 27.000000)" fill="#FFFFFF">
		<path d="M19.2983016,35.4408512 C19.2983016,36.5711041 19.2992956,39.1484939 19.2983016,40.2428266 C19.2983016,43.0691969 18.3673669,43.3698431 14.7887608,43.3698431 C11.2956435,43.3698431 10.1847845,43.298495 10.1634123,40.4130781 C10.1549628,39.2611747 10.1619212,36.2178078 10.1619212,35.02654 C10.0157948,35.0191591 8.18523835,34.6766881 8.18076509,34.1157441 C8.15392554,30.6905417 8.18523835,27.2648471 8.18523835,23.8396446 C8.18523835,19.2925542 11.7459515,17.842957 11.7459515,17.842957 C11.7459515,17.842957 13.5516565,10.7529207 14.4318942,7.20273595 C15.1938391,4.37734985 16.1506192,2.20443013 22.1562162,1.26657121 C28.4590363,0.541772579 37.3543578,0.541772579 43.4643308,1.25968242 C48.8541093,1.98152872 50.3362487,3.9172774 51.1111163,6.93751772 C52.0316134,10.5265749 53.8283719,17.7150224 53.8283719,17.7150224 C53.8283719,17.7150224 57.4268592,19.6473267 57.4268592,23.9533096 C57.4631423,27.3194653 57.4372968,30.6856211 57.4358057,34.0517768 C57.4353087,34.6988306 55.4059408,35.0216194 55.3249251,35.0398255 L55.3249251,35.3596619 C55.3249251,36.3836307 55.3274102,37.4075994 55.323931,38.4315682 C55.323931,43.0691969 54.4098954,43.3836207 50.9938176,43.3836207 C46.9654005,43.3836207 46.1815863,43.0691969 46.1815863,38.4423934 C46.1910299,37.4420433 46.1825804,36.8486237 46.1825804,35.8482737 L46.1825804,35.4408512 C38.0715701,36.3787101 27.637448,36.3787101 19.2983016,35.4408512 L19.2983016,35.4408512 Z M17.5368321,16.8672097 C26.1871184,15.9067162 39.3827317,15.8225746 48.1567781,16.8672097 C48.1403762,16.790449 47.2218673,11.343388 45.8396306,6.75693313 C45.2581071,4.26909751 20.8038013,3.99256198 19.8345955,6.84648734 C18.4021589,11.0643922 17.5368321,16.8672097 17.5368321,16.8672097 L17.5368321,16.8672097 Z M53.7577938,26.5685877 C53.761273,24.2470671 51.8377722,22.3664287 49.4913,22.3546193 C46.9385609,22.3413338 45.1094956,24.6254582 45.1999548,26.7496644 C45.273018,28.4649719 46.8466107,30.8184762 49.4778802,30.8032225 C51.8497009,30.7894449 53.7548116,28.9235682 53.7577938,26.5685877 L53.7577938,26.5685877 Z M19.9066646,26.5562863 C19.913623,24.2603526 18.0025479,22.3856189 15.6650223,22.3546193 C13.0814674,22.3196833 11.2673129,24.6746638 11.3498197,26.7265377 C11.4154274,28.3596719 12.9442875,30.8278253 15.6406679,30.8037146 C18.0065242,30.7825561 19.8992092,28.9211079 19.9066646,26.5562863 L19.9066646,26.5562863 Z" id="Fill-1"></path>
		<path d="M41.8999302,49.441733 C33.0211318,48.8499076 29.5501163,48.439589 26.9994419,48.1927808 C24.7583178,47.9773378 20.3605719,47.4990527 20.3054113,52.1446497 C20.2609863,55.8861084 23.5527352,56.6748047 24.9294358,57.0580006 C26.3061365,57.4411965 37.6103721,60.09819 37.6103721,60.09819 L24.852845,60.09819 C22.5177132,60.09819 20.882186,59.6513644 18.1741395,56.971439 C15.4666124,54.2904852 7.95222481,46.8512755 7.95222481,46.8512755 C7.95222481,46.8512755 4.60430233,43.6355707 1.65422481,46.5545915 C-1.18003101,49.3610061 2.12893798,52.8836786 2.12893798,52.8836786 C2.12893798,52.8831645 11.1858837,62.9010054 12.5695116,64.3885388 C17.8355039,70.0527864 22.2845116,71.8164364 26.413062,71.8164364 C29.0364496,71.8164364 55.9314961,71.8159222 58.248969,71.8159222 C66.4323178,71.8159222 66.5657984,71.5850538 66.5657984,67.0561238 C66.5657984,54.1064075 55.2126744,45.570444 41.8999302,49.441733 Z" id="Fill-2"></path>
		<path d="M25.6667132,46.2769324 C26.1616822,46.2769324 26.6711938,46.301099 27.1796667,46.3504606 C27.5967287,46.390567 28.0366434,46.4353009 28.5207054,46.4841484 C28.6110775,46.4934037 28.706124,46.502659 28.8001318,46.5124285 C28.7611783,46.4532974 28.738845,46.4198754 28.738845,46.4198754 C28.738845,46.4198754 27.0176202,43.8736378 23.955876,45.1061361 C24.3220388,45.4681214 24.7255969,45.8681563 25.1546047,46.292872 C25.3244419,46.2867018 25.4916822,46.2769324 25.6667132,46.2769324" id="Fill-3"></path>
		<path d="M20.1737519,44.1039921 C19.475186,44.9493101 18.4473333,45.3447173 17.2018605,45.5185114 C17.9939147,46.3026415 18.8882868,47.1880659 19.8268062,48.1171958 C20.5975659,47.4302464 21.5895814,46.925318 22.7779225,46.6204071 C21.4057209,45.2614196 20.4931705,44.358513 20.4931705,44.358513 C20.4931705,44.358513 20.3768295,44.2495061 20.1737519,44.1039921" id="Fill-4"></path>
		<path d="M14.5857442,45.7766316 C11.9187287,45.7766316 9.37376744,45.7041317 8.35526357,43.3836207 C7.99221705,43.574897 8.05712813,43.4100987 7.67590332,43.7504883 C8.82944596,44.3006648 18.4272461,54.1716313 18.4272461,54.1716313 C18.3321996,53.7140078 18.1026095,53.1840068 18.09729,52.6591797 C18.0811915,51.0708628 18.1715426,50.4526181 18.6026279,49.6479207 C17.0907132,48.1506177 15.6785194,46.804999 14.6309302,45.7766316 L14.5857442,45.7766316 Z" id="Fill-5"></path>
	</g>
</g>

<g id="badge-euro-drive">
	<use xlink:href="#main-circle" fill="#40A4F4"/>
	<circle id="Oval-1" fill="url(#linearGradient-1)" cx="64" cy="64" r="54"></circle>
	<g id="Imported-Layers" transform="translate(18.000000, 19.000000)" fill="#FFFFFF">
		<path d="M51.5101717,53.1569167 L42.6123807,53.1569167 C43.3143479,56.3393143 44.9307343,57.8494748 48.5435113,57.8494748 C51.7237187,57.8494748 54.9072114,56.6087121 57.439112,55.0470813 L57.439112,62.5376524 C54.7440396,64.0478129 51.561642,64.8001553 48.162412,64.8001553 C42.2356619,64.8001553 38.7323962,62.3744806 36.63197,59.4100104 C35.2849813,57.5789819 34.475693,55.3679493 33.9883679,53.1558216 L29.3001902,53.1558216 L30.7544999,47.496279 L33.2874957,47.496279 L33.2874957,44.1003343 L29.3001902,44.1003343 L30.7544999,38.4407917 L33.9368976,38.4407917 C34.475693,35.8530403 35.4426776,33.4273656 37.0601591,31.4342604 C39.4902143,28.525641 43.3143479,26.5281553 49.405365,26.5281553 C52.4815367,26.5281553 55.9289516,27.0154805 58.516703,28.2562432 L56.360426,35.0448471 C54.525017,34.1851836 51.8299446,33.5905374 49.1326819,33.5905374 C44.9296392,33.5905374 43.150081,35.1006979 42.4524942,38.4418868 L55.28174,38.4418868 L53.8274302,44.1014295 L42.0221149,44.1014295 L42.0735852,47.4973741 L52.9097258,47.4973741 L51.5101717,53.1569167" id="Fill-1"></path>
		<path d="M46.0241165,0.15184466 L47.8694757,3.88186408 L51.9871456,4.48209709 L49.0020583,7.38768932 L49.7067961,11.4928544 L46.0241165,9.55281553 L42.3396505,11.4928544 L43.0443883,7.38768932 L40.0646602,4.48209709 L44.1814369,3.88186408 L46.0241165,0.15184466" id="Fill-2"></path>
		<path d="M46.0241165,79.8363495 L47.8694757,83.5699417 L51.9871456,84.1701748 L49.0020583,87.0730874 L49.7067961,91.176466 L46.0241165,89.24 L42.3396505,91.176466 L43.0443883,87.0730874 L40.0646602,84.1701748 L44.1814369,83.5699417 L46.0241165,79.8363495" id="Fill-3"></path>
		<path d="M6.17918447,40.0700194 L8.02454369,43.8036117 L12.1413204,44.4038447 L9.16159223,47.3094369 L9.8663301,51.4092427 L6.17918447,49.4727767 L2.49739806,51.4092427 L3.20302913,47.3094369 L0.219728155,44.4038447 L4.34007767,43.8036117 L6.17918447,40.0700194" id="Fill-4"></path>
		<path d="M85.6341359,40.0700194 L87.4794951,43.8036117 L91.5962718,44.4038447 L88.6165437,47.3094369 L89.3186019,51.4092427 L85.6341359,49.4727767 L81.9532427,51.4092427 L82.6544078,47.3094369 L79.6746796,44.4038447 L83.7950291,43.8036117 L85.6341359,40.0700194" id="Fill-5"></path>
		<path d="M66.0059806,5.34046602 L67.8486602,9.07137864 L71.9636505,9.67161165 L68.9857087,12.5780971 L69.6886602,16.6796893 L66.0059806,14.7432233 L62.3215146,16.6796893 L63.0226796,12.5780971 L60.0429515,9.67161165 L64.1641942,9.07137864 L66.0059806,5.34046602" id="Fill-6"></path>
		<path d="M26.2762718,5.34046602 L28.1216311,9.07137864 L32.2384078,9.67161165 L29.2586796,12.5780971 L29.9607379,16.6796893 L26.2762718,14.7432233 L22.5944854,16.6796893 L23.2965437,12.5780971 L20.3168155,9.67161165 L24.437165,9.07137864 L26.2762718,5.34046602" id="Fill-7"></path>
		<path d="M26.2762718,74.1671845 L28.1216311,77.8998835 L32.2384078,78.5001165 L29.2586796,81.4066019 L29.9607379,85.5064078 L26.2762718,83.5699417 L22.5944854,85.5064078 L23.2965437,81.4066019 L20.3168155,78.5001165 L24.437165,77.8998835 L26.2762718,74.1671845" id="Fill-8"></path>
		<path d="M80.2918835,19.6281553 L82.1345631,23.3572816 L86.2549126,23.9575146 L83.2716117,26.864 L83.9763495,30.9673786 L80.2918835,29.0273398 L76.6074175,30.9673786 L77.3121553,26.864 L74.3288544,23.9575146 L78.4500971,23.3572816 L80.2918835,19.6281553" id="Fill-9"></path>
		<path d="M11.6393398,19.6281553 L13.484699,23.3572816 L17.6023689,23.9575146 L14.6226408,26.864 L15.3238058,30.9673786 L11.6393398,29.0273398 L7.95487379,30.9673786 L8.65961165,26.864 L5.6798835,23.9575146 L9.80023301,23.3572816 L11.6393398,19.6281553" id="Fill-10"></path>
		<path d="M80.2918835,59.8178641 L82.1345631,63.5514563 L86.2549126,64.1516893 L83.2716117,67.0581748 L83.9763495,71.1561942 L80.2918835,69.2197282 L76.6074175,71.1561942 L77.3121553,67.0581748 L74.3288544,64.1516893 L78.4500971,63.5514563 L80.2918835,59.8178641" id="Fill-11"></path>
		<path d="M11.6393398,59.8178641 L13.484699,63.5514563 L17.6023689,64.1516893 L14.6226408,67.0581748 L15.3238058,71.1561942 L11.6393398,69.2197282 L7.95487379,71.1561942 L8.65961165,67.0581748 L5.6798835,64.1516893 L9.80023301,63.5514563 L11.6393398,59.8178641" id="Fill-12"></path>
		<path d="M66.0059806,74.1671845 L67.8486602,77.8998835 L71.9636505,78.5001165 L68.9857087,81.4066019 L69.6886602,85.5064078 L66.0059806,83.5699417 L62.3215146,85.5064078 L63.0226796,81.4066019 L60.0429515,78.5001165 L64.1641942,77.8998835 L66.0059806,74.1671845" id="Fill-13"></path>
	</g>
</g>

<g id="badge-stereo-cover">
	<use xlink:href="#main-circle" fill="#40A4F4"/>
	<circle id="Oval-1" fill="url(#linearGradient-1)" cx="64" cy="64" r="54"></circle>
	<g id="Imported-Layers" transform="translate(17.000000, 25.000000)" fill="#FFFFFF">
		<path d="M76.6760495,28.6483286 C77.8595953,24.8341722 77.3997463,20.0954293 74.9874237,17.6634062 C72.6090245,15.2674553 67.9898037,14.7738363 64.2262036,15.8996674 C60.0687164,13.6650919 55.6134582,12.3949722 50.5720809,12.3949722 C47.9750649,12.3949722 45.231048,12.7329114 43.346421,13.3651234 L43.346421,17.0179044 C45.231048,16.3002582 47.9599879,15.9110586 50.5720809,15.9110586 C65.0252854,15.9110586 76.5968952,27.7142495 76.5968952,42.2741128 C76.5968952,56.8339762 64.8085533,68.637167 50.3553488,68.637167 C35.9021444,68.637167 24.1496104,56.8339762 24.1496104,42.2741128 C24.1496104,41.6798714 24.1795534,40.9080068 24.2191306,40.323258 C23.0450079,39.7802771 21.8278206,38.9292386 21.1078277,37.4944826 C21.0022833,40.0659809 21.0022833,42.2247509 21.0022833,42.2741128 C21.0022833,47.2387813 22.0218665,51.9167711 24.1496104,56.0365916 C23.0263727,59.82227 23.4146059,64.4660861 25.7930051,66.862037 C28.1525581,69.237104 32.6624706,69.7440128 36.4072244,68.6561524 C40.5590577,70.8850322 45.2743944,72.1532535 50.3063485,72.1532535 C55.0970704,72.1532535 59.6050982,71.0008429 63.6099305,68.9713092 C67.4131078,70.2034582 72.1736756,69.755404 74.6086137,67.3043956 C76.9775899,64.9160388 77.4713621,60.2912081 76.37074,56.5055297 C78.6511386,52.2755941 79.9421081,47.4267363 79.9421081,42.2741128 C79.9421081,37.3645018 78.7585624,32.735874 76.6760495,28.6483286 Z M72.9991423,22.700219 C72.1680217,23.5355744 70.8205134,23.5355744 69.9893929,22.700219 C69.1582724,21.8629652 69.1582724,20.5074114 69.9893929,19.668259 C70.8186288,18.8329037 72.1661371,18.8329037 72.9991423,19.668259 C73.8302628,20.5055128 73.8302628,21.8629652 72.9991423,22.700219 L72.9991423,22.700219 Z M30.6968046,64.8571842 C29.8675687,65.6944381 28.5200604,65.6944381 27.6889399,64.8571842 C26.8578194,64.0218289 26.8578194,62.6643766 27.6889399,61.8271227 C28.5200604,60.9898689 29.8656841,60.9898689 30.6968046,61.8271227 C31.5279251,62.662478 31.5279251,64.0199304 30.6968046,64.8571842 L30.6968046,64.8571842 Z M72.6127937,65.2995429 C71.7816732,66.1367967 70.4341649,66.1367967 69.6030444,65.2995429 C68.7738085,64.462289 68.7738085,63.1067352 69.6030444,62.2675828 C70.4341649,61.4322275 71.7797886,61.4303289 72.6127937,62.2675828 C73.4439142,63.1048366 73.4439142,64.462289 72.6127937,65.2995429 L72.6127937,65.2995429 Z" id="Fill-1"></path>
		<path d="M39.4640894,0.291812821 L13.7690849,8.23528242 L13.7690849,34.0591527 C12.3556146,33.2978403 10.6179885,32.8421919 8.72770764,32.8421919 C4.01802477,32.8421919 0.35807913,35.6406322 0.35807913,39.0921685 C0.35807913,42.5437048 4.17633343,45.3402465 8.88790094,45.3402465 C13.051042,45.3402465 18.1414195,42.2722143 18.1414195,39.9408136 C18.1414195,37.6094128 18.1395349,16.8641231 18.1395349,16.8641231 L35.0936394,12.0893081 L35.0936394,27.0155886 C33.7536696,26.3757824 32.1573905,25.9998725 30.4404953,25.9998725 C25.7289278,25.9998725 21.9106735,28.7983128 21.9106735,32.2498491 C21.9106735,35.7013853 25.7289278,38.4998256 30.4404953,38.4998256 C35.1520628,38.4998256 39.4471278,35.3197799 39.4471278,31.8682436 C39.4471278,31.2170462 39.4640894,30.7234271 39.4640894,30.0608385 L39.4640894,0.291812821 Z" id="Fill-2"></path>
		<path d="M43.346421,22.5711187 L43.346421,30.1083018 C43.3464207,36.3185365 37.0159589,41.820363 30.3726487,41.820363 C30.0484929,41.820363 29.8307503,41.8203624 29.3102552,41.8203624 C29.3102552,53.4868587 38.7102386,63.397211 50.2912715,63.397211 C61.8741891,63.397211 71.4028632,53.9406092 71.4028632,42.2741128 C71.4028632,30.6076165 62.1549985,21.1491161 50.5720809,21.1491161 C47.9204108,21.1491161 45.231048,21.6655176 43.346421,22.5711187 Z M50.283733,50.9978802 C45.5005497,50.9978802 41.6238719,47.0906956 41.6238719,42.2741128 C41.6238719,37.4556315 45.5005497,33.5503454 50.283733,33.5503454 C55.0669163,33.5503454 58.9417095,37.4556315 58.9417095,42.2741128 C58.9417095,47.0906956 55.0669163,50.9978802 50.283733,50.9978802 L50.283733,50.9978802 Z" id="Fill-3"></path>
	</g>
</g>	

	

</defs>

<g>
	<use xlink:href="#badge-thumbs-up-94" transform="translate(0 0)"></use>
	<use xlink:href="#badge-great-value" transform="translate(0 128)"></use>
	<use xlink:href="#badge-voted-best" transform="translate(0 256)"></use>
	<use xlink:href="#badge-3-million" transform="translate(0 384)"></use>
	<use xlink:href="#badge-windscreen-repair" transform="translate(0 512)"></use>
	<use xlink:href="#badge-courtesy-car" transform="translate(0 640)"></use>
	<use xlink:href="#badge-euro-drive" transform="translate(0 768)"></use>
	<use xlink:href="#badge-stereo-cover" transform="translate(0 896)"></use>
</g>

</svg>
