<?xml version="1.0" encoding="UTF-8" standalone="no"?>
<svg width="200px" height="160px" viewBox="0 0 200 160" version="1.1" xmlns="http://www.w3.org/2000/svg" xmlns:xlink="http://www.w3.org/1999/xlink">
    <!-- Generator: Sketch 3.7 (28169) - http://www.bohemiancoding.com/sketch -->
    <title>step4-img</title>
    <desc>Created with Sketch.</desc>
    <defs>
        <polygon id="path-1" points="0 0.0350552381 184 0.0350552381 184 85.8853333 0 85.8853333"></polygon>
    </defs>
    <g id="Page-1" stroke="none" stroke-width="1" fill="none" fill-rule="evenodd">
        <g id="Artboard-1" transform="translate(-287.000000, -1183.000000)">
            <g id="Group-13" transform="translate(275.000000, 1098.000000)">
                <g id="Imported-Layers-Copy-2" transform="translate(142.000000, 118.000000)" fill="#41A5F5">
                    <g id="Group-6" transform="translate(0.452286, 0.000000)">
                        <g id="Fill-5-+-Clip-3">
                            <path d="M13.9209856,25.9171246 C17.7400057,22.0617497 23.0290001,19.6716231 28.8654091,19.6716231 C34.888029,19.6716231 40.3277464,22.2166969 44.1708517,26.2905869 L40.6742017,29.8133721 C37.7292832,26.6327384 33.5250579,24.6394698 28.8654091,24.6394698 C24.4060527,24.6394698 20.363809,26.4650622 17.44329,29.4098643 L13.9209856,25.9171246 Z M6.92354393,18.9784164 C12.528842,13.3127855 20.2954359,9.79930558 28.8654091,9.79930558 C37.5940896,9.79930558 45.4890245,13.4432509 51.1162384,19.2932879 L47.6219631,22.8136806 C42.8920944,17.8576944 36.2323823,14.7671523 28.8654091,14.7671523 C21.6704317,14.7671523 15.1505912,17.71507 10.4443056,22.4696263 L6.92354393,18.9784164 Z M0.047206706,12.1597961 C7.40765791,4.71549893 17.6089124,0.0987160547 28.8654091,0.0987160547 C40.253044,0.0987160547 50.5603754,4.82283577 57.9394806,12.4190465 L54.445219,15.9394254 C47.9631276,9.23743262 38.8911317,5.06656274 28.8654091,5.06656274 C18.9841036,5.06656274 10.0297621,9.11813813 3.56835165,15.6513861 L0.047206706,12.1597961 Z" id="Fill-5"></path>
                        </g>
                    </g>
                </g>
                <g id="Page-1" transform="translate(17.000000, 133.000000)">
                    <path d="M149.851878,54.0039965 C141.049669,54.0039965 133.913973,61.141243 133.913973,69.945366 C133.913973,78.7477363 141.049669,85.8849828 149.851878,85.8849828 C158.654088,85.8849828 165.789783,78.7477363 165.789783,69.945366 C165.789783,61.141243 158.654088,54.0039965 149.851878,54.0039965" id="Fill-1" fill="#2350A0"></path>
                    <path d="M33.1589029,54.0039965 C24.3566933,54.0039965 17.2209981,61.141243 17.2209981,69.945366 C17.2209981,78.7477363 24.3566933,85.8849828 33.1589029,85.8849828 C41.9611124,85.8849828 49.0968076,78.7477363 49.0968076,69.945366 C49.0968076,61.141243 41.9611124,54.0039965 33.1589029,54.0039965" id="Fill-3" fill="#2350A0"></path>
                    <g id="Group-7">
                        <mask id="mask-2" fill="white">
                            <use xlink:href="#path-1"></use>
                        </mask>
                        <g id="Clip-6"></g>
                        <path d="M174.929501,45.9780997 C164.453768,45.7905542 163.493463,39.1879001 163.765082,35.8085752 C163.842187,34.860331 164.805996,34.4291515 165.710225,34.7271211 C170.420625,36.2783154 174.300396,40.4796856 176.015977,43.8064277 C176.536434,44.8160186 176.065044,45.9991329 174.929501,45.9780997 L174.929501,45.9780997 Z M123.768739,28.1455001 L68.1288914,28.1455001 L68.1288914,7.11235726 L96.5332343,7.11235726 C97.3288152,7.11235726 98.1156343,7.16669288 98.87792,7.39279916 C103.297425,8.70035954 116.750453,14.0953607 125.629768,23.4884117 C127.194644,25.1447717 126.046834,28.1455001 123.768739,28.1455001 L123.768739,28.1455001 Z M62.8717486,28.1455001 L28.5688914,28.1455001 C25.6564343,28.1455001 23.5570819,24.995787 24.454301,22.2229176 C25.8614629,17.8795736 28.00112,14.4301382 29.9918248,12.0130795 C32.504739,8.95801554 36.2635962,7.11235726 40.21872,7.11235726 L62.8717486,7.11235726 L62.8717486,28.1455001 Z M138.646453,26.6836967 C124.730796,11.1349458 102.580701,2.12925516 102.580701,2.12925516 C95.1523581,-1.24831703 35.5626438,0.215239162 28.2061486,1.3177264 C10.1986819,4.02048526 1.01445333,32.5694712 3.08401524,50.761387 C3.24172952,52.1408106 0.541310476,52.7682994 0.38359619,54.0039965 C-1.7788419,70.755142 5.91411048,70.1504392 5.91411048,70.1504392 L11.8336533,70.5062498 C11.8283962,70.3204571 11.8196343,70.1329115 11.8196343,69.945366 C11.8196343,58.1755698 21.3928914,48.6002315 33.1583771,48.6002315 C44.9256152,48.6002315 54.4988724,58.1755698 54.4988724,69.945366 C54.4988724,70.9514514 54.42352,71.9400091 54.2885867,72.9110392 L128.701691,72.7480323 C128.580777,71.8295851 128.512434,70.895363 128.512434,69.945366 C128.512434,58.1755698 138.085691,48.6002315 149.851177,48.6002315 C161.618415,48.6002315 171.191672,58.1755698 171.191672,69.945366 C171.191672,70.8638133 171.012925,72.0990215 171.01293,72.6551359 C171.01293,72.6551359 181.595182,72.6551375 182.668015,67.8858708 C190.257577,34.4817344 162.934453,29.7212331 162.934453,29.7212331 L138.646453,26.6836967 Z" id="Fill-5" fill="#2350A0" mask="url(#mask-2)"></path>
                    </g>
                </g>
            </g>
        </g>
    </g>
</svg>