<?xml version="1.0" encoding="UTF-8" standalone="no"?>
<svg width="200px" height="160px" viewBox="0 0 200 160" version="1.1" xmlns="http://www.w3.org/2000/svg" xmlns:xlink="http://www.w3.org/1999/xlink">
    <!-- Generator: Sketch 3.7 (28169) - http://www.bohemiancoding.com/sketch -->
    <title>step2-img</title>
    <desc>Created with Sketch.</desc>
    <defs>
        <rect id="path-1" x="0" y="0" width="27" height="53"></rect>
    </defs>
    <g id="Page-1" stroke="none" stroke-width="1" fill="none" fill-rule="evenodd">
        <g id="Artboard-1" transform="translate(-541.000000, -902.000000)">
            <g id="Group-9" transform="translate(530.000000, 811.000000)">
                <g id="Group" transform="translate(44.000000, 101.000000)">
                    <g id="Group-Copy-3" transform="translate(0.000000, 89.285714)" fill="#2350A0">
                        <g id="brother" transform="translate(0.000000, 0.572005)">
                            <path d="M53.057718,1.09908742 L69.2393537,16.8805617 C69.2393537,16.8805617 79.0863511,9.53774177 86.1238633,0.673805618 C86.1238633,0.673805618 136.000002,20.6310267 136.000002,50.3141932 C124.608418,50.3141932 35.2419136,50.3141932 0.0927400302,50.3141949 C0.0927400302,19.8288504 53.057718,1.09908742 53.057718,1.09908742 Z" id="shouders"></path>
                        </g>
                    </g>
                    <g id="Group-21-Copy-3" transform="translate(34.403509, 0.000000)">
                        <path d="M64.4334701,37.5825651 C59.99216,22.958124 48.3957301,12.5274725 34.7894737,12.5274725 C21.1988655,12.5274725 9.61346355,22.9341457 5.16082916,37.5321241 C2.38198311,37.6991653 0.15445085,42.3439951 0.15445085,48.0494505 C0.15445085,52.8602912 1.73819599,56.9170413 3.90078693,58.1710988 C7.24851798,76.0704018 22.1485012,90.4761905 34.7894737,90.4761905 C47.355731,90.4761905 62.1543739,76.240191 65.6175917,58.4881149 C68.1599866,57.834077 70.1262509,53.4098761 70.1262509,48.0494505 C70.1262509,42.2383226 67.8154409,37.5274725 64.9649123,37.5274725 C64.7854796,37.5274725 64.6081855,37.5461385 64.4334716,37.58257 Z" id="Combined-Shape" stroke="#2350A0" stroke-width="3.57142857" fill="#FFFFFF"></path>
                        <path d="M5.42701166,38.6632689 C4.55628203,38.6987807 3.73467324,38.746232 2.96838392,38.8071374 C2.96838392,17.3635276 9.12609649,2.93619423e-15 36.1929825,0 C63.2598684,-2.93619423e-15 68.2245985,15.9516334 68.2245985,37.3952432 C68.2245985,38.1828558 67.3543029,38.7572305 65.8052691,39.1651686 C65.8052691,40.5016511 65.8052691,43.0798158 65.8052691,47.2324913 C37.938527,36.7536275 21.7179279,42.8001764 4.52683127,47.3318914 L4.52683127,39.2159525 C4.77394343,39.0431438 5.07808424,38.8576938 5.42701166,38.6632689 Z" id="Combined-Shape" fill="#2350A0"></path>
                    </g>
                    <g id="Group-34-Copy-9" transform="translate(79.000000, 101.000000)">
                        <mask id="mask-2" fill="white">
                            <use xlink:href="#path-1"></use>
                        </mask>
                        <g id="Mask"></g>
                        <g mask="url(#mask-2)" id="Combined-Shape" fill="#FFFFFF">
                            <g transform="translate(13.146617, 52.545113) rotate(-270.000000) translate(-13.146617, -52.545113) translate(-33.353383, 39.545113)">
                                <path d="M70.2806488,17.8955574 C72.1812014,22.2516236 76.454601,25.2879297 81.4217121,25.2879297 C86.7192416,25.2879297 91.2276966,21.8342302 92.9100624,17.00923 L84.0262972,17.00923 C83.183967,17.00923 82.5011235,16.325389 82.5011235,15.4989121 L82.5011235,9.61628087 C82.5011235,8.78215534 83.183118,8.10596299 84.0262972,8.10596299 L92.7111435,8.10596299 C90.8919133,3.56084633 86.5226041,0.35878214 81.4217121,0.35878214 C76.6543764,0.35878214 72.5260727,3.15576154 70.5213732,7.2320726 C70.4091196,7.21965181 70.2950251,7.2132754 70.1794281,7.2132754 L43.5552213,7.2132754 C43.5145395,7.2132754 43.4740445,7.21406725 43.433751,7.21563629 L22.5521116,7.21563629 C20.5952071,3.00448447 16.3964727,0.0930227133 11.5325502,0.0930227133 C6.33280048,0.0930227133 1.89326519,3.42040468 0.140232862,8.10596299 L9.59989551,8.10596299 C10.4422257,8.10596299 11.1250692,8.78980398 11.1250692,9.61628087 L11.1250692,15.4989121 C11.1250692,16.3330376 10.4430746,17.00923 9.59989551,17.00923 L0.140232862,17.00923 C1.89326519,21.6947883 6.33280048,25.0221702 11.5325502,25.0221702 C16.3964727,25.0221702 20.5952071,22.1107085 22.5521081,17.8995574 L48.1117926,17.8995567 C48.1524744,17.8995567 48.1929693,17.8987648 48.2332628,17.8971958 L70.1794281,17.8971958 C70.2133006,17.8971958 70.2470437,17.8966468 70.2806488,17.8955574 Z"></path>
                            </g>
                        </g>
                    </g>
                    <path d="M96.6315789,35.4919084 C96.6315789,35.4919084 69.7894737,24.3466334 42.9473684,35.7137498" id="Path-170" stroke="#FFFFFF" stroke-width="2.38095238" stroke-linecap="round"></path>
                </g>
                <path d="M63.8130062,135.462019 L65.5556769,148.897881 L56.3116263,152.116032 C56.3116263,152.116032 55.1973548,165.420252 67.0637032,176.664323 L74.8998705,174.568823 L84.5270281,183.176577 L82.9142624,188.525627 C82.9142624,188.525627 77.110098,191.719595 71.2213968,190.574947 C70.6440182,190.462716 70.0690198,190.308312 69.4945969,190.106055 C58.4492145,186.205661 40.7128468,160.50761 47.5080664,142.847634 C51.0770473,133.569974 59.1866785,134.00316 59.1866785,134.00316 L63.8130062,135.462019 Z" id="Imported-Layers" fill="#41A5F5"></path>
            </g>
        </g>
    </g>
</svg>