<?xml version="1.0" encoding="UTF-8" standalone="no"?>
<svg width="200px" height="160px" viewBox="0 0 200 160" version="1.1" xmlns="http://www.w3.org/2000/svg" xmlns:xlink="http://www.w3.org/1999/xlink">
    <!-- Generator: Sketch 3.7 (28169) - http://www.bohemiancoding.com/sketch -->
    <title>step6-img</title>
    <desc>Created with Sketch.</desc>
    <defs></defs>
    <g id="Page-1" stroke="none" stroke-width="1" fill="none" fill-rule="evenodd">
        <g id="Artboard-1" transform="translate(-787.000000, -1178.000000)">
            <g id="Group-16" transform="translate(787.000000, 1099.000000)">
                <g id="Group-2" transform="translate(5.000000, 90.000000)">
                    <polygon id="Rectangle-22-Copy-5" fill="#2350A0" points="64.6053744 102 64.6053744 139.295153 0.390624823 139.295153 0.390624823 102"></polygon>
                    <polygon id="Rectangle-22-Copy-4" fill="#2350A0" points="127.350192 57 127.350192 139.201563 63.135442 139.201563 63.135442 57"></polygon>
                    <ellipse id="Oval-76-Copy-5" fill="#EDC00F" cx="95.7974465" cy="77.7974465" rx="11.7974465" ry="11.7974465"></ellipse>
                    <ellipse id="Oval-76-Copy-3" fill="#AA725B" cx="32.7974465" cy="120.797446" rx="11.7974465" ry="11.7974465"></ellipse>
                    <path d="M79.9195766,43.9779162 C79.9195766,45.4102505 79.9215527,48.675101 79.9195766,50.0618701 C79.9195766,53.6417153 78.7556347,54.0220862 74.2796955,54.0220862 C69.9084913,54.0220862 68.5192704,53.9329368 68.4935807,50.2778098 C68.4817239,48.8177401 68.4916046,44.9625222 68.4916046,43.4549062 C68.3078243,43.4450007 66.0174872,43.0111401 66.0135349,42.2999257 C65.9799406,37.9613197 66.0194633,33.6227137 66.0194633,29.2841077 C66.0194633,23.523073 70.4736651,21.6865945 70.4736651,21.6865945 C70.4736651,21.6865945 72.7304079,12.7062745 73.8330897,8.20918063 C74.7855853,4.62933542 75.9831214,1.87758944 83.4943995,0.688930268 C91.3791667,-0.228318393 102.506767,-0.228318393 110.150446,0.681005873 C116.891032,1.59429234 118.74662,4.04689243 119.714925,7.87239386 C120.86701,12.4190152 123.113872,21.5241444 123.113872,21.5241444 C123.113872,21.5241444 127.615501,23.9727823 127.615501,29.4267468 C127.660952,33.6900711 127.629334,37.9553764 127.627358,42.2206817 C127.625382,43.0388755 125.088028,43.4469818 124.985269,43.470755 L124.985269,43.8768802 C124.985269,45.1725187 124.989222,46.4701383 124.985269,47.7677579 C124.985269,53.6417153 123.841089,54.0399161 119.568691,54.0399161 C114.529554,54.0399161 113.547417,53.6417153 113.547417,47.7816255 C113.56125,46.5137224 113.549393,45.7628861 113.549393,44.4949829 L113.549393,43.9779162 C103.403931,45.1665754 90.351578,45.1665754 79.9195766,43.9779162 L79.9195766,43.9779162 Z M77.7161893,20.450389 C88.5374887,19.2339944 105.04412,19.1270151 116.019558,20.450389 C115.999797,20.3533152 114.849688,13.4531487 113.120572,7.64456752 C112.393356,4.49263962 81.8028305,4.14198516 80.5914615,7.75749014 C78.7991097,13.1005131 77.7161893,20.450389 77.7161893,20.450389 L77.7161893,20.450389 Z M123.026922,32.7391437 C123.030875,29.7991934 120.623946,27.4159317 117.68939,27.4020641 C114.49596,27.3842342 112.207599,30.2786192 112.320239,32.9689512 C112.413117,35.1422164 114.381344,38.1237698 117.671604,38.1039588 C120.639755,38.0861289 123.020994,35.7226783 123.026922,32.7391437 L123.026922,32.7391437 Z M80.6803874,32.725276 C80.6902681,29.8150422 78.2991482,27.441686 75.3744727,27.4020641 C72.1434967,27.3564988 69.8729209,30.3400333 69.9776559,32.9392347 C70.0586773,35.0075017 71.9715732,38.1356564 75.3448307,38.1039588 C78.3031005,38.0782045 80.6705068,35.7187161 80.6803874,32.725276 L80.6803874,32.725276 Z" id="Fill-1-Copy" fill="#2350A0"></path>
                    <polygon id="Rectangle-22-Copy-3" fill="#2350A0" points="190.095009 88 190.095009 138.995414 125.880259 138.995414 125.880259 88"></polygon>
                    <ellipse id="Oval-76-Copy-4" fill="#C2C2C2" cx="158.797446" cy="107.797446" rx="11.7974465" ry="11.7974465"></ellipse>
                </g>
            </g>
        </g>
    </g>
</svg>