<?xml version="1.0" encoding="UTF-8" standalone="no"?>
<svg width="200px" height="160px" viewBox="0 0 200 160" version="1.1" xmlns="http://www.w3.org/2000/svg" xmlns:xlink="http://www.w3.org/1999/xlink">
    <!-- Generator: Sketch 3.7 (28169) - http://www.bohemiancoding.com/sketch -->
    <title>step5-img</title>
    <desc>Created with Sketch.</desc>
    <defs>
        <path d="M5.3520787,0.106235923 C2.49465145,0.106235923 0.164839092,2.32973516 0.164839092,5.07136749 L0.164839092,110.695968 C0.164839092,113.430767 2.48751275,115.661721 5.3520787,115.661721 L190.318413,115.661721 C193.17584,115.661721 195.505653,113.438222 195.505653,110.695968 L195.505653,5.07136749 C195.505653,2.33719031 193.183628,0.106235923 190.318413,0.106235923 L5.3520787,0.106235923 L5.3520787,0.106235923 Z" id="path-1"></path>
        <circle id="path-3" cx="177" cy="121" r="6"></circle>
        <mask id="mask-4" maskContentUnits="userSpaceOnUse" maskUnits="objectBoundingBox" x="-2" y="-2" width="16" height="16">
            <rect x="169" y="113" width="16" height="16" fill="white"></rect>
            <use xlink:href="#path-3" fill="black"></use>
        </mask>
    </defs>
    <g id="Page-1" stroke="none" stroke-width="1" fill="none" fill-rule="evenodd">
        <g id="Artboard-1" transform="translate(-539.000000, -1179.000000)">
            <g id="Group-15" transform="translate(532.000000, 1098.000000)">
                <g id="Page-1-Copy" transform="translate(9.000000, 89.000000)">
                    <g id="Group-3" transform="translate(0.000000, 0.180787)">
                        <mask id="mask-2" fill="white">
                            <use xlink:href="#path-1"></use>
                        </mask>
                        <g id="Clip-2"></g>
                        <polygon id="Fill-1" fill="#25519F" mask="url(#mask-2)" points="-3.08002492 118.767413 198.750517 118.767413 198.750517 -3.00007762 -3.08002492 -3.00007762"></polygon>
                    </g>
                    <polygon id="Fill-4" fill="#FEFEFE" points="8.60148552 107.144209 187.069006 107.144209 187.069006 8.36343858 8.60148552 8.36343858"></polygon>
                </g>
                <path d="M162.5,120.5 L28.5,120.5" id="Line-Copy" stroke="#EBEBE1" stroke-linecap="square" stroke-dasharray="5,4"></path>
                <path d="M162.5,145.5 L28.5,145.5" id="Line-Copy-2" stroke="#EBEBE1" stroke-linecap="square" stroke-dasharray="5,4"></path>
                <path d="M162.5,172.5 L28.5,172.5" id="Line-Copy-3" stroke="#EBEBE1" stroke-linecap="square" stroke-dasharray="5,4"></path>
                <circle id="Oval-29-Copy" fill="#D8D8D8" cx="177" cy="146" r="6"></circle>
                <circle id="Oval-29-Copy-2" fill="#AA725B" cx="177" cy="172" r="6"></circle>
                <rect id="Rectangle-15-Copy-2" fill="#2350A0" x="84" y="209" width="46.077069" height="17.5440341"></rect>
                <rect id="Rectangle-16-Copy-2" fill="#2350A0" x="60" y="228" width="94.1010563" height="5.63915381" rx="6"></rect>
                <polyline id="Path-156" stroke="#41A5F5" stroke-width="4" stroke-linecap="round" points="30.7617188 145.990234 59.3478077 145.990234 87.733361 172.375788 139.016976 121.092172 176.849022 121.092172"></polyline>
                <circle id="Oval-32" stroke="#41A5F5" stroke-width="3" fill="#FFFFFF" cx="30.5" cy="145.5" r="5.5"></circle>
                <circle id="Oval-32-Copy" stroke="#41A5F5" stroke-width="3" fill="#FFFFFF" cx="87.5" cy="170.5" r="5.5"></circle>
                <circle id="Oval-32-Copy-2" stroke="#41A5F5" stroke-width="3" fill="#FFFFFF" cx="140.5" cy="121.5" r="5.5"></circle>
                <g id="Oval-29">
                    <use fill="#ECBF0F" fill-rule="evenodd" xlink:href="#path-3"></use>
                    <use stroke="#FFFFFF" mask="url(#mask-4)" stroke-width="4" xlink:href="#path-3"></use>
                </g>
            </g>
        </g>
    </g>
</svg>