<?xml version="1.0" encoding="UTF-8" standalone="no"?>
<svg width="217px" height="160px" viewBox="0 0 217 160" version="1.1" xmlns="http://www.w3.org/2000/svg" xmlns:xlink="http://www.w3.org/1999/xlink">
    <!-- Generator: Sketch 3.7 (28169) - http://www.bohemiancoding.com/sketch -->
    <title>step3-img</title>
    <desc>Created with Sketch.</desc>
    <defs>
        <polygon id="path-1" points="0 0.0529852166 279.009063 0.0529852166 279.009063 129.813781 0 129.813781"></polygon>
        <rect id="path-3" x="117.425688" y="81.6295532" width="11.3109996" height="11.3030473"></rect>
        <mask id="mask-4" maskContentUnits="userSpaceOnUse" maskUnits="objectBoundingBox" x="-1" y="-1" width="14.2530833" height="14.2458544">
            <rect x="115.954646" y="80.1581497" width="14.2530833" height="14.2458544" fill="white"></rect>
            <use xlink:href="#path-3" fill="black"></use>
        </mask>
    </defs>
    <g id="Page-1" stroke="none" stroke-width="1" fill="none" fill-rule="evenodd">
        <g id="Artboard-1" transform="translate(-802.000000, -902.000000)">
            <g id="Group-12" transform="translate(785.000000, 815.000000)">
                <g id="Group-5" transform="translate(27.000000, 96.000000)">
                    <g>
                        <g id="Page-1-Copy-2" transform="translate(172.000000, 80.302799) scale(-1, 1) translate(-172.000000, -80.302799) translate(32.000000, 15.302799)">
                            <path d="M227.228436,81.6258456 C213.881174,81.6258456 203.060936,92.4136357 203.060936,105.720873 C203.060936,119.025461 213.881174,129.813251 227.228436,129.813251 C240.575698,129.813251 251.395935,119.025461 251.395935,105.720873 C251.395935,92.4136357 240.575698,81.6258456 227.228436,81.6258456" id="Fill-1" fill="#2350A0"></path>
                            <g id="Group-7">
                                <mask id="mask-2" fill="white">
                                    <use xlink:href="#path-1"></use>
                                </mask>
                                <g id="Clip-6"></g>
                                <path d="M265.25498,69.4948802 C249.370063,69.2114093 247.913902,59.2316438 248.325772,54.1238689 C248.442691,52.6906188 249.904167,52.0389006 251.275297,52.489275 C258.417929,54.8338708 264.301034,61.184149 266.902462,66.2124461 C267.691659,67.7384203 266.976864,69.5266714 265.25498,69.4948802 L265.25498,69.4948802 Z M187.677174,42.5413005 L103.30749,42.5413005 L103.30749,10.7501706 L146.378518,10.7501706 C147.5849,10.7501706 148.777996,10.8322977 149.933891,11.1740523 C156.635422,13.1504009 177.034971,21.3048257 190.499151,35.5022145 C192.872057,38.005766 191.131572,42.5413005 187.677174,42.5413005 L187.677174,42.5413005 Z M95.3358026,42.5413005 L43.3205415,42.5413005 C38.9042266,42.5413005 35.7208661,37.7805788 37.0813674,33.5894482 C39.2151225,27.0245799 42.4595993,21.8108346 45.4782116,18.1575039 C49.2886783,13.5398422 54.9884348,10.7501706 60.9858011,10.7501706 L95.3358026,10.7501706 L95.3358026,42.5413005 Z M210.237049,40.331817 C189.135993,16.8302242 155.548616,3.21832206 155.548616,3.21832206 C144.284621,-1.88680356 53.9255432,0.32532923 42.7704951,1.99171429 C15.4648081,6.07687449 1.53826997,49.2280349 4.67645763,76.724713 C4.91560825,78.8096813 0.820818092,79.7581167 0.581667467,81.6258456 C-2.69735334,106.944831 8.96788274,106.030836 8.96788274,106.030836 L17.9440029,106.568636 C17.9360312,106.287815 17.9227451,106.004344 17.9227451,105.720873 C17.9227451,87.9310863 32.4391881,73.4581744 50.2798247,73.4581744 C68.1231187,73.4581744 82.6395616,87.9310863 82.6395616,105.720873 C82.6395616,107.241549 82.5253008,108.735732 82.3206941,110.203422 L195.157274,109.957041 C194.973925,108.568828 194.870293,107.156772 194.870293,105.720873 C194.870293,87.9310863 209.386736,73.4581744 227.227373,73.4581744 C245.070667,73.4581744 259.58711,87.9310863 259.58711,105.720873 C259.58711,107.109085 259.316065,108.976075 259.316072,109.81663 C259.316072,109.81663 275.362508,109.816632 276.989304,102.607991 C288.497763,52.1183784 247.066246,44.922986 247.066246,44.922986 L210.237049,40.331817 Z" id="Fill-5" fill="#2350A0" mask="url(#mask-2)"></path>
                            </g>
                        </g>
                        <use id="Rectangle-27-Copy-2" stroke="#41A5F5" mask="url(#mask-4)" stroke-width="2" stroke-linecap="round" stroke-linejoin="round" stroke-dasharray="1,3" transform="translate(123.081187, 87.281077) rotate(-1.000000) translate(-123.081187, -87.281077) " xlink:href="#path-3"></use>
                        <polygon id="Combined-Shape" stroke="#FFFFFF" stroke-width="3" stroke-linecap="round" stroke-linejoin="round" fill="#2350A0" points="18.5746965 53.8820645 123.611074 86.8254788 47.058566 7.53548387"></polygon>
                        <ellipse id="Oval-30" stroke="#2350A0" stroke-width="2" stroke-linecap="round" stroke-linejoin="round" fill="#FFFFFF" cx="26.6661863" cy="26.631754" rx="26.050321" ry="26.032006"></ellipse>
                    </g>
                    <rect id="Rectangle-27-Copy-2" fill="#40A4F4" transform="translate(25.996429, 26.996429) rotate(-1.000000) translate(-25.996429, -26.996429) " x="12.3984344" y="13.3984344" width="27.1959898" height="27.1959898"></rect>
                </g>
            </g>
        </g>
    </g>
</svg>