<?xml version="1.0" encoding="utf-8"?>
<!-- Generator: Adobe Illustrator 16.0.0, SVG Export Plug-In . SVG Version: 6.00 Build 0)  -->
<!DOCTYPE svg PUBLIC "-//W3C//DTD SVG 1.1//EN" "http://www.w3.org/Graphics/SVG/1.1/DTD/svg11.dtd">
<svg version="1.1" id="Layer_1" xmlns="http://www.w3.org/2000/svg" xmlns:xlink="http://www.w3.org/1999/xlink" x="0px" y="0px"
	 width="27.213px" height="30.344px" viewBox="0 0 27.213 30.344" enable-background="new 0 0 27.213 30.344" xml:space="preserve">
<g>
	<path fill="#0078FF" d="M13.64,30.196c-2.57,0-5.141,0.013-7.711-0.009c-0.694-0.006-1.402-0.045-2.079-0.191
		c-1.906-0.411-3.249-1.949-3.43-3.89c-0.15-1.612,0-3.214,0.277-4.804c0.242-1.394,0.636-2.736,1.351-3.971
		c0.883-1.524,2.15-2.494,3.914-2.776c0.646-0.104,1.223-0.038,1.788,0.364c1.007,0.718,2.058,1.363,3.255,1.751
		c2.575,0.833,4.982,0.441,7.273-0.912c0.499-0.295,0.987-0.615,1.458-0.954c0.594-0.428,1.232-0.322,1.869-0.198
		c1.655,0.322,2.831,1.295,3.663,2.732c0.742,1.28,1.128,2.678,1.376,4.12c0.25,1.449,0.363,2.911,0.273,4.379
		c-0.139,2.274-1.644,3.908-3.905,4.262c-0.431,0.067-0.872,0.091-1.309,0.093C19.017,30.2,16.328,30.196,13.64,30.196z
		 M6.398,7.539c0.069,3.972,3.291,7.148,7.285,7.163c4.037,0.014,7.275-3.456,7.238-7.342c-0.036-3.773-3.259-7.224-7.266-7.159
		C9.633,0.147,6.33,3.582,6.398,7.539z"/>
</g>
</svg>
