<?xml version="1.0" encoding="UTF-8" standalone="no"?>
<svg width="124px" height="59px" viewBox="0 0 124 59" version="1.1" xmlns="http://www.w3.org/2000/svg" xmlns:xlink="http://www.w3.org/1999/xlink" xmlns:sketch="http://www.bohemiancoding.com/sketch/ns">
    <!-- Generator: Sketch 3.3.2 (12043) - http://www.bohemiancoding.com/sketch -->
    <title>terraced-selected</title>
    <desc>Created with Sketch.</desc>
    <defs>
        <path id="path-1" d="M2.875,16.7551724 L21.1778169,2.5 L40.2764085,16.7551724 L58.5792254,2.5 L78.4735915,16.7551724 L96.7764085,2.5 L115.875,16.7551724 L115.875,56.5 L2.875,56.5 L2.875,16.7551724 Z"></path>
        <path d="M78.8915289,17.9066849 L60.7970644,1.34400703 L59.875,0.5 L58.9529356,1.34400703 L40.8584711,17.9066849 L22.7640065,1.34400703 L21.8419421,0.5 L20.9198778,1.34400703 L0.875,19.6919859 L2.71912875,21.38 L21.8384805,3.76645911 L39.0202512,19.5892903 L39.0202512,19.5892903 L38.9080579,19.6919859 L40.7521866,21.38 L40.8584518,21.2821041 L40.9647555,21.38 L42.8088843,19.6919859 L42.6963379,19.5889671 L59.8715384,3.76645911 L77.0533091,19.5892903 L76.9411157,19.6919859 L78.7852445,21.38 L78.8915097,21.2821041 L78.9978134,21.38 L80.8419421,19.6919859 L80.7293957,19.5889671 L97.9045962,3.76645911 L117.030871,21.38 L118.875,19.6919859 L98.8301222,1.34400703 L97.9080579,0.5 L96.9859935,1.34400703 L78.8915289,17.9066849 Z" id="path-2"></path>
        <path d="M78.8915289,17.9066849 L60.7970644,1.34400703 L59.875,0.5 L58.9529356,1.34400703 L40.8584711,17.9066849 L22.7640065,1.34400703 L21.8419421,0.5 L20.9198778,1.34400703 L0.875,19.6919859 L2.71912875,21.38 L21.8384805,3.76645911 L39.0202512,19.5892903 L39.0202512,19.5892903 L38.9080579,19.6919859 L40.7521866,21.38 L40.8584518,21.2821041 L40.9647555,21.38 L42.8088843,19.6919859 L42.6963379,19.5889671 L59.8715384,3.76645911 L77.0533091,19.5892903 L76.9411157,19.6919859 L78.7852445,21.38 L78.8915097,21.2821041 L78.9978134,21.38 L80.8419421,19.6919859 L80.7293957,19.5889671 L97.9045962,3.76645911 L117.030871,21.38 L118.875,19.6919859 L98.8301222,1.34400703 L97.9080579,0.5 L96.9859935,1.34400703 L78.8915289,17.9066849 Z" id="path-3"></path>
    </defs>
    <g id="Page-1" stroke="none" stroke-width="1" fill="none" fill-rule="evenodd" sketch:type="MSPage">
        <g id="Artboard-9-Copy-4" sketch:type="MSArtboardGroup" transform="translate(-258.000000, -506.000000)">
            <g id="terraced-roundel-selected" sketch:type="MSLayerGroup" transform="translate(260.000000, 471.000000)">
                <g id="terraced-selected" transform="translate(0.125000, 36.500000)">
                    <g id="Group-Copy-7" transform="translate(1.000000, 0.000000)">
                        <g id="Group">
                            <g id="Rectangle-1-Copy">
                                <use stroke="#40A4F4" stroke-width="2" fill="#FFFFFF" fill-rule="evenodd" sketch:type="MSShapeGroup" xlink:href="#path-1"></use>
                                <use stroke="none" fill="none" xlink:href="#path-1"></use>
                            </g>
                            <rect id="Rectangle-209-Copy-15" fill="#40A4F4" sketch:type="MSShapeGroup" x="24.875" y="39.5" width="10" height="11"></rect>
                            <rect id="Rectangle-209-Copy-13" fill="#40A4F4" sketch:type="MSShapeGroup" x="24.875" y="22.5" width="10" height="11"></rect>
                            <rect id="Rectangle-209-Copy-14" fill="#40A4F4" sketch:type="MSShapeGroup" x="7.875" y="22.5" width="10" height="11"></rect>
                            <rect id="Rectangle-209-Copy-18" fill="#40A4F4" sketch:type="MSShapeGroup" x="62.875" y="39.5" width="10" height="11"></rect>
                            <rect id="Rectangle-209-Copy-17" fill="#40A4F4" sketch:type="MSShapeGroup" x="62.875" y="22.5" width="10" height="11"></rect>
                            <rect id="Rectangle-209-Copy-16" fill="#40A4F4" sketch:type="MSShapeGroup" x="45.875" y="22.5" width="10" height="11"></rect>
                            <rect id="Rectangle-209-Copy-21" fill="#40A4F4" sketch:type="MSShapeGroup" x="100.875" y="39.5" width="10" height="11"></rect>
                            <rect id="Rectangle-209-Copy-20" fill="#40A4F4" sketch:type="MSShapeGroup" x="100.875" y="22.5" width="10" height="11"></rect>
                            <rect id="Rectangle-209-Copy-19" fill="#40A4F4" sketch:type="MSShapeGroup" x="83.875" y="22.5" width="10" height="11"></rect>
                            <rect id="door-left" fill="#2277BB" sketch:type="MSShapeGroup" x="6.875" y="38.5" width="11" height="17"></rect>
                            <rect id="door-middle" fill="#2277BB" sketch:type="MSShapeGroup" x="45.875" y="38.5" width="11" height="17"></rect>
                            <rect id="door-right" fill="#2277BB" sketch:type="MSShapeGroup" x="83.875" y="38.5" width="11" height="17"></rect>
                            <path d="M39.875,17.5 L39.875,55.5" id="Path-1586" stroke="#40A4F4" stroke-width="2" sketch:type="MSShapeGroup"></path>
                            <path d="M77.875,17.5 L77.875,55.5" id="Path-1586-Copy" stroke="#40A4F4" stroke-width="2" sketch:type="MSShapeGroup"></path>
                        </g>
                    </g>
                    <g id="Shape-Copy-9">
                        <use stroke="none" fill="#40A4F4" fill-rule="evenodd" sketch:type="MSShapeGroup" xlink:href="#path-2"></use>
                        <use stroke="#40A4F4" stroke-width="3" fill="none" xlink:href="#path-2"></use>
                    </g>
                    <g id="Shape-Copy-13">
                        <use fill="#FFFFFF" fill-rule="evenodd" sketch:type="MSShapeGroup" xlink:href="#path-3"></use>
                        <use fill="none" xlink:href="#path-3"></use>
                    </g>
                </g>
            </g>
        </g>
    </g>
</svg>