<?xml version="1.0" encoding="UTF-8" standalone="no"?>
<svg width="111px" height="112px" viewBox="0 0 111 112" version="1.1" xmlns="http://www.w3.org/2000/svg" xmlns:xlink="http://www.w3.org/1999/xlink" xmlns:sketch="http://www.bohemiancoding.com/sketch/ns">
    <!-- Generator: Sketch 3.3.2 (12043) - http://www.bohemiancoding.com/sketch -->
    <title>other-roundel</title>
    <desc>Created with Sketch.</desc>
    <defs>
        <rect id="path-1" x="0" y="0" width="75" height="16"></rect>
        <path id="path-3" d="M65,24 L80,24 L80,11.3904386 C80,7.30259323 76.6421356,4 72.5,4 C68.3662928,4 65,7.30881207 65,11.3904386 L65,24 Z"></path>
    </defs>
    <g id="Page-1" stroke="none" stroke-width="1" fill="none" fill-rule="evenodd" sketch:type="MSPage">
        <g id="Artboard-9-Copy-3" sketch:type="MSArtboardGroup" transform="translate(-516.000000, -471.000000)">
            <g id="other-roundel" sketch:type="MSLayerGroup" transform="translate(516.000000, 471.000000)">
                <ellipse id="Oval-1-Copy-5" fill="#3FA158" sketch:type="MSShapeGroup" cx="55.125" cy="56" rx="55" ry="55.5"></ellipse>
                <g id="other" transform="translate(13.000000, 53.000000)">
                    <g id="Group" transform="translate(2.000000, 0.000000)" stroke="#3FA158" stroke-width="2" fill="#FFFFFF" sketch:type="MSShapeGroup">
                        <path d="M68.3886003,41 C68.7899418,38.8949116 69,36.7219867 69,34.5 C69,15.4461761 53.5538239,0 34.5,0 C15.4461761,0 0,15.4461761 0,34.5 C0,36.7219867 0.210058172,38.8949116 0.611399703,41 L68.3886003,41 Z" id="Oval-37"></path>
                        <path d="M59.5480959,41 C59.8447396,38.8949116 60,36.7219867 60,34.5 C60,15.4461761 48.5832611,0 34.5,0 C20.4167389,0 9,15.4461761 9,34.5 C9,36.7219867 9.15526039,38.8949116 9.45190413,41 L59.5480959,41 Z" id="Oval-37-Copy-2"></path>
                        <path d="M47.7696175,41 C47.9208476,38.8949116 48,36.7219867 48,34.5 C48,15.4461761 42.1797017,0 35,0 C27.8202983,0 22,15.4461761 22,34.5 C22,36.7219867 22.0791524,38.8949116 22.2303825,41 L47.7696175,41 Z" id="Oval-37-Copy-3"></path>
                    </g>
                    <path d="M60.875,12 L10.875,12" id="Line-Copy-23" stroke="#3FA158" stroke-width="2" stroke-linecap="square" sketch:type="MSShapeGroup"></path>
                    <g id="Oval-37-+-Oval-37-Copy-6-+-Line" transform="translate(0.000000, 13.000000)">
                        <mask id="mask-2" sketch:name="Mask" fill="white">
                            <use xlink:href="#path-1"></use>
                        </mask>
                        <use id="Mask" sketch:type="MSShapeGroup" xlink:href="#path-1"></use>
                        <g mask="url(#mask-2)" stroke="#3FA158" stroke-width="2" sketch:type="MSShapeGroup">
                            <g transform="translate(2.000000, -14.000000)">
                                <circle id="Oval-37" fill="#FFFFFF" fill-rule="evenodd" cx="34.5" cy="35.5" r="34.5"></circle>
                                <ellipse id="Oval-37-Copy-6" fill="#FFFFFF" fill-rule="evenodd" cx="35" cy="35.5" rx="20" ry="34.5"></ellipse>
                                <path d="M34,0.5 L34,69.5072479" id="Line" stroke-linecap="square" fill="none"></path>
                            </g>
                        </g>
                    </g>
                    <path d="M71.5,29 L3.5,29" id="Line-Copy-24" stroke="#3FA158" stroke-width="2" stroke-linecap="square" sketch:type="MSShapeGroup"></path>
                    <g id="Path-+-Shape-+-Shape" transform="translate(2.000000, 17.000000)">
                        <path d="M64.7246707,0 L72.2753293,0 C78.1046008,0 82.8275862,4.60463639 83,10.2908658 L83,24 L53,24 L54.1724138,10.2908658 C54.1724138,4.6032862 58.8896876,0 64.7246707,0 Z" id="Path" stroke="#3FA158" stroke-width="2" fill="#FFFFFF" sketch:type="MSShapeGroup"></path>
                        <path d="M63,11 C63,6.25594523 67.2597478,2 72.5,2 C77.7490205,2 82,6.24801102 82,11 L82,23 L63,23 L63,11 Z" id="Shape" fill="#FFFFFF" sketch:type="MSShapeGroup"></path>
                        <g id="Path">
                            <use fill="#306D22" fill-rule="evenodd" sketch:type="MSShapeGroup" xlink:href="#path-3"></use>
                            <use fill="none" xlink:href="#path-3"></use>
                        </g>
                        <path d="M83,24 L0.993902683,24" id="Line-Copy-13" stroke="#3FA158" stroke-width="2" stroke-linecap="square" sketch:type="MSShapeGroup"></path>
                    </g>
                    <path d="M56,33 L64,33" id="Line" stroke="#3FA158" stroke-width="2" stroke-linecap="square" sketch:type="MSShapeGroup"></path>
                    <path d="M57.5,23 L65.5,23" id="Line-Copy-25" stroke="#3FA158" stroke-width="2" stroke-linecap="square" sketch:type="MSShapeGroup"></path>
                </g>
            </g>
        </g>
    </g>
</svg>