<?xml version="1.0" encoding="UTF-8" standalone="no"?>
<svg width="371px" height="455px" viewBox="0 0 371 455" version="1.1" xmlns="http://www.w3.org/2000/svg" xmlns:xlink="http://www.w3.org/1999/xlink" xmlns:sketch="http://www.bohemiancoding.com/sketch/ns">
    <!-- Generator: Sketch 3.3.2 (12043) - http://www.bohemiancoding.com/sketch -->
    <title>yorkshire</title>
    <desc>Created with Sketch.</desc>
    <defs></defs>
    <g id="Page-1" stroke="none" stroke-width="1" fill="none" fill-rule="evenodd" sketch:type="MSPage">
        <g id="UK-maps" sketch:type="MSArtboardGroup" transform="translate(-66.000000, -550.000000)" stroke="#FFFFFF">
            <g id="yorkshire" sketch:type="MSLayerGroup" transform="translate(67.000000, 550.000000)">
                <path d="M90.309,216.048 L89.776,216.195 L61.759,223.929 L58.33,244.222 L68.118,252.362 L49.093,264.896 L15.118,262.362 L19.992,277.936 L10.314,299.368 L14.469,311.15 L39.16,320.09 L0.825,362.243 L0.118,401.362 L23.422,407.829 L89.118,383.362 L104.118,385.362 L132.185,341.522 L132.118,327.362 L119.262,325.088 L119.262,291.363 L132.185,274.076 L144.489,265.644 L147.118,249.362 L134.998,244.222 L133.118,219.362 L100.095,223.929 L93.85,215.071 L90.309,216.048 Z" id="ireland" opacity="0.5" sketch:type="MSShapeGroup"></path>
                <path d="M129.093,205.562 L106.364,209.62 L84.214,233.344 L72.426,240.229 L94.426,260.896 L104.244,247.232 L117.173,266.52 L130.254,266.271 L137.252,271.34 L151.759,258.896 L152.426,232.229 L141.093,228.229 L140.185,209.836 L129.093,205.562" id="NI" fill="#306D22" sketch:type="MSShapeGroup"></path>
                <path d="M258.939,302.503 L233.699,303.723 L227.675,330.229 L238.518,360.349 L247.875,362 L260.97,364.548 L291.676,361.136 L299.964,337.458 L312.965,313.623 L278.277,303" id="midlands" fill="#306D22" sketch:type="MSShapeGroup"></path>
                <path d="M238.518,361.349 L230.745,374.305 L231.704,373.951 L228.275,378.422 L227.675,379.422 L216.364,393.947 L186.749,393.993 L172.309,411.983 L159.202,433.589 C159.202,433.589 141.205,443.963 135.258,446.596 C140.922,447.089 157.317,454.175 157.317,454.175 L179.517,437.232 L197.423,443.648 L216.365,425.307 L236.294,426.042 L245.977,423.667 L246.741,423.48 L260.97,365.548" id="south-west" fill="#306D22" sketch:type="MSShapeGroup"></path>
                <path d="M230.745,373.305 L238.518,360.349 L227.675,330.229 L233.699,303.723 L224.06,300.108 L218.591,279.448 L202.912,280.318 L175.535,274.282 L171.581,284.824 L186.658,304.927 L183.911,338.983 L151.478,351.414 L156.507,374.881 L181.632,372.773 L204.736,379.419 L215.409,378.955 L230.745,373.305" id="wales" fill="#306D22" sketch:type="MSShapeGroup"></path>
                <path d="M255.386,237 L254.827,235.336 L254.566,235.834 L255.75,294.062 L254.939,296.503 L258.939,302.503 L278.277,303 L312.965,313.623 L314.587,310.649 L321.383,274.815 L309.711,246.685 L290.832,223.238 L273,237 L255.386,237" fill="#40A4F4" sketch:type="MSShapeGroup"></path>
                <path d="M254.566,235.834 L254.827,235.336 L238.808,187.664 L220.431,207.655 L228.791,240.365 L220.108,279.364 L218.591,279.448 L224.06,300.108 L233.699,303.723 L258.939,302.503 L259,302.5 L254.566,235.834" id="north-west" fill="#306D22" sketch:type="MSShapeGroup"></path>
                <path d="M275.828,204.603 L261.379,163.109 L238.808,187.664 L255.386,237 L273,237 L290.832,223.238 L286.875,218.323 L275.828,204.603 Z" id="north-east" fill="#306D22" sketch:type="MSShapeGroup"></path>
                <path d="M302.374,379.626 L291.53,361.554 L291.676,361.136 L260.97,364.548 L246.741,422.48 L283.693,413.42 L328.525,416.935 L362.741,389.652 L339.496,378.563 L322.855,388.06 L302.374,379.626" id="south-east" fill="#306D22" sketch:type="MSShapeGroup"></path>
                <path d="M321.25,369.5 L302.374,379.626 L322.855,388.06 L339.496,378.563 L321.25,369.5" id="london" fill="#306D22" sketch:type="MSShapeGroup"></path>
                <path d="M141.964,26.205 L118,40.593 L118,58 L135.145,58 L141.964,26.205 Z M118.184,73.44 L130.119,78.153 L130.933,65.902 L118.184,73.44 Z M118.544,96.204 L124.558,86.099 L112.53,89.331 L118.544,96.204 Z M251.376,150.045 L223.101,139.422 L265.368,54.411 L195.821,58.843 L230.189,0.849 L173.807,5.837 L152.559,48.303 L140.984,96.876 L130.933,112.764 L146.638,128.539 L148.862,175.181 L174.279,166.231 L156.689,194.5 L174.279,212.09 L218.613,200.542 L220.431,207.655 L261.379,163.109 L257.651,152.403 L251.376,150.045 Z" id="scotland" fill="#306D22" sketch:type="MSShapeGroup"></path>
                <path d="M313.965,313.929 L312.965,313.623 L299.964,337.458 L291.53,361.554 L302.374,379.626 L321.25,369.5 L339.496,378.563 L358.699,356.797 L369.511,315.117 L345.778,298.153 L317.214,313.276" id="east" fill="#306D22" sketch:type="MSShapeGroup"></path>
            </g>
        </g>
    </g>
</svg>