<?xml version="1.0" encoding="UTF-8" standalone="no"?>
<svg width="111px" height="107px" viewBox="0 0 111 107" version="1.1" xmlns="http://www.w3.org/2000/svg" xmlns:xlink="http://www.w3.org/1999/xlink" xmlns:sketch="http://www.bohemiancoding.com/sketch/ns">
    <!-- Generator: Sketch 3.3.2 (12043) - http://www.bohemiancoding.com/sketch -->
    <title>semi-roundel-selected</title>
    <desc>Created with Sketch.</desc>
    <defs></defs>
    <g id="Page-1" stroke="none" stroke-width="1" fill="none" fill-rule="evenodd" sketch:type="MSPage">
        <g id="Artboard-9-Copy-4" sketch:type="MSArtboardGroup" transform="translate(-143.000000, -474.000000)">
            <g id="semi-roundel-selected" sketch:type="MSLayerGroup" transform="translate(143.000000, 474.000000)">
                <ellipse id="Oval-1-Copy-10" fill="#40A4F4" sketch:type="MSShapeGroup" cx="55.125" cy="53.5" rx="55" ry="53.5"></ellipse>
                <g id="semi-selected" transform="translate(16.125000, 33.000000)" sketch:type="MSShapeGroup">
                    <g id="SemiDetached-Copy-3" transform="translate(1.375000, 8.000000)">
                        <rect id="Rectangle-1" stroke="#40A4F4" stroke-width="2" fill="#FFFFFF" x="0.5" y="7.03365536e-15" width="36" height="49"></rect>
                        <rect id="Rectangle-209" fill="#40A4F4" x="4.5" y="16" width="10" height="11"></rect>
                        <rect id="Rectangle-209-Copy-6" fill="#40A4F4" x="21.5" y="16" width="10" height="11"></rect>
                        <rect id="Rectangle-209-Copy-4" fill="#40A4F4" x="21.5" y="32" width="10" height="11"></rect>
                        <rect id="Door" fill="#2277BB" x="4.5" y="32" width="11" height="16"></rect>
                    </g>
                    <g id="SemiDetached-Copy-8" transform="translate(37.875000, 8.000000)">
                        <rect id="Rectangle-1" stroke="#40A4F4" stroke-width="2" fill="#FFFFFF" x="0" y="-7.92828129e-15" width="36" height="49"></rect>
                        <rect id="Rectangle-209" fill="#40A4F4" x="4" y="32" width="10" height="11"></rect>
                        <rect id="Door" fill="#2277BB" x="20" y="31" width="11" height="17"></rect>
                        <rect id="Rectangle-209-Copy-3" fill="#40A4F4" x="21" y="15" width="10" height="11"></rect>
                        <rect id="Rectangle-209-Copy-5" fill="#40A4F4" x="4" y="15" width="10" height="11"></rect>
                    </g>
                    <path d="M1,2 L40.2823924,2 L40.2823924,18 L17.7024611,18 L11.4529344,9.59705716 L4.7350496,18 L0,18 L1,2 Z" id="Path-Copy-11" stroke="#40A4F4" stroke-width="2" fill="#FFFFFF"></path>
                    <path d="M38.7696563,2 L75,2 L75,18 L55.4200687,18 L49.1705419,9.59705716 L42.4526572,18 L37.7176076,18 L38.7696563,2 Z" id="Path-Copy-12" stroke="#40A4F4" stroke-width="2" fill="#FFFFFF" transform="translate(56.358804, 10.000000) scale(-1, 1) translate(-56.358804, -10.000000) "></path>
                    <rect id="Chimney-Copy-9" stroke="#FFFFFF" fill="#40A4F4" x="5.375" y="0.5" width="5" height="7"></rect>
                    <rect id="Chimney-Copy-10" stroke="#FFFFFF" fill="#40A4F4" x="65.375" y="0.5" width="5" height="7"></rect>
                </g>
            </g>
        </g>
    </g>
</svg>