<?xml version="1.0" encoding="UTF-8" standalone="no"?>
<svg width="99px" height="60px" viewBox="0 0 99 60" version="1.1" xmlns="http://www.w3.org/2000/svg" xmlns:xlink="http://www.w3.org/1999/xlink" xmlns:sketch="http://www.bohemiancoding.com/sketch/ns">
    <!-- Generator: Sketch 3.3.2 (12043) - http://www.bohemiancoding.com/sketch -->
    <title>detached</title>
    <desc>Created with Sketch.</desc>
    <defs>
        <path id="path-1" d="M46.7105641,0.848857645 L45.875,0 L45.0394359,0.848857645 L26.875,19.3022847 L28.5461281,21 L45.8718631,3.28523186 L63.2038719,21 L64.875,19.3022847 L46.7105641,0.848857645 Z"></path>
        <path id="path-2" d="M46.7105641,0.848857645 L45.875,0 L45.0394359,0.848857645 L26.875,19.3022847 L28.5461281,21 L45.8718631,3.28523186 L63.2038719,21 L64.875,19.3022847 L46.7105641,0.848857645 Z"></path>
    </defs>
    <g id="Page-1" stroke="none" stroke-width="1" fill="none" fill-rule="evenodd" sketch:type="MSPage">
        <g id="Artboard-9-Copy-3" sketch:type="MSArtboardGroup" transform="translate(-23.000000, -507.000000)">
            <g id="detached-roundel" sketch:type="MSLayerGroup" transform="translate(19.000000, 471.000000)">
                <g id="detached" transform="translate(5.125000, 39.000000)">
                    <g id="Rectangle-209-+-Rectangle-209-Copy-2-+-Rectangle-209-Copy-Copy-Copy-Copy-Copy-Copy-Copy-Copy-Copy-Copy-Copy-Copy" transform="translate(71.284553, 25.293333)" fill="#FAFAFA" sketch:type="MSShapeGroup">
                        <path d="M0.91791015,0.202480539 L15.6629212,0.202480539 L15.6629212,12.0808805 L0.91791015,12.0808805 L0.91791015,0.202480539 Z M1.90091089,1.19234721 L14.6799205,1.19234721 L14.6799205,10.1011472 L1.90091089,10.1011472 L1.90091089,1.19234721 Z" id="Rectangle-209"></path>
                        <rect id="Rectangle-209-Copy" x="0.42640978" y="10.5960805" width="15.7280118" height="1.4848"></rect>
                    </g>
                    <g id="Rectangle-209-+-Rectangle-209-Copy-2-+-Rectangle-209-Copy-Copy-Copy-Copy-Copy-Copy-Copy-Copy-Copy-Copy-Copy-Copy-Copy" transform="translate(71.284553, 41.533333)" fill="#FAFAFA" sketch:type="MSShapeGroup">
                        <path d="M0.91791015,0.202480539 L15.6629212,0.202480539 L15.6629212,12.0808805 L0.91791015,12.0808805 L0.91791015,0.202480539 Z M1.90091089,1.19234721 L14.6799205,1.19234721 L14.6799205,10.1011472 L1.90091089,10.1011472 L1.90091089,1.19234721 Z" id="Rectangle-209"></path>
                        <rect id="Rectangle-209-Copy" x="0.42640978" y="10.5960805" width="15.7280118" height="1.4848"></rect>
                    </g>
                    <rect id="Rectangle-219-Copy-16" fill="#FAFAFA" sketch:type="MSShapeGroup" x="72.8196936" y="30.1925275" width="6.97036888" height="1.02827839"></rect>
                    <rect id="Rectangle-219-Copy-17" fill="#FAFAFA" sketch:type="MSShapeGroup" x="72.8196936" y="46.4325275" width="6.97036888" height="1.02827839"></rect>
                    <path d="M24.875,54 L29.875,54 L29.875,26 L3.875,26 L3.875,54 L8.93382353,54 L8.93382353,43 L24.875,43 L24.875,54 Z" id="Rectangle-2818-Copy-3" stroke="#3FA158" stroke-width="2" fill="#FFFFFF" sketch:type="MSShapeGroup"></path>
                    <path d="M30.9333226,26 L2.92877998,26 L0.875,38 L4.41345842,38 L27.4591002,38 L32.875,38 L30.9333226,26 Z" id="Path-Copy-7" stroke="#3FA158" stroke-width="2" fill="#FFFFFF" sketch:type="MSShapeGroup"></path>
                    <path d="M29.875,15 L62.3014716,15.0000002 L92.875,15 L92.875,54 L29.875,54 L29.875,15 Z" id="Rectangle-1-Copy-4" stroke="#3FA158" stroke-width="2" fill="#FFFFFF" sketch:type="MSShapeGroup"></path>
                    <path d="M94.1316174,2 L30.7190367,2 L28.875,18 L37.4782562,18 L47.9736423,9.59705716 L59.2555835,18 L95.875,18 L94.1316174,2 Z" id="Path-Copy-8" stroke="#3FA158" stroke-width="2" fill="#FFFFFF" sketch:type="MSShapeGroup"></path>
                    <path d="M30,16.4418603 L45.9558829,2 L61,16.4418603 L61,56 L30,56 L30,16.4418603 Z" id="Rectangle-1-Copy-5" stroke="#3FA158" stroke-width="2" fill="#FFFFFF" sketch:type="MSShapeGroup"></path>
                    <path d="M40,40.3357468 L45.4050002,35 L50.8100004,40.3357468 L50.8100004,54.8799992 L40,54.8799992 L40,40.3357468 Z" id="Rectangle-218-Copy-2" fill="#306D22" sketch:type="MSShapeGroup"></path>
                    <rect id="Rectangle-209" fill="#3FA158" sketch:type="MSShapeGroup" x="71.875" y="23" width="15" height="11"></rect>
                    <rect id="Rectangle-209-Copy-7" fill="#3FA158" sketch:type="MSShapeGroup" x="71.875" y="38" width="15" height="11"></rect>
                    <rect id="Rectangle-209" fill="#3FA158" sketch:type="MSShapeGroup" x="40.875" y="17" width="10" height="12"></rect>
                    <g id="Shape-Copy-3">
                        <use stroke="none" fill="#3FA158" fill-rule="evenodd" sketch:type="MSShapeGroup" xlink:href="#path-1"></use>
                        <use stroke="#3FA158" stroke-width="3" fill="none" xlink:href="#path-1"></use>
                    </g>
                    <g id="Shape-Copy-6">
                        <use fill="#FFFFFF" fill-rule="evenodd" sketch:type="MSShapeGroup" xlink:href="#path-2"></use>
                        <use fill="none" xlink:href="#path-2"></use>
                    </g>
                    <path d="M46.1868289,33.9987156 L45.8981177,33.6861204 L45.1829268,32.9117643 L44.4677359,33.6861204 L44.1790248,33.9987156 L37.9026953,40.7942633 L37.2926185,41.4548096 L37.9026953,42.1153559 L38.4801176,42.7405463 L39.1976081,43.5173921 L39.9126092,42.7382545 L45.8991437,36.2147209 L44.4646609,36.2148502 L50.4533632,42.7383839 L51.1683754,43.5172516 L51.8857361,42.7405463 L52.4631584,42.1153559 L53.0732352,41.4548096 L52.4631584,40.7942633 L46.1868289,33.9987156 L46.1868289,33.9987156 Z M44.7564471,35.3198081 L51.0327766,42.1153559 L51.7479675,41.4548096 L51.0327766,40.7942633 L50.4553543,41.4194537 L51.1705452,42.08 L51.8877272,41.4216161 L45.8990249,34.8980824 L45.1817131,34.1167098 L44.4645422,34.8982118 L38.4780078,41.4217455 L39.1953085,42.08 L39.9104994,41.4194537 L39.3330771,40.7942633 L38.6178862,41.4548096 L39.3330771,42.1153559 L45.6094066,35.3198081 L45.8981177,35.0072129 L45.1829268,34.3466667 L44.4677359,35.0072129 L44.7564471,35.3198081 L44.7564471,35.3198081 Z" id="Shape" fill="#3FA158" sketch:type="MSShapeGroup"></path>
                </g>
            </g>
        </g>
    </g>
</svg>