<svg xmlns="http://www.w3.org/2000/svg" viewBox="0 0 113 207.46"><defs><style>.cls-1{fill:#333;}.cls-2{fill:#d3f0f4;}.cls-3{fill:#e5a133;}</style></defs><title>Asset 1</title><g id="Layer_2" data-name="Layer 2"><g id="Layer_1-2" data-name="Layer 1"><rect class="cls-1" y="197.14" width="113" height="10.32"/><rect class="cls-1" width="113" height="10.32"/><path class="cls-2" d="M61.63,111.39h0c-3.07-1-4-6.71-4-7.64s1.07-7.23,4-7.66H61.5c26.15-4.2,46.6-41,46.6-85.77H4.9c0,44.78,20.45,81.57,46.6,85.77h-.16c3.07,1,4,6.82,4,7.64s-1.07,7.23-4,7.66h0c-26.09,4.3-46.47,41-46.47,85.75H108.1C108.1,152.44,87.72,115.69,61.63,111.39Z"/><path class="cls-3" d="M108.1,197.14H4.9q0-5.31.38-10.44c23.47-18.84,45.44-13.87,48-18s2.06-65,2.06-65c0-.82-.9-6.65-4-7.64h.16c-18-2.89-33.29-21.21-41.08-47,0,0,38.62,5.89,92.16,0C94.79,74.88,79.5,93.2,61.5,96.09h.16c-2.91.43-4,6.72-4,7.65,0,0-2.93,62.7,0,65.59s27.36-.68,50,17.37Q108.1,191.83,108.1,197.14Z"/></g></g></svg>