<?xml version="1.0" encoding="utf-8"?>
<!-- Generator: Adobe Illustrator 21.0.0, SVG Export Plug-In . SVG Version: 6.00 Build 0)  -->
<svg version="1.1" id="Layer_1" xmlns="http://www.w3.org/2000/svg" xmlns:xlink="http://www.w3.org/1999/xlink" x="0px" y="0px"
	 viewBox="0 0 276 326" style="enable-background:new 0 0 276 326;" xml:space="preserve">
<style type="text/css">
	.st0{fill:#BC9479;}
	.st1{fill:#333333;}
	.st2{fill:none;stroke:#8D6F5B;stroke-width:3;stroke-linecap:round;stroke-linejoin:round;stroke-miterlimit:10;}
	.st3{fill:none;stroke:#8D6F5B;stroke-width:2;stroke-linecap:round;stroke-linejoin:round;stroke-miterlimit:10;}
</style>
<g>
	<path class="st0" d="M233,99.5c0,0,13.8,41.5,12.9,47.6c0,4.3-11.2,2.2-13,4.3c-5.2,6-0.9,10.4-0.9,10.4s14.7,31.2,5.1,54.5
		c-5.2,6-15.6,0.8-15.6,0.8s-2.5,10.9-6.1,25.7c0,0,2.2,7.3,1.8,8.9c-0.3,1.2-15.6-3.5-13.8-2.6c1.7,0.9,10.9,6,10.6,7.4
		c-0.3,1.2-2.4,1.6-2.7,2.8c-2.4,9.1-5,18.7-7.6,27.4c-2,6.8-1.6,12.2-3.9,17.5c-2,4.8-5.2,9.7-8.6,12.3
		c-14.7,7.8-45-26.1-58.9-13.9c-13.5,11.8-24.6,20.4-29.3,21.5c-143-1.8-92-42-92-42l50.6-73.9l73.7-90.7l55.4-37.1l38.9,8.7
		L233,99.5z"/>
	<path class="st1" d="M61.6,208.2L88.7,3.3l31.1,28.6l17.3-30.2l23.3,31.2L180.4,6L202,40.6l25.1-28.5l17.2,38.9l23.4-25
		c18.1,15.6,5.1,63.1-34.7,73.5c-12.1-6.1-36.3-9.6-36.3-9.6s-13.9,45-14.8,72.6c-6.9-3.5-24.2,5.1-24.2,5.1l5.5-27.8
		c-1.1-15.5-19.4-22.5-26.2-12.9c-14.7,20.7-5.3,53.6-5.3,53.6c-8.7,21.6-26.8,23.3-41.5,13.8C75.4,197.8,61.6,208.2,61.6,208.2z"/>
	<path class="st1" d="M191.1,316.5c-6.7,3.5-16.6-1.5-26.8-7c7.3-14.4,19.1-58.5,23-60.9c4.8-3-4.8,29-5.2,36.3
		c-0.5,8,10.4,20.3,20.1,7.9c-0.7,4.1-0.9,7.7-2.5,11.4C197.7,309,194.6,313.9,191.1,316.5z"/>
	<path class="st2" d="M206.2,131.5c0,0,19,0.9,28.5,7.8"/>
	<path class="st1" d="M219.3,162.5c-1.8,4-4.6,6.4-6.3,5.5s-1.6-4.9,0.2-8.9c1.8-4,4.6-6.4,6.3-5.5S221.2,158.6,219.3,162.5z"/>
	<path class="st3" d="M153.4,150.4c3.5-11.2-5.2-15.6-5.2-15.6s-19.9,22.5-0.9,45"/>
	<path class="st3" d="M134.7,185.4c2.6,3.5,7.8,6.1,7.8,6.1"/>
</g>
</svg>
