<?xml version="1.0" encoding="utf-8"?>
<!-- Generator: Adobe Illustrator 21.0.0, SVG Export Plug-In . SVG Version: 6.00 Build 0)  -->
<svg version="1.1" id="Layer_1" xmlns="http://www.w3.org/2000/svg" xmlns:xlink="http://www.w3.org/1999/xlink" x="0px" y="0px"
	 viewBox="0 0 272 404" style="enable-background:new 0 0 272 404;" xml:space="preserve">
<style type="text/css">
	.st0{fill:#F5BFB5;}
	.st1{fill:#333333;}
	.st2{fill:#B88F88;}
	.st3{fill:none;stroke:#B88F88;stroke-width:2;stroke-linecap:round;stroke-linejoin:round;stroke-miterlimit:10;}
</style>
<g>
	<path class="st0" d="M108.3,320.8l9.9-22.9l86.9-127.2L122.5,47.1L71.2,36.2l-28.3,53c0,0-0.5,3.6,0.1,5.7c1.9,6.1,9,6.5-7.5,23.1
		c-13.1,13.2-35.4,34.6-32.5,39.1s19.1,11.4,19.1,11.4s-6.8,15.8-8.7,17.7c5.6,3.8,12.1,7.3,12.1,7.3L11,192.3c0,0-5.3,12-5.9,14
		c-3.6,12.6-5.3,24.2-1.7,27.7c9,8.7,70.9,21,70.9,21l-38.7,71.2L108.3,320.8z"/>
	<path class="st1" d="M54.2,111.9c0.9-4.6,3.2-7.9,5.2-7.3c2,0.5,2.9,4.7,2.1,9.3c-0.9,4.6-3.2,7.9-5.2,7.3
		C54.3,120.6,53.3,116.5,54.2,111.9z"/>
	<g>
		<path class="st2" d="M48.5,96.8c0.5-1,1.3-1.8,2.3-2.4c1-0.5,2.2-0.9,3.3-0.9c2.3-0.2,4.4,0.7,6.4,1.6c0.9,0.5,1.9,1,2.8,1.6
			c0.9,0.6,1.8,1.1,2.6,1.8c0.8,0.7,1.7,1.3,2.4,2l2.3,2.2c0,0,0,0.1,0,0.1c0,0-0.1,0-0.1,0l0,0l-2.5-1.8c-0.8-0.6-1.7-1.1-2.6-1.7
			c-0.8-0.6-1.8-1-2.7-1.5c-0.9-0.5-1.8-0.8-2.8-1.2c-1.9-0.7-3.8-1-5.7-1.1c-1.9-0.1-3.8,0.2-5.5,1.4l0,0
			C48.6,97,48.6,97,48.5,96.8C48.5,96.9,48.5,96.9,48.5,96.8z"/>
	</g>
	<path class="st3" d="M153.1,194.5c0,0,9.2-0.5,14.6-5.8c5.4-5.3,6.9-15.3-7.5-15.9"/>
	<path class="st1" d="M267.7,106.7C253.4,51.6,189.3-4.1,127.8,1.4c-98.2,8.8-84.9,87.8-84.9,87.8c25.6-37.4,48.4-37.4,58.7-34.8
		c-1,11.9-0.6,34.3,9.2,66.1c-2.2-17.1-1.9-30.6-0.8-40.6c0.8,5.9,1.9,12.4,3.2,19l0,0c1.4,7.3,2.1,14,2.3,20.4
		c0.1,34.8-37.1,91.6-64.9,114.1c25.7-10.3,51-42.6,64.4-74.6c0.2,14.9,1.9,32.4,8.3,56.1c-1.5-14.6-2.2-50,2.9-75.9
		c1,1.5,2,2.7,3.1,3.8c16,14.9,43,15.3,51.6,28.7c8.6,13.3-13.8,35.6-27.1,33.1c-13.3-2.5-21.7,52.4,2.8,40.8
		c27-12.8,45.8-22.7,60.7-41.7c-5.8,10.9-11.8,23-16.1,33.3c7.2-8.4,15.5-21,21.9-31.3c-6,13.8-15,31.5-25.5,44.3
		c9.3-5,17.8-18.5,23.7-30c-3.9,11.4-8.6,23.7-14.1,36.5c-1.7,2.1-3.4,4.1-5.2,6c1.1-0.5,2.3-1.2,3.4-1.9c-0.7,1.7-1.5,3.4-2.3,5.1
		c-6.7,11.8-22.4,37.5-39.7,53.1c7.6-2.7,15.5-10.5,22.2-18.6c-5.5,9.8-11.5,19.6-18,29.2c-2.2,2.5-4.4,4.8-6.7,7
		c0.9-0.4,1.8-0.8,2.8-1.3c-13.8,19.7-29.7,38.2-47.6,53.8l47,13.7C242.4,285.6,281.3,158.8,267.7,106.7z"/>
</g>
</svg>
