<?xml version="1.0" encoding="utf-8"?>
<!-- Generator: Adobe Illustrator 21.0.0, SVG Export Plug-In . SVG Version: 6.00 Build 0)  -->
<svg version="1.1" id="Layer_1" xmlns="http://www.w3.org/2000/svg" xmlns:xlink="http://www.w3.org/1999/xlink" x="0px" y="0px"
	 viewBox="0 0 331 392" style="enable-background:new 0 0 331 392;" xml:space="preserve">
<style type="text/css">
	.st0{fill:#F5BFB5;}
	.st1{fill:#333333;}
	.st2{fill:#B88F88;}
	.st3{fill:none;stroke:#B88F88;stroke-width:2;stroke-linecap:round;stroke-linejoin:round;stroke-miterlimit:10;}
</style>
<g>
	<path class="st0" d="M228,333.2l-5.3-27.2l-0.1-170.8l-153-61.3L15.9,96l7.3,66.2c0,0,1.8,3.6,3.7,5.1c5.6,4.4,12.3,0.4,7.7,25.8
		c-3.7,20.3-10.7,53.8-5.3,56.1s24.6-1.5,24.6-1.5s3.7,18.7,3.1,21.7c7.5,0,15.6-0.9,15.6-0.9l-14,7.9c0,0,2.7,14.3,3.4,16.5
		c4.6,13.7,10.3,25.5,15.8,26.4c13.7,2.3,78-25.2,78-25.2l9.1,89.4L228,333.2z"/>
	<path class="st1" d="M47.7,175.9c-2.1-4.7-2-9.2,0.1-9.9c2.2-0.7,5.6,2.5,7.7,7.2c2.1,4.7,2,9.2-0.1,9.9
		C53.2,183.9,49.8,180.7,47.7,175.9z"/>
	<g>
		<path class="st2" d="M33.1,165.7c-0.2-1.2,0.1-2.5,0.7-3.6c0.6-1.1,1.4-2.1,2.4-2.8c2-1.6,4.5-2.1,6.8-2.5
			c0.6-0.1,1.2-0.1,1.8-0.2c0.6-0.1,1.2-0.1,1.8-0.1h1.8h0.9l0.9,0.1c1.2,0.1,2.3,0.1,3.5,0.3l3.4,0.5c0.1,0,0.1,0.1,0.1,0.1
			c0,0.1-0.1,0.1-0.1,0.1l0,0l-3.5-0.1c-1.1-0.1-2.3,0-3.4,0.1h-0.9l-0.9,0.1l-1.7,0.2c-0.6,0-1.1,0.2-1.7,0.3
			c-0.6,0.1-1.1,0.2-1.7,0.3c-2.2,0.6-4.2,1.5-5.9,2.6c-1.8,1.1-3.3,2.6-4.1,4.8l0,0C33.3,165.8,33.2,165.8,33.1,165.7
			C33.1,165.8,33.1,165.8,33.1,165.7z"/>
	</g>
	<path class="st3" d="M189.9,189.6c0,0,8.1-6.2,9.7-14.4c1.6-8.2-3.3-18.3-16.8-9.8"/>
	<path class="st1" d="M239.8,37.5C192.2-3.9,98.7-14.8,45.9,28.8c-84.3,69.5-22.7,133.4-22.7,133.4c0-50.2,20.9-64.5,31.9-68.6
		c6.6,11.5,20.9,31.7,49.8,54.7C92.2,134,84,121.6,78.7,111.7c4.5,4.9,9.5,10.2,14.8,15.4l0,0c5.9,5.8,10.6,11.5,14.9,17.3
		c21.9,31.8,23.3,107,12,145.1c17.1-25.5,20-71,12.3-108.6c9.5,13.5,22.1,28.5,42.7,46.2c-10.5-12.5-33.3-44.3-44.8-71.3
		c1.8,0.7,3.6,1.3,5.2,1.5c23.9,3.6,48.9-12.9,65.2-6.1c16.2,6.8,9.7,41.2-4.1,47.2S209.8,260,225,234
		c16.8-28.6,27.7-49.5,29.5-76.1c1.6,13.6,3.6,28.4,6.1,40.5c1.4-12.2,1.1-29,0.4-42.4c3.1,16.4,6,38.2,4.4,56.5
		c5.3-10.4,4.7-28.1,2.9-42.3c3.6,12.8,7,27,9.9,42.2c-0.2,3-0.6,5.9-1,8.7c0.7-1.2,1.4-2.5,1.9-3.9c0.4,2,0.7,4,1.1,6.1
		c1.2,15,3,48.4-3.1,73.4c5.2-7.3,7.6-19.3,8.6-30.9c1.1,12.4,1.7,25.1,1.8,37.9c-0.5,3.6-1,7.2-1.7,10.5c0.6-0.9,1.2-1.9,1.7-2.9
		c-0.3,26.6-3.3,53.5-9.9,79.1l51.6-16.9C328.7,217.1,284.8,76.7,239.8,37.5z"/>
</g>
</svg>
