<?xml version="1.0" encoding="utf-8"?>
<!-- Generator: Adobe Illustrator 21.0.0, SVG Export Plug-In . SVG Version: 6.00 Build 0)  -->
<svg version="1.1" id="Layer_1" xmlns="http://www.w3.org/2000/svg" xmlns:xlink="http://www.w3.org/1999/xlink" x="0px" y="0px"
	 viewBox="0 0 302 353" style="enable-background:new 0 0 302 353;" xml:space="preserve">
<style type="text/css">
	.st0{fill:#BC9479;}
	.st1{fill:#333333;}
	.st2{fill:none;stroke:#8D6F5B;stroke-width:3;stroke-linecap:round;stroke-linejoin:round;stroke-miterlimit:10;}
	.st3{fill:none;stroke:#8D6F5B;stroke-width:2;stroke-linecap:round;stroke-linejoin:round;stroke-miterlimit:10;}
</style>
<g>
	<path class="st0" d="M254.1,106.5c0,0,15.1,45.5,14.1,52.2c0,4.7-12.3,2.4-14.2,4.7c-5.7,6.6-1,11.4-1,11.4s16.1,34.2,5.6,59.7
		c-5.7,6.6-17.1,0.9-17.1,0.9s-2.7,12-6.7,28.1c0,0,2.4,8,1.9,9.8c-0.3,1.3-17.1-3.8-15.2-2.9c1.9,1,12,6.5,11.6,8.1
		c-0.3,1.3-2.6,1.7-2.9,3c-2.6,10-5.5,20.5-8.4,30c-2.2,7.4-1.8,13.4-4.2,19.2c-2.2,5.2-5.7,10.6-9.5,13.5
		c-16.1,8.5-49.3-28.6-64.6-15.2c-14.8,12.9-26.9,22.3-32.1,23.6c-156.7-2-100.8-46.1-100.8-46.1l55.5-81l80.7-99.4l60.7-40.7
		l42.6,9.6L254.1,106.5z"/>
	<path class="st1" d="M66.2,225.7L96,1l34.1,31.3l19-33.2l25.5,34.2L196.5,4l23.6,38l27.5-31.2l18.9,42.7L292.2,26
		c19.9,17.1,5.6,69.2-38.1,80.5C240.9,99.9,214.3,96,214.3,96s-15.2,49.3-16.2,79.6c-7.6-3.8-26.6,5.6-26.6,5.6l6-30.5
		c-1.2-16.9-21.2-24.6-28.7-14.1c-16.2,22.7-5.8,58.8-5.8,58.8c-9.5,23.7-29.4,25.5-45.5,15.1C81.4,214.3,66.2,225.7,66.2,225.7z"/>
	<path class="st1" d="M208.2,344.4c-7.4,3.9-18.2-1.7-29.3-7.7c8-15.8,20.9-64.1,25.2-66.8c5.2-3.3-5.3,31.8-5.8,39.8
		c-0.5,8.8,11.4,22.3,22.1,8.7c-0.7,4.5-1,8.5-2.7,12.4C215.5,336.2,212,341.6,208.2,344.4z"/>
	<path class="st2" d="M224.7,141.5c0,0,20.9,1,31.3,8.6"/>
	<path class="st1" d="M239.2,175.6c-2,4.4-5.1,7.1-6.9,6c-1.9-1-1.7-5.4,0.2-9.8c2-4.4,5.1-7.1,6.9-6
		C241.2,166.9,241.1,171.3,239.2,175.6z"/>
	<path class="st3" d="M166.8,162.3c3.8-12.3-5.7-17.1-5.7-17.1s-21.8,24.6-1,49.3"/>
	<path class="st3" d="M146.4,200.7c2.8,3.8,8.5,6.7,8.5,6.7"/>
</g>
</svg>
